<svg width="229" height="65" viewBox="0 0 229 65" fill="none" xmlns="http://www.w3.org/2000/svg">
<g filter="url(#filter0_d_2_5)">
<mask id="path-1-outside-1_2_5" maskUnits="userSpaceOnUse" x="4.24796" y="15.0079" width="221" height="41" fill="black">
<rect fill="white" x="4.24796" y="15.0079" width="221" height="41"/>
<path d="M11.7356 45.0079C11.0589 45.0079 10.5806 44.8679 10.3006 44.5879C10.0439 44.3079 9.91555 43.8645 9.91555 43.2579V22.9579C9.91555 22.3512 10.0556 21.9079 10.3356 21.6279C10.6156 21.3479 11.0939 21.2079 11.7706 21.2079H15.0956C15.5622 21.2079 15.9239 21.2662 16.1806 21.3829C16.4606 21.4995 16.6706 21.7329 16.8106 22.0829L21.8856 34.3329L26.9956 22.0829C27.1356 21.7329 27.3339 21.4995 27.5906 21.3829C27.8706 21.2662 28.2439 21.2079 28.7106 21.2079H32.0356C32.7122 21.2079 33.1906 21.3479 33.4706 21.6279C33.7506 21.9079 33.8906 22.3512 33.8906 22.9579V43.2579C33.8906 43.8645 33.7506 44.3079 33.4706 44.5879C33.2139 44.8679 32.7472 45.0079 32.0706 45.0079H29.3056C28.6289 45.0079 28.1506 44.8679 27.8706 44.5879C27.5906 44.3079 27.4506 43.8645 27.4506 43.2579V31.8829L24.0556 39.4779C23.8222 40.0612 23.5656 40.4812 23.2856 40.7379C23.0056 40.9712 22.5389 41.0879 21.8856 41.0879C21.2556 41.0879 20.8006 40.9712 20.5206 40.7379C20.2406 40.4812 19.9722 40.0612 19.7156 39.4779L16.3556 31.8829V43.2579C16.3556 43.8645 16.2156 44.3079 15.9356 44.5879C15.6556 44.8679 15.1772 45.0079 14.5006 45.0079H11.7356ZM46.4025 45.5329C44.4425 45.5329 42.6925 45.2062 41.1525 44.5529C39.6358 43.8995 38.4342 42.9195 37.5475 41.6129C36.6608 40.3062 36.2175 38.7079 36.2175 36.8179C36.2175 33.8545 37.0575 31.5912 38.7375 30.0279C40.4175 28.4645 42.8325 27.6829 45.9825 27.6829C49.0625 27.6829 51.3958 28.4529 52.9825 29.9929C54.5925 31.5095 55.3975 33.6212 55.3975 36.3279C55.3975 37.4945 54.8842 38.0779 53.8575 38.0779H42.8675C42.8675 39.0812 43.2408 39.8512 43.9875 40.3879C44.7575 40.9245 45.9125 41.1929 47.4525 41.1929C48.4092 41.1929 49.2025 41.1112 49.8325 40.9479C50.4858 40.7612 51.1392 40.4929 51.7925 40.1429C52.0725 40.0262 52.2592 39.9679 52.3525 39.9679C52.5625 39.9679 52.7375 40.1079 52.8775 40.3879L54.0675 42.6279C54.1842 42.8612 54.2425 43.0362 54.2425 43.1529C54.2425 43.3629 54.1025 43.5612 53.8225 43.7479C52.8658 44.3779 51.7808 44.8329 50.5675 45.1129C49.3542 45.3929 47.9658 45.5329 46.4025 45.5329ZM49.0975 34.6129C49.0975 33.7262 48.8408 33.0379 48.3275 32.5479C47.8142 32.0579 47.0442 31.8129 46.0175 31.8129C44.9908 31.8129 44.2092 32.0695 43.6725 32.5829C43.1358 33.0729 42.8675 33.7495 42.8675 34.6129H49.0975ZM59.5538 45.0079C58.8771 45.0079 58.3988 44.8679 58.1188 44.5879C57.8388 44.3079 57.6988 43.8645 57.6988 43.2579V29.2929C57.6988 28.8729 57.7688 28.5929 57.9088 28.4529C58.0721 28.2895 58.3988 28.2079 58.8888 28.2079H62.4938C62.7738 28.2079 62.9838 28.2545 63.1238 28.3479C63.2871 28.4179 63.3804 28.5579 63.4038 28.7679L63.5788 29.7829C64.9788 28.3829 66.6704 27.6829 68.6538 27.6829C69.4238 27.6829 70.0538 27.7529 70.5438 27.8929C71.0338 28.0095 71.4771 28.2079 71.8738 28.4879C72.1071 28.6512 72.2238 28.8379 72.2238 29.0479C72.2238 29.1179 72.2004 29.2462 72.1538 29.4329L71.0338 32.6179C70.9404 32.9445 70.7654 33.1079 70.5088 33.1079C70.3921 33.1079 70.2521 33.0612 70.0888 32.9679C69.4588 32.6179 68.7004 32.4429 67.8138 32.4429C66.9271 32.4429 66.1921 32.6879 65.6088 33.1779C65.0488 33.6679 64.7688 34.3212 64.7688 35.1379V43.2579C64.7688 43.8645 64.6288 44.3079 64.3488 44.5879C64.0921 44.8679 63.6254 45.0079 62.9488 45.0079H59.5538ZM83.0366 50.9579C81.6366 50.9579 80.2016 50.7945 78.7316 50.4679C77.2849 50.1645 76.2116 49.7679 75.5116 49.2779C75.3482 49.1379 75.2666 48.9862 75.2666 48.8229C75.2666 48.7062 75.3016 48.5895 75.3716 48.4729L76.8766 45.7079C76.9466 45.5912 77.0166 45.4862 77.0866 45.3929C77.1799 45.3229 77.2732 45.2879 77.3666 45.2879C77.4132 45.2879 77.5532 45.3345 77.7866 45.4279C78.8832 45.9879 80.3999 46.2679 82.3366 46.2679C83.4332 46.2679 84.2616 46.0345 84.8216 45.5679C85.3816 45.1012 85.6616 44.3429 85.6616 43.2929C85.1949 43.6195 84.6116 43.8879 83.9116 44.0979C83.2116 44.2845 82.4649 44.3779 81.6716 44.3779C78.8949 44.3779 76.7716 43.6895 75.3016 42.3129C73.8549 40.9362 73.1316 38.9412 73.1316 36.3279C73.1316 33.4812 74.0182 31.3345 75.7916 29.8879C77.5649 28.4179 80.1899 27.6829 83.6666 27.6829C85.4166 27.6829 87.0849 27.9279 88.6716 28.4179C90.2582 28.9079 91.5766 29.5262 92.6266 30.2729V41.4379C92.6266 44.2845 91.8099 46.5829 90.1766 48.3329C88.5432 50.0829 86.1632 50.9579 83.0366 50.9579ZM83.2116 39.4429C84.8916 39.4429 85.7316 38.6379 85.7316 37.0279V32.7929C85.2416 32.5829 84.4249 32.4779 83.2816 32.4779C82.2549 32.4779 81.4732 32.7345 80.9366 33.2479C80.4232 33.7612 80.1666 34.6829 80.1666 36.0129C80.1666 37.2029 80.4116 38.0779 80.9016 38.6379C81.3916 39.1745 82.1616 39.4429 83.2116 39.4429ZM105.123 45.5329C103.163 45.5329 101.413 45.2062 99.8732 44.5529C98.3565 43.8995 97.1549 42.9195 96.2682 41.6129C95.3815 40.3062 94.9382 38.7079 94.9382 36.8179C94.9382 33.8545 95.7782 31.5912 97.4582 30.0279C99.1382 28.4645 101.553 27.6829 104.703 27.6829C107.783 27.6829 110.117 28.4529 111.703 29.9929C113.313 31.5095 114.118 33.6212 114.118 36.3279C114.118 37.4945 113.605 38.0779 112.578 38.0779H101.588C101.588 39.0812 101.962 39.8512 102.708 40.3879C103.478 40.9245 104.633 41.1929 106.173 41.1929C107.13 41.1929 107.923 41.1112 108.553 40.9479C109.207 40.7612 109.86 40.4929 110.513 40.1429C110.793 40.0262 110.98 39.9679 111.073 39.9679C111.283 39.9679 111.458 40.1079 111.598 40.3879L112.788 42.6279C112.905 42.8612 112.963 43.0362 112.963 43.1529C112.963 43.3629 112.823 43.5612 112.543 43.7479C111.587 44.3779 110.502 44.8329 109.288 45.1129C108.075 45.3929 106.687 45.5329 105.123 45.5329ZM107.818 34.6129C107.818 33.7262 107.562 33.0379 107.048 32.5479C106.535 32.0579 105.765 31.8129 104.738 31.8129C103.712 31.8129 102.93 32.0695 102.393 32.5829C101.857 33.0729 101.588 33.7495 101.588 34.6129H107.818ZM140.362 45.5329C136.209 45.5329 132.989 44.4829 130.702 42.3829C128.416 40.2595 127.272 37.1679 127.272 33.1079C127.272 29.0245 128.381 25.9329 130.597 23.8329C132.837 21.7329 136.022 20.6829 140.152 20.6829C141.949 20.6829 143.571 20.8695 145.017 21.2429C146.464 21.5929 147.677 22.0945 148.657 22.7479C148.914 22.9112 149.042 23.1212 149.042 23.3779C149.042 23.5412 148.961 23.7862 148.797 24.1129L147.292 26.6679C147.152 26.9712 146.966 27.1229 146.732 27.1229C146.592 27.1229 146.359 27.0412 146.032 26.8779C144.632 26.1079 142.987 25.7229 141.097 25.7229C138.927 25.7229 137.247 26.3529 136.057 27.6129C134.891 28.8495 134.307 30.6812 134.307 33.1079C134.307 35.5345 134.937 37.3779 136.197 38.6379C137.457 39.8979 139.172 40.5279 141.342 40.5279C143.256 40.5279 144.947 40.1429 146.417 39.3729C146.744 39.2095 146.977 39.1279 147.117 39.1279C147.327 39.1279 147.514 39.2679 147.677 39.5479L149.252 42.2429C149.392 42.4762 149.462 42.6862 149.462 42.8729C149.462 43.0829 149.322 43.2929 149.042 43.5029C147.082 44.8562 144.189 45.5329 140.362 45.5329ZM153.547 45.0079C152.87 45.0079 152.392 44.8679 152.112 44.5879C151.855 44.3079 151.727 43.8645 151.727 43.2579V22.9929C151.727 22.3862 151.867 21.9429 152.147 21.6629C152.427 21.3595 152.894 21.2079 153.547 21.2079H162.122C165.389 21.2079 167.792 21.8962 169.332 23.2729C170.872 24.6495 171.642 26.7029 171.642 29.4329C171.642 32.1395 170.872 34.1812 169.332 35.5579C167.815 36.9112 165.412 37.5879 162.122 37.5879H158.797V43.2579C158.797 43.8645 158.657 44.3079 158.377 44.5879C158.097 44.8679 157.619 45.0079 156.942 45.0079H153.547ZM161.562 32.5129C162.519 32.5129 163.254 32.2562 163.767 31.7429C164.304 31.2295 164.572 30.4595 164.572 29.4329C164.572 28.3829 164.304 27.6012 163.767 27.0879C163.254 26.5745 162.519 26.3179 161.562 26.3179H158.797V32.5129H161.562ZM182.218 45.5329C180.421 45.5329 178.706 45.3229 177.073 44.9029C175.439 44.4829 174.098 43.9112 173.048 43.1879C172.791 43.0245 172.663 42.8145 172.663 42.5579C172.663 42.3945 172.744 42.1495 172.908 41.8229L174.413 39.2329C174.576 38.9295 174.763 38.7779 174.973 38.7779C175.159 38.7779 175.404 38.8712 175.708 39.0579C177.411 40.0379 179.441 40.5279 181.798 40.5279C183.198 40.5279 184.283 40.2245 185.053 39.6179C185.846 39.0112 186.243 38.1129 186.243 36.9229C186.243 35.6162 185.916 34.7062 185.263 34.1929C184.609 33.6562 183.664 33.3879 182.428 33.3879C181.681 33.3879 180.946 33.4579 180.223 33.5979C179.499 33.7145 178.893 33.8779 178.403 34.0879C177.819 34.2979 177.201 34.4029 176.548 34.4029C175.638 34.4029 174.891 34.1695 174.308 33.7029C173.724 33.2362 173.456 32.5595 173.503 31.6729L174.063 22.7829C174.109 22.2462 174.249 21.8495 174.483 21.5929C174.739 21.3362 175.194 21.2079 175.848 21.2079H190.408C191.061 21.2079 191.504 21.3479 191.738 21.6279C191.994 21.8845 192.123 22.3279 192.123 22.9579V24.6029C192.123 25.2329 191.994 25.6879 191.738 25.9679C191.504 26.2245 191.061 26.3529 190.408 26.3529H179.803L179.628 29.1879C180.094 29.0712 180.713 28.9779 181.483 28.9079C182.253 28.8145 182.941 28.7679 183.548 28.7679C186.651 28.7679 189.054 29.3979 190.758 30.6579C192.461 31.9179 193.313 34.0062 193.313 36.9229C193.313 38.6962 192.834 40.2362 191.878 41.5429C190.944 42.8262 189.638 43.8179 187.958 44.5179C186.278 45.1945 184.364 45.5329 182.218 45.5329ZM207.094 45.5329C203.034 45.5329 199.989 44.4712 197.959 42.3479C195.929 40.2245 194.914 37.1445 194.914 33.1079C194.914 29.0712 195.929 25.9912 197.959 23.8679C199.989 21.7445 203.034 20.6829 207.094 20.6829C211.154 20.6829 214.199 21.7445 216.229 23.8679C218.259 25.9912 219.274 29.0712 219.274 33.1079C219.274 37.1445 218.259 40.2245 216.229 42.3479C214.199 44.4712 211.154 45.5329 207.094 45.5329ZM209.439 26.2479C208.809 25.8979 208.027 25.7229 207.094 25.7229C205.274 25.7229 203.955 26.3179 203.139 27.5079C202.345 28.6979 201.949 30.5645 201.949 33.1079C201.949 34.2979 202.124 35.2779 202.474 36.0479L209.439 26.2479ZM207.094 40.5279C208.914 40.5279 210.22 39.9329 211.014 38.7429C211.83 37.5295 212.239 35.6512 212.239 33.1079C212.239 31.9645 212.064 30.9495 211.714 30.0629L204.644 40.0379C205.344 40.3645 206.16 40.5279 207.094 40.5279Z"/>
</mask>
<path d="M11.7356 45.0079C11.0589 45.0079 10.5806 44.8679 10.3006 44.5879C10.0439 44.3079 9.91555 43.8645 9.91555 43.2579V22.9579C9.91555 22.3512 10.0556 21.9079 10.3356 21.6279C10.6156 21.3479 11.0939 21.2079 11.7706 21.2079H15.0956C15.5622 21.2079 15.9239 21.2662 16.1806 21.3829C16.4606 21.4995 16.6706 21.7329 16.8106 22.0829L21.8856 34.3329L26.9956 22.0829C27.1356 21.7329 27.3339 21.4995 27.5906 21.3829C27.8706 21.2662 28.2439 21.2079 28.7106 21.2079H32.0356C32.7122 21.2079 33.1906 21.3479 33.4706 21.6279C33.7506 21.9079 33.8906 22.3512 33.8906 22.9579V43.2579C33.8906 43.8645 33.7506 44.3079 33.4706 44.5879C33.2139 44.8679 32.7472 45.0079 32.0706 45.0079H29.3056C28.6289 45.0079 28.1506 44.8679 27.8706 44.5879C27.5906 44.3079 27.4506 43.8645 27.4506 43.2579V31.8829L24.0556 39.4779C23.8222 40.0612 23.5656 40.4812 23.2856 40.7379C23.0056 40.9712 22.5389 41.0879 21.8856 41.0879C21.2556 41.0879 20.8006 40.9712 20.5206 40.7379C20.2406 40.4812 19.9722 40.0612 19.7156 39.4779L16.3556 31.8829V43.2579C16.3556 43.8645 16.2156 44.3079 15.9356 44.5879C15.6556 44.8679 15.1772 45.0079 14.5006 45.0079H11.7356ZM46.4025 45.5329C44.4425 45.5329 42.6925 45.2062 41.1525 44.5529C39.6358 43.8995 38.4342 42.9195 37.5475 41.6129C36.6608 40.3062 36.2175 38.7079 36.2175 36.8179C36.2175 33.8545 37.0575 31.5912 38.7375 30.0279C40.4175 28.4645 42.8325 27.6829 45.9825 27.6829C49.0625 27.6829 51.3958 28.4529 52.9825 29.9929C54.5925 31.5095 55.3975 33.6212 55.3975 36.3279C55.3975 37.4945 54.8842 38.0779 53.8575 38.0779H42.8675C42.8675 39.0812 43.2408 39.8512 43.9875 40.3879C44.7575 40.9245 45.9125 41.1929 47.4525 41.1929C48.4092 41.1929 49.2025 41.1112 49.8325 40.9479C50.4858 40.7612 51.1392 40.4929 51.7925 40.1429C52.0725 40.0262 52.2592 39.9679 52.3525 39.9679C52.5625 39.9679 52.7375 40.1079 52.8775 40.3879L54.0675 42.6279C54.1842 42.8612 54.2425 43.0362 54.2425 43.1529C54.2425 43.3629 54.1025 43.5612 53.8225 43.7479C52.8658 44.3779 51.7808 44.8329 50.5675 45.1129C49.3542 45.3929 47.9658 45.5329 46.4025 45.5329ZM49.0975 34.6129C49.0975 33.7262 48.8408 33.0379 48.3275 32.5479C47.8142 32.0579 47.0442 31.8129 46.0175 31.8129C44.9908 31.8129 44.2092 32.0695 43.6725 32.5829C43.1358 33.0729 42.8675 33.7495 42.8675 34.6129H49.0975ZM59.5538 45.0079C58.8771 45.0079 58.3988 44.8679 58.1188 44.5879C57.8388 44.3079 57.6988 43.8645 57.6988 43.2579V29.2929C57.6988 28.8729 57.7688 28.5929 57.9088 28.4529C58.0721 28.2895 58.3988 28.2079 58.8888 28.2079H62.4938C62.7738 28.2079 62.9838 28.2545 63.1238 28.3479C63.2871 28.4179 63.3804 28.5579 63.4038 28.7679L63.5788 29.7829C64.9788 28.3829 66.6704 27.6829 68.6538 27.6829C69.4238 27.6829 70.0538 27.7529 70.5438 27.8929C71.0338 28.0095 71.4771 28.2079 71.8738 28.4879C72.1071 28.6512 72.2238 28.8379 72.2238 29.0479C72.2238 29.1179 72.2004 29.2462 72.1538 29.4329L71.0338 32.6179C70.9404 32.9445 70.7654 33.1079 70.5088 33.1079C70.3921 33.1079 70.2521 33.0612 70.0888 32.9679C69.4588 32.6179 68.7004 32.4429 67.8138 32.4429C66.9271 32.4429 66.1921 32.6879 65.6088 33.1779C65.0488 33.6679 64.7688 34.3212 64.7688 35.1379V43.2579C64.7688 43.8645 64.6288 44.3079 64.3488 44.5879C64.0921 44.8679 63.6254 45.0079 62.9488 45.0079H59.5538ZM83.0366 50.9579C81.6366 50.9579 80.2016 50.7945 78.7316 50.4679C77.2849 50.1645 76.2116 49.7679 75.5116 49.2779C75.3482 49.1379 75.2666 48.9862 75.2666 48.8229C75.2666 48.7062 75.3016 48.5895 75.3716 48.4729L76.8766 45.7079C76.9466 45.5912 77.0166 45.4862 77.0866 45.3929C77.1799 45.3229 77.2732 45.2879 77.3666 45.2879C77.4132 45.2879 77.5532 45.3345 77.7866 45.4279C78.8832 45.9879 80.3999 46.2679 82.3366 46.2679C83.4332 46.2679 84.2616 46.0345 84.8216 45.5679C85.3816 45.1012 85.6616 44.3429 85.6616 43.2929C85.1949 43.6195 84.6116 43.8879 83.9116 44.0979C83.2116 44.2845 82.4649 44.3779 81.6716 44.3779C78.8949 44.3779 76.7716 43.6895 75.3016 42.3129C73.8549 40.9362 73.1316 38.9412 73.1316 36.3279C73.1316 33.4812 74.0182 31.3345 75.7916 29.8879C77.5649 28.4179 80.1899 27.6829 83.6666 27.6829C85.4166 27.6829 87.0849 27.9279 88.6716 28.4179C90.2582 28.9079 91.5766 29.5262 92.6266 30.2729V41.4379C92.6266 44.2845 91.8099 46.5829 90.1766 48.3329C88.5432 50.0829 86.1632 50.9579 83.0366 50.9579ZM83.2116 39.4429C84.8916 39.4429 85.7316 38.6379 85.7316 37.0279V32.7929C85.2416 32.5829 84.4249 32.4779 83.2816 32.4779C82.2549 32.4779 81.4732 32.7345 80.9366 33.2479C80.4232 33.7612 80.1666 34.6829 80.1666 36.0129C80.1666 37.2029 80.4116 38.0779 80.9016 38.6379C81.3916 39.1745 82.1616 39.4429 83.2116 39.4429ZM105.123 45.5329C103.163 45.5329 101.413 45.2062 99.8732 44.5529C98.3565 43.8995 97.1549 42.9195 96.2682 41.6129C95.3815 40.3062 94.9382 38.7079 94.9382 36.8179C94.9382 33.8545 95.7782 31.5912 97.4582 30.0279C99.1382 28.4645 101.553 27.6829 104.703 27.6829C107.783 27.6829 110.117 28.4529 111.703 29.9929C113.313 31.5095 114.118 33.6212 114.118 36.3279C114.118 37.4945 113.605 38.0779 112.578 38.0779H101.588C101.588 39.0812 101.962 39.8512 102.708 40.3879C103.478 40.9245 104.633 41.1929 106.173 41.1929C107.13 41.1929 107.923 41.1112 108.553 40.9479C109.207 40.7612 109.86 40.4929 110.513 40.1429C110.793 40.0262 110.98 39.9679 111.073 39.9679C111.283 39.9679 111.458 40.1079 111.598 40.3879L112.788 42.6279C112.905 42.8612 112.963 43.0362 112.963 43.1529C112.963 43.3629 112.823 43.5612 112.543 43.7479C111.587 44.3779 110.502 44.8329 109.288 45.1129C108.075 45.3929 106.687 45.5329 105.123 45.5329ZM107.818 34.6129C107.818 33.7262 107.562 33.0379 107.048 32.5479C106.535 32.0579 105.765 31.8129 104.738 31.8129C103.712 31.8129 102.93 32.0695 102.393 32.5829C101.857 33.0729 101.588 33.7495 101.588 34.6129H107.818ZM140.362 45.5329C136.209 45.5329 132.989 44.4829 130.702 42.3829C128.416 40.2595 127.272 37.1679 127.272 33.1079C127.272 29.0245 128.381 25.9329 130.597 23.8329C132.837 21.7329 136.022 20.6829 140.152 20.6829C141.949 20.6829 143.571 20.8695 145.017 21.2429C146.464 21.5929 147.677 22.0945 148.657 22.7479C148.914 22.9112 149.042 23.1212 149.042 23.3779C149.042 23.5412 148.961 23.7862 148.797 24.1129L147.292 26.6679C147.152 26.9712 146.966 27.1229 146.732 27.1229C146.592 27.1229 146.359 27.0412 146.032 26.8779C144.632 26.1079 142.987 25.7229 141.097 25.7229C138.927 25.7229 137.247 26.3529 136.057 27.6129C134.891 28.8495 134.307 30.6812 134.307 33.1079C134.307 35.5345 134.937 37.3779 136.197 38.6379C137.457 39.8979 139.172 40.5279 141.342 40.5279C143.256 40.5279 144.947 40.1429 146.417 39.3729C146.744 39.2095 146.977 39.1279 147.117 39.1279C147.327 39.1279 147.514 39.2679 147.677 39.5479L149.252 42.2429C149.392 42.4762 149.462 42.6862 149.462 42.8729C149.462 43.0829 149.322 43.2929 149.042 43.5029C147.082 44.8562 144.189 45.5329 140.362 45.5329ZM153.547 45.0079C152.87 45.0079 152.392 44.8679 152.112 44.5879C151.855 44.3079 151.727 43.8645 151.727 43.2579V22.9929C151.727 22.3862 151.867 21.9429 152.147 21.6629C152.427 21.3595 152.894 21.2079 153.547 21.2079H162.122C165.389 21.2079 167.792 21.8962 169.332 23.2729C170.872 24.6495 171.642 26.7029 171.642 29.4329C171.642 32.1395 170.872 34.1812 169.332 35.5579C167.815 36.9112 165.412 37.5879 162.122 37.5879H158.797V43.2579C158.797 43.8645 158.657 44.3079 158.377 44.5879C158.097 44.8679 157.619 45.0079 156.942 45.0079H153.547ZM161.562 32.5129C162.519 32.5129 163.254 32.2562 163.767 31.7429C164.304 31.2295 164.572 30.4595 164.572 29.4329C164.572 28.3829 164.304 27.6012 163.767 27.0879C163.254 26.5745 162.519 26.3179 161.562 26.3179H158.797V32.5129H161.562ZM182.218 45.5329C180.421 45.5329 178.706 45.3229 177.073 44.9029C175.439 44.4829 174.098 43.9112 173.048 43.1879C172.791 43.0245 172.663 42.8145 172.663 42.5579C172.663 42.3945 172.744 42.1495 172.908 41.8229L174.413 39.2329C174.576 38.9295 174.763 38.7779 174.973 38.7779C175.159 38.7779 175.404 38.8712 175.708 39.0579C177.411 40.0379 179.441 40.5279 181.798 40.5279C183.198 40.5279 184.283 40.2245 185.053 39.6179C185.846 39.0112 186.243 38.1129 186.243 36.9229C186.243 35.6162 185.916 34.7062 185.263 34.1929C184.609 33.6562 183.664 33.3879 182.428 33.3879C181.681 33.3879 180.946 33.4579 180.223 33.5979C179.499 33.7145 178.893 33.8779 178.403 34.0879C177.819 34.2979 177.201 34.4029 176.548 34.4029C175.638 34.4029 174.891 34.1695 174.308 33.7029C173.724 33.2362 173.456 32.5595 173.503 31.6729L174.063 22.7829C174.109 22.2462 174.249 21.8495 174.483 21.5929C174.739 21.3362 175.194 21.2079 175.848 21.2079H190.408C191.061 21.2079 191.504 21.3479 191.738 21.6279C191.994 21.8845 192.123 22.3279 192.123 22.9579V24.6029C192.123 25.2329 191.994 25.6879 191.738 25.9679C191.504 26.2245 191.061 26.3529 190.408 26.3529H179.803L179.628 29.1879C180.094 29.0712 180.713 28.9779 181.483 28.9079C182.253 28.8145 182.941 28.7679 183.548 28.7679C186.651 28.7679 189.054 29.3979 190.758 30.6579C192.461 31.9179 193.313 34.0062 193.313 36.9229C193.313 38.6962 192.834 40.2362 191.878 41.5429C190.944 42.8262 189.638 43.8179 187.958 44.5179C186.278 45.1945 184.364 45.5329 182.218 45.5329ZM207.094 45.5329C203.034 45.5329 199.989 44.4712 197.959 42.3479C195.929 40.2245 194.914 37.1445 194.914 33.1079C194.914 29.0712 195.929 25.9912 197.959 23.8679C199.989 21.7445 203.034 20.6829 207.094 20.6829C211.154 20.6829 214.199 21.7445 216.229 23.8679C218.259 25.9912 219.274 29.0712 219.274 33.1079C219.274 37.1445 218.259 40.2245 216.229 42.3479C214.199 44.4712 211.154 45.5329 207.094 45.5329ZM209.439 26.2479C208.809 25.8979 208.027 25.7229 207.094 25.7229C205.274 25.7229 203.955 26.3179 203.139 27.5079C202.345 28.6979 201.949 30.5645 201.949 33.1079C201.949 34.2979 202.124 35.2779 202.474 36.0479L209.439 26.2479ZM207.094 40.5279C208.914 40.5279 210.22 39.9329 211.014 38.7429C211.83 37.5295 212.239 35.6512 212.239 33.1079C212.239 31.9645 212.064 30.9495 211.714 30.0629L204.644 40.0379C205.344 40.3645 206.16 40.5279 207.094 40.5279Z" fill="#4A249D"/>
<path d="M10.3006 44.5879L6.61478 47.9665L6.6882 48.0466L6.76502 48.1234L10.3006 44.5879ZM10.3356 21.6279L6.80002 18.0923L6.80002 18.0923L10.3356 21.6279ZM16.1806 21.3829L14.1115 25.9347L14.184 25.9676L14.2575 25.9983L16.1806 21.3829ZM16.8106 22.0829L12.1682 23.9398L12.1795 23.9683L12.1913 23.9966L16.8106 22.0829ZM21.8856 34.3329L17.2663 36.2466L21.8697 47.3583L26.5002 36.2578L21.8856 34.3329ZM26.9956 22.0829L31.6102 24.0078L31.6243 23.9739L31.6379 23.9398L26.9956 22.0829ZM27.5906 21.3829L25.6675 16.7675L25.594 16.7981L25.5215 16.831L27.5906 21.3829ZM33.4706 44.5879L29.935 41.0523L29.8582 41.1292L29.7848 41.2092L33.4706 44.5879ZM27.8706 44.5879L31.4061 41.0523L31.4061 41.0523L27.8706 44.5879ZM27.4506 31.8829H32.4506L22.8858 29.8424L27.4506 31.8829ZM24.0556 39.4779L19.4908 37.4374L19.4502 37.5284L19.4132 37.6209L24.0556 39.4779ZM23.2856 40.7379L26.4865 44.579L26.5772 44.5034L26.6642 44.4236L23.2856 40.7379ZM20.5206 40.7379L17.1419 44.4236L17.2289 44.5034L17.3196 44.579L20.5206 40.7379ZM19.7156 39.4779L24.2921 37.4642L24.2881 37.455L19.7156 39.4779ZM16.3556 31.8829L20.9281 29.86L11.3556 31.8829H16.3556ZM15.9356 44.5879L12.4 41.0523L12.4 41.0523L15.9356 44.5879ZM11.7356 40.0079C11.7359 40.0079 11.7826 40.0077 11.8669 40.0179C11.9504 40.0281 12.0916 40.0508 12.2738 40.1042C12.6353 40.21 13.2487 40.4649 13.8361 41.0523L6.76502 48.1234C8.46081 49.8192 10.6118 50.0079 11.7356 50.0079V40.0079ZM13.9863 41.2092C14.4786 41.7463 14.71 42.2936 14.8146 42.6551C14.9149 43.0014 14.9156 43.2293 14.9156 43.2579H4.91555C4.91555 44.4051 5.13162 46.3485 6.61478 47.9665L13.9863 41.2092ZM14.9156 43.2579V22.9579H4.91555V43.2579H14.9156ZM14.9156 22.9579C14.9156 22.986 14.9248 24.1097 13.8711 25.1634L6.80002 18.0923C5.1863 19.7061 4.91555 21.7164 4.91555 22.9579H14.9156ZM13.8711 25.1634C13.2837 25.7508 12.6703 26.0057 12.3088 26.1116C12.1266 26.1649 11.9854 26.1877 11.9019 26.1978C11.8176 26.208 11.7709 26.2079 11.7706 26.2079V16.2079C10.6468 16.2079 8.49581 16.3965 6.80002 18.0923L13.8711 25.1634ZM11.7706 26.2079H15.0956V16.2079H11.7706V26.2079ZM15.0956 26.2079C15.1306 26.2079 15.0629 26.2108 14.9206 26.1878C14.7855 26.166 14.4885 26.106 14.1115 25.9347L18.2496 16.831C17.0525 16.2869 15.867 16.2079 15.0956 16.2079V26.2079ZM14.2575 25.9983C13.0104 25.4786 12.3986 24.5158 12.1682 23.9398L21.4529 20.2259C20.9425 18.9499 19.9107 17.5204 18.1036 16.7675L14.2575 25.9983ZM12.1913 23.9966L17.2663 36.2466L26.5048 32.4192L21.4298 20.1692L12.1913 23.9966ZM26.5002 36.2578L31.6102 24.0078L22.3809 20.1579L17.271 32.4079L26.5002 36.2578ZM31.6379 23.9398C31.4648 24.3727 30.9267 25.3587 29.6596 25.9347L25.5215 16.831C23.7411 17.6403 22.8063 19.093 22.3532 20.2259L31.6379 23.9398ZM29.5136 25.9982C29.207 26.126 28.9689 26.1735 28.8524 26.1917C28.7326 26.2104 28.6782 26.2079 28.7106 26.2079V16.2079C27.9025 16.2079 26.7946 16.2978 25.6675 16.7675L29.5136 25.9982ZM28.7106 26.2079H32.0356V16.2079H28.7106V26.2079ZM32.0356 26.2079C32.0352 26.2079 31.9885 26.208 31.9042 26.1978C31.8207 26.1877 31.6795 26.1649 31.4973 26.1116C31.1358 26.0057 30.5224 25.7508 29.935 25.1634L37.0061 18.0923C35.3103 16.3965 33.1593 16.2079 32.0356 16.2079V26.2079ZM29.935 25.1634C28.8813 24.1097 28.8906 22.986 28.8906 22.9579H38.8906C38.8906 21.7164 38.6198 19.7061 37.0061 18.0923L29.935 25.1634ZM28.8906 22.9579V43.2579H38.8906V22.9579H28.8906ZM28.8906 43.2579C28.8906 43.2298 28.8813 42.1061 29.935 41.0523L37.0061 48.1234C38.6198 46.5097 38.8906 44.4993 38.8906 43.2579H28.8906ZM29.7848 41.2092C30.4147 40.522 31.1013 40.2308 31.4913 40.1137C31.6891 40.0544 31.8422 40.0296 31.931 40.0187C31.9772 40.013 32.0122 40.0104 32.0345 40.0091C32.057 40.0079 32.0693 40.0079 32.0706 40.0079V50.0079C33.1304 50.0079 35.4334 49.846 37.1563 47.9665L29.7848 41.2092ZM32.0706 40.0079H29.3056V50.0079H32.0706V40.0079ZM29.3056 40.0079C29.3059 40.0079 29.3526 40.0077 29.4369 40.0179C29.5204 40.0281 29.6616 40.0508 29.8438 40.1042C30.2053 40.21 30.8187 40.4649 31.4061 41.0523L24.335 48.1234C26.0308 49.8192 28.1818 50.0079 29.3056 50.0079V40.0079ZM31.4061 41.0523C32.4598 42.1061 32.4506 43.2298 32.4506 43.2579H22.4506C22.4506 44.4993 22.7213 46.5097 24.335 48.1234L31.4061 41.0523ZM32.4506 43.2579V31.8829H22.4506V43.2579H32.4506ZM22.8858 29.8424L19.4908 37.4374L28.6203 41.5183L32.0153 33.9233L22.8858 29.8424ZM19.4132 37.6209C19.3736 37.7198 19.3703 37.7071 19.4216 37.6231C19.4694 37.545 19.6176 37.3173 19.9069 37.0521L26.6642 44.4236C27.7453 43.4326 28.3459 42.2149 28.6979 41.3348L19.4132 37.6209ZM20.0846 36.8968C20.6771 36.403 21.2394 36.218 21.5129 36.1497C21.7887 36.0807 21.9385 36.0879 21.8856 36.0879V46.0879C22.8813 46.0879 24.83 45.9594 26.4865 44.579L20.0846 36.8968ZM21.8856 36.0879C21.8569 36.0879 22.0245 36.0829 22.3137 36.157C22.6053 36.2318 23.1511 36.4214 23.7215 36.8968L17.3196 44.579C18.9525 45.9397 20.8589 46.0879 21.8856 46.0879V36.0879ZM23.8992 37.0521C24.1611 37.2922 24.2913 37.4891 24.3228 37.5384C24.3588 37.5948 24.344 37.5821 24.2921 37.4642L15.139 41.4916C15.5106 42.3361 16.118 43.485 17.1419 44.4236L23.8992 37.0521ZM24.2881 37.455L20.9281 29.86L11.783 33.9057L15.143 41.5007L24.2881 37.455ZM11.3556 31.8829V43.2579H21.3556V31.8829H11.3556ZM11.3556 43.2579C11.3556 43.2298 11.3463 42.1061 12.4 41.0523L19.4711 48.1234C21.0848 46.5097 21.3556 44.4993 21.3556 43.2579H11.3556ZM12.4 41.0523C12.9874 40.4649 13.6008 40.21 13.9623 40.1042C14.1445 40.0508 14.2857 40.0281 14.3692 40.0179C14.4535 40.0077 14.5002 40.0079 14.5006 40.0079V50.0079C15.6243 50.0079 17.7753 49.8192 19.4711 48.1234L12.4 41.0523ZM14.5006 40.0079H11.7356V50.0079H14.5006V40.0079ZM41.1525 44.5529L39.1744 49.1449L39.1871 49.1504L39.1998 49.1558L41.1525 44.5529ZM37.5475 41.6129L33.4101 44.4204L37.5475 41.6129ZM38.7375 30.0279L35.3314 26.3675L38.7375 30.0279ZM52.9825 29.9929L49.5001 33.5808L49.5269 33.6067L49.554 33.6323L52.9825 29.9929ZM42.8675 38.0779V33.0779H37.8675V38.0779H42.8675ZM43.9875 40.3879L41.0693 44.4479L41.0988 44.4691L41.1285 44.4899L43.9875 40.3879ZM49.8325 40.9479L51.0873 45.7878L51.1469 45.7724L51.2061 45.7555L49.8325 40.9479ZM51.7925 40.1429L49.8694 35.5275L49.6454 35.6208L49.4314 35.7355L51.7925 40.1429ZM52.8775 40.3879L48.4054 42.6239L48.433 42.6791L48.4619 42.7336L52.8775 40.3879ZM54.0675 42.6279L58.5396 40.3918L58.512 40.3366L58.4831 40.2821L54.0675 42.6279ZM53.8225 43.7479L56.5725 47.9237L56.5843 47.916L56.596 47.9081L53.8225 43.7479ZM50.5675 45.1129L51.6918 49.9848H51.6918L50.5675 45.1129ZM49.0975 34.6129V39.6129H54.0975V34.6129H49.0975ZM43.6725 32.5829L47.0439 36.2753L47.0867 36.2362L47.1286 36.1961L43.6725 32.5829ZM42.8675 34.6129H37.8675V39.6129H42.8675V34.6129ZM46.4025 40.5329C44.9998 40.5329 43.9309 40.3002 43.1053 39.95L39.1998 49.1558C41.4541 50.1122 43.8852 50.5329 46.4025 50.5329V40.5329ZM43.1306 39.9608C42.4469 39.6663 42.0114 39.2865 41.6849 38.8054L33.4101 44.4204C34.857 46.5526 36.8248 48.1328 39.1744 49.1449L43.1306 39.9608ZM41.6849 38.8054C41.4633 38.4788 41.2175 37.9073 41.2175 36.8179H31.2175C31.2175 39.5084 31.8584 42.1336 33.4101 44.4204L41.6849 38.8054ZM41.2175 36.8179C41.2175 34.8156 41.7557 34.0493 42.1437 33.6882L35.3314 26.3675C32.3594 29.1331 31.2175 32.8935 31.2175 36.8179H41.2175ZM42.1437 33.6882C42.6004 33.2631 43.6201 32.6829 45.9825 32.6829V22.6829C42.0449 22.6829 38.2346 23.6659 35.3314 26.3675L42.1437 33.6882ZM45.9825 32.6829C48.2794 32.6829 49.1613 33.2519 49.5001 33.5808L56.4649 26.405C53.6303 23.6538 49.8456 22.6829 45.9825 22.6829V32.6829ZM49.554 33.6323C49.9433 33.999 50.3975 34.6681 50.3975 36.3279H60.3975C60.3975 32.5743 59.2418 29.0201 56.411 26.3534L49.554 33.6323ZM50.3975 36.3279C50.3975 36.2865 50.3928 35.3215 51.2589 34.3372C52.2325 33.231 53.4224 33.0779 53.8575 33.0779V43.0779C55.3193 43.0779 57.2792 42.6331 58.7661 40.9435C60.1456 39.3759 60.3975 37.5359 60.3975 36.3279H50.3975ZM53.8575 33.0779H42.8675V43.0779H53.8575V33.0779ZM37.8675 38.0779C37.8675 40.5197 38.8827 42.8763 41.0693 44.4479L46.9057 36.3278C47.1555 36.5074 47.4438 36.8083 47.6466 37.2265C47.8418 37.6292 47.8675 37.9535 47.8675 38.0779H37.8675ZM41.1285 44.4899C43.1202 45.878 45.4855 46.1929 47.4525 46.1929V36.1929C46.9569 36.1929 46.6782 36.1482 46.5627 36.1213C46.4479 36.0947 46.5922 36.1087 46.8465 36.2859L41.1285 44.4899ZM47.4525 46.1929C48.654 46.1929 49.9047 46.0944 51.0873 45.7878L48.5777 36.1079C48.5003 36.1279 48.1643 36.1929 47.4525 36.1929V46.1929ZM51.2061 45.7555C52.2313 45.4626 53.2144 45.0534 54.1536 44.5503L49.4314 35.7355C49.0639 35.9323 48.7404 36.0598 48.4589 36.1402L51.2061 45.7555ZM53.7156 44.7583C53.782 44.7306 53.7432 44.7498 53.6339 44.784C53.5774 44.8017 53.4545 44.8383 53.2848 44.8737C53.1414 44.9036 52.8017 44.9679 52.3525 44.9679V34.9679C51.5007 34.9679 50.8187 35.1868 50.6511 35.2392C50.3551 35.3317 50.0831 35.4385 49.8694 35.5275L53.7156 44.7583ZM52.3525 44.9679C51.2429 44.9679 50.2529 44.5653 49.5178 43.9772C48.8626 43.4531 48.5388 42.8908 48.4054 42.6239L57.3496 38.1518C56.8279 37.1083 55.3107 34.9679 52.3525 34.9679V44.9679ZM48.4619 42.7336L49.6519 44.9736L58.4831 40.2821L57.2931 38.0421L48.4619 42.7336ZM49.5954 44.8639C49.5875 44.8481 49.5246 44.7229 49.4553 44.5153C49.4192 44.4069 49.3703 44.2432 49.3287 44.035C49.288 43.8319 49.2425 43.5282 49.2425 43.1529H59.2425C59.2425 41.7621 58.6759 40.6643 58.5396 40.3918L49.5954 44.8639ZM49.2425 43.1529C49.2425 40.8686 50.8008 39.7531 51.049 39.5876L56.596 47.9081C57.4042 47.3693 59.2425 45.8571 59.2425 43.1529H49.2425ZM51.0726 39.572C50.6536 39.8479 50.1281 40.0829 49.4432 40.2409L51.6918 49.9848C53.4336 49.5829 55.078 48.9078 56.5725 47.9237L51.0726 39.572ZM49.4432 40.2409C48.6781 40.4175 47.6789 40.5329 46.4025 40.5329V50.5329C48.2528 50.5329 50.0302 50.3683 51.6918 49.9848L49.4432 40.2409ZM54.0975 34.6129C54.0975 32.7225 53.5164 30.5887 51.7799 28.9311L44.8751 36.1646C44.5654 35.869 44.3464 35.5171 44.2201 35.1785C44.1019 34.8615 44.0975 34.646 44.0975 34.6129H54.0975ZM51.7799 28.9311C49.992 27.2244 47.7583 26.8129 46.0175 26.8129V36.8129C46.3301 36.8129 45.6364 36.8913 44.8751 36.1646L51.7799 28.9311ZM46.0175 26.8129C44.202 26.8129 41.9905 27.2727 40.2164 28.9697L47.1286 36.1961C46.8018 36.5087 46.4621 36.6767 46.2211 36.7558C46.0016 36.8279 45.9084 36.8129 46.0175 36.8129V26.8129ZM40.3012 28.8904C38.5319 30.5058 37.8675 32.6324 37.8675 34.6129H47.8675C47.8675 34.6973 47.8541 34.9545 47.7166 35.301C47.5716 35.6667 47.3368 36.0078 47.0439 36.2753L40.3012 28.8904ZM42.8675 39.6129H49.0975V29.6129H42.8675V39.6129ZM58.1188 44.5879L61.6543 41.0523V41.0523L58.1188 44.5879ZM57.9088 28.4529L54.3732 24.9173L54.3732 24.9173L57.9088 28.4529ZM63.1238 28.3479L60.3503 32.5081L60.7322 32.7628L61.1542 32.9436L63.1238 28.3479ZM63.4038 28.7679L58.4343 29.32L58.4509 29.4693L58.4765 29.6174L63.4038 28.7679ZM63.5788 29.7829L58.6515 30.6324L60.291 40.1417L67.1143 33.3184L63.5788 29.7829ZM70.5438 27.8929L69.1702 32.7005L69.2773 32.7311L69.3857 32.7569L70.5438 27.8929ZM71.8738 28.4879L68.9903 32.5727L68.9984 32.5784L69.0064 32.584L71.8738 28.4879ZM72.1538 29.4329L76.8706 31.0915L76.9479 30.8717L77.0045 30.6455L72.1538 29.4329ZM71.0338 32.6179L66.3169 30.9592L66.2673 31.1004L66.2261 31.2443L71.0338 32.6179ZM70.0888 32.9679L72.5695 28.6267L72.5433 28.6117L72.517 28.5971L70.0888 32.9679ZM65.6088 33.1779L62.3928 29.3493L62.3542 29.3818L62.3162 29.415L65.6088 33.1779ZM64.3488 44.5879L60.8132 41.0523L60.7364 41.1292L60.663 41.2092L64.3488 44.5879ZM59.5538 40.0079C59.5541 40.0079 59.6008 40.0077 59.6851 40.0179C59.7686 40.0281 59.9098 40.0508 60.092 40.1042C60.4535 40.21 61.0669 40.4649 61.6543 41.0523L54.5832 48.1234C56.279 49.8192 58.43 50.0079 59.5538 50.0079V40.0079ZM61.6543 41.0523C62.708 42.1061 62.6988 43.2298 62.6988 43.2579H52.6988C52.6988 44.4993 52.9695 46.5097 54.5832 48.1234L61.6543 41.0523ZM62.6988 43.2579V29.2929H52.6988V43.2579H62.6988ZM62.6988 29.2929C62.6988 29.3242 62.6998 29.589 62.602 29.9805C62.5117 30.3418 62.2436 31.1891 61.4443 31.9884L54.3732 24.9173C53.4339 25.8567 53.0609 26.9139 52.9005 27.5552C52.7327 28.2267 52.6988 28.8415 52.6988 29.2929H62.6988ZM61.4443 31.9884C60.6566 32.7761 59.8268 33.0354 59.4889 33.1198C59.2913 33.1692 59.1383 33.1895 59.0494 33.1984C58.9582 33.2075 58.9017 33.2079 58.8888 33.2079V23.2079C58.4024 23.2079 57.7584 23.2447 57.0636 23.4184C56.399 23.5845 55.3242 23.9663 54.3732 24.9173L61.4443 31.9884ZM58.8888 33.2079H62.4938V23.2079H58.8888V33.2079ZM62.4938 33.2079C62.3717 33.2079 62.1157 33.1992 61.7766 33.1238C61.4394 33.0489 60.9148 32.8845 60.3503 32.5081L65.8973 24.1876C64.554 23.2921 63.1714 23.2079 62.4938 23.2079V33.2079ZM61.1542 32.9436C60.3969 32.619 59.6782 32.0622 59.156 31.2789C58.6603 30.5352 58.4889 29.8108 58.4343 29.32L68.3732 28.2157C68.1957 26.618 67.2529 24.6776 65.0933 23.7521L61.1542 32.9436ZM58.4765 29.6174L58.6515 30.6324L68.5061 28.9333L68.3311 27.9183L58.4765 29.6174ZM67.1143 33.3184C67.5748 32.8579 67.9939 32.6829 68.6538 32.6829V22.6829C65.3469 22.6829 62.3827 23.9078 60.0432 26.2473L67.1143 33.3184ZM68.6538 32.6829C68.8919 32.6829 69.0539 32.6939 69.1516 32.7048C69.2527 32.716 69.2495 32.7232 69.1702 32.7005L71.9174 23.0852C70.815 22.7703 69.6771 22.6829 68.6538 22.6829V32.6829ZM69.3857 32.7569C69.2798 32.7317 69.1334 32.6737 68.9903 32.5727L74.7572 24.403C73.8208 23.7421 72.7877 23.2874 71.7019 23.0288L69.3857 32.7569ZM69.0064 32.584C68.7277 32.3889 68.2817 32.0171 67.8963 31.4004C67.483 30.7392 67.2238 29.9262 67.2238 29.0479H77.2238C77.2238 26.6609 75.7913 25.1269 74.7411 24.3917L69.0064 32.584ZM67.2238 29.0479C67.2238 28.8074 67.2425 28.6219 67.2536 28.5271C67.266 28.4222 67.2793 28.3438 67.2869 28.3022C67.3014 28.2225 67.3111 28.1878 67.303 28.2202L77.0045 30.6455C77.0351 30.5229 77.2238 29.822 77.2238 29.0479H67.2238ZM67.4369 27.7742L66.3169 30.9592L75.7506 34.2765L76.8706 31.0915L67.4369 27.7742ZM66.2261 31.2443C66.3297 30.8817 66.6225 30.0753 67.4209 29.3301C68.33 28.4816 69.4708 28.1079 70.5088 28.1079V38.1079C71.8034 38.1079 73.16 37.6524 74.2441 36.6406C75.2175 35.7321 75.6445 34.6807 75.8414 33.9915L66.2261 31.2443ZM70.5088 28.1079C71.1085 28.1079 71.5863 28.2257 71.8974 28.3295C72.2112 28.434 72.439 28.5521 72.5695 28.6267L67.6081 37.3091C68.1112 37.5966 69.1435 38.1079 70.5088 38.1079V28.1079ZM72.517 28.5971C70.9915 27.7496 69.3564 27.4429 67.8138 27.4429V37.4429C67.9301 37.4429 67.9597 37.4545 67.9232 37.4461C67.8827 37.4367 67.7859 37.4083 67.6605 37.3386L72.517 28.5971ZM67.8138 27.4429C65.9537 27.4429 64.0211 27.9816 62.3928 29.3493L68.8247 37.0064C68.6256 37.1736 68.3985 37.2968 68.1786 37.37C67.9686 37.44 67.8315 37.4429 67.8138 37.4429V27.4429ZM62.3162 29.415C60.5577 30.9537 59.7688 33.0374 59.7688 35.1379H69.7688C69.7688 35.3065 69.738 35.6234 69.5745 36.005C69.4059 36.3984 69.1573 36.7167 68.9013 36.9407L62.3162 29.415ZM59.7688 35.1379V43.2579H69.7688V35.1379H59.7688ZM59.7688 43.2579C59.7688 43.2298 59.7595 42.1061 60.8132 41.0523L67.8843 48.1234C69.498 46.5097 69.7688 44.4993 69.7688 43.2579H59.7688ZM60.663 41.2092C61.2929 40.522 61.9795 40.2308 62.3695 40.1137C62.5673 40.0544 62.7204 40.0296 62.8092 40.0187C62.8554 40.013 62.8904 40.0104 62.9127 40.0091C62.9352 40.0079 62.9475 40.0079 62.9488 40.0079V50.0079C64.0086 50.0079 66.3116 49.846 68.0345 47.9665L60.663 41.2092ZM62.9488 40.0079H59.5538V50.0079H62.9488V40.0079ZM78.7316 50.4679L79.8162 45.5869L79.787 45.5804L79.7576 45.5743L78.7316 50.4679ZM75.5116 49.2779L72.2576 53.0741L72.4436 53.2336L72.6443 53.374L75.5116 49.2779ZM75.3716 48.4729L79.659 51.0453L79.713 50.9554L79.7632 50.8632L75.3716 48.4729ZM76.8766 45.7079L72.5891 43.1354L72.5351 43.2254L72.485 43.3175L76.8766 45.7079ZM77.0866 45.3929L74.0866 41.3929L73.5151 41.8214L73.0866 42.3929L77.0866 45.3929ZM77.7866 45.4279L80.0605 40.9748L79.8563 40.8706L79.6435 40.7855L77.7866 45.4279ZM84.8216 45.5679L88.0225 49.409V49.409L84.8216 45.5679ZM85.6616 43.2929H90.6616V33.6896L82.7943 39.1967L85.6616 43.2929ZM83.9116 44.0979L85.1999 48.929L85.2744 48.9092L85.3483 48.887L83.9116 44.0979ZM75.3016 42.3129L71.8548 45.9349L71.8692 45.9487L71.8838 45.9624L75.3016 42.3129ZM75.7916 29.8879L78.9522 33.7622L78.9674 33.7498L78.9825 33.7373L75.7916 29.8879ZM88.6716 28.4179L90.1469 23.6405L88.6716 28.4179ZM92.6266 30.2729H97.6266V27.6931L95.5242 26.1981L92.6266 30.2729ZM90.1766 48.3329L93.8318 51.7445L90.1766 48.3329ZM85.7316 32.7929H90.7316V29.4959L87.7012 28.1971L85.7316 32.7929ZM80.9366 33.2479L77.4805 29.6347L77.4403 29.6731L77.401 29.7123L80.9366 33.2479ZM80.9016 38.6379L77.1387 41.9304L77.1735 41.9702L77.2091 42.0092L80.9016 38.6379ZM83.0366 45.9579C82.0277 45.9579 80.9568 45.8404 79.8162 45.5869L77.6469 55.3488C79.4464 55.7487 81.2454 55.9579 83.0366 55.9579V45.9579ZM79.7576 45.5743C79.2094 45.4593 78.8259 45.3457 78.5748 45.2529C78.3135 45.1563 78.2823 45.1141 78.3789 45.1817L72.6443 53.374C74.1619 54.4364 76.0103 55.006 77.7055 55.3615L79.7576 45.5743ZM78.7655 45.4816C79.3365 45.971 80.2666 47.0971 80.2666 48.8229H70.2666C70.2666 50.8753 71.3599 52.3047 72.2576 53.0741L78.7655 45.4816ZM80.2666 48.8229C80.2666 49.7537 79.9768 50.5158 79.659 51.0453L71.0841 45.9004C70.6264 46.6633 70.2666 47.6586 70.2666 48.8229H80.2666ZM79.7632 50.8632L81.2682 48.0982L72.485 43.3175L70.98 46.0825L79.7632 50.8632ZM81.164 48.2803C81.1597 48.2875 81.1349 48.3284 81.0866 48.3929L73.0866 42.3929C72.8982 42.644 72.7334 42.8949 72.5891 43.1354L81.164 48.2803ZM80.0866 49.3929C79.534 49.8073 78.6007 50.2879 77.3666 50.2879V40.2879C75.9457 40.2879 74.8258 40.8385 74.0866 41.3929L80.0866 49.3929ZM77.3666 50.2879C76.9945 50.2879 76.7049 50.2451 76.5665 50.222C76.4073 50.1955 76.2818 50.1662 76.2064 50.1473C76.0587 50.1104 75.9552 50.0762 75.9254 50.0663C75.8605 50.0446 75.8504 50.0386 75.9296 50.0702L79.6435 40.7855C79.4894 40.7238 79.2927 40.6478 79.0877 40.5794C78.9879 40.5462 78.8261 40.4945 78.6317 40.4459C78.5379 40.4224 78.0239 40.2879 77.3666 40.2879V50.2879ZM75.5127 49.8809C77.6036 50.9486 80.0168 51.2679 82.3366 51.2679V41.2679C80.783 41.2679 80.1628 41.0271 80.0605 40.9748L75.5127 49.8809ZM82.3366 51.2679C84.0354 51.2679 86.2076 50.9214 88.0225 49.409L81.6207 41.7268C81.9692 41.4363 82.2829 41.3201 82.4246 41.2802C82.5531 41.244 82.5455 41.2679 82.3366 41.2679V51.2679ZM88.0225 49.409C90.1559 47.6311 90.6616 45.1509 90.6616 43.2929H80.6616C80.6616 43.3944 80.6454 43.2305 80.7611 42.9172C80.8905 42.5667 81.1567 42.1134 81.6206 41.7268L88.0225 49.409ZM82.7943 39.1967C82.8349 39.1682 82.8378 39.1722 82.7845 39.1967C82.731 39.2213 82.6316 39.2617 82.4748 39.3087L85.3483 48.887C86.422 48.5649 87.5218 48.094 88.5289 47.389L82.7943 39.1967ZM82.6233 39.2667C82.3813 39.3312 82.0708 39.3779 81.6716 39.3779V49.3779C82.859 49.3779 84.0419 49.2378 85.1999 48.929L82.6233 39.2667ZM81.6716 39.3779C79.6785 39.3779 78.9605 38.8892 78.7193 38.6634L71.8838 45.9624C74.5827 48.4899 78.1114 49.3779 81.6716 49.3779V39.3779ZM78.7484 38.6908C78.5742 38.525 78.1316 38.015 78.1316 36.3279H68.1316C68.1316 39.8674 69.1357 43.3474 71.8548 45.9349L78.7484 38.6908ZM78.1316 36.3279C78.1316 34.5825 78.6215 34.032 78.9522 33.7622L72.6309 26.0135C69.415 28.6371 68.1316 32.3799 68.1316 36.3279H78.1316ZM78.9825 33.7373C79.5009 33.3076 80.7854 32.6829 83.6666 32.6829V22.6829C79.5944 22.6829 75.629 23.5281 72.6006 26.0385L78.9825 33.7373ZM83.6666 32.6829C84.9434 32.6829 86.1126 32.8606 87.1962 33.1952L90.1469 23.6405C88.0572 22.9951 85.8897 22.6829 83.6666 22.6829V32.6829ZM87.1962 33.1952C88.4135 33.5712 89.2171 33.9837 89.729 34.3476L95.5242 26.1981C93.936 25.0687 92.103 24.2446 90.1469 23.6405L87.1962 33.1952ZM87.6266 30.2729V41.4379H97.6266V30.2729H87.6266ZM87.6266 41.4379C87.6266 43.2726 87.1312 44.2678 86.5213 44.9213L93.8318 51.7445C96.4886 48.898 97.6266 45.2965 97.6266 41.4379H87.6266ZM86.5213 44.9213C86.1003 45.3723 85.2237 45.9579 83.0366 45.9579V55.9579C87.1027 55.9579 90.9862 54.7934 93.8318 51.7445L86.5213 44.9213ZM83.2116 44.4429C84.7703 44.4429 86.8669 44.0727 88.5611 42.4491C90.295 40.7874 90.7316 38.6591 90.7316 37.0279H80.7316C80.7316 37.0067 80.7481 36.0858 81.642 35.2292C82.4962 34.4106 83.3328 34.4429 83.2116 34.4429V44.4429ZM90.7316 37.0279V32.7929H80.7316V37.0279H90.7316ZM87.7012 28.1971C86.2074 27.557 84.5028 27.4779 83.2816 27.4779V37.4779C83.7153 37.4779 83.9805 37.4986 84.114 37.5158C84.1767 37.5239 84.1778 37.5271 84.131 37.5158C84.0884 37.5055 83.9539 37.4708 83.762 37.3886L87.7012 28.1971ZM83.2816 27.4779C81.466 27.4779 79.2545 27.9377 77.4805 29.6347L84.3927 36.8611C84.0659 37.1737 83.7261 37.3417 83.4852 37.4208C83.2657 37.4929 83.1725 37.4779 83.2816 37.4779V27.4779ZM77.401 29.7123C75.4238 31.6895 75.1666 34.3561 75.1666 36.0129H85.1666C85.1666 35.639 85.206 35.5568 85.1758 35.6655C85.1443 35.7787 84.9878 36.2677 84.4721 36.7834L77.401 29.7123ZM75.1666 36.0129C75.1666 37.7287 75.493 40.0496 77.1387 41.9304L84.6645 35.3453C85.0073 35.7372 85.1301 36.0884 85.1651 36.2135C85.1967 36.3261 85.1666 36.2843 85.1666 36.0129H75.1666ZM77.2091 42.0092C79.0038 43.9748 81.3925 44.4429 83.2116 44.4429V34.4429C83.0938 34.4429 83.2206 34.4255 83.4919 34.5201C83.7936 34.6252 84.2138 34.8501 84.594 35.2665L77.2091 42.0092ZM99.8732 44.5529L97.8951 49.1449L97.9078 49.1504L97.9205 49.1558L99.8732 44.5529ZM96.2682 41.6129L92.1308 44.4204L96.2682 41.6129ZM97.4582 30.0279L94.0521 26.3675L97.4582 30.0279ZM111.703 29.9929L108.221 33.5808L108.248 33.6067L108.275 33.6323L111.703 29.9929ZM101.588 38.0779V33.0779H96.5882V38.0779H101.588ZM102.708 40.3879L99.79 44.4479L99.8195 44.4691L99.8493 44.4899L102.708 40.3879ZM108.553 40.9479L109.808 45.7878L109.868 45.7724L109.927 45.7555L108.553 40.9479ZM110.513 40.1429L108.59 35.5275L108.366 35.6208L108.152 35.7355L110.513 40.1429ZM111.598 40.3879L107.126 42.6239L107.154 42.6791L107.183 42.7336L111.598 40.3879ZM112.788 42.6279L117.26 40.3918L117.233 40.3366L117.204 40.2821L112.788 42.6279ZM112.543 43.7479L115.293 47.9237L115.305 47.916L115.317 47.9081L112.543 43.7479ZM109.288 45.1129L110.413 49.9848L109.288 45.1129ZM107.818 34.6129V39.6129H112.818V34.6129H107.818ZM102.393 32.5829L105.765 36.2753L105.807 36.2362L105.849 36.1961L102.393 32.5829ZM101.588 34.6129H96.5882V39.6129H101.588V34.6129ZM105.123 40.5329C103.721 40.5329 102.652 40.3002 101.826 39.95L97.9205 49.1558C100.175 50.1122 102.606 50.5329 105.123 50.5329V40.5329ZM101.851 39.9608C101.168 39.6663 100.732 39.2865 100.406 38.8054L92.1308 44.4204C93.5777 46.5526 95.5455 48.1328 97.8951 49.1449L101.851 39.9608ZM100.406 38.8054C100.184 38.4788 99.9382 37.9073 99.9382 36.8179H89.9382C89.9382 39.5084 90.5791 42.1336 92.1308 44.4204L100.406 38.8054ZM99.9382 36.8179C99.9382 34.8156 100.476 34.0493 100.864 33.6882L94.0521 26.3675C91.0801 29.1331 89.9382 32.8935 89.9382 36.8179H99.9382ZM100.864 33.6882C101.321 33.2631 102.341 32.6829 104.703 32.6829V22.6829C100.766 22.6829 96.9553 23.6659 94.0521 26.3675L100.864 33.6882ZM104.703 32.6829C107 32.6829 107.882 33.2519 108.221 33.5808L115.186 26.405C112.351 23.6538 108.566 22.6829 104.703 22.6829V32.6829ZM108.275 33.6323C108.664 33.999 109.118 34.6681 109.118 36.3279H119.118C119.118 32.5743 117.962 29.0201 115.132 26.3534L108.275 33.6323ZM109.118 36.3279C109.118 36.2865 109.113 35.3215 109.98 34.3372C110.953 33.231 112.143 33.0779 112.578 33.0779V43.0779C114.04 43.0779 116 42.6331 117.487 40.9435C118.866 39.3759 119.118 37.5359 119.118 36.3279H109.118ZM112.578 33.0779H101.588V43.0779H112.578V33.0779ZM96.5882 38.0779C96.5882 40.5197 97.6034 42.8763 99.79 44.4479L105.626 36.3278C105.876 36.5074 106.165 36.8083 106.367 37.2265C106.563 37.6292 106.588 37.9535 106.588 38.0779H96.5882ZM99.8493 44.4899C101.841 45.878 104.206 46.1929 106.173 46.1929V36.1929C105.678 36.1929 105.399 36.1482 105.283 36.1213C105.169 36.0947 105.313 36.1087 105.567 36.2859L99.8493 44.4899ZM106.173 46.1929C107.375 46.1929 108.625 46.0944 109.808 45.7878L107.298 36.1079C107.221 36.1279 106.885 36.1929 106.173 36.1929V46.1929ZM109.927 45.7555C110.952 45.4626 111.935 45.0534 112.874 44.5503L108.152 35.7355C107.785 35.9323 107.461 36.0598 107.18 36.1402L109.927 45.7555ZM112.436 44.7583C112.503 44.7306 112.464 44.7498 112.355 44.784C112.298 44.8017 112.175 44.8383 112.005 44.8737C111.862 44.9036 111.522 44.9679 111.073 44.9679V34.9679C110.221 34.9679 109.539 35.1868 109.372 35.2392C109.076 35.3317 108.804 35.4385 108.59 35.5275L112.436 44.7583ZM111.073 44.9679C109.964 44.9679 108.974 44.5653 108.238 43.9772C107.583 43.4531 107.26 42.8908 107.126 42.6239L116.07 38.1518C115.549 37.1083 114.031 34.9679 111.073 34.9679V44.9679ZM107.183 42.7336L108.373 44.9736L117.204 40.2821L116.014 38.0421L107.183 42.7336ZM108.316 44.8639C108.308 44.8481 108.245 44.7229 108.176 44.5153C108.14 44.4069 108.091 44.2432 108.049 44.035C108.009 43.8319 107.963 43.5282 107.963 43.1529H117.963C117.963 41.7621 117.397 40.6643 117.26 40.3918L108.316 44.8639ZM107.963 43.1529C107.963 40.8686 109.521 39.7531 109.77 39.5876L115.317 47.9081C116.125 47.3693 117.963 45.8571 117.963 43.1529H107.963ZM109.793 39.572C109.374 39.8479 108.849 40.0829 108.164 40.2409L110.413 49.9848C112.154 49.5829 113.799 48.9078 115.293 47.9237L109.793 39.572ZM108.164 40.2409C107.399 40.4175 106.4 40.5329 105.123 40.5329V50.5329C106.974 50.5329 108.751 50.3683 110.413 49.9848L108.164 40.2409ZM112.818 34.6129C112.818 32.7225 112.237 30.5887 110.501 28.9311L103.596 36.1646C103.286 35.869 103.067 35.5171 102.941 35.1785C102.823 34.8615 102.818 34.646 102.818 34.6129H112.818ZM110.501 28.9311C108.713 27.2244 106.479 26.8129 104.738 26.8129V36.8129C105.051 36.8129 104.357 36.8913 103.596 36.1646L110.501 28.9311ZM104.738 26.8129C102.923 26.8129 100.711 27.2727 98.9371 28.9697L105.849 36.1961C105.523 36.5087 105.183 36.6767 104.942 36.7558C104.722 36.8279 104.629 36.8129 104.738 36.8129V26.8129ZM99.0219 28.8904C97.2526 30.5058 96.5882 32.6324 96.5882 34.6129H106.588C106.588 34.6973 106.575 34.9545 106.437 35.301C106.292 35.6667 106.058 36.0078 105.765 36.2753L99.0219 28.8904ZM101.588 39.6129H107.818V29.6129H101.588V39.6129ZM130.702 42.3829L127.3 46.0468L127.31 46.0562L127.32 46.0655L130.702 42.3829ZM130.597 23.8329L127.177 20.1852L127.168 20.1941L127.158 20.2031L130.597 23.8329ZM145.017 21.2429L143.768 26.0843L143.805 26.0937L143.841 26.1027L145.017 21.2429ZM148.657 22.7479L145.884 26.9081L145.928 26.9376L145.973 26.9662L148.657 22.7479ZM148.797 24.1129L153.105 26.6505L153.193 26.5026L153.269 26.3489L148.797 24.1129ZM147.292 26.6679L142.984 24.1302L142.857 24.3456L142.752 24.5726L147.292 26.6679ZM146.032 26.8779L143.623 31.2589L143.708 31.3062L143.796 31.35L146.032 26.8779ZM136.057 27.6129L132.422 24.1797L132.42 24.1818L136.057 27.6129ZM136.197 38.6379L139.733 35.1023V35.1023L136.197 38.6379ZM146.417 39.3729L144.181 34.9007L144.139 34.9218L144.097 34.9437L146.417 39.3729ZM147.677 39.5479L143.358 42.0672L143.36 42.0707L147.677 39.5479ZM149.252 42.2429L144.935 44.7657L144.95 44.7906L144.965 44.8153L149.252 42.2429ZM149.042 43.5029L151.883 47.6174L151.964 47.5617L152.042 47.5029L149.042 43.5029ZM140.362 40.5329C137.03 40.5329 135.174 39.7007 134.084 38.7002L127.32 46.0655C130.804 49.265 135.387 50.5329 140.362 50.5329V40.5329ZM134.104 38.7189C133.12 37.8051 132.272 36.2189 132.272 33.1079H122.272C122.272 38.1168 123.711 42.714 127.3 46.0468L134.104 38.7189ZM132.272 33.1079C132.272 29.9155 133.119 28.3315 134.036 27.4626L127.158 20.2031C123.642 23.5343 122.272 28.1336 122.272 33.1079H132.272ZM134.017 27.4806C135.049 26.5133 136.845 25.6829 140.152 25.6829V15.6829C135.199 15.6829 130.626 16.9525 127.177 20.1852L134.017 27.4806ZM140.152 25.6829C141.609 25.6829 142.802 25.8349 143.768 26.0843L146.267 16.4015C144.339 15.9041 142.288 15.6829 140.152 15.6829V25.6829ZM143.841 26.1027C144.862 26.3496 145.501 26.6527 145.884 26.9081L151.431 18.5876C149.854 17.5363 148.065 16.8361 146.193 16.3831L143.841 26.1027ZM145.973 26.9662C145.607 26.7331 145.096 26.3161 144.68 25.6351C144.243 24.9205 144.042 24.1282 144.042 23.3779H154.042C154.042 21.073 152.729 19.4128 151.342 18.5296L145.973 26.9662ZM144.042 23.3779C144.042 23.0142 144.086 22.7236 144.124 22.5351C144.163 22.3414 144.207 22.1938 144.238 22.103C144.295 21.9303 144.34 21.8459 144.325 21.8768L153.269 26.3489C153.452 25.9831 154.042 24.8153 154.042 23.3779H144.042ZM144.489 21.5752L142.984 24.1302L151.6 29.2055L153.105 26.6505L144.489 21.5752ZM142.752 24.5726C142.885 24.2848 143.211 23.6838 143.894 23.1285C144.662 22.5044 145.663 22.1229 146.732 22.1229V32.1229C149.73 32.1229 151.282 29.9543 151.832 28.7631L142.752 24.5726ZM146.732 22.1229C147.16 22.1229 147.492 22.1822 147.678 22.2231C147.877 22.2665 148.024 22.3142 148.104 22.3423C148.257 22.3958 148.322 22.4328 148.268 22.4057L143.796 31.35C144.069 31.4862 144.414 31.6457 144.8 31.7809C145.106 31.888 145.826 32.1229 146.732 32.1229V22.1229ZM148.442 22.4968C146.179 21.2524 143.675 20.7229 141.097 20.7229V30.7229C142.299 30.7229 143.085 30.9633 143.623 31.2589L148.442 22.4968ZM141.097 20.7229C137.921 20.7229 134.783 21.6795 132.422 24.1797L139.692 31.046C139.711 31.0262 139.933 30.7229 141.097 30.7229V20.7229ZM132.42 24.1818C130.065 26.6784 129.307 29.95 129.307 33.1079H139.307C139.307 32.2808 139.408 31.7475 139.509 31.4314C139.603 31.1361 139.689 31.0496 139.694 31.044L132.42 24.1818ZM129.307 33.1079C129.307 36.3687 130.166 39.6773 132.662 42.1734L139.733 35.1023C139.709 35.0784 139.307 34.7004 139.307 33.1079H129.307ZM132.662 42.1734C135.057 44.5683 138.154 45.5279 141.342 45.5279V35.5279C140.191 35.5279 139.858 35.2274 139.733 35.1023L132.662 42.1734ZM141.342 45.5279C143.939 45.5279 146.449 45.0007 148.737 43.802L144.097 34.9437C143.446 35.285 142.572 35.5279 141.342 35.5279V45.5279ZM148.653 43.845C148.707 43.8179 148.642 43.8549 148.489 43.9084C148.409 43.9365 148.262 43.9843 148.063 44.0277C147.877 44.0685 147.545 44.1279 147.117 44.1279V34.1279C146.211 34.1279 145.491 34.3627 145.185 34.4698C144.799 34.605 144.454 34.7645 144.181 34.9007L148.653 43.845ZM147.117 44.1279C146.02 44.1279 145.086 43.7361 144.415 43.2329C143.809 42.7788 143.491 42.2946 143.358 42.0672L151.996 37.0285C151.459 36.1077 149.943 34.1279 147.117 34.1279V44.1279ZM143.36 42.0707L144.935 44.7657L153.569 39.72L151.994 37.025L143.36 42.0707ZM144.965 44.8153C144.839 44.6056 144.462 43.9156 144.462 42.8729H154.462C154.462 41.4568 153.945 40.3468 153.54 39.6704L144.965 44.8153ZM144.462 42.8729C144.462 41.8063 144.831 40.9625 145.197 40.4144C145.537 39.9042 145.891 39.6163 146.042 39.5029L152.042 47.5029C152.75 46.9724 154.462 45.466 154.462 42.8729H144.462ZM146.201 39.3884C145.444 39.9114 143.738 40.5329 140.362 40.5329V50.5329C144.64 50.5329 148.721 49.801 151.883 47.6174L146.201 39.3884ZM152.112 44.5879L148.426 47.9665L148.5 48.0466L148.577 48.1234L152.112 44.5879ZM152.147 21.6629L155.683 25.1984L155.753 25.1277L155.821 25.0543L152.147 21.6629ZM169.332 23.2729L172.664 19.5452L169.332 23.2729ZM169.332 35.5579L172.661 39.2886L172.664 39.2855L169.332 35.5579ZM158.797 37.5879V32.5879H153.797V37.5879H158.797ZM158.377 44.5879L161.913 48.1234L158.377 44.5879ZM163.767 31.7429L160.311 28.1297L160.271 28.1681L160.232 28.2073L163.767 31.7429ZM163.767 27.0879L160.232 30.6234L160.271 30.6627L160.311 30.7011L163.767 27.0879ZM158.797 26.3179V21.3179H153.797V26.3179H158.797ZM158.797 32.5129H153.797V37.5129H158.797V32.5129ZM153.547 40.0079C153.547 40.0079 153.594 40.0077 153.678 40.0179C153.762 40.0281 153.903 40.0508 154.085 40.1042C154.447 40.21 155.06 40.4649 155.648 41.0523L148.577 48.1234C150.272 49.8192 152.423 50.0079 153.547 50.0079V40.0079ZM155.798 41.2092C156.29 41.7463 156.521 42.2936 156.626 42.6551C156.726 43.0014 156.727 43.2293 156.727 43.2579H146.727C146.727 44.4051 146.943 46.3485 148.426 47.9665L155.798 41.2092ZM156.727 43.2579V22.9929H146.727V43.2579H156.727ZM156.727 22.9929C156.727 23.021 156.736 24.1447 155.683 25.1984L148.612 18.1273C146.998 19.7411 146.727 21.7514 146.727 22.9929H156.727ZM155.821 25.0543C155.279 25.6411 154.68 25.9379 154.253 26.0768C153.852 26.2068 153.582 26.2079 153.547 26.2079V16.2079C152.294 16.2079 150.13 16.4762 148.473 18.2715L155.821 25.0543ZM153.547 26.2079H162.122V16.2079H153.547V26.2079ZM162.122 26.2079C164.839 26.2079 165.781 26.8049 166 27.0005L172.664 19.5452C169.803 16.9875 165.938 16.2079 162.122 16.2079V26.2079ZM166 27.0005C166.165 27.1484 166.642 27.6431 166.642 29.4329H176.642C176.642 25.7626 175.579 22.1507 172.664 19.5452L166 27.0005ZM166.642 29.4329C166.642 31.1837 166.174 31.6745 166 31.8302L172.664 39.2855C175.57 36.6879 176.642 33.0953 176.642 29.4329H166.642ZM166.003 31.8272C165.824 31.9871 164.9 32.5879 162.122 32.5879V42.5879C165.924 42.5879 169.807 41.8353 172.661 39.2886L166.003 31.8272ZM162.122 32.5879H158.797V42.5879H162.122V32.5879ZM153.797 37.5879V43.2579H163.797V37.5879H153.797ZM153.797 43.2579C153.797 43.2298 153.788 42.1061 154.842 41.0523L161.913 48.1234C163.526 46.5097 163.797 44.4993 163.797 43.2579H153.797ZM154.842 41.0523C155.429 40.4649 156.042 40.21 156.404 40.1042C156.586 40.0508 156.727 40.0281 156.811 40.0179C156.895 40.0077 156.942 40.0079 156.942 40.0079V50.0079C158.066 50.0079 160.217 49.8192 161.913 48.1234L154.842 41.0523ZM156.942 40.0079H153.547V50.0079H156.942V40.0079ZM161.562 37.5129C163.408 37.5129 165.582 36.9989 167.303 35.2784L160.232 28.2073C160.545 27.8942 160.892 27.7012 161.182 27.5999C161.45 27.5064 161.603 27.5129 161.562 27.5129V37.5129ZM167.223 35.3561C169.076 33.5841 169.572 31.2883 169.572 29.4329H159.572C159.572 29.5247 159.558 29.3958 159.649 29.135C159.749 28.8477 159.953 28.4717 160.311 28.1297L167.223 35.3561ZM169.572 29.4329C169.572 27.5933 169.096 25.266 167.223 23.4747L160.311 30.7011C159.939 30.3458 159.737 29.9606 159.642 29.6825C159.556 29.4314 159.572 29.3179 159.572 29.4329H169.572ZM167.303 23.5523C165.582 21.8318 163.408 21.3179 161.562 21.3179V31.3179C161.603 31.3179 161.45 31.3243 161.182 31.2308C160.892 31.1295 160.545 30.9366 160.232 30.6234L167.303 23.5523ZM161.562 21.3179H158.797V31.3179H161.562V21.3179ZM153.797 26.3179V32.5129H163.797V26.3179H153.797ZM158.797 37.5129H161.562V27.5129H158.797V37.5129ZM177.073 44.9029L175.828 49.7453L177.073 44.9029ZM173.048 43.1879L175.884 39.0703L175.809 39.0186L175.732 38.9696L173.048 43.1879ZM172.908 41.8229L168.585 39.3108L168.506 39.4464L168.436 39.5868L172.908 41.8229ZM174.413 39.2329L178.736 41.745L178.777 41.6748L178.815 41.6034L174.413 39.2329ZM175.708 39.0579L173.087 43.3162L173.15 43.3549L173.214 43.3918L175.708 39.0579ZM185.053 39.6179L182.016 35.6461L181.987 35.668L181.958 35.6904L185.053 39.6179ZM185.263 34.1929L182.089 38.0565L182.131 38.0909L182.174 38.1245L185.263 34.1929ZM180.223 33.5979L181.019 38.5341L181.096 38.5216L181.173 38.5068L180.223 33.5979ZM178.403 34.0879L180.096 38.7923L180.236 38.742L180.372 38.6836L178.403 34.0879ZM174.308 33.7029L171.184 37.6072L174.308 33.7029ZM173.503 31.6729L168.513 31.3585L168.511 31.3843L168.51 31.4101L173.503 31.6729ZM174.063 22.7829L169.082 22.3497L169.076 22.4091L169.073 22.4685L174.063 22.7829ZM174.483 21.5929L170.947 18.0573L170.863 18.1415L170.783 18.2295L174.483 21.5929ZM191.738 21.6279L187.897 24.8288L188.042 25.003L188.202 25.1634L191.738 21.6279ZM191.738 25.9679L188.052 22.5892L188.045 22.5969L188.038 22.6045L191.738 25.9679ZM179.803 26.3529V21.3529H175.102L174.812 26.0448L179.803 26.3529ZM179.628 29.1879L174.637 28.8798L174.217 35.6945L180.84 34.0386L179.628 29.1879ZM181.483 28.9079L181.936 33.8873L182.01 33.8806L182.084 33.8715L181.483 28.9079ZM190.758 30.6579L193.731 26.6381L190.758 30.6579ZM191.878 41.5429L187.844 38.5892L187.839 38.5956L187.834 38.602L191.878 41.5429ZM187.958 44.5179L189.826 49.1558L189.853 49.1447L189.881 49.1333L187.958 44.5179ZM182.218 40.5329C180.814 40.5329 179.519 40.3692 178.318 40.0604L175.828 49.7453C177.893 50.2765 180.028 50.5329 182.218 50.5329V40.5329ZM178.318 40.0604C177.081 39.7422 176.323 39.3722 175.884 39.0703L170.211 47.3054C171.873 48.4501 173.798 49.2235 175.828 49.7453L178.318 40.0604ZM175.732 38.9696C176.098 39.2026 176.609 39.6196 177.025 40.3006C177.462 41.0152 177.663 41.8075 177.663 42.5579H167.663C167.663 44.8627 168.976 46.5229 170.363 47.4062L175.732 38.9696ZM177.663 42.5579C177.663 42.9216 177.619 43.2121 177.581 43.4006C177.542 43.5943 177.498 43.7419 177.467 43.8328C177.41 44.0054 177.365 44.0898 177.38 44.0589L168.436 39.5868C168.253 39.9527 167.663 41.1204 167.663 42.5579H177.663ZM177.231 44.335L178.736 41.745L170.09 36.7208L168.585 39.3108L177.231 44.335ZM178.815 41.6034C178.709 41.8011 178.418 42.2933 177.828 42.7722C177.167 43.3096 176.18 43.7779 174.973 43.7779V33.7779C171.944 33.7779 170.454 36.0382 170.01 36.8624L178.815 41.6034ZM174.973 43.7779C174.266 43.7779 173.75 43.6092 173.517 43.5203C173.264 43.424 173.114 43.3329 173.087 43.3162L178.328 34.7996C177.837 34.4975 176.6 33.7779 174.973 33.7779V43.7779ZM173.214 43.3918C175.814 44.8877 178.741 45.5279 181.798 45.5279V35.5279C180.142 35.5279 179.008 35.1881 178.201 34.724L173.214 43.3918ZM181.798 45.5279C183.852 45.5279 186.187 45.0897 188.147 43.5453L181.958 35.6904C182.057 35.6126 182.147 35.5602 182.214 35.527C182.28 35.4945 182.318 35.4842 182.315 35.485C182.312 35.486 182.271 35.4971 182.183 35.5078C182.095 35.5185 181.969 35.5279 181.798 35.5279V45.5279ZM188.09 43.5897C190.364 41.8506 191.243 39.3353 191.243 36.9229H181.243C181.243 36.9665 181.236 36.7764 181.371 36.4695C181.519 36.1354 181.756 35.8447 182.016 35.6461L188.09 43.5897ZM191.243 36.9229C191.243 34.9676 190.769 32.1604 188.352 30.2613L182.174 38.1245C181.647 37.7108 181.393 37.2318 181.292 36.9497C181.206 36.7095 181.243 36.6562 181.243 36.9229H191.243ZM188.437 30.3292C186.556 28.7845 184.302 28.3879 182.428 28.3879V38.3879C182.698 38.3879 182.767 38.4186 182.698 38.399C182.616 38.3755 182.373 38.2894 182.089 38.0565L188.437 30.3292ZM182.428 28.3879C181.367 28.3879 180.313 28.4876 179.273 28.689L181.173 38.5068C181.579 38.4282 181.996 38.3879 182.428 38.3879V28.3879ZM179.427 28.6617C178.439 28.821 177.409 29.0738 176.433 29.4921L180.372 38.6836C180.366 38.6865 180.411 38.6666 180.525 38.6359C180.638 38.6056 180.8 38.5694 181.019 38.5341L179.427 28.6617ZM176.709 29.3834C176.698 29.3875 176.655 29.4029 176.548 29.4029V39.4029C177.747 39.4029 178.941 39.2082 180.096 38.7923L176.709 29.3834ZM176.548 29.4029C176.518 29.4029 176.616 29.399 176.797 29.4555C176.988 29.5153 177.215 29.6254 177.431 29.7985L171.184 37.6072C172.835 38.9278 174.758 39.4029 176.548 39.4029V29.4029ZM177.431 29.7985C177.8 30.0932 178.122 30.5108 178.317 31.0022C178.5 31.4632 178.502 31.815 178.496 31.9357L168.51 31.4101C168.397 33.5609 169.095 35.9359 171.184 37.6072L177.431 29.7985ZM178.493 31.9872L179.053 23.0972L169.073 22.4685L168.513 31.3585L178.493 31.9872ZM179.044 23.216C179.04 23.2566 179.021 23.455 178.918 23.747C178.812 24.0466 178.599 24.4985 178.183 24.9562L170.783 18.2295C169.506 19.6348 169.174 21.2888 169.082 22.3497L179.044 23.216ZM178.018 25.1284C177.386 25.7609 176.728 26.0166 176.374 26.1164C176.191 26.168 176.05 26.1895 175.97 26.1987C175.928 26.2036 175.897 26.2058 175.877 26.2068C175.868 26.2074 175.86 26.2076 175.855 26.2077C175.85 26.2079 175.848 26.2079 175.848 26.2079V16.2079C174.837 16.2079 172.656 16.3487 170.947 18.0573L178.018 25.1284ZM175.848 26.2079H190.408V16.2079H175.848V26.2079ZM190.408 26.2079C190.396 26.2079 190.332 26.2075 190.225 26.1939C190.12 26.1804 189.946 26.1506 189.725 26.0808C189.283 25.9413 188.541 25.6016 187.897 24.8288L195.579 18.4269C193.862 16.3671 191.438 16.2079 190.408 16.2079V26.2079ZM188.202 25.1634C187.593 24.5544 187.332 23.9167 187.224 23.5432C187.169 23.3536 187.145 23.205 187.134 23.114C187.123 23.0221 187.123 22.9672 187.123 22.9579H197.123C197.123 21.9076 196.957 19.7758 195.273 18.0923L188.202 25.1634ZM187.123 22.9579V24.6029H197.123V22.9579H187.123ZM187.123 24.6029C187.123 24.6011 187.12 24.3921 187.214 24.0593C187.312 23.7144 187.539 23.1494 188.052 22.5892L195.424 29.3465C196.932 27.7011 197.123 25.7129 197.123 24.6029H187.123ZM188.038 22.6045C188.717 21.8578 189.459 21.564 189.84 21.4538C190.039 21.3961 190.192 21.3727 190.277 21.3627C190.322 21.3574 190.356 21.3551 190.376 21.354C190.387 21.3534 190.395 21.3531 190.4 21.353C190.405 21.3529 190.408 21.3529 190.408 21.3529V31.3529C191.341 31.3529 193.698 31.2443 195.438 29.3312L188.038 22.6045ZM190.408 21.3529H179.803V31.3529H190.408V21.3529ZM174.812 26.0448L174.637 28.8798L184.618 29.4959L184.793 26.6609L174.812 26.0448ZM180.84 34.0386C180.954 34.0101 181.288 33.9462 181.936 33.8873L181.03 23.9284C180.138 24.0095 179.235 24.1323 178.415 24.3372L180.84 34.0386ZM182.084 33.8715C182.707 33.7961 183.189 33.7679 183.548 33.7679V23.7679C182.694 23.7679 181.799 23.833 180.881 23.9442L182.084 33.8715ZM183.548 33.7679C186.057 33.7679 187.259 34.2889 187.784 34.6776L193.731 26.6381C190.85 24.5069 187.245 23.7679 183.548 23.7679V33.7679ZM187.784 34.6776C187.851 34.7269 187.941 34.805 188.044 35.0572C188.165 35.3543 188.313 35.9308 188.313 36.9229H198.313C198.313 33.0624 197.149 29.1666 193.731 26.6381L187.784 34.6776ZM188.313 36.9229C188.313 37.7404 188.113 38.2215 187.844 38.5892L195.912 44.4966C197.556 42.2509 198.313 39.652 198.313 36.9229H188.313ZM187.834 38.602C187.516 39.0393 186.995 39.5026 186.035 39.9025L189.881 49.1333C192.281 48.1332 194.373 46.6131 195.921 44.4837L187.834 38.602ZM186.09 39.8799C185.103 40.2775 183.841 40.5329 182.218 40.5329V50.5329C184.888 50.5329 187.453 50.1115 189.826 49.1558L186.09 39.8799ZM197.959 42.3479L194.345 45.8031L197.959 42.3479ZM197.959 23.8679L194.345 20.4127L197.959 23.8679ZM209.439 26.2479L213.514 29.1444L216.751 24.5904L211.867 21.8771L209.439 26.2479ZM203.139 27.5079L199.016 24.6787L198.997 24.7064L198.979 24.7344L203.139 27.5079ZM202.474 36.0479L197.922 38.1169L201.517 46.0254L206.549 38.9444L202.474 36.0479ZM211.014 38.7429L206.866 35.951L206.86 35.9602L206.854 35.9694L211.014 38.7429ZM211.714 30.0629L216.365 28.227L212.974 19.638L207.635 27.1716L211.714 30.0629ZM204.644 40.0379L200.565 37.1466L197.1 42.035L202.529 44.5688L204.644 40.0379ZM207.094 40.5329C203.863 40.5329 202.344 39.6996 201.573 38.8927L194.345 45.8031C197.633 49.2428 202.204 50.5329 207.094 50.5329V40.5329ZM201.573 38.8927C200.721 38.0015 199.914 36.3461 199.914 33.1079H189.914C189.914 37.9429 191.137 42.4476 194.345 45.8031L201.573 38.8927ZM199.914 33.1079C199.914 29.8696 200.721 28.2143 201.573 27.3231L194.345 20.4127C191.137 23.7681 189.914 28.2728 189.914 33.1079H199.914ZM201.573 27.3231C202.344 26.5162 203.863 25.6829 207.094 25.6829V15.6829C202.204 15.6829 197.633 16.9729 194.345 20.4127L201.573 27.3231ZM207.094 25.6829C210.324 25.6829 211.843 26.5162 212.615 27.3231L219.843 20.4127C216.554 16.9729 211.983 15.6829 207.094 15.6829V25.6829ZM212.615 27.3231C213.467 28.2143 214.274 29.8696 214.274 33.1079H224.274C224.274 28.2728 223.051 23.7681 219.843 20.4127L212.615 27.3231ZM214.274 33.1079C214.274 36.3461 213.467 38.0015 212.615 38.8927L219.843 45.8031C223.051 42.4476 224.274 37.9429 224.274 33.1079H214.274ZM212.615 38.8927C211.843 39.6996 210.324 40.5329 207.094 40.5329V50.5329C211.983 50.5329 216.554 49.2428 219.843 45.8031L212.615 38.8927ZM211.867 21.8771C210.307 21.0102 208.633 20.7229 207.094 20.7229V30.7229C207.252 30.7229 207.309 30.738 207.288 30.7333C207.263 30.7277 207.158 30.7005 207.011 30.6187L211.867 21.8771ZM207.094 20.7229C204.109 20.7229 201.009 21.7747 199.016 24.6787L207.261 30.3371C207.217 30.4012 207.148 30.483 207.052 30.5629C206.957 30.6427 206.865 30.6956 206.797 30.7265C206.665 30.7858 206.716 30.7229 207.094 30.7229V20.7229ZM198.979 24.7344C197.357 27.167 196.949 30.2484 196.949 33.1079H206.949C206.949 32.0779 207.031 31.3401 207.137 30.8397C207.245 30.3302 207.349 30.2059 207.299 30.2814L198.979 24.7344ZM196.949 33.1079C196.949 34.7409 197.182 36.489 197.922 38.1169L207.026 33.9789C207.05 34.0335 207.029 34.0061 207.002 33.8564C206.975 33.7062 206.949 33.4633 206.949 33.1079H196.949ZM206.549 38.9444L213.514 29.1444L205.363 23.3513L198.398 33.1513L206.549 38.9444ZM207.094 45.5279C210.072 45.5279 213.201 44.4762 215.174 41.5164L206.854 35.9694C206.903 35.895 206.98 35.8031 207.084 35.7141C207.189 35.6252 207.29 35.5661 207.367 35.5312C207.514 35.4643 207.474 35.5279 207.094 35.5279V45.5279ZM215.162 41.5347C216.81 39.0856 217.239 35.9969 217.239 33.1079H207.239C207.239 34.1296 207.155 34.8629 207.047 35.362C206.937 35.8672 206.829 36.0055 206.866 35.951L215.162 41.5347ZM217.239 33.1079C217.239 31.4584 216.986 29.8022 216.365 28.227L207.063 31.8987C207.141 32.0969 207.239 32.4707 207.239 33.1079H217.239ZM207.635 27.1716L200.565 37.1466L208.723 42.9291L215.793 32.9541L207.635 27.1716ZM202.529 44.5688C204.015 45.262 205.579 45.5279 207.094 45.5279V35.5279C206.742 35.5279 206.673 35.4671 206.758 35.507L202.529 44.5688Z" fill="white" mask="url(#path-1-outside-1_2_5)"/>
</g>
<defs>
<filter id="filter0_d_2_5" x="5.91556" y="20.6829" width="217.358" height="38.275" filterUnits="userSpaceOnUse" color-interpolation-filters="sRGB">
<feFlood flood-opacity="0" result="BackgroundImageFix"/>
<feColorMatrix in="SourceAlpha" type="matrix" values="0 0 0 0 0 0 0 0 0 0 0 0 0 0 0 0 0 0 127 0" result="hardAlpha"/>
<feOffset dy="4"/>
<feGaussianBlur stdDeviation="2"/>
<feComposite in2="hardAlpha" operator="out"/>
<feColorMatrix type="matrix" values="0 0 0 0 0 0 0 0 0 0 0 0 0 0 0 0 0 0 0.25 0"/>
<feBlend mode="normal" in2="BackgroundImageFix" result="effect1_dropShadow_2_5"/>
<feBlend mode="normal" in="SourceGraphic" in2="effect1_dropShadow_2_5" result="shape"/>
</filter>
</defs>
</svg>
