<svg width="219" height="39" viewBox="0 0 219 39" fill="none" xmlns="http://www.w3.org/2000/svg">
<g filter="url(#filter0_d_743_262)">
<mask id="path-1-outside-1_743_262" maskUnits="userSpaceOnUse" x="-1" y="-5" width="221" height="41" fill="black">
<rect fill="white" x="-1" y="-5" width="221" height="41"/>
<path d="M6.4876 25C5.81093 25 5.3326 24.86 5.0526 24.58C4.79593 24.3 4.6676 23.8567 4.6676 23.25V2.95C4.6676 2.34333 4.8076 1.9 5.0876 1.62C5.3676 1.34 5.84593 1.2 6.5226 1.2H9.8476C10.3143 1.2 10.6759 1.25833 10.9326 1.375C11.2126 1.49167 11.4226 1.725 11.5626 2.075L16.6376 14.325L21.7476 2.075C21.8876 1.725 22.0859 1.49167 22.3426 1.375C22.6226 1.25833 22.9959 1.2 23.4626 1.2H26.7876C27.4643 1.2 27.9426 1.34 28.2226 1.62C28.5026 1.9 28.6426 2.34333 28.6426 2.95V23.25C28.6426 23.8567 28.5026 24.3 28.2226 24.58C27.9659 24.86 27.4993 25 26.8226 25H24.0576C23.3809 25 22.9026 24.86 22.6226 24.58C22.3426 24.3 22.2026 23.8567 22.2026 23.25V11.875L18.8076 19.47C18.5743 20.0533 18.3176 20.4733 18.0376 20.73C17.7576 20.9633 17.2909 21.08 16.6376 21.08C16.0076 21.08 15.5526 20.9633 15.2726 20.73C14.9926 20.4733 14.7243 20.0533 14.4676 19.47L11.1076 11.875V23.25C11.1076 23.8567 10.9676 24.3 10.6876 24.58C10.4076 24.86 9.92926 25 9.2526 25H6.4876ZM41.1546 25.525C39.1946 25.525 37.4446 25.1983 35.9046 24.545C34.3879 23.8917 33.1862 22.9117 32.2996 21.605C31.4129 20.2983 30.9696 18.7 30.9696 16.81C30.9696 13.8467 31.8096 11.5833 33.4896 10.02C35.1696 8.45667 37.5846 7.675 40.7346 7.675C43.8146 7.675 46.1479 8.445 47.7346 9.985C49.3446 11.5017 50.1496 13.6133 50.1496 16.32C50.1496 17.4867 49.6362 18.07 48.6096 18.07H37.6196C37.6196 19.0733 37.9929 19.8433 38.7396 20.38C39.5096 20.9167 40.6646 21.185 42.2046 21.185C43.1612 21.185 43.9546 21.1033 44.5846 20.94C45.2379 20.7533 45.8912 20.485 46.5446 20.135C46.8246 20.0183 47.0112 19.96 47.1046 19.96C47.3146 19.96 47.4896 20.1 47.6296 20.38L48.8196 22.62C48.9362 22.8533 48.9946 23.0283 48.9946 23.145C48.9946 23.355 48.8546 23.5533 48.5746 23.74C47.6179 24.37 46.5329 24.825 45.3196 25.105C44.1062 25.385 42.7179 25.525 41.1546 25.525ZM43.8496 14.605C43.8496 13.7183 43.5929 13.03 43.0796 12.54C42.5662 12.05 41.7962 11.805 40.7696 11.805C39.7429 11.805 38.9612 12.0617 38.4246 12.575C37.8879 13.065 37.6196 13.7417 37.6196 14.605H43.8496ZM54.3058 25C53.6291 25 53.1508 24.86 52.8708 24.58C52.5908 24.3 52.4508 23.8567 52.4508 23.25V9.285C52.4508 8.865 52.5208 8.585 52.6608 8.445C52.8241 8.28167 53.1508 8.2 53.6408 8.2H57.2458C57.5258 8.2 57.7358 8.24667 57.8758 8.34C58.0391 8.41 58.1325 8.55 58.1558 8.76L58.3308 9.775C59.7308 8.375 61.4225 7.675 63.4058 7.675C64.1758 7.675 64.8058 7.745 65.2958 7.885C65.7858 8.00167 66.2291 8.2 66.6258 8.48C66.8591 8.64333 66.9758 8.83 66.9758 9.04C66.9758 9.11 66.9525 9.23833 66.9058 9.425L65.7858 12.61C65.6925 12.9367 65.5175 13.1 65.2608 13.1C65.1441 13.1 65.0041 13.0533 64.8408 12.96C64.2108 12.61 63.4525 12.435 62.5658 12.435C61.6791 12.435 60.9441 12.68 60.3608 13.17C59.8008 13.66 59.5208 14.3133 59.5208 15.13V23.25C59.5208 23.8567 59.3808 24.3 59.1008 24.58C58.8441 24.86 58.3775 25 57.7008 25H54.3058ZM77.7886 30.95C76.3886 30.95 74.9536 30.7867 73.4836 30.46C72.0369 30.1567 70.9636 29.76 70.2636 29.27C70.1003 29.13 70.0186 28.9783 70.0186 28.815C70.0186 28.6983 70.0536 28.5817 70.1236 28.465L71.6286 25.7C71.6986 25.5833 71.7686 25.4783 71.8386 25.385C71.9319 25.315 72.0253 25.28 72.1186 25.28C72.1653 25.28 72.3053 25.3267 72.5386 25.42C73.6353 25.98 75.1519 26.26 77.0886 26.26C78.1853 26.26 79.0136 26.0267 79.5736 25.56C80.1336 25.0933 80.4136 24.335 80.4136 23.285C79.9469 23.6117 79.3636 23.88 78.6636 24.09C77.9636 24.2767 77.2169 24.37 76.4236 24.37C73.6469 24.37 71.5236 23.6817 70.0536 22.305C68.6069 20.9283 67.8836 18.9333 67.8836 16.32C67.8836 13.4733 68.7703 11.3267 70.5436 9.88C72.3169 8.41 74.9419 7.675 78.4186 7.675C80.1686 7.675 81.8369 7.92 83.4236 8.41C85.0103 8.9 86.3286 9.51833 87.3786 10.265V21.43C87.3786 24.2767 86.5619 26.575 84.9286 28.325C83.2953 30.075 80.9153 30.95 77.7886 30.95ZM77.9636 19.435C79.6436 19.435 80.4836 18.63 80.4836 17.02V12.785C79.9936 12.575 79.1769 12.47 78.0336 12.47C77.0069 12.47 76.2253 12.7267 75.6886 13.24C75.1753 13.7533 74.9186 14.675 74.9186 16.005C74.9186 17.195 75.1636 18.07 75.6536 18.63C76.1436 19.1667 76.9136 19.435 77.9636 19.435ZM99.8753 25.525C97.9153 25.525 96.1653 25.1983 94.6253 24.545C93.1086 23.8917 91.9069 22.9117 91.0203 21.605C90.1336 20.2983 89.6903 18.7 89.6903 16.81C89.6903 13.8467 90.5303 11.5833 92.2103 10.02C93.8903 8.45667 96.3053 7.675 99.4553 7.675C102.535 7.675 104.869 8.445 106.455 9.985C108.065 11.5017 108.87 13.6133 108.87 16.32C108.87 17.4867 108.357 18.07 107.33 18.07H96.3403C96.3403 19.0733 96.7136 19.8433 97.4603 20.38C98.2303 20.9167 99.3853 21.185 100.925 21.185C101.882 21.185 102.675 21.1033 103.305 20.94C103.959 20.7533 104.612 20.485 105.265 20.135C105.545 20.0183 105.732 19.96 105.825 19.96C106.035 19.96 106.21 20.1 106.35 20.38L107.54 22.62C107.657 22.8533 107.715 23.0283 107.715 23.145C107.715 23.355 107.575 23.5533 107.295 23.74C106.339 24.37 105.254 24.825 104.04 25.105C102.827 25.385 101.439 25.525 99.8753 25.525ZM102.57 14.605C102.57 13.7183 102.314 13.03 101.8 12.54C101.287 12.05 100.517 11.805 99.4903 11.805C98.4636 11.805 97.6819 12.0617 97.1453 12.575C96.6086 13.065 96.3403 13.7417 96.3403 14.605H102.57ZM135.114 25.525C130.961 25.525 127.741 24.475 125.454 22.375C123.168 20.2517 122.024 17.16 122.024 13.1C122.024 9.01667 123.133 5.925 125.349 3.825C127.589 1.725 130.774 0.674998 134.904 0.674998C136.701 0.674998 138.323 0.861665 139.769 1.235C141.216 1.585 142.429 2.08667 143.409 2.74C143.666 2.90333 143.794 3.11333 143.794 3.37C143.794 3.53333 143.713 3.77833 143.549 4.105L142.044 6.66C141.904 6.96333 141.718 7.115 141.484 7.115C141.344 7.115 141.111 7.03333 140.784 6.87C139.384 6.1 137.739 5.715 135.849 5.715C133.679 5.715 131.999 6.345 130.809 7.605C129.643 8.84167 129.059 10.6733 129.059 13.1C129.059 15.5267 129.689 17.37 130.949 18.63C132.209 19.89 133.924 20.52 136.094 20.52C138.008 20.52 139.699 20.135 141.169 19.365C141.496 19.2017 141.729 19.12 141.869 19.12C142.079 19.12 142.266 19.26 142.429 19.54L144.004 22.235C144.144 22.4683 144.214 22.6783 144.214 22.865C144.214 23.075 144.074 23.285 143.794 23.495C141.834 24.8483 138.941 25.525 135.114 25.525ZM148.299 25C147.622 25 147.144 24.86 146.864 24.58C146.607 24.3 146.479 23.8567 146.479 23.25V2.985C146.479 2.37833 146.619 1.935 146.899 1.655C147.179 1.35167 147.646 1.2 148.299 1.2H156.874C160.141 1.2 162.544 1.88833 164.084 3.265C165.624 4.64167 166.394 6.695 166.394 9.425C166.394 12.1317 165.624 14.1733 164.084 15.55C162.567 16.9033 160.164 17.58 156.874 17.58H153.549V23.25C153.549 23.8567 153.409 24.3 153.129 24.58C152.849 24.86 152.371 25 151.694 25H148.299ZM156.314 12.505C157.271 12.505 158.006 12.2483 158.519 11.735C159.056 11.2217 159.324 10.4517 159.324 9.425C159.324 8.375 159.056 7.59333 158.519 7.08C158.006 6.56667 157.271 6.31 156.314 6.31H153.549V12.505H156.314ZM176.97 25.525C175.173 25.525 173.458 25.315 171.825 24.895C170.192 24.475 168.85 23.9033 167.8 23.18C167.543 23.0167 167.415 22.8067 167.415 22.55C167.415 22.3867 167.497 22.1417 167.66 21.815L169.165 19.225C169.328 18.9217 169.515 18.77 169.725 18.77C169.912 18.77 170.157 18.8633 170.46 19.05C172.163 20.03 174.193 20.52 176.55 20.52C177.95 20.52 179.035 20.2167 179.805 19.61C180.598 19.0033 180.995 18.105 180.995 16.915C180.995 15.6083 180.668 14.6983 180.015 14.185C179.362 13.6483 178.417 13.38 177.18 13.38C176.433 13.38 175.698 13.45 174.975 13.59C174.252 13.7067 173.645 13.87 173.155 14.08C172.572 14.29 171.953 14.395 171.3 14.395C170.39 14.395 169.643 14.1617 169.06 13.695C168.477 13.2283 168.208 12.5517 168.255 11.665L168.815 2.775C168.862 2.23833 169.002 1.84167 169.235 1.585C169.492 1.32833 169.947 1.2 170.6 1.2H185.16C185.813 1.2 186.257 1.34 186.49 1.62C186.747 1.87667 186.875 2.32 186.875 2.95V4.595C186.875 5.225 186.747 5.68 186.49 5.96C186.257 6.21667 185.813 6.345 185.16 6.345H174.555L174.38 9.18C174.847 9.06333 175.465 8.97 176.235 8.9C177.005 8.80667 177.693 8.76 178.3 8.76C181.403 8.76 183.807 9.39 185.51 10.65C187.213 11.91 188.065 13.9983 188.065 16.915C188.065 18.6883 187.587 20.2283 186.63 21.535C185.697 22.8183 184.39 23.81 182.71 24.51C181.03 25.1867 179.117 25.525 176.97 25.525ZM201.846 25.525C197.786 25.525 194.741 24.4633 192.711 22.34C190.681 20.2167 189.666 17.1367 189.666 13.1C189.666 9.06333 190.681 5.98333 192.711 3.86C194.741 1.73667 197.786 0.674998 201.846 0.674998C205.906 0.674998 208.951 1.73667 210.981 3.86C213.011 5.98333 214.026 9.06333 214.026 13.1C214.026 17.1367 213.011 20.2167 210.981 22.34C208.951 24.4633 205.906 25.525 201.846 25.525ZM204.191 6.24C203.561 5.89 202.779 5.715 201.846 5.715C200.026 5.715 198.708 6.31 197.891 7.5C197.098 8.69 196.701 10.5567 196.701 13.1C196.701 14.29 196.876 15.27 197.226 16.04L204.191 6.24ZM201.846 20.52C203.666 20.52 204.973 19.925 205.766 18.735C206.583 17.5217 206.991 15.6433 206.991 13.1C206.991 11.9567 206.816 10.9417 206.466 10.055L199.396 20.03C200.096 20.3567 200.913 20.52 201.846 20.52Z"/>
</mask>
<path d="M6.4876 25C5.81093 25 5.3326 24.86 5.0526 24.58C4.79593 24.3 4.6676 23.8567 4.6676 23.25V2.95C4.6676 2.34333 4.8076 1.9 5.0876 1.62C5.3676 1.34 5.84593 1.2 6.5226 1.2H9.8476C10.3143 1.2 10.6759 1.25833 10.9326 1.375C11.2126 1.49167 11.4226 1.725 11.5626 2.075L16.6376 14.325L21.7476 2.075C21.8876 1.725 22.0859 1.49167 22.3426 1.375C22.6226 1.25833 22.9959 1.2 23.4626 1.2H26.7876C27.4643 1.2 27.9426 1.34 28.2226 1.62C28.5026 1.9 28.6426 2.34333 28.6426 2.95V23.25C28.6426 23.8567 28.5026 24.3 28.2226 24.58C27.9659 24.86 27.4993 25 26.8226 25H24.0576C23.3809 25 22.9026 24.86 22.6226 24.58C22.3426 24.3 22.2026 23.8567 22.2026 23.25V11.875L18.8076 19.47C18.5743 20.0533 18.3176 20.4733 18.0376 20.73C17.7576 20.9633 17.2909 21.08 16.6376 21.08C16.0076 21.08 15.5526 20.9633 15.2726 20.73C14.9926 20.4733 14.7243 20.0533 14.4676 19.47L11.1076 11.875V23.25C11.1076 23.8567 10.9676 24.3 10.6876 24.58C10.4076 24.86 9.92926 25 9.2526 25H6.4876ZM41.1546 25.525C39.1946 25.525 37.4446 25.1983 35.9046 24.545C34.3879 23.8917 33.1862 22.9117 32.2996 21.605C31.4129 20.2983 30.9696 18.7 30.9696 16.81C30.9696 13.8467 31.8096 11.5833 33.4896 10.02C35.1696 8.45667 37.5846 7.675 40.7346 7.675C43.8146 7.675 46.1479 8.445 47.7346 9.985C49.3446 11.5017 50.1496 13.6133 50.1496 16.32C50.1496 17.4867 49.6362 18.07 48.6096 18.07H37.6196C37.6196 19.0733 37.9929 19.8433 38.7396 20.38C39.5096 20.9167 40.6646 21.185 42.2046 21.185C43.1612 21.185 43.9546 21.1033 44.5846 20.94C45.2379 20.7533 45.8912 20.485 46.5446 20.135C46.8246 20.0183 47.0112 19.96 47.1046 19.96C47.3146 19.96 47.4896 20.1 47.6296 20.38L48.8196 22.62C48.9362 22.8533 48.9946 23.0283 48.9946 23.145C48.9946 23.355 48.8546 23.5533 48.5746 23.74C47.6179 24.37 46.5329 24.825 45.3196 25.105C44.1062 25.385 42.7179 25.525 41.1546 25.525ZM43.8496 14.605C43.8496 13.7183 43.5929 13.03 43.0796 12.54C42.5662 12.05 41.7962 11.805 40.7696 11.805C39.7429 11.805 38.9612 12.0617 38.4246 12.575C37.8879 13.065 37.6196 13.7417 37.6196 14.605H43.8496ZM54.3058 25C53.6291 25 53.1508 24.86 52.8708 24.58C52.5908 24.3 52.4508 23.8567 52.4508 23.25V9.285C52.4508 8.865 52.5208 8.585 52.6608 8.445C52.8241 8.28167 53.1508 8.2 53.6408 8.2H57.2458C57.5258 8.2 57.7358 8.24667 57.8758 8.34C58.0391 8.41 58.1325 8.55 58.1558 8.76L58.3308 9.775C59.7308 8.375 61.4225 7.675 63.4058 7.675C64.1758 7.675 64.8058 7.745 65.2958 7.885C65.7858 8.00167 66.2291 8.2 66.6258 8.48C66.8591 8.64333 66.9758 8.83 66.9758 9.04C66.9758 9.11 66.9525 9.23833 66.9058 9.425L65.7858 12.61C65.6925 12.9367 65.5175 13.1 65.2608 13.1C65.1441 13.1 65.0041 13.0533 64.8408 12.96C64.2108 12.61 63.4525 12.435 62.5658 12.435C61.6791 12.435 60.9441 12.68 60.3608 13.17C59.8008 13.66 59.5208 14.3133 59.5208 15.13V23.25C59.5208 23.8567 59.3808 24.3 59.1008 24.58C58.8441 24.86 58.3775 25 57.7008 25H54.3058ZM77.7886 30.95C76.3886 30.95 74.9536 30.7867 73.4836 30.46C72.0369 30.1567 70.9636 29.76 70.2636 29.27C70.1003 29.13 70.0186 28.9783 70.0186 28.815C70.0186 28.6983 70.0536 28.5817 70.1236 28.465L71.6286 25.7C71.6986 25.5833 71.7686 25.4783 71.8386 25.385C71.9319 25.315 72.0253 25.28 72.1186 25.28C72.1653 25.28 72.3053 25.3267 72.5386 25.42C73.6353 25.98 75.1519 26.26 77.0886 26.26C78.1853 26.26 79.0136 26.0267 79.5736 25.56C80.1336 25.0933 80.4136 24.335 80.4136 23.285C79.9469 23.6117 79.3636 23.88 78.6636 24.09C77.9636 24.2767 77.2169 24.37 76.4236 24.37C73.6469 24.37 71.5236 23.6817 70.0536 22.305C68.6069 20.9283 67.8836 18.9333 67.8836 16.32C67.8836 13.4733 68.7703 11.3267 70.5436 9.88C72.3169 8.41 74.9419 7.675 78.4186 7.675C80.1686 7.675 81.8369 7.92 83.4236 8.41C85.0103 8.9 86.3286 9.51833 87.3786 10.265V21.43C87.3786 24.2767 86.5619 26.575 84.9286 28.325C83.2953 30.075 80.9153 30.95 77.7886 30.95ZM77.9636 19.435C79.6436 19.435 80.4836 18.63 80.4836 17.02V12.785C79.9936 12.575 79.1769 12.47 78.0336 12.47C77.0069 12.47 76.2253 12.7267 75.6886 13.24C75.1753 13.7533 74.9186 14.675 74.9186 16.005C74.9186 17.195 75.1636 18.07 75.6536 18.63C76.1436 19.1667 76.9136 19.435 77.9636 19.435ZM99.8753 25.525C97.9153 25.525 96.1653 25.1983 94.6253 24.545C93.1086 23.8917 91.9069 22.9117 91.0203 21.605C90.1336 20.2983 89.6903 18.7 89.6903 16.81C89.6903 13.8467 90.5303 11.5833 92.2103 10.02C93.8903 8.45667 96.3053 7.675 99.4553 7.675C102.535 7.675 104.869 8.445 106.455 9.985C108.065 11.5017 108.87 13.6133 108.87 16.32C108.87 17.4867 108.357 18.07 107.33 18.07H96.3403C96.3403 19.0733 96.7136 19.8433 97.4603 20.38C98.2303 20.9167 99.3853 21.185 100.925 21.185C101.882 21.185 102.675 21.1033 103.305 20.94C103.959 20.7533 104.612 20.485 105.265 20.135C105.545 20.0183 105.732 19.96 105.825 19.96C106.035 19.96 106.21 20.1 106.35 20.38L107.54 22.62C107.657 22.8533 107.715 23.0283 107.715 23.145C107.715 23.355 107.575 23.5533 107.295 23.74C106.339 24.37 105.254 24.825 104.04 25.105C102.827 25.385 101.439 25.525 99.8753 25.525ZM102.57 14.605C102.57 13.7183 102.314 13.03 101.8 12.54C101.287 12.05 100.517 11.805 99.4903 11.805C98.4636 11.805 97.6819 12.0617 97.1453 12.575C96.6086 13.065 96.3403 13.7417 96.3403 14.605H102.57ZM135.114 25.525C130.961 25.525 127.741 24.475 125.454 22.375C123.168 20.2517 122.024 17.16 122.024 13.1C122.024 9.01667 123.133 5.925 125.349 3.825C127.589 1.725 130.774 0.674998 134.904 0.674998C136.701 0.674998 138.323 0.861665 139.769 1.235C141.216 1.585 142.429 2.08667 143.409 2.74C143.666 2.90333 143.794 3.11333 143.794 3.37C143.794 3.53333 143.713 3.77833 143.549 4.105L142.044 6.66C141.904 6.96333 141.718 7.115 141.484 7.115C141.344 7.115 141.111 7.03333 140.784 6.87C139.384 6.1 137.739 5.715 135.849 5.715C133.679 5.715 131.999 6.345 130.809 7.605C129.643 8.84167 129.059 10.6733 129.059 13.1C129.059 15.5267 129.689 17.37 130.949 18.63C132.209 19.89 133.924 20.52 136.094 20.52C138.008 20.52 139.699 20.135 141.169 19.365C141.496 19.2017 141.729 19.12 141.869 19.12C142.079 19.12 142.266 19.26 142.429 19.54L144.004 22.235C144.144 22.4683 144.214 22.6783 144.214 22.865C144.214 23.075 144.074 23.285 143.794 23.495C141.834 24.8483 138.941 25.525 135.114 25.525ZM148.299 25C147.622 25 147.144 24.86 146.864 24.58C146.607 24.3 146.479 23.8567 146.479 23.25V2.985C146.479 2.37833 146.619 1.935 146.899 1.655C147.179 1.35167 147.646 1.2 148.299 1.2H156.874C160.141 1.2 162.544 1.88833 164.084 3.265C165.624 4.64167 166.394 6.695 166.394 9.425C166.394 12.1317 165.624 14.1733 164.084 15.55C162.567 16.9033 160.164 17.58 156.874 17.58H153.549V23.25C153.549 23.8567 153.409 24.3 153.129 24.58C152.849 24.86 152.371 25 151.694 25H148.299ZM156.314 12.505C157.271 12.505 158.006 12.2483 158.519 11.735C159.056 11.2217 159.324 10.4517 159.324 9.425C159.324 8.375 159.056 7.59333 158.519 7.08C158.006 6.56667 157.271 6.31 156.314 6.31H153.549V12.505H156.314ZM176.97 25.525C175.173 25.525 173.458 25.315 171.825 24.895C170.192 24.475 168.85 23.9033 167.8 23.18C167.543 23.0167 167.415 22.8067 167.415 22.55C167.415 22.3867 167.497 22.1417 167.66 21.815L169.165 19.225C169.328 18.9217 169.515 18.77 169.725 18.77C169.912 18.77 170.157 18.8633 170.46 19.05C172.163 20.03 174.193 20.52 176.55 20.52C177.95 20.52 179.035 20.2167 179.805 19.61C180.598 19.0033 180.995 18.105 180.995 16.915C180.995 15.6083 180.668 14.6983 180.015 14.185C179.362 13.6483 178.417 13.38 177.18 13.38C176.433 13.38 175.698 13.45 174.975 13.59C174.252 13.7067 173.645 13.87 173.155 14.08C172.572 14.29 171.953 14.395 171.3 14.395C170.39 14.395 169.643 14.1617 169.06 13.695C168.477 13.2283 168.208 12.5517 168.255 11.665L168.815 2.775C168.862 2.23833 169.002 1.84167 169.235 1.585C169.492 1.32833 169.947 1.2 170.6 1.2H185.16C185.813 1.2 186.257 1.34 186.49 1.62C186.747 1.87667 186.875 2.32 186.875 2.95V4.595C186.875 5.225 186.747 5.68 186.49 5.96C186.257 6.21667 185.813 6.345 185.16 6.345H174.555L174.38 9.18C174.847 9.06333 175.465 8.97 176.235 8.9C177.005 8.80667 177.693 8.76 178.3 8.76C181.403 8.76 183.807 9.39 185.51 10.65C187.213 11.91 188.065 13.9983 188.065 16.915C188.065 18.6883 187.587 20.2283 186.63 21.535C185.697 22.8183 184.39 23.81 182.71 24.51C181.03 25.1867 179.117 25.525 176.97 25.525ZM201.846 25.525C197.786 25.525 194.741 24.4633 192.711 22.34C190.681 20.2167 189.666 17.1367 189.666 13.1C189.666 9.06333 190.681 5.98333 192.711 3.86C194.741 1.73667 197.786 0.674998 201.846 0.674998C205.906 0.674998 208.951 1.73667 210.981 3.86C213.011 5.98333 214.026 9.06333 214.026 13.1C214.026 17.1367 213.011 20.2167 210.981 22.34C208.951 24.4633 205.906 25.525 201.846 25.525ZM204.191 6.24C203.561 5.89 202.779 5.715 201.846 5.715C200.026 5.715 198.708 6.31 197.891 7.5C197.098 8.69 196.701 10.5567 196.701 13.1C196.701 14.29 196.876 15.27 197.226 16.04L204.191 6.24ZM201.846 20.52C203.666 20.52 204.973 19.925 205.766 18.735C206.583 17.5217 206.991 15.6433 206.991 13.1C206.991 11.9567 206.816 10.9417 206.466 10.055L199.396 20.03C200.096 20.3567 200.913 20.52 201.846 20.52Z" fill="#4A249D"/>
<path d="M5.0526 24.58L1.36683 27.9586L1.44024 28.0387L1.51706 28.1155L5.0526 24.58ZM5.0876 1.62L1.55207 -1.91554L1.55206 -1.91553L5.0876 1.62ZM10.9326 1.375L8.86359 5.92683L8.93605 5.95977L9.00952 5.99039L10.9326 1.375ZM11.5626 2.075L6.92021 3.93195L6.93159 3.9604L6.94332 3.9887L11.5626 2.075ZM16.6376 14.325L12.0183 16.2387L16.6217 27.3504L21.2522 16.25L16.6376 14.325ZM21.7476 2.075L26.3622 3.99995L26.3763 3.96605L26.39 3.93195L21.7476 2.075ZM22.3426 1.375L20.4195 -3.24038L20.3461 -3.20977L20.2736 -3.17684L22.3426 1.375ZM28.2226 24.58L24.6871 21.0445L24.6102 21.1213L24.5368 21.2014L28.2226 24.58ZM22.6226 24.58L26.1581 21.0445L26.1581 21.0445L22.6226 24.58ZM22.2026 11.875H27.2026L17.6379 9.83455L22.2026 11.875ZM18.8076 19.47L14.2429 17.4296L14.2022 17.5205L14.1652 17.613L18.8076 19.47ZM18.0376 20.73L21.2385 24.5711L21.3292 24.4955L21.4162 24.4158L18.0376 20.73ZM15.2726 20.73L11.894 24.4158L11.981 24.4955L12.0717 24.5711L15.2726 20.73ZM14.4676 19.47L19.0442 17.4563L19.0401 17.4471L14.4676 19.47ZM11.1076 11.875L15.6801 9.85213L6.1076 11.875H11.1076ZM10.6876 24.58L7.15207 21.0445L7.15206 21.0445L10.6876 24.58ZM6.4876 20C6.48796 20 6.53461 19.9999 6.61894 20.0101C6.70249 20.0202 6.84362 20.043 7.02584 20.0963C7.38737 20.2021 8.00073 20.4571 8.58813 21.0445L1.51706 28.1155C3.21285 29.8113 5.36387 30 6.4876 30V20ZM8.73837 21.2014C9.23068 21.7384 9.46202 22.2857 9.56667 22.6472C9.66692 22.9935 9.6676 23.2215 9.6676 23.25H-0.332402C-0.332402 24.3973 -0.116335 26.3406 1.36683 27.9586L8.73837 21.2014ZM9.6676 23.25V2.95H-0.332402V23.25H9.6676ZM9.6676 2.95C9.6676 2.9781 9.67685 4.10181 8.62313 5.15553L1.55206 -1.91553C-0.0616584 -0.301811 -0.332402 1.70856 -0.332402 2.95H9.6676ZM8.62313 5.15554C8.03572 5.74294 7.42237 5.99787 7.06084 6.10369C6.87862 6.15702 6.73749 6.17979 6.65394 6.18992C6.56961 6.20014 6.52296 6.2 6.5226 6.2V-3.8C5.39888 -3.8 3.24786 -3.61132 1.55207 -1.91554L8.62313 5.15554ZM6.5226 6.2H9.8476V-3.8H6.5226V6.2ZM9.8476 6.2C9.88269 6.2 9.81499 6.20291 9.67269 6.17995C9.53753 6.15816 9.24051 6.09816 8.86359 5.92683L13.0016 -3.17683C11.8046 -3.72094 10.619 -3.8 9.8476 -3.8V6.2ZM9.00952 5.99039C7.76248 5.47078 7.15062 4.50797 6.92021 3.93195L16.205 0.218044C15.6946 -1.05797 14.6627 -2.48745 12.8557 -3.24039L9.00952 5.99039ZM6.94332 3.9887L12.0183 16.2387L21.2569 12.4113L16.1819 0.161297L6.94332 3.9887ZM21.2522 16.25L26.3622 3.99995L17.133 0.150049L12.023 12.4001L21.2522 16.25ZM26.39 3.93195C26.2168 4.36487 25.6788 5.35086 24.4116 5.92684L20.2736 -3.17684C18.4931 -2.36752 17.5584 -0.914871 17.1052 0.218048L26.39 3.93195ZM24.2657 5.99038C23.9591 6.11813 23.7209 6.16562 23.6045 6.18381C23.4847 6.20253 23.4303 6.2 23.4626 6.2V-3.8C22.6545 -3.8 21.5467 -3.71003 20.4195 -3.24038L24.2657 5.99038ZM23.4626 6.2H26.7876V-3.8H23.4626V6.2ZM26.7876 6.2C26.7872 6.2 26.7406 6.20014 26.6563 6.18992C26.5727 6.17979 26.4316 6.15702 26.2494 6.10369C25.8878 5.99788 25.2745 5.74294 24.6871 5.15553L31.7581 -1.91553C30.0623 -3.61132 27.9113 -3.8 26.7876 -3.8V6.2ZM24.6871 5.15553C23.6333 4.10181 23.6426 2.9781 23.6426 2.95H33.6426C33.6426 1.70856 33.3719 -0.301813 31.7581 -1.91553L24.6871 5.15553ZM23.6426 2.95V23.25H33.6426V2.95H23.6426ZM23.6426 23.25C23.6426 23.2219 23.6333 22.0982 24.6871 21.0445L31.7581 28.1155C33.3719 26.5018 33.6426 24.4914 33.6426 23.25H23.6426ZM24.5368 21.2014C25.1668 20.5142 25.8533 20.2229 26.2434 20.1059C26.4412 20.0465 26.5942 20.0217 26.683 20.0108C26.7292 20.0052 26.7642 20.0025 26.7866 20.0013C26.809 20 26.8214 20 26.8226 20V30C27.8824 30 30.1855 29.8381 31.9084 27.9586L24.5368 21.2014ZM26.8226 20H24.0576V30H26.8226V20ZM24.0576 20C24.058 20 24.1046 19.9999 24.1889 20.0101C24.2725 20.0202 24.4136 20.043 24.5958 20.0963C24.9574 20.2021 25.5707 20.4571 26.1581 21.0445L19.0871 28.1155C20.7828 29.8113 22.9339 30 24.0576 30V20ZM26.1581 21.0445C27.2119 22.0982 27.2026 23.2219 27.2026 23.25H17.2026C17.2026 24.4914 17.4733 26.5018 19.0871 28.1155L26.1581 21.0445ZM27.2026 23.25V11.875H17.2026V23.25H27.2026ZM17.6379 9.83455L14.2429 17.4296L23.3723 21.5104L26.7673 13.9154L17.6379 9.83455ZM14.1652 17.613C14.1257 17.7119 14.1224 17.6992 14.1737 17.6152C14.2214 17.5371 14.3696 17.3095 14.659 17.0442L21.4162 24.4158C22.4973 23.4248 23.098 22.207 23.45 21.327L14.1652 17.613ZM14.8367 16.8889C15.4291 16.3952 15.9915 16.2102 16.2649 16.1418C16.5408 16.0728 16.6906 16.08 16.6376 16.08V26.08C17.6334 26.08 19.582 25.9515 21.2385 24.5711L14.8367 16.8889ZM16.6376 16.08C16.6089 16.08 16.7765 16.075 17.0657 16.1492C17.3574 16.224 17.9031 16.4135 18.4735 16.8889L12.0717 24.5711C13.7045 25.9318 15.611 26.08 16.6376 26.08V16.08ZM18.6512 17.0442C18.9132 17.2843 19.0433 17.4813 19.0748 17.5306C19.1108 17.5869 19.096 17.5742 19.0442 17.4563L9.89102 21.4837C10.2626 22.3282 10.87 23.4772 11.894 24.4158L18.6512 17.0442ZM19.0401 17.4471L15.6801 9.85213L6.53507 13.8979L9.89507 21.4929L19.0401 17.4471ZM6.1076 11.875V23.25H16.1076V11.875H6.1076ZM6.1076 23.25C6.1076 23.2219 6.09834 22.0982 7.15207 21.0445L14.2231 28.1155C15.8369 26.5018 16.1076 24.4914 16.1076 23.25H6.1076ZM7.15206 21.0445C7.73947 20.4571 8.35282 20.2021 8.71435 20.0963C8.89657 20.043 9.03771 20.0202 9.12125 20.0101C9.20558 19.9999 9.25224 20 9.2526 20V30C10.3763 30 12.5273 29.8113 14.2231 28.1155L7.15206 21.0445ZM9.2526 20H6.4876V30H9.2526V20ZM35.9046 24.545L33.9264 29.1371L33.9391 29.1425L33.9518 29.1479L35.9046 24.545ZM32.2995 21.605L28.1622 24.4125L32.2995 21.605ZM33.4896 10.02L30.0834 6.35966L33.4896 10.02ZM47.7346 9.985L44.2522 13.5729L44.2789 13.5989L44.3061 13.6245L47.7346 9.985ZM37.6196 18.07V13.07H32.6196V18.07H37.6196ZM38.7396 20.38L35.8214 24.4401L35.8508 24.4613L35.8806 24.482L38.7396 20.38ZM44.5846 20.94L45.8394 25.78L45.899 25.7645L45.9582 25.7476L44.5846 20.94ZM46.5446 20.135L44.6215 15.5196L44.3974 15.613L44.1834 15.7276L46.5446 20.135ZM47.6296 20.38L43.1574 22.6161L43.185 22.6713L43.214 22.7258L47.6296 20.38ZM48.8196 22.62L53.2917 20.3839L53.2641 20.3287L53.2351 20.2742L48.8196 22.62ZM48.5746 23.74L51.3245 27.9159L51.3363 27.9081L51.348 27.9003L48.5746 23.74ZM45.3196 25.105L46.4438 29.977H46.4439L45.3196 25.105ZM43.8496 14.605V19.605H48.8496V14.605H43.8496ZM38.4246 12.575L41.7959 16.2674L41.8387 16.2283L41.8807 16.1882L38.4246 12.575ZM37.6196 14.605H32.6196V19.605H37.6196V14.605ZM41.1546 20.525C39.7519 20.525 38.6829 20.2924 37.8573 19.9421L33.9518 29.1479C36.2062 30.1043 38.6372 30.525 41.1546 30.525V20.525ZM37.8827 19.9529C37.199 19.6584 36.7634 19.2786 36.4369 18.7975L28.1622 24.4125C29.609 26.5447 31.5768 28.1249 33.9264 29.1371L37.8827 19.9529ZM36.4369 18.7975C36.2153 18.4709 35.9696 17.8995 35.9696 16.81H25.9696C25.9696 19.5005 26.6104 22.1257 28.1622 24.4125L36.4369 18.7975ZM35.9696 16.81C35.9696 14.8077 36.5077 14.0414 36.8957 13.6803L30.0834 6.35966C27.1114 9.12527 25.9696 12.8856 25.9696 16.81H35.9696ZM36.8957 13.6803C37.3525 13.2553 38.3721 12.675 40.7346 12.675V2.675C36.797 2.675 32.9866 3.65805 30.0834 6.35966L36.8957 13.6803ZM40.7346 12.675C43.0315 12.675 43.9134 13.2441 44.2522 13.5729L51.2169 6.3971C48.3824 3.64592 44.5976 2.675 40.7346 2.675V12.675ZM44.3061 13.6245C44.6953 13.9911 45.1496 14.6602 45.1496 16.32H55.1496C55.1496 12.5664 53.9938 9.01223 51.163 6.34555L44.3061 13.6245ZM45.1496 16.32C45.1496 16.2786 45.1448 15.3136 46.011 14.3294C46.9845 13.2231 48.1744 13.07 48.6096 13.07V23.07C50.0713 23.07 52.0313 22.6252 53.5181 20.9356C54.8976 19.368 55.1496 17.5281 55.1496 16.32H45.1496ZM48.6096 13.07H37.6196V23.07H48.6096V13.07ZM32.6196 18.07C32.6196 20.5118 33.6348 22.8684 35.8214 24.4401L41.6577 16.3199C41.9076 16.4995 42.1959 16.8004 42.3986 17.2186C42.5939 17.6213 42.6196 17.9457 42.6196 18.07H32.6196ZM35.8806 24.482C37.8722 25.8701 40.2376 26.185 42.2046 26.185V16.185C41.709 16.185 41.4303 16.1403 41.3148 16.1135C41.2 16.0868 41.3443 16.1008 41.5985 16.278L35.8806 24.482ZM42.2046 26.185C43.4061 26.185 44.6568 26.0866 45.8394 25.78L43.3297 16.1C43.2523 16.1201 42.9164 16.185 42.2046 16.185V26.185ZM45.9582 25.7476C46.9833 25.4547 47.9665 25.0455 48.9057 24.5424L44.1834 15.7276C43.816 15.9245 43.4924 16.052 43.2109 16.1324L45.9582 25.7476ZM48.4676 24.7504C48.534 24.7227 48.4953 24.742 48.3859 24.7761C48.3295 24.7938 48.2066 24.8305 48.0368 24.8658C47.8934 24.8957 47.5537 24.96 47.1046 24.96V14.96C46.2527 14.96 45.5708 15.179 45.4032 15.2313C45.1072 15.3238 44.8351 15.4306 44.6215 15.5196L48.4676 24.7504ZM47.1046 24.96C45.995 24.96 45.005 24.5575 44.2698 23.9693C43.6147 23.4452 43.2909 22.8829 43.1574 22.6161L52.1017 18.1439C51.5799 17.1004 50.0627 14.96 47.1046 14.96V24.96ZM43.214 22.7258L44.404 24.9658L53.2351 20.2742L52.0451 18.0342L43.214 22.7258ZM44.3474 24.8561C44.3395 24.8403 44.2766 24.715 44.2074 24.5074C44.1713 24.399 44.1224 24.2354 44.0807 24.0271C44.0401 23.824 43.9946 23.5204 43.9946 23.145H53.9946C53.9946 21.7542 53.428 20.6565 53.2917 20.3839L44.3474 24.8561ZM43.9946 23.145C43.9946 20.8607 45.5528 19.7452 45.8011 19.5797L51.348 27.9003C52.1563 27.3614 53.9946 25.8493 53.9946 23.145H43.9946ZM45.8246 19.5641C45.4057 19.84 44.8802 20.075 44.1953 20.233L46.4439 29.977C48.1856 29.575 49.8301 28.9 51.3245 27.9159L45.8246 19.5641ZM44.1953 20.233C43.4302 20.4096 42.4309 20.525 41.1546 20.525V30.525C43.0048 30.525 44.7822 30.3604 46.4438 29.977L44.1953 20.233ZM48.8496 14.605C48.8496 12.7146 48.2685 10.5809 46.5319 8.92322L39.6272 16.1568C39.3174 15.8611 39.0984 15.5093 38.9722 15.1707C38.8539 14.8537 38.8496 14.6382 38.8496 14.605H48.8496ZM46.5319 8.92322C44.744 7.21658 42.5103 6.805 40.7696 6.805V16.805C41.0821 16.805 40.3884 16.8834 39.6272 16.1568L46.5319 8.92322ZM40.7696 6.805C38.954 6.805 36.7425 7.26484 34.9684 8.96179L41.8807 16.1882C41.5539 16.5008 41.2141 16.6688 40.9732 16.748C40.7536 16.82 40.6605 16.805 40.7696 16.805V6.805ZM35.0532 8.88257C33.284 10.498 32.6196 12.6245 32.6196 14.605H42.6196C42.6196 14.6894 42.6061 14.9466 42.4687 15.2931C42.3237 15.6589 42.0889 15.9999 41.7959 16.2674L35.0532 8.88257ZM37.6196 19.605H43.8496V9.605H37.6196V19.605ZM52.8708 24.58L56.4063 21.0445V21.0445L52.8708 24.58ZM52.6608 8.445L49.1253 4.90947L49.1253 4.90947L52.6608 8.445ZM57.8758 8.34L55.1023 12.5003L55.4843 12.7549L55.9062 12.9357L57.8758 8.34ZM58.1558 8.76L53.1864 9.31216L53.203 9.46148L53.2285 9.60953L58.1558 8.76ZM58.3308 9.775L53.4035 10.6245L55.043 20.1338L61.8663 13.3105L58.3308 9.775ZM65.2958 7.885L63.9222 12.6926L64.0293 12.7232L64.1377 12.749L65.2958 7.885ZM66.6258 8.48L63.7424 12.5648L63.7504 12.5705L63.7585 12.5762L66.6258 8.48ZM66.9058 9.425L71.6227 11.0837L71.7 10.8638L71.7565 10.6377L66.9058 9.425ZM65.7858 12.61L61.0689 10.9513L61.0193 11.0925L60.9782 11.2364L65.7858 12.61ZM64.8408 12.96L67.3215 8.61879L67.2953 8.60384L67.269 8.58921L64.8408 12.96ZM60.3608 13.17L57.1448 9.34148L57.1062 9.37391L57.0683 9.40712L60.3608 13.17ZM59.1008 24.58L55.5653 21.0445L55.4884 21.1213L55.415 21.2014L59.1008 24.58ZM54.3058 20C54.3062 20 54.3528 19.9999 54.4371 20.0101C54.5207 20.0202 54.6618 20.043 54.844 20.0963C55.2056 20.2021 55.8189 20.4571 56.4063 21.0445L49.3353 28.1155C51.0311 29.8113 53.1821 30 54.3058 30V20ZM56.4063 21.0445C57.4601 22.0982 57.4508 23.2219 57.4508 23.25H47.4508C47.4508 24.4914 47.7215 26.5018 49.3353 28.1155L56.4063 21.0445ZM57.4508 23.25V9.285H47.4508V23.25H57.4508ZM57.4508 9.285C57.4508 9.31633 57.4519 9.58116 57.354 9.97268C57.2637 10.3339 56.9957 11.1812 56.1963 11.9805L49.1253 4.90947C48.1859 5.84881 47.8129 6.90608 47.6526 7.54732C47.4847 8.21884 47.4508 8.83367 47.4508 9.285H57.4508ZM56.1963 11.9805C55.4087 12.7682 54.5789 13.0275 54.241 13.112C54.0434 13.1614 53.8904 13.1816 53.8014 13.1905C53.7102 13.1996 53.6537 13.2 53.6408 13.2V3.2C53.1545 3.2 52.5105 3.23682 51.8156 3.41054C51.151 3.57668 50.0763 3.95845 49.1253 4.90947L56.1963 11.9805ZM53.6408 13.2H57.2458V3.2H53.6408V13.2ZM57.2458 13.2C57.1238 13.2 56.8678 13.1913 56.5286 13.1159C56.1914 13.041 55.6669 12.8766 55.1023 12.5003L60.6493 4.17975C59.3061 3.28426 57.9234 3.2 57.2458 3.2V13.2ZM55.9062 12.9357C55.1489 12.6112 54.4303 12.0543 53.9081 11.271C53.4123 10.5274 53.2409 9.80294 53.1864 9.31216L63.1252 8.20784C62.9477 6.61018 62.0049 4.66977 59.8454 3.74427L55.9062 12.9357ZM53.2285 9.60953L53.4035 10.6245L63.2581 8.92546L63.0831 7.91047L53.2285 9.60953ZM61.8663 13.3105C62.3268 12.85 62.746 12.675 63.4058 12.675V2.675C60.099 2.675 57.1348 3.89995 54.7953 6.23946L61.8663 13.3105ZM63.4058 12.675C63.6439 12.675 63.8059 12.6861 63.9036 12.6969C64.0048 12.7082 64.0015 12.7153 63.9222 12.6926L66.6694 3.07738C65.5671 2.76242 64.4291 2.675 63.4058 2.675V12.675ZM64.1377 12.749C64.0318 12.7238 63.8854 12.6658 63.7424 12.5648L69.5092 4.39516C68.5729 3.7342 67.5398 3.27951 66.4539 3.02097L64.1377 12.749ZM63.7585 12.5762C63.4797 12.381 63.0338 12.0092 62.6483 11.3925C62.2351 10.7313 61.9758 9.91838 61.9758 9.04H71.9758C71.9758 6.65306 70.5433 5.119 69.4931 4.38384L63.7585 12.5762ZM61.9758 9.04C61.9758 8.79951 61.9945 8.61401 62.0057 8.51923C62.018 8.41438 62.0314 8.33596 62.039 8.29432C62.0535 8.21459 62.0632 8.17995 62.0551 8.21232L71.7565 10.6377C71.7872 10.5151 71.9758 9.81416 71.9758 9.04H61.9758ZM62.1889 7.76632L61.0689 10.9513L70.5027 14.2687L71.6227 11.0837L62.1889 7.76632ZM60.9782 11.2364C61.0818 10.8738 61.3745 10.0674 62.173 9.32222C63.082 8.47377 64.2228 8.1 65.2608 8.1V18.1C66.5555 18.1 67.9121 17.6446 68.9961 16.6328C69.9696 15.7243 70.3965 14.6728 70.5934 13.9836L60.9782 11.2364ZM65.2608 8.1C65.8606 8.1 66.3383 8.21787 66.6494 8.32158C66.9632 8.42618 67.191 8.54424 67.3215 8.61879L62.3601 17.3012C62.8632 17.5887 63.8956 18.1 65.2608 18.1V8.1ZM67.269 8.58921C65.7435 7.74171 64.1085 7.435 62.5658 7.435V17.435C62.6821 17.435 62.7117 17.4466 62.6753 17.4382C62.6347 17.4288 62.5379 17.4004 62.4126 17.3308L67.269 8.58921ZM62.5658 7.435C60.7058 7.435 58.7731 7.97373 57.1448 9.34148L63.5768 16.9985C63.3777 17.1657 63.1505 17.2889 62.9307 17.3622C62.7207 17.4322 62.5836 17.435 62.5658 17.435V7.435ZM57.0683 9.40712C55.3097 10.9459 54.5208 13.0295 54.5208 15.13H64.5208C64.5208 15.2986 64.4901 15.6155 64.3265 15.9971C64.1579 16.3905 63.9094 16.7089 63.6533 16.9329L57.0683 9.40712ZM54.5208 15.13V23.25H64.5208V15.13H54.5208ZM54.5208 23.25C54.5208 23.2219 54.5115 22.0982 55.5653 21.0445L62.6363 28.1155C64.2501 26.5018 64.5208 24.4914 64.5208 23.25H54.5208ZM55.415 21.2014C56.045 20.5142 56.7315 20.2229 57.1216 20.1059C57.3194 20.0465 57.4725 20.0217 57.5612 20.0108C57.6074 20.0052 57.6424 20.0025 57.6648 20.0013C57.6872 20 57.6996 20 57.7008 20V30C58.7606 30 61.0637 29.8381 62.7866 27.9586L55.415 21.2014ZM57.7008 20H54.3058V30H57.7008V20ZM73.4836 30.46L74.5683 25.5791L74.539 25.5726L74.5097 25.5664L73.4836 30.46ZM70.2636 29.27L67.0097 33.0663L67.1956 33.2257L67.3963 33.3662L70.2636 29.27ZM70.1236 28.465L74.4111 31.0375L74.4651 30.9475L74.5152 30.8554L70.1236 28.465ZM71.6286 25.7L67.3411 23.1275L67.2872 23.2175L67.237 23.3096L71.6286 25.7ZM71.8386 25.385L68.8386 21.385L68.2672 21.8136L67.8386 22.385L71.8386 25.385ZM72.5386 25.42L74.8125 20.967L74.6084 20.8627L74.3956 20.7776L72.5386 25.42ZM79.5736 25.56L82.7745 29.4011V29.4011L79.5736 25.56ZM80.4136 23.285H85.4136V13.6817L77.5463 19.1888L80.4136 23.285ZM78.6636 24.09L79.9519 28.9212L80.0265 28.9013L80.1004 28.8791L78.6636 24.09ZM70.0536 22.305L66.6068 25.9271L66.6213 25.9408L66.6358 25.9545L70.0536 22.305ZM70.5436 9.88L73.7042 13.7543L73.7195 13.7419L73.7346 13.7294L70.5436 9.88ZM83.4236 8.41L84.899 3.63263L83.4236 8.41ZM87.3786 10.265H92.3786V7.68525L90.2762 6.19022L87.3786 10.265ZM84.9286 28.325L88.5839 31.7366L84.9286 28.325ZM80.4836 12.785H85.4836V9.48802L82.4532 8.18928L80.4836 12.785ZM75.6886 13.24L72.2325 9.62679L72.1924 9.66519L72.1531 9.70447L75.6886 13.24ZM75.6536 18.63L71.8907 21.9225L71.9255 21.9623L71.9612 22.0013L75.6536 18.63ZM77.7886 25.95C76.7798 25.95 75.7088 25.8325 74.5683 25.5791L72.399 35.3409C74.1984 35.7408 75.9975 35.95 77.7886 35.95V25.95ZM74.5097 25.5664C73.9614 25.4515 73.578 25.3378 73.3269 25.245C73.0656 25.1485 73.0343 25.1062 73.1309 25.1738L67.3963 33.3662C68.914 34.4285 70.7624 34.9981 72.4575 35.3536L74.5097 25.5664ZM73.5176 25.4737C74.0886 25.9632 75.0186 27.0893 75.0186 28.815H65.0186C65.0186 30.8674 66.112 32.2968 67.0097 33.0663L73.5176 25.4737ZM75.0186 28.815C75.0186 29.7459 74.7288 30.5079 74.4111 31.0375L65.8362 25.8925C65.3784 26.6554 65.0186 27.6508 65.0186 28.815H75.0186ZM74.5152 30.8554L76.0202 28.0904L67.237 23.3096L65.732 26.0746L74.5152 30.8554ZM75.9161 28.2725C75.9118 28.2796 75.887 28.3205 75.8386 28.385L67.8386 22.385C67.6503 22.6361 67.4854 22.887 67.3411 23.1275L75.9161 28.2725ZM74.8386 29.385C74.2861 29.7994 73.3528 30.28 72.1186 30.28V20.28C70.6978 20.28 69.5778 20.8306 68.8386 21.385L74.8386 29.385ZM72.1186 30.28C71.7465 30.28 71.457 30.2372 71.3185 30.2142C71.1593 30.1876 71.0339 30.1583 70.9584 30.1395C70.8108 30.1025 70.7073 30.0683 70.6775 30.0584C70.6125 30.0368 70.6024 30.0307 70.6817 30.0624L74.3956 20.7776C74.2414 20.716 74.0447 20.6399 73.8398 20.5716C73.74 20.5383 73.5781 20.4866 73.3838 20.438C73.2899 20.4146 72.7759 20.28 72.1186 20.28V30.28ZM70.2647 29.873C72.3557 30.9408 74.7689 31.26 77.0886 31.26V21.26C75.535 21.26 74.9149 21.0192 74.8125 20.967L70.2647 29.873ZM77.0886 31.26C78.7874 31.26 80.9597 30.9135 82.7745 29.4011L76.3727 21.7189C76.7213 21.4284 77.0349 21.3122 77.1767 21.2723C77.3051 21.2361 77.2975 21.26 77.0886 21.26V31.26ZM82.7745 29.4011C84.9079 27.6233 85.4136 25.143 85.4136 23.285H75.4136C75.4136 23.3865 75.3975 23.2227 75.5131 22.9094C75.6426 22.5589 75.9088 22.1055 76.3727 21.7189L82.7745 29.4011ZM77.5463 19.1888C77.587 19.1604 77.5899 19.1643 77.5366 19.1888C77.4831 19.2134 77.3837 19.2538 77.2269 19.3009L80.1004 28.8791C81.1741 28.557 82.2739 28.0861 83.2809 27.3812L77.5463 19.1888ZM77.3753 19.2588C77.1333 19.3234 76.8229 19.37 76.4236 19.37V29.37C77.611 29.37 78.7939 29.23 79.9519 28.9212L77.3753 19.2588ZM76.4236 19.37C74.4305 19.37 73.7125 18.8813 73.4714 18.6555L66.6358 25.9545C69.3347 28.482 72.8634 29.37 76.4236 29.37V19.37ZM73.5004 18.6829C73.3262 18.5171 72.8836 18.0071 72.8836 16.32H62.8836C62.8836 19.8596 63.8877 23.3396 66.6068 25.9271L73.5004 18.6829ZM72.8836 16.32C72.8836 14.5746 73.3736 14.0241 73.7042 13.7543L67.383 6.00567C64.167 8.62923 62.8836 12.3721 62.8836 16.32H72.8836ZM73.7346 13.7294C74.2529 13.2997 75.5374 12.675 78.4186 12.675V2.675C74.3465 2.675 70.381 3.52028 67.3527 6.0306L73.7346 13.7294ZM78.4186 12.675C79.6955 12.675 80.8646 12.8527 81.9482 13.1874L84.899 3.63263C82.8093 2.98728 80.6418 2.675 78.4186 2.675V12.675ZM81.9482 13.1874C83.1655 13.5633 83.9692 13.9758 84.481 14.3398L90.2762 6.19022C88.688 5.06084 86.855 4.23671 84.899 3.63263L81.9482 13.1874ZM82.3786 10.265V21.43H92.3786V10.265H82.3786ZM82.3786 21.43C82.3786 23.2647 81.8833 24.2599 81.2733 24.9134L88.5839 31.7366C91.2406 28.8901 92.3786 25.2886 92.3786 21.43H82.3786ZM81.2733 24.9134C80.8523 25.3645 79.9758 25.95 77.7886 25.95V35.95C81.8548 35.95 85.7382 34.7855 88.5839 31.7366L81.2733 24.9134ZM77.9636 24.435C79.5224 24.435 81.6189 24.0648 83.3131 22.4412C85.0471 20.7795 85.4836 18.6512 85.4836 17.02H75.4836C75.4836 16.9988 75.5002 16.078 76.3941 15.2213C77.2483 14.4027 78.0848 14.435 77.9636 14.435V24.435ZM85.4836 17.02V12.785H75.4836V17.02H85.4836ZM82.4532 8.18928C80.9595 7.5491 79.2549 7.47 78.0336 7.47V17.47C78.4673 17.47 78.7325 17.4908 78.866 17.5079C78.9288 17.516 78.9298 17.5192 78.8831 17.5079C78.8404 17.4977 78.7059 17.463 78.514 17.3807L82.4532 8.18928ZM78.0336 7.47C76.2181 7.47 74.0066 7.92984 72.2325 9.62679L79.1447 16.8532C78.8179 17.1658 78.4782 17.3338 78.2372 17.413C78.0177 17.485 77.9245 17.47 78.0336 17.47V7.47ZM72.1531 9.70447C70.1759 11.6817 69.9186 14.3482 69.9186 16.005H79.9186C79.9186 15.6311 79.9581 15.549 79.9278 15.6576C79.8963 15.7708 79.7398 16.2599 79.2242 16.7755L72.1531 9.70447ZM69.9186 16.005C69.9186 17.7208 70.2451 20.0418 71.8907 21.9225L79.4165 15.3375C79.7593 15.7293 79.8822 16.0805 79.9172 16.2056C79.9487 16.3183 79.9186 16.2765 79.9186 16.005H69.9186ZM71.9612 22.0013C73.7559 23.9669 76.1445 24.435 77.9636 24.435V14.435C77.8459 14.435 77.9727 14.4177 78.244 14.5122C78.5457 14.6174 78.9658 14.8422 79.346 15.2587L71.9612 22.0013ZM94.6253 24.545L92.6471 29.1371L92.6598 29.1425L92.6725 29.1479L94.6253 24.545ZM91.0203 21.605L86.8829 24.4125L91.0203 21.605ZM92.2103 10.02L88.8041 6.35966L92.2103 10.02ZM106.455 9.985L102.973 13.5729L103 13.5989L103.027 13.6245L106.455 9.985ZM96.3403 18.07V13.07H91.3403V18.07H96.3403ZM97.4603 20.38L94.5421 24.4401L94.5715 24.4613L94.6013 24.482L97.4603 20.38ZM103.305 20.94L104.56 25.78L104.62 25.7645L104.679 25.7476L103.305 20.94ZM105.265 20.135L103.342 15.5196L103.118 15.613L102.904 15.7276L105.265 20.135ZM106.35 20.38L101.878 22.6161L101.906 22.6713L101.935 22.7258L106.35 20.38ZM107.54 22.62L112.012 20.3839L111.985 20.3287L111.956 20.2742L107.54 22.62ZM107.295 23.74L110.045 27.9159L110.057 27.9081L110.069 27.9003L107.295 23.74ZM104.04 25.105L105.165 29.977L104.04 25.105ZM102.57 14.605V19.605H107.57V14.605H102.57ZM97.1453 12.575L100.517 16.2674L100.559 16.2283L100.601 16.1882L97.1453 12.575ZM96.3403 14.605H91.3403V19.605H96.3403V14.605ZM99.8753 20.525C98.4726 20.525 97.4036 20.2924 96.578 19.9421L92.6725 29.1479C94.9269 30.1043 97.3579 30.525 99.8753 30.525V20.525ZM96.6034 19.9529C95.9197 19.6584 95.4841 19.2786 95.1576 18.7975L86.8829 24.4125C88.3297 26.5447 90.2975 28.1249 92.6471 29.1371L96.6034 19.9529ZM95.1576 18.7975C94.936 18.4709 94.6903 17.8995 94.6903 16.81H84.6903C84.6903 19.5005 85.3311 22.1257 86.8829 24.4125L95.1576 18.7975ZM94.6903 16.81C94.6903 14.8077 95.2284 14.0414 95.6164 13.6803L88.8041 6.35966C85.8321 9.12527 84.6903 12.8856 84.6903 16.81H94.6903ZM95.6164 13.6803C96.0732 13.2553 97.0928 12.675 99.4553 12.675V2.675C95.5177 2.675 91.7073 3.65805 88.8041 6.35966L95.6164 13.6803ZM99.4553 12.675C101.752 12.675 102.634 13.2441 102.973 13.5729L109.938 6.3971C107.103 3.64592 103.318 2.675 99.4553 2.675V12.675ZM103.027 13.6245C103.416 13.9911 103.87 14.6602 103.87 16.32H113.87C113.87 12.5664 112.715 9.01223 109.884 6.34555L103.027 13.6245ZM103.87 16.32C103.87 16.2786 103.866 15.3136 104.732 14.3294C105.705 13.2231 106.895 13.07 107.33 13.07V23.07C108.792 23.07 110.752 22.6252 112.239 20.9356C113.618 19.368 113.87 17.5281 113.87 16.32H103.87ZM107.33 13.07H96.3403V23.07H107.33V13.07ZM91.3403 18.07C91.3403 20.5118 92.3555 22.8684 94.5421 24.4401L100.378 16.3199C100.628 16.4995 100.917 16.8004 101.119 17.2186C101.315 17.6213 101.34 17.9457 101.34 18.07H91.3403ZM94.6013 24.482C96.5929 25.8701 98.9583 26.185 100.925 26.185V16.185C100.43 16.185 100.151 16.1403 100.035 16.1135C99.9207 16.0868 100.065 16.1008 100.319 16.278L94.6013 24.482ZM100.925 26.185C102.127 26.185 103.377 26.0866 104.56 25.78L102.05 16.1C101.973 16.1201 101.637 16.185 100.925 16.185V26.185ZM104.679 25.7476C105.704 25.4547 106.687 25.0455 107.626 24.5424L102.904 15.7276C102.537 15.9245 102.213 16.052 101.932 16.1324L104.679 25.7476ZM107.188 24.7504C107.255 24.7227 107.216 24.742 107.107 24.7761C107.05 24.7938 106.927 24.8305 106.758 24.8658C106.614 24.8957 106.274 24.96 105.825 24.96V14.96C104.973 14.96 104.291 15.179 104.124 15.2313C103.828 15.3238 103.556 15.4306 103.342 15.5196L107.188 24.7504ZM105.825 24.96C104.716 24.96 103.726 24.5575 102.991 23.9693C102.335 23.4452 102.012 22.8829 101.878 22.6161L110.822 18.1439C110.301 17.1004 108.783 14.96 105.825 14.96V24.96ZM101.935 22.7258L103.125 24.9658L111.956 20.2742L110.766 18.0342L101.935 22.7258ZM103.068 24.8561C103.06 24.8403 102.997 24.715 102.928 24.5074C102.892 24.399 102.843 24.2354 102.801 24.0271C102.761 23.824 102.715 23.5204 102.715 23.145H112.715C112.715 21.7542 112.149 20.6565 112.012 20.3839L103.068 24.8561ZM102.715 23.145C102.715 20.8607 104.274 19.7452 104.522 19.5797L110.069 27.9003C110.877 27.3614 112.715 25.8493 112.715 23.145H102.715ZM104.545 19.5641C104.126 19.84 103.601 20.075 102.916 20.233L105.165 29.977C106.906 29.575 108.551 28.9 110.045 27.9159L104.545 19.5641ZM102.916 20.233C102.151 20.4096 101.152 20.525 99.8753 20.525V30.525C101.726 30.525 103.503 30.3604 105.165 29.977L102.916 20.233ZM107.57 14.605C107.57 12.7146 106.989 10.5809 105.253 8.92322L98.3479 16.1568C98.0381 15.8611 97.8191 15.5093 97.6929 15.1707C97.5747 14.8537 97.5703 14.6382 97.5703 14.605H107.57ZM105.253 8.92322C103.465 7.21658 101.231 6.805 99.4903 6.805V16.805C99.8028 16.805 99.1091 16.8834 98.3479 16.1568L105.253 8.92322ZM99.4903 6.805C97.6747 6.805 95.4632 7.26484 93.6891 8.96179L100.601 16.1882C100.275 16.5008 99.9348 16.6688 99.6939 16.748C99.4743 16.82 99.3812 16.805 99.4903 16.805V6.805ZM93.7739 8.88257C92.0047 10.498 91.3403 12.6245 91.3403 14.605H101.34C101.34 14.6894 101.327 14.9466 101.189 15.2931C101.044 15.6589 100.81 15.9999 100.517 16.2674L93.7739 8.88257ZM96.3403 19.605H102.57V9.605H96.3403V19.605ZM125.454 22.375L122.052 26.039L122.062 26.0483L122.072 26.0576L125.454 22.375ZM125.349 3.825L121.93 0.177313L121.92 0.186249L121.911 0.195236L125.349 3.825ZM139.769 1.235L138.52 6.07639L138.557 6.08587L138.593 6.09479L139.769 1.235ZM143.409 2.74L140.636 6.90025L140.68 6.92975L140.725 6.95831L143.409 2.74ZM143.549 4.105L147.857 6.64268L147.945 6.49469L148.021 6.34108L143.549 4.105ZM142.044 6.66L137.736 4.12232L137.609 4.33772L137.504 4.56471L142.044 6.66ZM140.784 6.87L138.375 11.2511L138.461 11.2983L138.548 11.3421L140.784 6.87ZM130.809 7.605L127.174 4.17188L127.172 4.1739L130.809 7.605ZM130.949 18.63L134.485 15.0945V15.0945L130.949 18.63ZM141.169 19.365L138.933 14.8929L138.891 14.914L138.849 14.9358L141.169 19.365ZM142.429 19.54L138.11 22.0593L138.112 22.0628L142.429 19.54ZM144.004 22.235L139.687 24.7578L139.702 24.7827L139.717 24.8075L144.004 22.235ZM143.794 23.495L146.635 27.6095L146.716 27.5538L146.794 27.495L143.794 23.495ZM135.114 20.525C131.782 20.525 129.926 19.6928 128.836 18.6924L122.072 26.0576C125.556 29.2572 130.139 30.525 135.114 30.525V20.525ZM128.856 18.711C127.872 17.7972 127.024 16.211 127.024 13.1H117.024C117.024 18.109 118.463 22.7061 122.052 26.039L128.856 18.711ZM127.024 13.1C127.024 9.90763 127.871 8.3236 128.788 7.45476L121.911 0.195236C118.394 3.5264 117.024 8.1257 117.024 13.1H127.024ZM128.769 7.47268C129.801 6.50539 131.597 5.675 134.904 5.675V-4.325C129.951 -4.325 125.378 -3.0554 121.93 0.177313L128.769 7.47268ZM134.904 5.675C136.361 5.675 137.554 5.82707 138.52 6.07639L141.019 -3.60639C139.091 -4.10374 137.04 -4.325 134.904 -4.325V5.675ZM138.593 6.09479C139.614 6.34178 140.253 6.64487 140.636 6.90025L146.183 -1.42025C144.606 -2.47154 142.817 -3.17178 140.945 -3.62479L138.593 6.09479ZM140.725 6.95831C140.359 6.72526 139.848 6.30823 139.432 5.62725C138.995 4.91267 138.794 4.12035 138.794 3.37H148.794C148.794 1.06518 147.482 -0.595091 146.094 -1.47831L140.725 6.95831ZM138.794 3.37C138.794 3.00629 138.838 2.71575 138.876 2.52723C138.915 2.33357 138.959 2.18595 138.99 2.09511C139.047 1.92248 139.093 1.83807 139.077 1.86893L148.021 6.34108C148.204 5.97521 148.794 4.80747 148.794 3.37H138.794ZM139.241 1.56732L137.736 4.12232L146.352 9.19768L147.857 6.64268L139.241 1.56732ZM137.504 4.56471C137.637 4.27698 137.963 3.67598 138.646 3.12068C139.414 2.49656 140.415 2.115 141.484 2.115V12.115C144.482 12.115 146.034 9.94641 146.584 8.75528L137.504 4.56471ZM141.484 2.115C141.912 2.115 142.244 2.17435 142.43 2.21519C142.629 2.25859 142.776 2.30631 142.856 2.33445C143.009 2.38798 143.075 2.42497 143.02 2.39786L138.548 11.3421C138.821 11.4784 139.166 11.6379 139.552 11.773C139.859 11.8802 140.578 12.115 141.484 12.115V2.115ZM143.194 2.48892C140.931 1.24452 138.427 0.715 135.849 0.715V10.715C137.051 10.715 137.837 10.9555 138.375 11.2511L143.194 2.48892ZM135.849 0.715C132.673 0.715 129.536 1.67165 127.174 4.17188L134.444 11.0381C134.463 11.0184 134.685 10.715 135.849 10.715V0.715ZM127.172 4.1739C124.817 6.67054 124.059 9.9421 124.059 13.1H134.059C134.059 12.2729 134.16 11.7396 134.261 11.4235C134.355 11.1283 134.441 11.0417 134.446 11.0361L127.172 4.1739ZM124.059 13.1C124.059 16.3608 124.918 19.6694 127.414 22.1655L134.485 15.0945C134.461 15.0706 134.059 14.6925 134.059 13.1H124.059ZM127.414 22.1655C129.809 24.5604 132.906 25.52 136.094 25.52V15.52C134.943 15.52 134.61 15.2196 134.485 15.0945L127.414 22.1655ZM136.094 25.52C138.691 25.52 141.201 24.9928 143.489 23.7942L138.849 14.9358C138.198 15.2772 137.324 15.52 136.094 15.52V25.52ZM143.405 23.8371C143.46 23.81 143.394 23.847 143.241 23.9005C143.161 23.9287 143.014 23.9764 142.815 24.0198C142.629 24.0606 142.297 24.12 141.869 24.12V14.12C140.963 14.12 140.244 14.3548 139.937 14.462C139.551 14.5971 139.206 14.7566 138.933 14.8929L143.405 23.8371ZM141.869 24.12C140.772 24.12 139.838 23.7282 139.167 23.225C138.561 22.771 138.243 22.2867 138.11 22.0593L146.748 17.0207C146.211 16.0998 144.695 14.12 141.869 14.12V24.12ZM138.112 22.0628L139.687 24.7578L148.321 19.7122L146.746 17.0172L138.112 22.0628ZM139.717 24.8075C139.591 24.5978 139.214 23.9078 139.214 22.865H149.214C149.214 21.4489 148.698 20.3389 148.292 19.6625L139.717 24.8075ZM139.214 22.865C139.214 21.7985 139.584 20.9547 139.949 20.4065C140.289 19.8964 140.643 19.6084 140.794 19.495L146.794 27.495C147.502 26.9645 149.214 25.4582 149.214 22.865H139.214ZM140.953 19.3805C140.196 19.9035 138.49 20.525 135.114 20.525V30.525C139.392 30.525 143.473 29.7932 146.635 27.6095L140.953 19.3805ZM146.864 24.58L143.178 27.9586L143.252 28.0387L143.329 28.1155L146.864 24.58ZM146.899 1.655L150.435 5.19053L150.505 5.11985L150.573 5.04641L146.899 1.655ZM164.084 3.265L167.416 -0.462687L164.084 3.265ZM164.084 15.55L167.413 19.2807L167.416 19.2777L164.084 15.55ZM153.549 17.58V12.58H148.549V17.58H153.549ZM153.129 24.58L156.665 28.1155L153.129 24.58ZM158.519 11.735L155.063 8.12179L155.023 8.16019L154.984 8.19946L158.519 11.735ZM158.519 7.08L154.984 10.6155L155.023 10.6548L155.063 10.6932L158.519 7.08ZM153.549 6.31V1.31H148.549V6.31H153.549ZM153.549 12.505H148.549V17.505H153.549V12.505ZM148.299 20C148.299 20 148.346 19.9999 148.43 20.0101C148.514 20.0202 148.655 20.043 148.837 20.0963C149.199 20.2021 149.812 20.4571 150.4 21.0445L143.329 28.1155C145.024 29.8113 147.175 30 148.299 30V20ZM150.55 21.2014C151.042 21.7384 151.274 22.2857 151.378 22.6472C151.478 22.9935 151.479 23.2215 151.479 23.25H141.479C141.479 24.3973 141.695 26.3406 143.178 27.9586L150.55 21.2014ZM151.479 23.25V2.985H141.479V23.25H151.479ZM151.479 2.985C151.479 3.0131 151.488 4.13681 150.435 5.19053L143.364 -1.88053C141.75 -0.266809 141.479 1.74357 141.479 2.985H151.479ZM150.573 5.04641C150.031 5.63325 149.432 5.93003 149.005 6.06892C148.605 6.19893 148.334 6.2 148.299 6.2V-3.8C147.046 -3.8 144.882 -3.53166 143.225 -1.73641L150.573 5.04641ZM148.299 6.2H156.874V-3.8H148.299V6.2ZM156.874 6.2C159.592 6.2 160.533 6.79707 160.752 6.99268L167.416 -0.462687C164.555 -3.02041 160.69 -3.8 156.874 -3.8V6.2ZM160.752 6.99268C160.917 7.14052 161.394 7.63523 161.394 9.425H171.394C171.394 5.75476 170.331 2.14281 167.416 -0.462687L160.752 6.99268ZM161.394 9.425C161.394 11.1759 160.926 11.6666 160.752 11.8223L167.416 19.2777C170.322 16.6801 171.394 13.0875 171.394 9.425H161.394ZM160.755 11.8193C160.576 11.9792 159.652 12.58 156.874 12.58V22.58C160.676 22.58 164.559 21.8274 167.413 19.2807L160.755 11.8193ZM156.874 12.58H153.549V22.58H156.874V12.58ZM148.549 17.58V23.25H158.549V17.58H148.549ZM148.549 23.25C148.549 23.2219 148.54 22.0982 149.594 21.0445L156.665 28.1155C158.278 26.5018 158.549 24.4914 158.549 23.25H148.549ZM149.594 21.0445C150.181 20.4571 150.794 20.2021 151.156 20.0963C151.338 20.043 151.479 20.0202 151.563 20.0101C151.647 19.9999 151.694 20 151.694 20V30C152.818 30 154.969 29.8113 156.665 28.1155L149.594 21.0445ZM151.694 20H148.299V30H151.694V20ZM156.314 17.505C158.16 17.505 160.334 16.991 162.055 15.2705L154.984 8.19946C155.297 7.88629 155.644 7.69338 155.934 7.59204C156.202 7.49852 156.355 7.505 156.314 7.505V17.505ZM161.975 15.3482C163.828 13.5762 164.324 11.2804 164.324 9.425H154.324C154.324 9.51688 154.31 9.38791 154.401 9.12712C154.501 8.83981 154.705 8.46379 155.063 8.12179L161.975 15.3482ZM164.324 9.425C164.324 7.58542 163.848 5.25817 161.975 3.46679L155.063 10.6932C154.692 10.3379 154.489 9.95277 154.394 9.67467C154.308 9.42355 154.324 9.31005 154.324 9.425H164.324ZM162.055 3.54447C160.334 1.82395 158.16 1.31 156.314 1.31V11.31C156.355 11.31 156.202 11.3165 155.934 11.223C155.644 11.1216 155.297 10.9287 154.984 10.6155L162.055 3.54447ZM156.314 1.31H153.549V11.31H156.314V1.31ZM148.549 6.31V12.505H158.549V6.31H148.549ZM153.549 17.505H156.314V7.505H153.549V17.505ZM171.825 24.895L170.58 29.7375L171.825 24.895ZM167.8 23.18L170.636 19.0625L170.561 19.0107L170.484 18.9617L167.8 23.18ZM167.66 21.815L163.337 19.3029L163.258 19.4386L163.188 19.5789L167.66 21.815ZM169.165 19.225L173.488 21.7371L173.529 21.6669L173.567 21.5955L169.165 19.225ZM170.46 19.05L167.839 23.3083L167.902 23.347L167.966 23.3839L170.46 19.05ZM179.805 19.61L176.768 15.6382L176.739 15.6602L176.71 15.6825L179.805 19.61ZM180.015 14.185L176.841 18.0486L176.883 18.0831L176.926 18.1166L180.015 14.185ZM174.975 13.59L175.771 18.5262L175.848 18.5138L175.925 18.4989L174.975 13.59ZM173.155 14.08L174.848 18.7844L174.988 18.7342L175.124 18.6757L173.155 14.08ZM169.06 13.695L165.936 17.5993L169.06 13.695ZM168.255 11.665L163.265 11.3507L163.263 11.3764L163.262 11.4022L168.255 11.665ZM168.815 2.775L163.834 2.34185L163.829 2.4012L163.825 2.46066L168.815 2.775ZM169.235 1.585L165.699 -1.95054L165.615 -1.86641L165.535 -1.77837L169.235 1.585ZM186.49 1.62L182.649 4.82092L182.794 4.99516L182.954 5.15553L186.49 1.62ZM186.49 5.96L182.804 2.58137L182.797 2.58899L182.79 2.59663L186.49 5.96ZM174.555 6.345V1.345H169.854L169.564 6.03694L174.555 6.345ZM174.38 9.18L169.389 8.87194L168.969 15.6867L175.593 14.0307L174.38 9.18ZM176.235 8.9L176.688 13.8795L176.762 13.8727L176.837 13.8637L176.235 8.9ZM185.51 10.65L188.483 6.63026L185.51 10.65ZM186.63 21.535L182.596 18.5813L182.591 18.5877L182.586 18.5941L186.63 21.535ZM182.71 24.51L184.578 29.1479L184.605 29.1368L184.633 29.1254L182.71 24.51ZM176.97 20.525C175.566 20.525 174.271 20.3613 173.07 20.0525L170.58 29.7375C172.645 30.2687 174.78 30.525 176.97 30.525V20.525ZM173.07 20.0525C171.833 19.7343 171.075 19.3644 170.636 19.0625L164.963 27.2975C166.625 28.4423 168.55 29.2157 170.58 29.7375L173.07 20.0525ZM170.484 18.9617C170.85 19.1947 171.361 19.6118 171.778 20.2928C172.214 21.0073 172.415 21.7997 172.415 22.55H162.415C162.415 24.8548 163.728 26.5151 165.115 27.3983L170.484 18.9617ZM172.415 22.55C172.415 22.9137 172.371 23.2043 172.333 23.3928C172.294 23.5864 172.25 23.734 172.22 23.8249C172.162 23.9975 172.117 24.0819 172.132 24.0511L163.188 19.5789C163.005 19.9448 162.415 21.1125 162.415 22.55H172.415ZM171.983 24.3271L173.488 21.7371L164.842 16.7129L163.337 19.3029L171.983 24.3271ZM173.567 21.5955C173.461 21.7933 173.17 22.2854 172.58 22.7643C171.919 23.3018 170.933 23.77 169.725 23.77V13.77C166.696 13.77 165.206 16.0303 164.763 16.8545L173.567 21.5955ZM169.725 23.77C169.018 23.77 168.502 23.6014 168.269 23.5124C168.016 23.4162 167.867 23.325 167.839 23.3083L173.08 14.7917C172.589 14.4896 171.352 13.77 169.725 13.77V23.77ZM167.966 23.3839C170.566 24.8798 173.493 25.52 176.55 25.52V15.52C174.894 15.52 173.76 15.1802 172.953 14.7161L167.966 23.3839ZM176.55 25.52C178.604 25.52 180.939 25.0818 182.899 23.5375L176.71 15.6825C176.809 15.6047 176.899 15.5523 176.966 15.5192C177.032 15.4867 177.07 15.4764 177.067 15.4771C177.064 15.4781 177.023 15.4893 176.935 15.5C176.847 15.5107 176.721 15.52 176.55 15.52V25.52ZM182.842 23.5818C185.116 21.8427 185.995 19.3275 185.995 16.915H175.995C175.995 16.9587 175.988 16.7685 176.123 16.4616C176.271 16.1276 176.508 15.8369 176.768 15.6382L182.842 23.5818ZM185.995 16.915C185.995 14.9598 185.521 12.1526 183.104 10.2534L176.926 18.1166C176.399 17.7029 176.145 17.2239 176.044 16.9418C175.958 16.7016 175.995 16.6484 175.995 16.915H185.995ZM183.189 10.3214C181.308 8.7766 179.054 8.38 177.18 8.38V18.38C177.45 18.38 177.52 18.4107 177.45 18.3911C177.368 18.3676 177.125 18.2816 176.841 18.0486L183.189 10.3214ZM177.18 8.38C176.119 8.38 175.065 8.47969 174.025 8.6811L175.925 18.4989C176.331 18.4203 176.748 18.38 177.18 18.38V8.38ZM174.179 8.65379C173.191 8.81316 172.161 9.06594 171.185 9.48428L175.124 18.6757C175.118 18.6786 175.163 18.6588 175.277 18.6281C175.39 18.5977 175.552 18.5615 175.771 18.5262L174.179 8.65379ZM171.461 9.37556C171.45 9.37966 171.407 9.395 171.3 9.395V19.395C172.499 19.395 173.693 19.2003 174.848 18.7844L171.461 9.37556ZM171.3 9.395C171.27 9.395 171.368 9.39111 171.549 9.4476C171.74 9.50745 171.967 9.61755 172.183 9.79066L165.936 17.5993C167.587 18.92 169.51 19.395 171.3 19.395V9.395ZM172.183 9.79066C172.552 10.0853 172.874 10.5029 173.069 10.9944C173.252 11.4553 173.254 11.8071 173.248 11.9278L163.262 11.4022C163.149 13.5531 163.847 15.9281 165.936 17.5993L172.183 9.79066ZM173.245 11.9793L173.805 3.08934L163.825 2.46066L163.265 11.3507L173.245 11.9793ZM173.796 3.20815C173.793 3.24871 173.773 3.44709 173.67 3.7391C173.564 4.03874 173.351 4.49062 172.935 4.94837L165.535 -1.77837C164.258 -0.37302 163.926 1.28092 163.834 2.34185L173.796 3.20815ZM172.77 5.12054C172.138 5.75303 171.48 6.00871 171.126 6.1085C170.943 6.16018 170.802 6.18159 170.722 6.19088C170.68 6.19572 170.649 6.19793 170.629 6.19897C170.62 6.1995 170.612 6.19975 170.607 6.19988C170.602 6.2 170.6 6.2 170.6 6.2V-3.8C169.589 -3.8 167.408 -3.65915 165.699 -1.95054L172.77 5.12054ZM170.6 6.2H185.16V-3.8H170.6V6.2ZM185.16 6.2C185.148 6.2 185.084 6.1996 184.977 6.186C184.872 6.17256 184.698 6.1427 184.477 6.07291C184.035 5.93348 183.293 5.59378 182.649 4.82092L190.331 -1.58093C188.614 -3.6408 186.19 -3.8 185.16 -3.8V6.2ZM182.954 5.15553C182.345 4.54651 182.084 3.90881 181.976 3.53529C181.921 3.34573 181.897 3.19708 181.886 3.1061C181.875 3.01422 181.875 2.9593 181.875 2.95H191.875C191.875 1.89978 191.709 -0.232059 190.025 -1.91553L182.954 5.15553ZM181.875 2.95V4.595H191.875V2.95H181.875ZM181.875 4.595C181.875 4.59328 181.872 4.38425 181.966 4.05144C182.064 3.70656 182.291 3.14155 182.804 2.58137L190.176 9.33862C191.684 7.69321 191.875 5.70506 191.875 4.595H181.875ZM182.79 2.59663C183.469 1.84997 184.211 1.55615 184.592 1.44593C184.791 1.38822 184.944 1.36481 185.029 1.35482C185.074 1.34958 185.108 1.3472 185.128 1.3461C185.139 1.34553 185.147 1.34526 185.152 1.34513C185.157 1.345 185.16 1.345 185.16 1.345V11.345C186.093 11.345 188.45 11.2364 190.19 9.32336L182.79 2.59663ZM185.16 1.345H174.555V11.345H185.16V1.345ZM169.564 6.03694L169.389 8.87194L179.37 9.48805L179.545 6.65305L169.564 6.03694ZM175.593 14.0307C175.706 14.0023 176.04 13.9383 176.688 13.8795L175.782 3.92053C174.89 4.00166 173.987 4.12441 173.167 4.32929L175.593 14.0307ZM176.837 13.8637C177.459 13.7882 177.941 13.76 178.3 13.76V3.76C177.446 3.76 176.551 3.82509 175.633 3.93633L176.837 13.8637ZM178.3 13.76C180.809 13.76 182.011 14.281 182.536 14.6697L188.483 6.63026C185.602 4.49901 181.997 3.76 178.3 3.76V13.76ZM182.536 14.6697C182.603 14.719 182.693 14.7972 182.796 15.0494C182.917 15.3465 183.065 15.9229 183.065 16.915H193.065C193.065 13.0545 191.901 9.15873 188.483 6.63026L182.536 14.6697ZM183.065 16.915C183.065 17.7326 182.865 18.2137 182.596 18.5813L190.664 24.4887C192.308 22.243 193.065 19.6441 193.065 16.915H183.065ZM182.586 18.5941C182.268 19.0314 181.747 19.4947 180.787 19.8946L184.633 29.1254C187.033 28.1253 189.125 26.6053 190.674 24.4759L182.586 18.5941ZM180.842 19.8721C179.855 20.2697 178.593 20.525 176.97 20.525V30.525C179.64 30.525 182.205 30.1037 184.578 29.1479L180.842 19.8721ZM192.711 22.34L189.097 25.7952L192.711 22.34ZM192.711 3.86L189.097 0.404787L192.711 3.86ZM204.191 6.24L208.266 9.13655L211.503 4.58251L206.619 1.86921L204.191 6.24ZM197.891 7.5L193.768 4.67079L193.749 4.69851L193.731 4.7265L197.891 7.5ZM197.226 16.04L192.674 18.109L196.269 26.0176L201.301 18.9365L197.226 16.04ZM205.766 18.735L201.618 15.9431L201.612 15.9523L201.606 15.9615L205.766 18.735ZM206.466 10.055L211.117 8.21917L207.726 -0.369915L202.387 7.16372L206.466 10.055ZM199.396 20.03L195.317 17.1387L191.852 22.0271L197.281 24.5609L199.396 20.03ZM201.846 20.525C198.615 20.525 197.096 19.6917 196.325 18.8848L189.097 25.7952C192.385 29.235 196.956 30.525 201.846 30.525V20.525ZM196.325 18.8848C195.473 17.9936 194.666 16.3383 194.666 13.1H184.666C184.666 17.9351 185.889 22.4397 189.097 25.7952L196.325 18.8848ZM194.666 13.1C194.666 9.86172 195.473 8.20638 196.325 7.31521L189.097 0.404787C185.889 3.76028 184.666 8.26495 184.666 13.1H194.666ZM196.325 7.31521C197.096 6.5083 198.615 5.675 201.846 5.675V-4.325C196.956 -4.325 192.385 -3.03496 189.097 0.404787L196.325 7.31521ZM201.846 5.675C205.076 5.675 206.595 6.5083 207.367 7.31521L214.595 0.404787C211.306 -3.03496 206.735 -4.325 201.846 -4.325V5.675ZM207.367 7.31521C208.219 8.20638 209.026 9.86172 209.026 13.1H219.026C219.026 8.26495 217.803 3.76028 214.595 0.404787L207.367 7.31521ZM209.026 13.1C209.026 16.3383 208.219 17.9936 207.367 18.8848L214.595 25.7952C217.803 22.4397 219.026 17.9351 219.026 13.1H209.026ZM207.367 18.8848C206.595 19.6917 205.076 20.525 201.846 20.525V30.525C206.735 30.525 211.306 29.235 214.595 25.7952L207.367 18.8848ZM206.619 1.86921C205.059 1.00235 203.385 0.715 201.846 0.715V10.715C202.004 10.715 202.061 10.7301 202.04 10.7255C202.015 10.7199 201.91 10.6926 201.763 10.6108L206.619 1.86921ZM201.846 0.715C198.861 0.715 195.761 1.76683 193.768 4.67079L202.013 10.3292C201.969 10.3934 201.9 10.4751 201.805 10.555C201.709 10.6349 201.617 10.6877 201.549 10.7186C201.417 10.7779 201.468 10.715 201.846 10.715V0.715ZM193.731 4.7265C192.109 7.15917 191.701 10.2405 191.701 13.1H201.701C201.701 12.07 201.783 11.3322 201.889 10.8318C201.997 10.3224 202.101 10.198 202.051 10.2735L193.731 4.7265ZM191.701 13.1C191.701 14.733 191.934 16.4812 192.674 18.109L201.778 13.971C201.802 14.0256 201.781 13.9983 201.754 13.8485C201.727 13.6983 201.701 13.4554 201.701 13.1H191.701ZM201.301 18.9365L208.266 9.13655L200.115 3.34345L193.15 13.1435L201.301 18.9365ZM201.846 25.52C204.824 25.52 207.953 24.4683 209.926 21.5085L201.606 15.9615C201.655 15.8871 201.732 15.7952 201.836 15.7062C201.941 15.6173 202.042 15.5583 202.119 15.5233C202.266 15.4565 202.226 15.52 201.846 15.52V25.52ZM209.914 21.5269C211.562 19.0778 211.991 15.989 211.991 13.1H201.991C201.991 14.1217 201.907 14.855 201.799 15.3541C201.689 15.8593 201.581 15.9976 201.618 15.9431L209.914 21.5269ZM211.991 13.1C211.991 11.4505 211.738 9.79431 211.117 8.21917L201.815 11.8908C201.893 12.089 201.991 12.4628 201.991 13.1H211.991ZM202.387 7.16372L195.317 17.1387L203.475 22.9213L210.545 12.9463L202.387 7.16372ZM197.281 24.5609C198.767 25.2541 200.331 25.52 201.846 25.52V15.52C201.494 15.52 201.425 15.4592 201.51 15.4991L197.281 24.5609Z" fill="white" mask="url(#path-1-outside-1_743_262)"/>
</g>
<defs>
<filter id="filter0_d_743_262" x="0.667603" y="0.674988" width="217.358" height="38.275" filterUnits="userSpaceOnUse" color-interpolation-filters="sRGB">
<feFlood flood-opacity="0" result="BackgroundImageFix"/>
<feColorMatrix in="SourceAlpha" type="matrix" values="0 0 0 0 0 0 0 0 0 0 0 0 0 0 0 0 0 0 127 0" result="hardAlpha"/>
<feOffset dy="4"/>
<feGaussianBlur stdDeviation="2"/>
<feComposite in2="hardAlpha" operator="out"/>
<feColorMatrix type="matrix" values="0 0 0 0 0 0 0 0 0 0 0 0 0 0 0 0 0 0 0.25 0"/>
<feBlend mode="normal" in2="BackgroundImageFix" result="effect1_dropShadow_743_262"/>
<feBlend mode="normal" in="SourceGraphic" in2="effect1_dropShadow_743_262" result="shape"/>
</filter>
</defs>
</svg>
