<svg width="36" height="149" viewBox="0 0 36 149" fill="none" xmlns="http://www.w3.org/2000/svg">
<g filter="url(#filter0_d_757_6)">
<line x1="18" y1="-1" x2="18" y2="127" stroke="#543310" stroke-width="2"/>
</g>
<g filter="url(#filter1_d_757_6)">
<path d="M16.0979 116.854C16.6966 115.011 19.3034 115.011 19.9021 116.854L21.5922 122.056C21.86 122.88 22.6279 123.438 23.4943 123.438H28.9636C30.9011 123.438 31.7066 125.917 30.1392 127.056L25.7145 130.271C25.0135 130.78 24.7202 131.683 24.9879 132.507L26.678 137.708C27.2767 139.551 25.1678 141.083 23.6003 139.944L19.1756 136.729C18.4746 136.22 17.5254 136.22 16.8244 136.729L12.3997 139.944C10.8322 141.083 8.72327 139.551 9.32198 137.708L11.0121 132.507C11.2798 131.683 10.9865 130.78 10.2855 130.271L5.86078 127.056C4.29335 125.917 5.0989 123.438 7.03635 123.438H12.5057C13.3721 123.438 14.14 122.88 14.4078 122.056L16.0979 116.854Z" fill="#FFCD38"/>
</g>
<defs>
<filter id="filter0_d_757_6" x="13" y="-1" width="10" height="136" filterUnits="userSpaceOnUse" color-interpolation-filters="sRGB">
<feFlood flood-opacity="0" result="BackgroundImageFix"/>
<feColorMatrix in="SourceAlpha" type="matrix" values="0 0 0 0 0 0 0 0 0 0 0 0 0 0 0 0 0 0 127 0" result="hardAlpha"/>
<feOffset dy="4"/>
<feGaussianBlur stdDeviation="2"/>
<feComposite in2="hardAlpha" operator="out"/>
<feColorMatrix type="matrix" values="0 0 0 0 0 0 0 0 0 0 0 0 0 0 0 0 0 0 0.25 0"/>
<feBlend mode="normal" in2="BackgroundImageFix" result="effect1_dropShadow_757_6"/>
<feBlend mode="normal" in="SourceGraphic" in2="effect1_dropShadow_757_6" result="shape"/>
</filter>
<filter id="filter1_d_757_6" x="1.03253" y="115.472" width="33.9349" height="32.8632" filterUnits="userSpaceOnUse" color-interpolation-filters="sRGB">
<feFlood flood-opacity="0" result="BackgroundImageFix"/>
<feColorMatrix in="SourceAlpha" type="matrix" values="0 0 0 0 0 0 0 0 0 0 0 0 0 0 0 0 0 0 127 0" result="hardAlpha"/>
<feOffset dy="4"/>
<feGaussianBlur stdDeviation="2"/>
<feComposite in2="hardAlpha" operator="out"/>
<feColorMatrix type="matrix" values="0 0 0 0 0 0 0 0 0 0 0 0 0 0 0 0 0 0 0.25 0"/>
<feBlend mode="normal" in2="BackgroundImageFix" result="effect1_dropShadow_757_6"/>
<feBlend mode="normal" in="SourceGraphic" in2="effect1_dropShadow_757_6" result="shape"/>
</filter>
</defs>
</svg>
