<svg width="302" height="196" viewBox="0 0 302 196" fill="none" xmlns="http://www.w3.org/2000/svg">
<g filter="url(#filter0_d_6_17)">
<mask id="path-1-outside-1_6_17" maskUnits="userSpaceOnUse" x="58.1099" y="10.3328" width="231.707" height="118.57" fill="black">
<rect fill="white" x="58.1099" y="10.3328" width="231.707" height="118.57"/>
<path d="M97.1927 107.167C90.3153 109.01 84.5175 108.7 79.7993 106.237C75.0708 103.736 71.8058 99.1235 70.0044 92.4007C68.1927 85.6392 68.6562 80.028 71.395 75.5672C74.1724 71.096 78.9805 67.9442 85.8192 66.1117C88.7943 65.3146 91.5624 64.9041 94.1235 64.8805C96.6743 64.8181 98.906 65.1105 100.819 65.7575C101.316 65.9141 101.622 66.2049 101.736 66.6299C101.808 66.9004 101.782 67.3423 101.656 67.9557L100.298 72.8542C100.2 73.4186 99.9586 73.7525 99.5723 73.8561C99.3404 73.9182 98.9178 73.8865 98.3044 73.761C95.6446 73.1071 92.7498 73.1995 89.6202 74.038C86.027 75.0008 83.5247 76.7894 82.1132 79.4038C80.7301 81.9692 80.5768 85.2611 81.6535 89.2793C82.7302 93.2976 84.5913 96.0704 87.2367 97.5977C89.8822 99.1251 93.0015 99.4073 96.5948 98.4445C99.763 97.5956 102.393 96.2075 104.486 94.2803C104.954 93.8649 105.304 93.6261 105.536 93.564C105.884 93.4708 106.255 93.6198 106.65 94.011L110.454 97.7748C110.789 98.099 110.998 98.4157 111.081 98.7248C111.174 99.0725 111.035 99.4824 110.665 99.9543C108.02 103.065 103.529 105.469 97.1927 107.167ZM128.998 98.6448C123.705 100.063 119.238 99.852 115.598 98.0115C111.947 96.1323 109.511 92.9132 108.289 88.354C107.067 83.7948 107.573 79.8082 109.805 76.3941C112.027 72.9413 115.785 70.5058 121.078 69.0874C126.371 67.6691 130.843 67.8995 134.494 69.7787C138.173 71.6088 140.624 74.8035 141.845 79.3626C143.067 83.9218 142.547 87.933 140.287 91.3961C138.054 94.8102 134.291 97.2264 128.998 98.6448ZM126.777 90.3571C130.177 89.4461 131.298 86.8269 130.138 82.4995C128.999 78.2495 126.73 76.5799 123.33 77.491C119.93 78.402 118.799 80.9826 119.938 85.2327C120.518 87.3963 121.397 88.9 122.575 89.7438C123.754 90.5875 125.155 90.7919 126.777 90.3571ZM152.469 91.424C151.348 91.7242 150.494 91.7046 149.906 91.3652C149.319 91.0258 148.89 90.3538 148.621 89.3493L142.425 66.225C142.238 65.5295 142.23 65.0348 142.4 64.7409C142.598 64.398 143.102 64.1178 143.914 63.9004L149.42 62.4251C149.883 62.3009 150.252 62.285 150.525 62.3774C150.826 62.4209 151.043 62.6113 151.175 62.9487L151.946 64.6676C152.728 63.2573 153.712 62.0618 154.898 61.0813C156.075 60.0621 157.571 59.3092 159.387 58.8227C161.01 58.3878 162.478 58.3049 163.793 58.5739C165.107 58.8429 166.33 59.4675 167.463 60.4479C168.206 59.0479 169.17 57.8576 170.357 56.8771C171.582 55.8862 173.161 55.1319 175.093 54.6143C178.068 53.8171 180.619 54.0653 182.746 55.3588C184.863 56.6136 186.387 58.9797 187.319 62.4571L191.45 77.8732C191.719 78.8778 191.684 79.674 191.345 80.2619C191.005 80.8498 190.275 81.2938 189.155 81.5941L184.46 82.8519C183.34 83.1522 182.486 83.1326 181.898 82.7931C181.31 82.4537 180.881 81.7817 180.612 80.7772L176.683 66.1144C176.383 64.994 175.953 64.2395 175.394 63.8511C174.873 63.4524 174.207 63.3617 173.395 63.5791C172.468 63.8276 171.817 64.3334 171.441 65.0965C171.094 65.8106 171.066 66.7086 171.356 67.7905L175.222 82.2214C175.492 83.226 175.456 84.0222 175.117 84.6101C174.778 85.1979 174.048 85.642 172.927 85.9422L168.696 87.0758C167.576 87.3761 166.722 87.3565 166.134 87.0171C165.546 86.6777 165.118 86.0057 164.848 85.0011L160.888 70.2224C160.34 68.1747 159.273 67.363 157.689 67.7875C156.723 68.0463 156.053 68.5573 155.677 69.3204C155.302 70.0836 155.259 71.006 155.549 72.0879L159.401 86.4609C159.67 87.4654 159.635 88.2616 159.295 88.8495C158.994 89.427 158.284 89.8659 157.163 90.1661L152.469 91.424ZM192.75 47.6469C191.436 47.9989 190.338 47.9203 189.457 47.4112C188.564 46.8634 187.989 46.1066 187.73 45.1407L187.357 43.7497C187.088 42.7452 187.208 41.802 187.717 40.9202C188.216 39.9997 189.122 39.3635 190.436 39.0115L194.609 37.8934C195.961 37.531 197.083 37.6237 197.976 38.1715C198.857 38.6806 199.433 39.4375 199.702 40.442L200.075 41.833C200.334 42.7989 200.214 43.7421 199.715 44.6625C199.206 45.5443 198.275 46.1664 196.923 46.5288L192.75 47.6469ZM200.3 78.6076C199.18 78.9078 198.326 78.8883 197.738 78.5488C197.15 78.2094 196.721 77.5374 196.452 76.5329L190.567 54.5677C190.298 53.5632 190.333 52.7669 190.672 52.1791C191.001 51.5525 191.726 51.0892 192.846 50.7889L198.41 49.2981C199.531 48.9979 200.39 49.0368 200.988 49.4149C201.615 49.7439 202.063 50.4107 202.332 51.4153L208.217 73.3805C208.486 74.385 208.432 75.1864 208.054 75.7847C207.715 76.3725 206.985 76.8166 205.864 77.1168L200.3 78.6076ZM217.329 74.0447C216.209 74.3449 215.355 74.3254 214.767 73.9859C214.179 73.6465 213.75 72.9745 213.481 71.97L207.285 48.8457C207.099 48.1502 207.09 47.6555 207.26 47.3616C207.458 47.0187 207.963 46.7385 208.774 46.5211L214.744 44.9216C215.207 44.7974 215.576 44.7815 215.849 44.8739C216.15 44.9173 216.367 45.1078 216.499 45.4451L217.255 47.1062C218.047 45.7344 219.229 44.5065 220.802 43.4225C222.403 42.2894 224.286 41.433 226.45 40.8533C229.579 40.0147 232.348 40.2252 234.756 41.4849C237.154 42.7059 238.813 45.0358 239.735 48.4745L243.85 63.8327C244.119 64.8373 244.084 65.6335 243.745 66.2214C243.444 66.7989 242.733 67.2378 241.613 67.538L235.991 69.0443C234.871 69.3446 233.997 69.3301 233.371 69.0011C232.783 68.6617 232.354 67.9897 232.085 66.9851L228.172 52.3803C227.861 51.2212 227.387 50.4578 226.75 50.0901C226.114 49.7224 225.254 49.6835 224.172 49.9734C223.013 50.284 222.169 50.8415 221.639 51.6461C221.148 52.4403 221.047 53.3783 221.337 54.4601L225.188 68.8331C225.457 69.8377 225.422 70.6339 225.083 71.2218C224.782 71.7993 224.071 72.2382 222.951 72.5384L217.329 74.0447ZM267.23 71.2336C264.912 71.8548 262.463 72.221 259.884 72.3323C257.354 72.4719 255.401 72.2913 254.024 71.7905C253.692 71.6312 253.489 71.4163 253.417 71.1458C253.365 70.9526 253.371 70.7439 253.435 70.5197L254.701 65.2734C254.765 65.0492 254.834 64.8443 254.909 64.6586C255.032 64.5013 255.171 64.402 255.326 64.3605C255.403 64.3398 255.656 64.355 256.083 64.406C258.148 64.8467 260.783 64.6374 263.99 63.7782C265.806 63.2916 267.074 62.5377 267.794 61.5165C268.515 60.4953 268.642 59.1153 268.176 57.3767C267.548 58.1246 266.701 58.8278 265.635 59.4861C264.559 60.1058 263.364 60.5916 262.05 60.9436C257.453 62.1756 253.631 61.9779 250.586 60.3505C247.58 58.7128 245.497 55.7303 244.338 51.403C243.075 46.6892 243.59 42.7412 245.885 39.5589C248.169 36.338 252.19 33.9562 257.947 32.4137C260.844 31.6372 263.716 31.3027 266.56 31.4101C269.405 31.5174 271.862 31.9564 273.932 32.7269L278.886 51.2147C280.149 55.9284 279.817 60.0965 277.888 63.719C275.96 67.3415 272.408 69.8464 267.23 71.2336ZM262.411 52.0886C265.193 51.3432 266.227 49.6375 265.512 46.9716L263.633 39.959C262.729 39.8286 261.33 40.0171 259.437 40.5244C257.736 40.9799 256.556 41.7517 255.895 42.8399C255.273 43.9176 255.257 45.5577 255.847 47.76C256.375 49.7305 257.169 51.0707 258.229 51.7805C259.278 52.4518 260.672 52.5545 262.411 52.0886Z"/>
</mask>
<path d="M97.1927 107.167C90.3153 109.01 84.5175 108.7 79.7993 106.237C75.0708 103.736 71.8058 99.1235 70.0044 92.4007C68.1927 85.6392 68.6562 80.028 71.395 75.5672C74.1724 71.096 78.9805 67.9442 85.8192 66.1117C88.7943 65.3146 91.5624 64.9041 94.1235 64.8805C96.6743 64.8181 98.906 65.1105 100.819 65.7575C101.316 65.9141 101.622 66.2049 101.736 66.6299C101.808 66.9004 101.782 67.3423 101.656 67.9557L100.298 72.8542C100.2 73.4186 99.9586 73.7525 99.5723 73.8561C99.3404 73.9182 98.9178 73.8865 98.3044 73.761C95.6446 73.1071 92.7498 73.1995 89.6202 74.038C86.027 75.0008 83.5247 76.7894 82.1132 79.4038C80.7301 81.9692 80.5768 85.2611 81.6535 89.2793C82.7302 93.2976 84.5913 96.0704 87.2367 97.5977C89.8822 99.1251 93.0015 99.4073 96.5948 98.4445C99.763 97.5956 102.393 96.2075 104.486 94.2803C104.954 93.8649 105.304 93.6261 105.536 93.564C105.884 93.4708 106.255 93.6198 106.65 94.011L110.454 97.7748C110.789 98.099 110.998 98.4157 111.081 98.7248C111.174 99.0725 111.035 99.4824 110.665 99.9543C108.02 103.065 103.529 105.469 97.1927 107.167ZM128.998 98.6448C123.705 100.063 119.238 99.852 115.598 98.0115C111.947 96.1323 109.511 92.9132 108.289 88.354C107.067 83.7948 107.573 79.8082 109.805 76.3941C112.027 72.9413 115.785 70.5058 121.078 69.0874C126.371 67.6691 130.843 67.8995 134.494 69.7787C138.173 71.6088 140.624 74.8035 141.845 79.3626C143.067 83.9218 142.547 87.933 140.287 91.3961C138.054 94.8102 134.291 97.2264 128.998 98.6448ZM126.777 90.3571C130.177 89.4461 131.298 86.8269 130.138 82.4995C128.999 78.2495 126.73 76.5799 123.33 77.491C119.93 78.402 118.799 80.9826 119.938 85.2327C120.518 87.3963 121.397 88.9 122.575 89.7438C123.754 90.5875 125.155 90.7919 126.777 90.3571ZM152.469 91.424C151.348 91.7242 150.494 91.7046 149.906 91.3652C149.319 91.0258 148.89 90.3538 148.621 89.3493L142.425 66.225C142.238 65.5295 142.23 65.0348 142.4 64.7409C142.598 64.398 143.102 64.1178 143.914 63.9004L149.42 62.4251C149.883 62.3009 150.252 62.285 150.525 62.3774C150.826 62.4209 151.043 62.6113 151.175 62.9487L151.946 64.6676C152.728 63.2573 153.712 62.0618 154.898 61.0813C156.075 60.0621 157.571 59.3092 159.387 58.8227C161.01 58.3878 162.478 58.3049 163.793 58.5739C165.107 58.8429 166.33 59.4675 167.463 60.4479C168.206 59.0479 169.17 57.8576 170.357 56.8771C171.582 55.8862 173.161 55.1319 175.093 54.6143C178.068 53.8171 180.619 54.0653 182.746 55.3588C184.863 56.6136 186.387 58.9797 187.319 62.4571L191.45 77.8732C191.719 78.8778 191.684 79.674 191.345 80.2619C191.005 80.8498 190.275 81.2938 189.155 81.5941L184.46 82.8519C183.34 83.1522 182.486 83.1326 181.898 82.7931C181.31 82.4537 180.881 81.7817 180.612 80.7772L176.683 66.1144C176.383 64.994 175.953 64.2395 175.394 63.8511C174.873 63.4524 174.207 63.3617 173.395 63.5791C172.468 63.8276 171.817 64.3334 171.441 65.0965C171.094 65.8106 171.066 66.7086 171.356 67.7905L175.222 82.2214C175.492 83.226 175.456 84.0222 175.117 84.6101C174.778 85.1979 174.048 85.642 172.927 85.9422L168.696 87.0758C167.576 87.3761 166.722 87.3565 166.134 87.0171C165.546 86.6777 165.118 86.0057 164.848 85.0011L160.888 70.2224C160.34 68.1747 159.273 67.363 157.689 67.7875C156.723 68.0463 156.053 68.5573 155.677 69.3204C155.302 70.0836 155.259 71.006 155.549 72.0879L159.401 86.4609C159.67 87.4654 159.635 88.2616 159.295 88.8495C158.994 89.427 158.284 89.8659 157.163 90.1661L152.469 91.424ZM192.75 47.6469C191.436 47.9989 190.338 47.9203 189.457 47.4112C188.564 46.8634 187.989 46.1066 187.73 45.1407L187.357 43.7497C187.088 42.7452 187.208 41.802 187.717 40.9202C188.216 39.9997 189.122 39.3635 190.436 39.0115L194.609 37.8934C195.961 37.531 197.083 37.6237 197.976 38.1715C198.857 38.6806 199.433 39.4375 199.702 40.442L200.075 41.833C200.334 42.7989 200.214 43.7421 199.715 44.6625C199.206 45.5443 198.275 46.1664 196.923 46.5288L192.75 47.6469ZM200.3 78.6076C199.18 78.9078 198.326 78.8883 197.738 78.5488C197.15 78.2094 196.721 77.5374 196.452 76.5329L190.567 54.5677C190.298 53.5632 190.333 52.7669 190.672 52.1791C191.001 51.5525 191.726 51.0892 192.846 50.7889L198.41 49.2981C199.531 48.9979 200.39 49.0368 200.988 49.4149C201.615 49.7439 202.063 50.4107 202.332 51.4153L208.217 73.3805C208.486 74.385 208.432 75.1864 208.054 75.7847C207.715 76.3725 206.985 76.8166 205.864 77.1168L200.3 78.6076ZM217.329 74.0447C216.209 74.3449 215.355 74.3254 214.767 73.9859C214.179 73.6465 213.75 72.9745 213.481 71.97L207.285 48.8457C207.099 48.1502 207.09 47.6555 207.26 47.3616C207.458 47.0187 207.963 46.7385 208.774 46.5211L214.744 44.9216C215.207 44.7974 215.576 44.7815 215.849 44.8739C216.15 44.9173 216.367 45.1078 216.499 45.4451L217.255 47.1062C218.047 45.7344 219.229 44.5065 220.802 43.4225C222.403 42.2894 224.286 41.433 226.45 40.8533C229.579 40.0147 232.348 40.2252 234.756 41.4849C237.154 42.7059 238.813 45.0358 239.735 48.4745L243.85 63.8327C244.119 64.8373 244.084 65.6335 243.745 66.2214C243.444 66.7989 242.733 67.2378 241.613 67.538L235.991 69.0443C234.871 69.3446 233.997 69.3301 233.371 69.0011C232.783 68.6617 232.354 67.9897 232.085 66.9851L228.172 52.3803C227.861 51.2212 227.387 50.4578 226.75 50.0901C226.114 49.7224 225.254 49.6835 224.172 49.9734C223.013 50.284 222.169 50.8415 221.639 51.6461C221.148 52.4403 221.047 53.3783 221.337 54.4601L225.188 68.8331C225.457 69.8377 225.422 70.6339 225.083 71.2218C224.782 71.7993 224.071 72.2382 222.951 72.5384L217.329 74.0447ZM267.23 71.2336C264.912 71.8548 262.463 72.221 259.884 72.3323C257.354 72.4719 255.401 72.2913 254.024 71.7905C253.692 71.6312 253.489 71.4163 253.417 71.1458C253.365 70.9526 253.371 70.7439 253.435 70.5197L254.701 65.2734C254.765 65.0492 254.834 64.8443 254.909 64.6586C255.032 64.5013 255.171 64.402 255.326 64.3605C255.403 64.3398 255.656 64.355 256.083 64.406C258.148 64.8467 260.783 64.6374 263.99 63.7782C265.806 63.2916 267.074 62.5377 267.794 61.5165C268.515 60.4953 268.642 59.1153 268.176 57.3767C267.548 58.1246 266.701 58.8278 265.635 59.4861C264.559 60.1058 263.364 60.5916 262.05 60.9436C257.453 62.1756 253.631 61.9779 250.586 60.3505C247.58 58.7128 245.497 55.7303 244.338 51.403C243.075 46.6892 243.59 42.7412 245.885 39.5589C248.169 36.338 252.19 33.9562 257.947 32.4137C260.844 31.6372 263.716 31.3027 266.56 31.4101C269.405 31.5174 271.862 31.9564 273.932 32.7269L278.886 51.2147C280.149 55.9284 279.817 60.0965 277.888 63.719C275.96 67.3415 272.408 69.8464 267.23 71.2336ZM262.411 52.0886C265.193 51.3432 266.227 49.6375 265.512 46.9716L263.633 39.959C262.729 39.8286 261.33 40.0171 259.437 40.5244C257.736 40.9799 256.556 41.7517 255.895 42.8399C255.273 43.9176 255.257 45.5577 255.847 47.76C256.375 49.7305 257.169 51.0707 258.229 51.7805C259.278 52.4518 260.672 52.5545 262.411 52.0886Z" fill="#4A249D"/>
<path d="M79.7993 106.237L77.4613 110.657L77.4735 110.663L77.4857 110.67L79.7993 106.237ZM71.395 75.5672L67.1477 72.9289L67.1408 72.94L67.134 72.9511L71.395 75.5672ZM94.1235 64.8805L94.1698 69.8802L94.2077 69.8799L94.2456 69.879L94.1235 64.8805ZM100.819 65.7575L99.2164 70.4938L99.2668 70.5109L99.3175 70.5269L100.819 65.7575ZM101.656 67.9557L106.474 69.2918L106.52 69.1263L106.555 68.9581L101.656 67.9557ZM100.298 72.8542L95.4795 71.518L95.4127 71.7589L95.3702 72.0053L100.298 72.8542ZM98.3044 73.761L97.1109 78.6164L97.206 78.6398L97.302 78.6594L98.3044 73.761ZM82.1132 79.4038L77.7135 77.0285L77.7121 77.031L82.1132 79.4038ZM87.2367 97.5977L89.7367 93.2676L89.7367 93.2676L87.2367 97.5977ZM104.486 94.2803L101.169 90.5392L101.133 90.5705L101.099 90.6025L104.486 94.2803ZM106.65 94.011L103.13 97.5623L103.133 97.5652L106.65 94.011ZM110.454 97.7748L106.937 101.329L106.957 101.349L106.978 101.369L110.454 97.7748ZM110.665 99.9543L114.474 103.193L114.538 103.119L114.598 103.042L110.665 99.9543ZM95.8986 102.337C89.8147 103.968 85.3901 103.515 82.113 101.805L77.4857 110.67C83.6449 113.884 90.8159 114.052 98.4868 111.997L95.8986 102.337ZM82.1373 101.817C78.9801 100.147 76.3898 96.9128 74.8341 91.1066L65.1748 93.6948C67.2218 101.334 71.1615 107.324 77.4613 110.657L82.1373 101.817ZM74.8341 91.1066C73.2529 85.2057 73.8539 81.1185 75.656 78.1832L67.134 72.9511C63.4586 78.9375 63.1325 86.0727 65.1748 93.6948L74.8341 91.1066ZM75.6423 78.2055C77.5458 75.1411 81.0698 72.5607 87.1133 70.9413L84.5251 61.2821C76.8912 63.3276 70.799 67.0508 67.1477 72.9289L75.6423 78.2055ZM87.1133 70.9413C89.7605 70.232 92.1049 69.8993 94.1698 69.8802L94.0773 59.8807C91.0199 59.9089 87.8281 60.3971 84.5251 61.2821L87.1133 70.9413ZM94.2456 69.879C96.3585 69.8273 97.9834 70.0767 99.2164 70.4938L102.421 61.0212C99.8287 60.1443 96.9901 59.8089 94.0014 59.8819L94.2456 69.879ZM99.3175 70.5269C99.0071 70.4292 98.4893 70.2052 97.9748 69.7157C97.4317 69.1991 97.0765 68.5602 96.9061 67.924L106.565 65.3358C105.921 62.9324 104.096 61.5473 102.32 60.9882L99.3175 70.5269ZM96.9061 67.924C96.8195 67.6008 96.7918 67.3414 96.7819 67.1867C96.7715 67.0267 96.7762 66.9142 96.7791 66.8646C96.7845 66.775 96.7907 66.7917 96.7576 66.9533L106.555 68.9581C106.689 68.3018 106.968 66.837 106.565 65.3358L96.9061 67.924ZM96.838 66.6195L95.4795 71.518L105.116 74.1903L106.474 69.2918L96.838 66.6195ZM95.3702 72.0053C95.4038 71.8105 95.5274 71.2393 95.9935 70.5956C96.5236 69.8636 97.3256 69.2817 98.2782 69.0264L100.866 78.6857C103.923 77.8666 104.962 75.2311 105.225 73.7031L95.3702 72.0053ZM98.2782 69.0264C98.6669 68.9223 98.9737 68.8977 99.1305 68.8904C99.2993 68.8826 99.4145 68.8898 99.4554 68.8929C99.529 68.8984 99.494 68.9008 99.3068 68.8625L97.302 78.6594C97.7282 78.7467 98.2113 78.8276 98.7074 78.8649C99.1188 78.8957 99.9426 78.9332 100.866 78.6857L98.2782 69.0264ZM99.498 68.9055C95.8822 68.0167 92.1205 68.1917 88.3261 69.2084L90.9143 78.8677C93.3792 78.2072 95.4069 78.1975 97.1109 78.6164L99.498 68.9055ZM88.3261 69.2084C83.761 70.4316 79.9353 72.913 77.7135 77.0285L86.513 81.7791C87.114 80.6659 88.293 79.57 90.9143 78.8677L88.3261 69.2084ZM77.7121 77.031C75.5069 81.121 75.5579 85.8488 76.8239 90.5734L86.4831 87.9852C85.5957 84.6733 85.9532 82.8174 86.5143 81.7767L77.7121 77.031ZM76.8239 90.5734C78.1165 95.3974 80.5774 99.5264 84.7367 101.928L89.7367 93.2676C88.6052 92.6143 87.3439 91.1978 86.4831 87.9852L76.8239 90.5734ZM84.7367 101.928C88.7721 104.258 93.3119 104.501 97.8889 103.274L95.3007 93.6149C92.6911 94.3141 90.9922 93.9924 89.7367 93.2676L84.7367 101.928ZM97.8889 103.274C101.718 102.248 105.101 100.511 107.873 97.958L101.099 90.6025C99.6856 91.9039 97.8084 92.943 95.3007 93.6149L97.8889 103.274ZM107.803 98.0213C107.946 97.8945 107.978 97.8791 107.917 97.9206C107.883 97.9437 107.787 98.0076 107.636 98.0852C107.497 98.1573 107.219 98.2895 106.83 98.3936L104.242 88.7344C103.318 88.9819 102.624 89.4263 102.283 89.6587C101.872 89.939 101.494 90.2506 101.169 90.5392L107.803 98.0213ZM106.83 98.3936C105.843 98.6581 104.914 98.5274 104.213 98.246C103.588 97.9952 103.235 97.6661 103.13 97.5623L110.17 90.4597C109.248 89.5462 107.116 87.9643 104.242 88.7344L106.83 98.3936ZM103.133 97.5652L106.937 101.329L113.97 94.2206L110.167 90.4568L103.133 97.5652ZM106.978 101.369C106.942 101.334 106.487 100.897 106.251 100.019L115.911 97.4307C115.51 95.934 114.636 94.8637 113.929 94.1803L106.978 101.369ZM106.251 100.019C105.995 99.0611 106.128 98.2294 106.31 97.6907C106.478 97.1953 106.692 96.9174 106.732 96.8671L114.598 103.042C115.298 102.149 116.621 100.08 115.911 97.4307L106.251 100.019ZM106.856 96.7153C105.158 98.7126 101.799 100.756 95.8986 102.337L98.4868 111.997C105.259 110.182 110.882 107.417 114.474 103.193L106.856 96.7153ZM115.598 98.0115L113.309 102.457L113.325 102.465L113.342 102.474L115.598 98.0115ZM109.805 76.3941L113.99 79.1304L114 79.1152L114.01 79.1L109.805 76.3941ZM134.494 69.7787L132.206 74.2243L132.236 74.24L132.267 74.2553L134.494 69.7787ZM140.287 91.3961L144.471 94.1324L144.473 94.1292L140.287 91.3961ZM122.575 89.7438L119.665 93.8093L119.665 93.8093L122.575 89.7438ZM127.704 93.8151C123.185 95.0259 120.066 94.668 117.853 93.5494L113.342 102.474C118.41 105.036 124.224 105.1 130.292 103.474L127.704 93.8151ZM117.886 93.5659C115.681 92.4311 114.035 90.4816 113.119 87.0599L103.459 89.6481C104.986 95.3447 108.212 99.8336 113.309 102.457L117.886 93.5659ZM113.119 87.0599C112.201 83.6369 112.661 81.1623 113.99 79.1304L105.62 73.6577C102.484 78.4541 101.933 83.9528 103.459 89.6481L113.119 87.0599ZM114.01 79.1C115.361 77.0006 117.87 75.1233 122.372 73.9171L119.784 64.2578C113.699 65.8882 108.694 68.882 105.601 73.6882L114.01 79.1ZM122.372 73.9171C126.874 72.7108 129.986 73.0817 132.206 74.2243L136.783 65.333C131.701 62.7173 125.869 62.6274 119.784 64.2578L122.372 73.9171ZM132.267 74.2553C134.465 75.3488 136.104 77.2546 137.016 80.6567L146.675 78.0685C145.143 72.3524 141.881 67.8688 136.721 65.302L132.267 74.2553ZM137.016 80.6567C137.927 84.0577 137.47 86.564 136.1 88.6629L144.473 94.1292C147.625 89.3019 148.207 83.7859 146.675 78.0685L137.016 80.6567ZM136.102 88.6597C134.745 90.7348 132.223 92.6044 127.704 93.8151L130.292 103.474C136.36 101.848 141.363 98.8856 144.471 94.1324L136.102 88.6597ZM128.071 95.1867C130.868 94.4374 133.46 92.7263 134.765 89.6757C135.955 86.8936 135.682 83.8701 134.968 81.2054L125.309 83.7936C125.518 84.575 125.579 85.1148 125.58 85.453C125.582 85.7826 125.529 85.8407 125.57 85.7432C125.625 85.6167 125.727 85.4873 125.822 85.4129C125.892 85.3587 125.829 85.435 125.483 85.5275L128.071 95.1867ZM134.968 81.2054C134.26 78.5644 132.983 75.8257 130.545 74.0323C127.887 72.0771 124.802 71.9202 122.036 72.6614L124.624 82.3206C124.979 82.2254 125.083 82.2578 125.005 82.2474C124.894 82.2326 124.739 82.1755 124.619 82.0874C124.523 82.0169 124.587 82.0263 124.739 82.2906C124.896 82.5635 125.106 83.0373 125.309 83.7936L134.968 81.2054ZM122.036 72.6614C119.27 73.4025 116.676 75.0811 115.352 78.1032C114.138 80.8753 114.401 83.8857 115.108 86.5268L124.768 83.9386C124.565 83.1822 124.51 82.667 124.509 82.3522C124.509 82.0472 124.559 82.0072 124.512 82.1162C124.452 82.2524 124.346 82.3796 124.257 82.4477C124.195 82.4956 124.269 82.4158 124.624 82.3206L122.036 72.6614ZM115.108 86.5268C115.833 89.2293 117.152 92.0101 119.665 93.8093L125.486 85.6782C125.572 85.7398 125.504 85.7246 125.349 85.4596C125.188 85.1844 124.973 84.7056 124.768 83.9386L115.108 86.5268ZM119.665 93.8093C122.261 95.6679 125.26 95.9399 128.071 95.1867L125.483 85.5275C125.345 85.5645 125.26 85.5749 125.222 85.5778C125.186 85.5806 125.193 85.5766 125.232 85.5823C125.273 85.5883 125.327 85.6016 125.383 85.6246C125.44 85.6474 125.475 85.67 125.486 85.6782L119.665 93.8093ZM149.906 91.3652L152.406 87.0351L152.406 87.0351L149.906 91.3652ZM142.4 64.7409L138.07 62.2409L138.07 62.2409L142.4 64.7409ZM150.525 62.3774L148.923 67.1138L149.357 67.2609L149.812 67.3263L150.525 62.3774ZM151.175 62.9487L146.518 64.7682L146.563 64.8829L146.613 64.9953L151.175 62.9487ZM151.946 64.6676L147.384 66.7143L151.475 75.8327L156.319 67.0913L151.946 64.6676ZM154.898 61.0813L158.083 64.9357L158.128 64.8985L158.173 64.8602L154.898 61.0813ZM163.793 58.5739L162.79 63.4724L162.79 63.4724L163.793 58.5739ZM167.463 60.4479L164.19 64.228L168.936 68.3373L171.879 62.7917L167.463 60.4479ZM170.357 56.8771L167.213 52.9893L167.192 53.0059L167.172 53.0227L170.357 56.8771ZM182.746 55.3588L180.148 59.631L180.172 59.6456L180.197 59.6599L182.746 55.3588ZM181.898 82.7931L184.398 78.463L184.398 78.463L181.898 82.7931ZM175.394 63.8511L172.355 67.8215L172.447 67.8923L172.543 67.9587L175.394 63.8511ZM171.441 65.0965L166.954 62.8901L166.949 62.9007L166.944 62.9114L171.441 65.0965ZM175.117 84.6101L170.787 82.1101L170.787 82.1101L175.117 84.6101ZM155.677 69.3204L160.164 71.5269L160.164 71.5268L155.677 69.3204ZM159.295 88.8495L154.965 86.3495L154.911 86.4436L154.861 86.54L159.295 88.8495ZM151.175 86.5944C150.922 86.6622 150.919 86.6316 151.103 86.6358C151.301 86.6404 151.809 86.6905 152.406 87.0351L147.406 95.6954C149.728 97.0359 152.211 96.6696 153.763 96.2536L151.175 86.5944ZM152.406 87.0351C152.92 87.3314 153.217 87.695 153.36 87.9183C153.489 88.1213 153.491 88.2057 153.45 88.0552L143.791 90.6434C144.225 92.2611 145.185 94.4129 147.406 95.6954L152.406 87.0351ZM153.45 88.0552L147.254 64.9309L137.595 67.5191L143.791 90.6434L153.45 88.0552ZM147.254 64.9309C147.224 64.8163 147.273 64.9478 147.278 65.2483C147.283 65.5175 147.26 66.3231 146.73 67.2409L138.07 62.2409C137.37 63.4526 137.267 64.6525 137.279 65.4165C137.293 66.2116 137.439 66.9383 137.595 67.5191L147.254 64.9309ZM146.73 67.2409C146.214 68.1342 145.553 68.5345 145.354 68.6451C145.127 68.771 145.035 68.7763 145.208 68.73L142.62 59.0708C141.981 59.2419 141.231 59.496 140.5 59.902C139.796 60.2929 138.783 61.0047 138.07 62.2409L146.73 67.2409ZM145.208 68.73L150.714 67.2548L148.125 57.5955L142.62 59.0708L145.208 68.73ZM150.714 67.2548C150.692 67.2605 150.53 67.3037 150.259 67.3154C149.991 67.327 149.508 67.3119 148.923 67.1138L152.127 57.6411C150.484 57.0853 148.973 57.3683 148.125 57.5955L150.714 67.2548ZM149.812 67.3263C149.059 67.2179 148.275 66.8904 147.613 66.3086C146.987 65.7583 146.67 65.1578 146.518 64.7682L155.832 61.1291C155.192 59.4913 153.689 57.7817 151.238 57.4285L149.812 67.3263ZM146.613 64.9953L147.384 66.7143L156.508 62.621L155.737 60.902L146.613 64.9953ZM156.319 67.0913C156.812 66.2016 157.402 65.4991 158.083 64.9357L151.714 57.2269C150.022 58.6246 148.643 60.3129 147.573 62.244L156.319 67.0913ZM158.173 64.8602C158.67 64.429 159.446 63.9831 160.681 63.6523L158.093 53.993C155.696 54.6353 153.479 55.6952 151.624 57.3024L158.173 64.8602ZM160.681 63.6523C161.738 63.3689 162.404 63.3933 162.79 63.4724L164.795 53.6754C162.553 53.2166 160.281 53.4068 158.093 53.993L160.681 63.6523ZM162.79 63.4724C163.17 63.5501 163.629 63.7423 164.19 64.228L170.735 56.6678C169.032 55.1927 167.044 54.1356 164.795 53.6754L162.79 63.4724ZM171.879 62.7917C172.324 61.9536 172.876 61.2817 173.542 60.7315L167.172 53.0227C165.465 54.4335 164.087 56.1421 163.046 58.104L171.879 62.7917ZM173.501 60.7648C174.057 60.3153 174.955 59.8275 176.387 59.4439L173.799 49.7846C171.367 50.4363 169.108 51.457 167.213 52.9893L173.501 60.7648ZM176.387 59.4439C178.377 58.9107 179.454 59.2084 180.148 59.631L185.344 51.0866C181.784 48.9221 177.759 48.7235 173.799 49.7846L176.387 59.4439ZM180.197 59.6599C180.761 59.9947 181.74 60.9547 182.49 63.7512L192.149 61.163C191.035 57.0048 188.965 53.2326 185.296 51.0577L180.197 59.6599ZM182.49 63.7512L186.62 79.1673L196.28 76.5791L192.149 61.163L182.49 63.7512ZM186.62 79.1673C186.661 79.3178 186.62 79.244 186.63 79.0035C186.642 78.7389 186.718 78.2751 187.014 77.7619L195.675 82.7619C196.957 80.5406 196.713 78.1968 196.28 76.5791L186.62 79.1673ZM187.014 77.7619C187.359 77.165 187.774 76.8674 187.944 76.7642C188.101 76.6688 188.114 76.6966 187.861 76.7644L190.449 86.4237C192.001 86.0078 194.334 85.0838 195.675 82.7619L187.014 77.7619ZM187.861 76.7644L183.166 78.0223L185.754 87.6815L190.449 86.4237L187.861 76.7644ZM183.166 78.0223C182.913 78.0901 182.911 78.0595 183.094 78.0637C183.293 78.0683 183.801 78.1184 184.398 78.463L179.398 87.1233C181.72 88.4638 184.202 88.0975 185.754 87.6815L183.166 78.0223ZM184.398 78.463C184.911 78.7593 185.209 79.1229 185.351 79.3462C185.481 79.5492 185.482 79.6336 185.442 79.4831L175.783 82.0713C176.216 83.689 177.177 85.8408 179.398 87.1233L184.398 78.463ZM185.442 79.4831L181.513 64.8203L171.854 67.4085L175.783 82.0713L185.442 79.4831ZM181.513 64.8203C181.104 63.2923 180.257 61.1404 178.245 59.7436L172.543 67.9587C172.065 67.6269 171.848 67.2827 171.792 67.1837C171.738 67.0892 171.78 67.1324 171.854 67.4085L181.513 64.8203ZM178.433 59.8807C176.344 58.2822 173.951 58.2537 172.101 58.7495L174.689 68.4087C174.608 68.4304 174.296 68.5019 173.829 68.4384C173.324 68.3696 172.801 68.1634 172.355 67.8215L178.433 59.8807ZM172.101 58.7495C169.981 59.3175 168.052 60.6582 166.954 62.8901L175.928 67.3029C175.792 67.5805 175.571 67.8663 175.278 68.0938C174.998 68.3111 174.765 68.3885 174.689 68.4087L172.101 58.7495ZM166.944 62.9114C165.891 65.0788 166.052 67.3137 166.526 69.0846L176.185 66.4964C176.137 66.3175 176.162 66.3203 176.157 66.4645C176.152 66.6261 176.111 66.9277 175.939 67.2816L166.944 62.9114ZM166.526 69.0846L170.393 83.5155L180.052 80.9273L176.185 66.4964L166.526 69.0846ZM170.393 83.5155C170.433 83.666 170.392 83.5921 170.403 83.3517C170.414 83.0871 170.491 82.6232 170.787 82.1101L179.447 87.1101C180.73 84.8887 180.486 82.545 180.052 80.9273L170.393 83.5155ZM170.787 82.1101C171.132 81.5131 171.547 81.2156 171.716 81.1123C171.873 81.017 171.886 81.0447 171.633 81.1126L174.221 90.7718C175.774 90.3559 178.107 89.4319 179.447 87.1101L170.787 82.1101ZM171.633 81.1126L167.402 82.2462L169.991 91.9055L174.221 90.7718L171.633 81.1126ZM167.402 82.2462C167.149 82.3141 167.147 82.2834 167.33 82.2876C167.529 82.2922 168.037 82.3423 168.634 82.6869L163.634 91.3472C165.956 92.6877 168.438 92.3214 169.991 91.9055L167.402 82.2462ZM168.634 82.6869C169.147 82.9832 169.445 83.3468 169.587 83.5701C169.717 83.7731 169.718 83.8575 169.678 83.707L160.019 86.2952C160.452 87.9129 161.413 90.0647 163.634 91.3472L168.634 82.6869ZM169.678 83.707L165.718 68.9284L156.059 71.5165L160.019 86.2952L169.678 83.707ZM165.718 68.9284C165.313 67.416 164.502 65.4664 162.705 64.0992C160.664 62.5455 158.31 62.4446 156.395 62.9579L158.983 72.6171C158.866 72.6486 158.533 72.7178 158.058 72.6484C157.55 72.5743 157.056 72.3663 156.649 72.0566C155.919 71.501 155.915 70.9811 156.059 71.5165L165.718 68.9284ZM156.395 62.9579C154.306 63.5176 152.316 64.8259 151.191 67.114L160.164 71.5268C160.013 71.8341 159.779 72.1237 159.492 72.3419C159.223 72.5471 159.014 72.6088 158.983 72.6171L156.395 62.9579ZM151.191 67.114C150.131 69.2696 150.217 71.5076 150.72 73.382L160.379 70.7938C160.34 70.6478 160.365 70.6674 160.359 70.8158C160.351 70.9813 160.305 71.2405 160.164 71.5269L151.191 67.114ZM150.72 73.382L154.571 87.7549L164.23 85.1668L160.379 70.7938L150.72 73.382ZM154.571 87.7549C154.611 87.9055 154.57 87.8316 154.581 87.5911C154.593 87.3265 154.669 86.8627 154.965 86.3495L163.625 91.3495C164.908 89.1282 164.664 86.7845 164.23 85.1668L154.571 87.7549ZM154.861 86.54C155.229 85.8335 155.711 85.4803 155.909 85.3577C156.094 85.2438 156.128 85.2673 155.869 85.3365L158.457 94.9958C159.948 94.5964 162.427 93.6611 163.73 91.1591L154.861 86.54ZM155.869 85.3365L151.175 86.5944L153.763 96.2536L158.457 94.9958L155.869 85.3365ZM189.457 47.4112L186.841 51.6722L186.898 51.7075L186.957 51.7413L189.457 47.4112ZM187.717 40.9202L192.048 43.4202L192.081 43.3617L192.113 43.3023L187.717 40.9202ZM197.976 38.1715L195.359 42.4325L195.417 42.4678L195.476 42.5016L197.976 38.1715ZM199.715 44.6625L204.045 47.1625L204.079 47.104L204.111 47.0446L199.715 44.6625ZM190.672 52.1791L195.002 54.6791L195.052 54.5925L195.099 54.504L190.672 52.1791ZM200.988 49.4149L198.317 53.6416L198.486 53.7485L198.663 53.8415L200.988 49.4149ZM208.054 75.7847L203.827 73.1136L203.774 73.1981L203.724 73.2847L208.054 75.7847ZM191.456 42.8172C191.215 42.8818 191.179 42.8561 191.298 42.8647C191.361 42.8692 191.46 42.8829 191.581 42.9191C191.705 42.9556 191.833 43.0095 191.957 43.0811L186.957 51.7413C189.332 53.1125 191.893 53.0528 194.044 52.4765L191.456 42.8172ZM192.073 43.1502C192.1 43.1672 192.213 43.2449 192.336 43.4063C192.461 43.5712 192.53 43.7354 192.56 43.8466L182.901 46.4348C183.507 48.699 184.915 50.4897 186.841 51.6722L192.073 43.1502ZM192.56 43.8466L192.187 42.4556L182.528 45.0438L182.901 46.4348L192.56 43.8466ZM192.187 42.4556C192.205 42.5213 192.235 42.6893 192.206 42.9198C192.176 43.1526 192.101 43.3273 192.048 43.4202L183.387 38.4202C182.199 40.4776 181.924 42.7891 182.528 45.0438L192.187 42.4556ZM192.113 43.3023C192.049 43.4213 191.969 43.5338 191.88 43.6332C191.791 43.7317 191.707 43.8007 191.644 43.8448C191.523 43.93 191.514 43.899 191.73 43.8411L189.142 34.1819C186.919 34.7774 184.655 36.0772 183.321 38.5381L192.113 43.3023ZM191.73 43.8411L195.903 42.723L193.315 33.0638L189.142 34.1819L191.73 43.8411ZM195.903 42.723C196.153 42.6559 196.185 42.6851 196.053 42.6742C195.983 42.6684 195.877 42.652 195.748 42.611C195.618 42.5695 195.485 42.5096 195.359 42.4325L200.592 33.9105C198.174 32.4261 195.528 32.4708 193.315 33.0638L195.903 42.723ZM195.476 42.5016C195.383 42.448 195.23 42.3342 195.088 42.1474C194.948 41.9624 194.89 41.8018 194.872 41.7361L204.532 39.1479C203.927 36.8932 202.533 35.0293 200.476 33.8414L195.476 42.5016ZM194.872 41.7361L195.245 43.127L204.904 40.5389L204.532 39.1479L194.872 41.7361ZM195.245 43.127C195.215 43.0159 195.193 42.8393 195.219 42.6339C195.244 42.4328 195.303 42.309 195.319 42.2804L204.111 47.0446C205.188 45.0576 205.511 42.8031 204.904 40.5389L195.245 43.127ZM195.385 42.1625C195.462 42.0284 195.551 41.9123 195.642 41.8174C195.732 41.7239 195.809 41.665 195.856 41.6335C195.943 41.5754 195.903 41.6256 195.629 41.6991L198.217 51.3584C200.359 50.7843 202.656 49.5684 204.045 47.1625L195.385 42.1625ZM195.629 41.6991L191.456 42.8172L194.044 52.4765L198.217 51.3584L195.629 41.6991ZM199.006 73.778C198.753 73.8458 198.751 73.8152 198.934 73.8194C199.133 73.824 199.641 73.8741 200.238 74.2187L195.238 82.879C197.56 84.2195 200.042 83.8532 201.594 83.4372L199.006 73.778ZM200.238 74.2187C200.751 74.515 201.049 74.8786 201.191 75.1019C201.321 75.3049 201.322 75.3893 201.282 75.2388L191.623 77.827C192.056 79.4447 193.016 81.5965 195.238 82.879L200.238 74.2187ZM201.282 75.2388L195.396 53.2736L185.737 55.8618L191.623 77.827L201.282 75.2388ZM195.396 53.2736C195.356 53.1231 195.397 53.197 195.386 53.4375C195.375 53.7021 195.298 54.1659 195.002 54.6791L186.342 49.6791C185.059 51.9004 185.304 54.2441 185.737 55.8618L195.396 53.2736ZM195.099 54.504C194.781 55.1097 194.368 55.4385 194.156 55.5743C193.965 55.696 193.915 55.679 194.14 55.6186L191.552 45.9593C189.915 46.3981 187.537 47.3948 186.245 49.8541L195.099 54.504ZM194.14 55.6186L199.704 54.1278L197.116 44.4685L191.552 45.9593L194.14 55.6186ZM199.704 54.1278C199.93 54.0673 199.895 54.1073 199.669 54.097C199.417 54.0856 198.895 54.0071 198.317 53.6416L203.659 45.1881C201.311 43.7041 198.754 44.0297 197.116 44.4685L199.704 54.1278ZM198.663 53.8415C197.57 53.2675 197.423 52.4142 197.502 52.7094L207.161 50.1212C206.702 48.4073 205.659 46.2203 203.313 44.9883L198.663 53.8415ZM197.502 52.7094L203.388 74.6746L213.047 72.0864L207.161 50.1212L197.502 52.7094ZM203.388 74.6746C203.467 74.9698 203.168 74.157 203.827 73.1136L212.281 78.4557C213.696 76.2158 213.506 73.8003 213.047 72.0864L203.388 74.6746ZM203.724 73.2847C204.068 72.6877 204.484 72.3902 204.653 72.2869C204.81 72.1916 204.823 72.2193 204.57 72.2872L207.158 81.9464C208.71 81.5305 211.044 80.6065 212.384 78.2847L203.724 73.2847ZM204.57 72.2872L199.006 73.778L201.594 83.4372L207.158 81.9464L204.57 72.2872ZM214.767 73.9859L217.267 69.6558L217.267 69.6558L214.767 73.9859ZM207.26 47.3616L202.93 44.8616L202.93 44.8616L207.26 47.3616ZM215.849 44.8739L214.247 49.6102L214.682 49.7573L215.136 49.8228L215.849 44.8739ZM216.499 45.4451L211.842 47.2647L211.891 47.3916L211.948 47.5156L216.499 45.4451ZM217.255 47.1062L212.703 49.1766L216.727 58.0204L221.585 49.6062L217.255 47.1062ZM220.802 43.4225L223.639 47.5395L223.665 47.5219L223.69 47.504L220.802 43.4225ZM234.756 41.4849L232.438 45.9153L232.463 45.928L232.487 45.9404L234.756 41.4849ZM243.745 66.2214L239.414 63.7214L239.36 63.8155L239.31 63.9118L243.745 66.2214ZM233.371 69.0011L230.871 73.3312L230.957 73.3812L231.046 73.4277L233.371 69.0011ZM221.639 51.6461L217.463 48.8961L217.424 48.9555L217.387 49.0161L221.639 51.6461ZM225.083 71.2218L220.753 68.7218L220.698 68.8158L220.648 68.9122L225.083 71.2218ZM216.035 69.2151C215.782 69.2829 215.78 69.2523 215.963 69.2565C216.162 69.2611 216.67 69.3112 217.267 69.6558L212.267 78.3161C214.589 79.6566 217.071 79.2903 218.623 78.8743L216.035 69.2151ZM217.267 69.6558C217.78 69.9521 218.078 70.3157 218.22 70.539C218.35 70.742 218.351 70.8264 218.311 70.6759L208.652 73.2641C209.085 74.8818 210.045 77.0336 212.267 78.3161L217.267 69.6558ZM218.311 70.6759L212.115 47.5516L202.455 50.1398L208.652 73.2641L218.311 70.6759ZM212.115 47.5516C212.084 47.437 212.133 47.5685 212.138 47.869C212.143 48.1382 212.12 48.9438 211.59 49.8616L202.93 44.8616C202.23 46.0733 202.127 47.2732 202.14 48.0372C202.153 48.8323 202.3 49.559 202.455 50.1398L212.115 47.5516ZM211.59 49.8616C211.075 50.7549 210.413 51.1552 210.214 51.2658C209.987 51.3917 209.896 51.397 210.068 51.3507L207.48 41.6915C206.841 41.8626 206.092 42.1167 205.36 42.5227C204.656 42.9136 203.644 43.6254 202.93 44.8616L211.59 49.8616ZM210.068 51.3507L216.038 49.7512L213.45 40.092L207.48 41.6915L210.068 51.3507ZM216.038 49.7512C216.016 49.7569 215.854 49.8002 215.583 49.8118C215.315 49.8234 214.833 49.8084 214.247 49.6102L217.451 40.1376C215.808 39.5817 214.297 39.8648 213.45 40.092L216.038 49.7512ZM215.136 49.8228C214.383 49.7144 213.599 49.3869 212.937 48.805C212.311 48.2547 211.994 47.6543 211.842 47.2647L221.156 43.6256C220.516 41.9878 219.013 40.2781 216.562 39.925L215.136 49.8228ZM211.948 47.5156L212.703 49.1766L221.806 45.0357L221.05 43.3747L211.948 47.5156ZM221.585 49.6062C221.937 48.9965 222.554 48.2877 223.639 47.5395L217.965 39.3055C215.904 40.7254 214.156 42.4724 212.924 44.6062L221.585 49.6062ZM223.69 47.504C224.745 46.7575 226.071 46.131 227.744 45.6829L225.155 36.0236C222.5 36.735 220.062 37.8214 217.914 39.3409L223.69 47.504ZM227.744 45.6829C229.908 45.1028 231.349 45.3454 232.438 45.9153L237.074 37.0545C233.347 35.1051 229.25 34.9266 225.155 36.0236L227.744 45.6829ZM232.487 45.9404C233.248 46.3277 234.226 47.233 234.905 49.7686L244.564 47.1804C243.401 42.8386 241.06 39.0841 237.025 37.0294L232.487 45.9404ZM234.905 49.7686L239.02 65.1268L248.68 62.5386L244.564 47.1804L234.905 49.7686ZM239.02 65.1268C239.061 65.2773 239.02 65.2035 239.03 64.963C239.042 64.6984 239.118 64.2346 239.414 63.7214L248.075 68.7214C249.357 66.5 249.113 64.1563 248.68 62.5386L239.02 65.1268ZM239.31 63.9118C239.678 63.2053 240.16 62.8521 240.359 62.7296C240.543 62.6156 240.577 62.6392 240.319 62.7084L242.907 72.3676C244.397 71.9682 246.876 71.0329 248.179 68.5309L239.31 63.9118ZM240.319 62.7084L234.697 64.2147L237.285 73.874L242.907 72.3676L240.319 62.7084ZM234.697 64.2147C234.448 64.2813 234.427 64.2569 234.578 64.2594C234.743 64.2621 235.173 64.3 235.695 64.5745L231.046 73.4277C233.31 74.6171 235.681 74.3038 237.285 73.874L234.697 64.2147ZM235.871 64.671C236.384 64.9672 236.682 65.3308 236.824 65.5542C236.953 65.7571 236.955 65.8415 236.915 65.691L227.255 68.2792C227.689 69.8969 228.649 72.0487 230.871 73.3312L235.871 64.671ZM236.915 65.691L233.001 51.0862L223.342 53.6744L227.255 68.2792L236.915 65.691ZM233.001 51.0862C232.554 49.4185 231.58 47.105 229.25 45.76L224.25 54.4202C223.714 54.1104 223.437 53.7396 223.335 53.5748C223.243 53.4271 223.274 53.4201 223.342 53.6744L233.001 51.0862ZM229.25 45.76C226.986 44.4525 224.583 44.687 222.878 45.1438L225.466 54.803C225.653 54.753 225.612 54.7896 225.402 54.78C225.167 54.7694 224.735 54.6998 224.25 54.4202L229.25 45.76ZM222.878 45.1438C220.838 45.6904 218.821 46.8348 217.463 48.8961L225.815 54.396C225.689 54.5876 225.538 54.7219 225.425 54.7971C225.324 54.8635 225.312 54.8444 225.466 54.803L222.878 45.1438ZM217.387 49.0161C216.027 51.2136 215.938 53.6277 216.507 55.7542L226.167 53.166C226.152 53.1113 226.193 53.232 226.167 53.4787C226.138 53.7456 226.043 54.0302 225.891 54.2761L217.387 49.0161ZM216.507 55.7542L220.359 70.1272L230.018 67.539L226.167 53.166L216.507 55.7542ZM220.359 70.1272C220.399 70.2777 220.358 70.2038 220.369 69.9634C220.38 69.6988 220.456 69.2349 220.753 68.7218L229.413 73.7218C230.696 71.5004 230.451 69.1567 230.018 67.539L220.359 70.1272ZM220.648 68.9122C221.016 68.2057 221.499 67.8525 221.697 67.73C221.882 67.616 221.915 67.6395 221.657 67.7088L224.245 77.368C225.736 76.9686 228.214 76.0333 229.518 73.5313L220.648 68.9122ZM221.657 67.7088L216.035 69.2151L218.623 78.8743L224.245 77.368L221.657 67.7088ZM259.884 72.3323L259.669 67.337L259.639 67.3383L259.609 67.3399L259.884 72.3323ZM254.024 71.7905L251.864 76.2996L252.085 76.4055L252.315 76.4892L254.024 71.7905ZM253.435 70.5197L258.243 71.8948L258.271 71.7939L258.296 71.6919L253.435 70.5197ZM254.701 65.2734L249.893 63.8983L249.865 63.9991L249.84 64.1011L254.701 65.2734ZM254.909 64.6586L250.976 61.5714L250.535 62.1333L250.268 62.7961L254.909 64.6586ZM256.083 64.406L257.127 59.5162L256.903 59.4684L256.675 59.4412L256.083 64.406ZM267.794 61.5165L271.88 64.3983L271.88 64.3982L267.794 61.5165ZM268.176 57.3767L273.006 56.0826L270.52 46.8065L264.346 54.1622L268.176 57.3767ZM265.635 59.4861L268.13 63.8192L268.197 63.7807L268.263 63.7402L265.635 59.4861ZM250.586 60.3505L248.194 64.7413L248.212 64.7509L248.23 64.7603L250.586 60.3505ZM245.885 39.5589L249.941 42.4832L249.952 42.4673L249.963 42.4513L245.885 39.5589ZM266.56 31.4101L266.749 26.4136L266.749 26.4136L266.56 31.4101ZM273.932 32.7269L278.762 31.4328L278.094 28.941L275.677 28.041L273.932 32.7269ZM277.888 63.719L282.302 66.0683L282.302 66.0683L277.888 63.719ZM263.633 39.959L268.463 38.6649L267.609 35.4802L264.346 35.0101L263.633 39.959ZM255.895 42.8399L251.622 40.2443L251.593 40.2918L251.565 40.3399L255.895 42.8399ZM258.229 51.7805L255.446 55.9348L255.49 55.9642L255.535 55.9927L258.229 51.7805ZM265.936 66.404C263.996 66.9239 261.911 67.2402 259.669 67.337L260.1 77.3277C263.016 77.2018 265.828 76.7857 268.524 76.0633L265.936 66.404ZM259.609 67.3399C257.332 67.4655 256.172 67.2514 255.734 67.0918L252.315 76.4892C254.629 77.3313 257.376 77.4783 260.16 77.3247L259.609 67.3399ZM256.185 67.2814C256.725 67.54 257.83 68.2975 258.246 69.8517L248.587 72.4399C249.149 74.535 250.659 75.7224 251.864 76.2996L256.185 67.2814ZM258.246 69.8517C258.466 70.6704 258.386 71.3945 258.243 71.8948L248.628 69.1445C248.357 70.0933 248.264 71.2349 248.587 72.4399L258.246 69.8517ZM258.296 71.6919L259.561 66.4457L249.84 64.1011L248.575 69.3474L258.296 71.6919ZM259.508 66.6486C259.52 66.6068 259.53 66.5756 259.537 66.5538C259.541 66.543 259.544 66.5349 259.546 66.5294C259.547 66.5267 259.547 66.5246 259.548 66.5232C259.548 66.5225 259.548 66.522 259.549 66.5217C259.549 66.5215 259.549 66.5214 259.549 66.5213C259.549 66.5212 259.549 66.5212 259.549 66.5212L250.268 62.7961C250.121 63.1648 249.997 63.5352 249.893 63.8983L259.508 66.6486ZM258.842 67.7459C258.467 68.2236 257.748 68.888 256.62 69.1902L254.032 59.5309C252.595 59.9159 251.598 60.779 250.976 61.5714L258.842 67.7459ZM256.62 69.1902C256.264 69.2854 255.979 69.3182 255.845 69.3311C255.691 69.3461 255.57 69.3499 255.501 69.351C255.366 69.3533 255.279 69.3477 255.273 69.3474C255.258 69.3465 255.317 69.3501 255.491 69.3708L256.675 59.4412C256.421 59.4109 256.141 59.3815 255.873 59.3654C255.741 59.3575 255.55 59.3488 255.332 59.3525C255.218 59.3544 254.675 59.3586 254.032 59.5309L256.62 69.1902ZM255.039 69.2958C258.196 69.9696 261.707 69.5662 265.284 68.6078L262.696 58.9485C259.859 59.7087 258.1 59.7238 257.127 59.5162L255.039 69.2958ZM265.284 68.6078C267.682 67.9654 270.219 66.7543 271.88 64.3983L263.708 58.6347C263.82 58.4767 263.886 58.4682 263.748 58.55C263.599 58.6388 263.276 58.7931 262.696 58.9485L265.284 68.6078ZM271.88 64.3982C273.781 61.7033 273.681 58.6017 273.006 56.0826L263.346 58.6708C263.406 58.8933 263.432 59.052 263.443 59.1533C263.454 59.2539 263.449 59.2842 263.451 59.2568C263.454 59.2266 263.465 59.1411 263.508 59.0193C263.552 58.8948 263.619 58.7616 263.708 58.6347L271.88 64.3982ZM264.346 54.1622C264.142 54.4049 263.742 54.7787 263.008 55.232L268.263 63.7402C269.661 62.8769 270.954 61.8444 272.006 60.5911L264.346 54.1622ZM263.141 55.153C262.475 55.5362 261.689 55.864 260.756 56.114L263.345 65.7732C265.039 65.3193 266.643 64.6754 268.13 63.8192L263.141 55.153ZM260.756 56.114C256.915 57.1432 254.503 56.7746 252.943 55.9408L248.23 64.7603C252.759 67.1812 257.99 67.208 263.345 65.7732L260.756 56.114ZM252.978 55.9598C251.514 55.1623 250.087 53.5415 249.167 50.1089L239.508 52.697C240.907 57.9191 243.646 62.2633 248.194 64.7413L252.978 55.9598ZM249.167 50.1089C248.189 46.4589 248.735 44.1553 249.941 42.4832L241.829 36.6346C238.446 41.3271 237.96 46.9196 239.508 52.697L249.167 50.1089ZM249.963 42.4513C251.305 40.56 254.059 38.6317 259.241 37.2433L256.652 27.584C250.32 29.2807 245.034 32.1159 241.806 36.6666L249.963 42.4513ZM259.241 37.2433C261.681 36.5893 264.053 36.319 266.372 36.4065L266.749 26.4136C263.378 26.2864 260.007 26.6851 256.652 27.584L259.241 37.2433ZM266.372 36.4065C268.83 36.4993 270.737 36.8727 272.188 37.4128L275.677 28.041C272.988 27.0401 269.98 26.5356 266.749 26.4136L266.372 36.4065ZM269.103 34.021L274.056 52.5088L283.716 49.9206L278.762 31.4328L269.103 34.021ZM274.056 52.5088C275.058 56.245 274.698 59.0713 273.475 61.3697L282.302 66.0683C284.935 61.1218 285.241 55.6118 283.716 49.9206L274.056 52.5088ZM273.475 61.3697C272.381 63.4238 270.206 65.2599 265.936 66.404L268.524 76.0633C274.609 74.4328 279.539 71.2592 282.302 66.0683L273.475 61.3697ZM263.705 56.9182C265.79 56.3595 268.117 55.204 269.549 52.8418C271.009 50.4327 270.913 47.8085 270.342 45.6775L260.683 48.2657C260.752 48.5259 260.724 48.5611 260.733 48.4266C260.745 48.2642 260.806 47.973 260.997 47.6588C261.184 47.35 261.392 47.1913 261.467 47.1427C261.524 47.1064 261.442 47.172 261.117 47.259L263.705 56.9182ZM270.342 45.6775L268.463 38.6649L258.804 41.253L260.683 48.2657L270.342 45.6775ZM264.346 35.0101C262.361 34.724 260.111 35.1673 258.142 35.6948L260.731 45.354C261.544 45.1361 262.148 45.015 262.573 44.9578C263.035 44.8956 263.103 44.9342 262.92 44.9078L264.346 35.0101ZM258.142 35.6948C255.68 36.3545 253.171 37.6926 251.622 40.2443L260.169 45.4355C260.072 45.5953 259.979 45.6518 260.012 45.6298C260.065 45.5954 260.271 45.4772 260.731 45.354L258.142 35.6948ZM251.565 40.3399C249.908 43.2105 250.343 46.5361 251.017 49.0541L260.677 46.4659C260.457 45.6459 260.414 45.1561 260.416 44.9272C260.418 44.7031 260.46 44.9328 260.225 45.3399L251.565 40.3399ZM251.017 49.0541C251.681 51.5325 252.928 54.2483 255.446 55.9348L261.011 47.6263C261.223 47.7681 261.239 47.8621 261.14 47.6946C261.034 47.5161 260.857 47.1386 260.677 46.4659L251.017 49.0541ZM255.535 55.9927C258.214 57.7065 261.223 57.5832 263.705 56.9182L261.117 47.259C260.886 47.3209 260.714 47.351 260.596 47.3647C260.478 47.3783 260.426 47.3743 260.429 47.3745C260.433 47.3749 260.493 47.3799 260.59 47.4107C260.69 47.4424 260.806 47.4936 260.923 47.5684L255.535 55.9927Z" fill="white" mask="url(#path-1-outside-1_6_17)"/>
<mask id="path-3-outside-2_6_17" maskUnits="userSpaceOnUse" x="31.4966" y="84.7327" width="195.311" height="99.852" fill="black">
<rect fill="white" x="31.4966" y="84.7327" width="195.311" height="99.852"/>
<path d="M66.0205 173.73C62.775 174.599 59.6154 175.094 56.5416 175.214C53.4575 175.295 50.8611 174.955 48.7525 174.195C47.9818 173.946 47.5344 173.59 47.4101 173.126C47.3273 172.817 47.3552 172.457 47.4939 172.048L49.1224 166.766C49.3073 166.22 49.5542 165.905 49.8633 165.822C50.0565 165.77 50.4212 165.818 50.9573 165.964C52.6043 166.392 54.403 166.614 56.3535 166.63C58.3041 166.646 60.168 166.415 61.9453 165.939C63.7612 165.452 65.0217 164.825 65.7268 164.056C66.4705 163.277 66.6819 162.289 66.361 161.091C66.0504 159.932 65.3242 159.153 64.1822 158.755C63.0789 158.347 61.0984 157.987 58.2405 157.676C53.9448 157.254 50.4525 156.43 47.7636 155.204C45.103 153.929 43.3482 151.707 42.4993 148.539C41.4743 144.714 42.0643 141.429 44.2692 138.685C46.4741 135.941 49.8561 133.958 54.4153 132.737C57.5835 131.888 60.3658 131.453 62.762 131.432C65.1865 131.362 67.3461 131.694 69.2408 132.429C70.0323 132.755 70.4849 133.131 70.5988 133.556C70.6713 133.826 70.6382 134.167 70.4995 134.576L68.871 139.858C68.6475 140.415 68.4005 140.729 68.13 140.802C67.9368 140.854 67.5722 140.806 67.0361 140.66C64.4017 139.792 61.5391 139.773 58.4481 140.601C56.7867 141.046 55.5842 141.658 54.8405 142.437C54.0967 143.216 53.8905 144.224 54.2218 145.46C54.4496 146.31 54.8677 146.944 55.4763 147.36C56.0849 147.777 56.8325 148.094 57.7191 148.312C58.634 148.481 60.005 148.652 61.8321 148.825L63.0419 148.936C66.2013 149.29 68.7321 149.772 70.6344 150.38C72.565 150.939 74.1571 151.859 75.4109 153.138C76.6543 154.378 77.5763 156.119 78.1767 158.36C79.0981 161.799 78.5388 164.889 76.4988 167.63C74.4975 170.361 71.0047 172.394 66.0205 173.73ZM99.7982 164.679C94.5049 166.097 90.0381 165.886 86.3977 164.046C82.7469 162.167 80.3108 158.948 79.0891 154.388C77.8675 149.829 78.3729 145.843 80.6053 142.428C82.8274 138.976 86.5851 136.54 91.8783 135.122C97.1716 133.703 101.644 133.934 105.294 135.813C108.973 137.643 111.424 140.838 112.645 145.397C113.867 149.956 113.347 153.967 111.087 157.43C108.854 160.845 105.091 163.261 99.7982 164.679ZM97.5775 156.391C100.978 155.48 102.098 152.861 100.938 148.534C99.7996 144.284 97.5301 142.614 94.1301 143.525C90.73 144.436 89.5994 147.017 90.7382 151.267C91.3179 153.431 92.1971 154.934 93.3756 155.778C94.5541 156.622 95.9548 156.826 97.5775 156.391ZM134.549 155.368C129.256 156.786 124.789 156.575 121.148 154.734C117.498 152.855 115.061 149.636 113.84 145.077C112.618 140.518 113.124 136.531 115.356 133.117C117.578 129.664 121.336 127.229 126.629 125.81C131.922 124.392 136.394 124.622 140.045 126.502C143.724 128.332 146.174 131.526 147.396 136.086C148.618 140.645 148.098 144.656 145.837 148.119C143.605 151.533 139.842 153.949 134.549 155.368ZM132.328 147.08C135.728 146.169 136.849 143.55 135.689 139.222C134.55 134.972 132.281 133.303 128.881 134.214C125.481 135.125 124.35 137.705 125.489 141.956C126.069 144.119 126.948 145.623 128.126 146.467C129.305 147.31 130.705 147.515 132.328 147.08ZM158.02 148.147C156.899 148.447 156.045 148.428 155.457 148.088C154.869 147.749 154.441 147.077 154.172 146.072L147.976 122.948C147.789 122.252 147.781 121.758 147.951 121.464C148.149 121.121 148.653 120.841 149.465 120.623L155.434 119.024C155.898 118.9 156.266 118.884 156.539 118.976C156.841 119.02 157.058 119.21 157.189 119.547L157.945 121.208C158.737 119.837 159.919 118.609 161.492 117.525C163.094 116.392 164.976 115.535 167.14 114.955C170.27 114.117 173.038 114.327 175.446 115.587C177.844 116.808 179.504 119.138 180.425 122.577L184.54 137.935C184.81 138.939 184.774 139.736 184.435 140.324C184.134 140.901 183.424 141.34 182.303 141.64L176.681 143.147C175.561 143.447 174.688 143.432 174.061 143.103C173.473 142.764 173.045 142.092 172.775 141.087L168.862 126.483C168.551 125.323 168.078 124.56 167.441 124.192C166.804 123.825 165.945 123.786 164.863 124.076C163.704 124.386 162.859 124.944 162.329 125.748C161.838 126.542 161.738 127.48 162.027 128.562L165.879 142.935C166.148 143.94 166.113 144.736 165.773 145.324C165.473 145.901 164.762 146.34 163.641 146.641L158.02 148.147ZM209.07 123.411C207.95 123.712 207.076 123.697 206.45 123.368C205.862 123.029 205.433 122.357 205.164 121.352L198.589 98.2051C198.32 97.2005 198.355 96.4043 198.694 95.8164C199.023 95.1899 199.729 94.7317 200.811 94.4418L206.49 92.92C207.611 92.6197 208.47 92.6587 209.068 93.0367C209.656 93.3761 210.085 94.0481 210.354 95.0527L216.176 118.402C216.434 119.367 216.38 120.169 216.012 120.806C215.634 121.404 214.885 121.853 213.764 122.153L209.07 123.411ZM212.414 133.572C210.907 133.976 209.724 134.044 208.866 133.777C208.046 133.5 207.502 132.859 207.233 131.855L206.86 130.464C206.591 129.459 206.742 128.632 207.313 127.982C207.923 127.321 208.981 126.789 210.488 126.386L213.966 125.454C216.941 124.657 218.687 125.224 219.205 127.156L219.577 128.547C220.095 130.479 218.866 131.843 215.891 132.64L212.414 133.572Z"/>
</mask>
<path d="M66.0205 173.73C62.775 174.599 59.6154 175.094 56.5416 175.214C53.4575 175.295 50.8611 174.955 48.7525 174.195C47.9818 173.946 47.5344 173.59 47.4101 173.126C47.3273 172.817 47.3552 172.457 47.4939 172.048L49.1224 166.766C49.3073 166.22 49.5542 165.905 49.8633 165.822C50.0565 165.77 50.4212 165.818 50.9573 165.964C52.6043 166.392 54.403 166.614 56.3535 166.63C58.3041 166.646 60.168 166.415 61.9453 165.939C63.7612 165.452 65.0217 164.825 65.7268 164.056C66.4705 163.277 66.6819 162.289 66.361 161.091C66.0504 159.932 65.3242 159.153 64.1822 158.755C63.0789 158.347 61.0984 157.987 58.2405 157.676C53.9448 157.254 50.4525 156.43 47.7636 155.204C45.103 153.929 43.3482 151.707 42.4993 148.539C41.4743 144.714 42.0643 141.429 44.2692 138.685C46.4741 135.941 49.8561 133.958 54.4153 132.737C57.5835 131.888 60.3658 131.453 62.762 131.432C65.1865 131.362 67.3461 131.694 69.2408 132.429C70.0323 132.755 70.4849 133.131 70.5988 133.556C70.6713 133.826 70.6382 134.167 70.4995 134.576L68.871 139.858C68.6475 140.415 68.4005 140.729 68.13 140.802C67.9368 140.854 67.5722 140.806 67.0361 140.66C64.4017 139.792 61.5391 139.773 58.4481 140.601C56.7867 141.046 55.5842 141.658 54.8405 142.437C54.0967 143.216 53.8905 144.224 54.2218 145.46C54.4496 146.31 54.8677 146.944 55.4763 147.36C56.0849 147.777 56.8325 148.094 57.7191 148.312C58.634 148.481 60.005 148.652 61.8321 148.825L63.0419 148.936C66.2013 149.29 68.7321 149.772 70.6344 150.38C72.565 150.939 74.1571 151.859 75.4109 153.138C76.6543 154.378 77.5763 156.119 78.1767 158.36C79.0981 161.799 78.5388 164.889 76.4988 167.63C74.4975 170.361 71.0047 172.394 66.0205 173.73ZM99.7982 164.679C94.5049 166.097 90.0381 165.886 86.3977 164.046C82.7469 162.167 80.3108 158.948 79.0891 154.388C77.8675 149.829 78.3729 145.843 80.6053 142.428C82.8274 138.976 86.5851 136.54 91.8783 135.122C97.1716 133.703 101.644 133.934 105.294 135.813C108.973 137.643 111.424 140.838 112.645 145.397C113.867 149.956 113.347 153.967 111.087 157.43C108.854 160.845 105.091 163.261 99.7982 164.679ZM97.5775 156.391C100.978 155.48 102.098 152.861 100.938 148.534C99.7996 144.284 97.5301 142.614 94.1301 143.525C90.73 144.436 89.5994 147.017 90.7382 151.267C91.3179 153.431 92.1971 154.934 93.3756 155.778C94.5541 156.622 95.9548 156.826 97.5775 156.391ZM134.549 155.368C129.256 156.786 124.789 156.575 121.148 154.734C117.498 152.855 115.061 149.636 113.84 145.077C112.618 140.518 113.124 136.531 115.356 133.117C117.578 129.664 121.336 127.229 126.629 125.81C131.922 124.392 136.394 124.622 140.045 126.502C143.724 128.332 146.174 131.526 147.396 136.086C148.618 140.645 148.098 144.656 145.837 148.119C143.605 151.533 139.842 153.949 134.549 155.368ZM132.328 147.08C135.728 146.169 136.849 143.55 135.689 139.222C134.55 134.972 132.281 133.303 128.881 134.214C125.481 135.125 124.35 137.705 125.489 141.956C126.069 144.119 126.948 145.623 128.126 146.467C129.305 147.31 130.705 147.515 132.328 147.08ZM158.02 148.147C156.899 148.447 156.045 148.428 155.457 148.088C154.869 147.749 154.441 147.077 154.172 146.072L147.976 122.948C147.789 122.252 147.781 121.758 147.951 121.464C148.149 121.121 148.653 120.841 149.465 120.623L155.434 119.024C155.898 118.9 156.266 118.884 156.539 118.976C156.841 119.02 157.058 119.21 157.189 119.547L157.945 121.208C158.737 119.837 159.919 118.609 161.492 117.525C163.094 116.392 164.976 115.535 167.14 114.955C170.27 114.117 173.038 114.327 175.446 115.587C177.844 116.808 179.504 119.138 180.425 122.577L184.54 137.935C184.81 138.939 184.774 139.736 184.435 140.324C184.134 140.901 183.424 141.34 182.303 141.64L176.681 143.147C175.561 143.447 174.688 143.432 174.061 143.103C173.473 142.764 173.045 142.092 172.775 141.087L168.862 126.483C168.551 125.323 168.078 124.56 167.441 124.192C166.804 123.825 165.945 123.786 164.863 124.076C163.704 124.386 162.859 124.944 162.329 125.748C161.838 126.542 161.738 127.48 162.027 128.562L165.879 142.935C166.148 143.94 166.113 144.736 165.773 145.324C165.473 145.901 164.762 146.34 163.641 146.641L158.02 148.147ZM209.07 123.411C207.95 123.712 207.076 123.697 206.45 123.368C205.862 123.029 205.433 122.357 205.164 121.352L198.589 98.2051C198.32 97.2005 198.355 96.4043 198.694 95.8164C199.023 95.1899 199.729 94.7317 200.811 94.4418L206.49 92.92C207.611 92.6197 208.47 92.6587 209.068 93.0367C209.656 93.3761 210.085 94.0481 210.354 95.0527L216.176 118.402C216.434 119.367 216.38 120.169 216.012 120.806C215.634 121.404 214.885 121.853 213.764 122.153L209.07 123.411ZM212.414 133.572C210.907 133.976 209.724 134.044 208.866 133.777C208.046 133.5 207.502 132.859 207.233 131.855L206.86 130.464C206.591 129.459 206.742 128.632 207.313 127.982C207.923 127.321 208.981 126.789 210.488 126.386L213.966 125.454C216.941 124.657 218.687 125.224 219.205 127.156L219.577 128.547C220.095 130.479 218.866 131.843 215.891 132.64L212.414 133.572Z" fill="#4A249D"/>
<path d="M56.5416 175.214L56.6729 180.212L56.7045 180.211L56.7361 180.21L56.5416 175.214ZM48.7525 174.195L50.4482 169.491L50.3694 169.463L50.2898 169.437L48.7525 174.195ZM47.4939 172.048L52.2302 173.65L52.2519 173.586L52.2719 173.521L47.4939 172.048ZM49.1224 166.766L44.3861 165.164L44.3644 165.228L44.3444 165.293L49.1224 166.766ZM50.9573 165.964L49.6416 170.788L49.6702 170.795L49.6988 170.803L50.9573 165.964ZM56.3535 166.63L56.3133 171.63L56.3133 171.63L56.3535 166.63ZM65.7268 164.056L62.1103 160.604L62.0758 160.64L62.0421 160.676L65.7268 164.056ZM64.1822 158.755L62.4466 163.444L62.4915 163.461L62.5366 163.477L64.1822 158.755ZM58.2405 157.676L58.7813 152.706L58.7557 152.703L58.73 152.7L58.2405 157.676ZM47.7636 155.204L45.603 159.713L45.6461 159.734L45.6895 159.753L47.7636 155.204ZM44.2692 138.685L48.1669 141.817L48.1669 141.817L44.2692 138.685ZM62.762 131.432L62.8056 136.432L62.8559 136.431L62.9061 136.43L62.762 131.432ZM69.2408 132.429L71.1466 127.806L71.0977 127.786L71.0484 127.767L69.2408 132.429ZM70.4995 134.576L65.7632 132.974L65.7415 133.038L65.7215 133.103L70.4995 134.576ZM68.871 139.858L73.5111 141.72L73.5881 141.529L73.649 141.331L68.871 139.858ZM67.0361 140.66L65.4718 145.409L65.5951 145.45L65.7204 145.484L67.0361 140.66ZM54.8405 142.437L51.2239 138.985L54.8405 142.437ZM55.4763 147.36L52.6516 151.486L52.6516 151.486L55.4763 147.36ZM57.7191 148.312L56.5256 153.168L56.6674 153.203L56.8111 153.229L57.7191 148.312ZM61.8321 148.825L61.3607 153.803L61.3687 153.804L61.3767 153.804L61.8321 148.825ZM63.0419 148.936L63.5992 143.967L63.5483 143.961L63.4972 143.957L63.0419 148.936ZM70.6344 150.38L69.1113 155.142L69.1768 155.163L69.2428 155.182L70.6344 150.38ZM75.4109 153.138L71.8402 156.638L71.8598 156.658L71.8796 156.677L75.4109 153.138ZM76.4988 167.63L72.4876 164.645L72.4766 164.66L72.4658 164.674L76.4988 167.63ZM64.7264 168.9C61.8075 169.682 59.017 170.114 56.3472 170.217L56.7361 180.21C60.2138 180.075 63.7426 179.517 67.3146 178.559L64.7264 168.9ZM56.4104 170.215C53.73 170.286 51.7963 169.977 50.4482 169.491L47.0568 178.899C49.926 179.933 53.1849 180.304 56.6729 180.212L56.4104 170.215ZM50.2898 169.437C50.2899 169.437 50.3533 169.457 50.4601 169.51C50.5662 169.563 50.7437 169.662 50.9536 169.83C51.4017 170.186 51.9749 170.843 52.2397 171.832L42.5805 174.42C43.38 177.404 45.9527 178.545 47.2153 178.953L50.2898 169.437ZM52.2397 171.832C52.4879 172.758 52.2992 173.446 52.2302 173.65L42.7575 170.445C42.4112 171.469 42.1667 172.876 42.5805 174.42L52.2397 171.832ZM52.2719 173.521L53.9004 168.239L44.3444 165.293L42.7158 170.574L52.2719 173.521ZM53.8587 168.368C53.8428 168.415 53.7236 168.769 53.3793 169.207C53.0044 169.685 52.2852 170.35 51.1574 170.652L48.5692 160.992C45.6963 161.762 44.6872 164.274 44.3861 165.164L53.8587 168.368ZM51.1574 170.652C50.6716 170.782 50.2818 170.8 50.081 170.802C49.8639 170.803 49.7081 170.786 49.6395 170.777C49.5111 170.761 49.4951 170.748 49.6416 170.788L52.273 161.14C51.8834 161.034 51.417 160.924 50.924 160.86C50.5452 160.811 49.6231 160.71 48.5692 160.992L51.1574 170.652ZM49.6988 170.803C51.7967 171.348 54.0102 171.611 56.3133 171.63L56.3938 161.63C54.7958 161.617 53.4119 161.436 52.2158 161.125L49.6988 170.803ZM56.3133 171.63C58.6872 171.649 61.0016 171.368 63.2394 170.769L60.6512 161.109C59.3343 161.462 57.9209 161.642 56.3938 161.63L56.3133 171.63ZM63.2394 170.769C65.3369 170.207 67.7294 169.27 69.4115 167.436L62.0421 160.676C62.2208 160.482 62.2858 160.497 62.024 160.628C61.7729 160.753 61.3366 160.926 60.6512 161.109L63.2394 170.769ZM69.3434 167.509C71.4933 165.257 71.8823 162.378 71.1906 159.797L61.5314 162.385C61.5328 162.39 61.4606 162.12 61.5537 161.685C61.6543 161.215 61.887 160.837 62.1103 160.604L69.3434 167.509ZM71.1906 159.797C70.4476 157.024 68.5185 154.972 65.8279 154.034L62.5366 163.477C62.446 163.445 62.1891 163.329 61.9271 163.048C61.664 162.766 61.5607 162.495 61.5314 162.385L71.1906 159.797ZM65.9178 154.066C64.1715 153.42 61.6293 153.016 58.7813 152.706L57.6997 162.647C60.5675 162.959 61.9864 163.274 62.4466 163.444L65.9178 154.066ZM58.73 152.7C54.7534 152.309 51.8519 151.573 49.8376 150.654L45.6895 159.753C49.053 161.287 53.1362 162.198 57.751 162.652L58.73 152.7ZM49.9241 150.695C48.7366 150.126 47.8475 149.18 47.3289 147.245L37.6696 149.833C38.8489 154.234 41.4693 157.732 45.603 159.713L49.9241 150.695ZM47.3289 147.245C46.6571 144.738 47.0957 143.15 48.1669 141.817L40.3715 135.554C37.0329 139.709 36.2916 144.69 37.6696 149.833L47.3289 147.245ZM48.1669 141.817C49.5126 140.142 51.8308 138.606 55.7094 137.566L53.1212 127.907C47.8815 129.311 43.4356 131.74 40.3715 135.554L48.1669 141.817ZM55.7094 137.566C58.6082 136.79 60.9544 136.448 62.8056 136.432L62.7184 126.432C59.7771 126.458 56.5589 126.986 53.1212 127.907L55.7094 137.566ZM62.9061 136.43C64.7907 136.375 66.2683 136.639 67.4333 137.091L71.0484 127.767C68.424 126.75 65.5824 126.349 62.6179 126.434L62.9061 136.43ZM67.3351 137.052C67.457 137.102 67.2747 137.047 66.9808 136.803C66.6749 136.549 66.0572 135.925 65.7692 134.85L75.4284 132.262C74.658 129.387 72.1289 128.211 71.1466 127.806L67.3351 137.052ZM65.7692 134.85C65.6202 134.294 65.6227 133.829 65.6518 133.53C65.6806 133.234 65.7407 133.041 65.7632 132.974L75.2359 136.179C75.5309 135.306 75.8606 133.875 75.4284 132.262L65.7692 134.85ZM65.7215 133.103L64.093 138.385L73.649 141.331L75.2775 136.05L65.7215 133.103ZM64.2308 137.995C64.2312 137.994 64.2518 137.942 64.2992 137.855C64.345 137.77 64.4358 137.614 64.5851 137.424C64.8523 137.084 65.5627 136.313 66.8359 135.972L69.4241 145.631C70.9678 145.218 71.9369 144.254 72.4512 143.599C72.9741 142.933 73.3017 142.242 73.5111 141.72L64.2308 137.995ZM66.8359 135.972C67.3217 135.842 67.7116 135.824 67.9124 135.822C68.1295 135.82 68.2853 135.838 68.3539 135.847C68.4823 135.863 68.4983 135.876 68.3518 135.836L65.7204 145.484C66.11 145.59 66.5764 145.7 67.0694 145.764C67.4482 145.813 68.3703 145.914 69.4241 145.631L66.8359 135.972ZM68.6004 135.911C64.9057 134.694 61.0371 134.731 57.154 135.771L59.7422 145.43C62.0411 144.814 63.8978 144.891 65.4718 145.409L68.6004 135.911ZM57.154 135.771C55.0864 136.325 52.8731 137.257 51.2239 138.985L58.457 145.89C58.3549 145.997 58.3481 145.962 58.5682 145.85C58.7877 145.738 59.1614 145.586 59.7422 145.43L57.154 135.771ZM51.2239 138.985C49.031 141.282 48.7091 144.205 49.3922 146.754L59.0514 144.166C59.0387 144.118 59.1124 144.36 59.0265 144.78C58.932 145.241 58.7022 145.633 58.457 145.89L51.2239 138.985ZM49.3922 146.754C49.8663 148.524 50.8756 150.27 52.6516 151.486L58.3011 143.235C58.5461 143.402 58.7421 143.611 58.8788 143.818C59.0088 144.015 59.048 144.153 59.0514 144.166L49.3922 146.754ZM52.6516 151.486C53.8578 152.312 55.1896 152.839 56.5256 153.168L58.9127 143.457C58.4755 143.349 58.312 143.242 58.3011 143.235L52.6516 151.486ZM56.8111 153.229C57.9498 153.439 59.4988 153.627 61.3607 153.803L62.3035 143.848C60.5112 143.678 59.3183 143.523 58.6272 143.395L56.8111 153.229ZM61.3767 153.804L62.5866 153.915L63.4972 143.957L62.2874 143.846L61.3767 153.804ZM62.4846 153.905C65.4841 154.241 67.6514 154.675 69.1113 155.142L72.1575 145.618C69.8128 144.868 66.9185 144.339 63.5992 143.967L62.4846 153.905ZM69.2428 155.182C70.45 155.532 71.2595 156.045 71.8402 156.638L78.9816 149.638C77.0548 147.672 74.6799 146.347 72.0259 145.578L69.2428 155.182ZM71.8796 156.677C72.3314 157.128 72.9034 157.998 73.3471 159.654L83.0063 157.066C82.2491 154.24 80.9772 151.628 78.9422 149.598L71.8796 156.677ZM73.3471 159.654C73.8921 161.688 73.5717 163.188 72.4876 164.645L80.5101 170.615C83.506 166.589 84.3042 161.909 83.0063 157.066L73.3471 159.654ZM72.4658 164.674C71.4102 166.115 69.1597 167.712 64.7264 168.9L67.3146 178.559C72.8497 177.076 77.5848 174.607 80.5319 170.585L72.4658 164.674ZM86.3977 164.046L84.1094 168.491L84.1255 168.5L84.1417 168.508L86.3977 164.046ZM80.6053 142.428L84.7901 145.165L84.8 145.15L84.8099 145.134L80.6053 142.428ZM105.294 135.813L103.006 140.259L103.037 140.274L103.067 140.29L105.294 135.813ZM111.087 157.43L115.272 160.167L115.274 160.164L111.087 157.43ZM93.3756 155.778L90.465 159.844L90.465 159.844L93.3756 155.778ZM98.5041 159.849C93.9856 161.06 90.8663 160.702 88.6537 159.584L84.1417 168.508C89.2099 171.07 95.0243 171.135 101.092 169.509L98.5041 159.849ZM88.686 159.6C86.4814 158.465 84.8356 156.516 83.9188 153.094L74.2595 155.682C75.7859 161.379 79.0125 165.868 84.1094 168.491L88.686 159.6ZM83.9188 153.094C83.0016 149.671 83.4615 147.197 84.7901 145.165L76.4205 139.692C73.2843 144.488 72.7334 149.987 74.2595 155.682L83.9188 153.094ZM84.8099 145.134C86.1609 143.035 88.6706 141.158 93.1724 139.951L90.5843 130.292C84.4995 131.923 79.4939 134.916 76.4008 139.723L84.8099 145.134ZM93.1724 139.951C97.6743 138.745 100.786 139.116 103.006 140.259L107.583 131.367C102.501 128.752 96.669 128.662 90.5843 130.292L93.1724 139.951ZM103.067 140.29C105.266 141.383 106.904 143.289 107.816 146.691L117.475 144.103C115.943 138.387 112.681 133.903 107.521 131.336L103.067 140.29ZM107.816 146.691C108.727 150.092 108.27 152.598 106.9 154.697L115.274 160.164C118.425 155.336 119.007 149.82 117.475 144.103L107.816 146.691ZM106.902 154.694C105.545 156.769 103.023 158.639 98.5041 159.849L101.092 169.509C107.16 167.883 112.164 164.92 115.272 160.167L106.902 154.694ZM98.8716 161.221C101.668 160.472 104.26 158.761 105.565 155.71C106.755 152.928 106.482 149.904 105.768 147.24L96.1087 149.828C96.3181 150.609 96.3787 151.149 96.3806 151.487C96.3825 151.817 96.3289 151.875 96.3706 151.777C96.4247 151.651 96.5273 151.522 96.6226 151.447C96.692 151.393 96.6287 151.469 96.2834 151.562L98.8716 161.221ZM105.768 147.24C105.06 144.599 103.783 141.86 101.345 140.067C98.6874 138.111 95.6019 137.955 92.836 138.696L95.4242 148.355C95.7794 148.26 95.8829 148.292 95.8051 148.282C95.6945 148.267 95.5391 148.21 95.4193 148.122C95.3234 148.051 95.387 148.061 95.5392 148.325C95.6963 148.598 95.9061 149.072 96.1087 149.828L105.768 147.24ZM92.836 138.696C90.07 139.437 87.4764 141.115 86.1523 144.137C84.9378 146.91 85.2009 149.92 85.9086 152.561L95.5678 149.973C95.3652 149.217 95.31 148.701 95.3096 148.386C95.3092 148.081 95.3596 148.041 95.3118 148.151C95.2521 148.287 95.146 148.414 95.0576 148.482C94.9955 148.53 95.0689 148.45 95.4242 148.355L92.836 138.696ZM85.9086 152.561C86.6327 155.264 87.952 158.044 90.465 159.844L96.2862 151.713C96.3721 151.774 96.3037 151.759 96.1488 151.494C95.9879 151.219 95.7733 150.74 95.5678 149.973L85.9086 152.561ZM90.465 159.844C93.0612 161.702 96.0607 161.974 98.8716 161.221L96.2834 151.562C96.1453 151.599 96.0602 151.609 96.0223 151.612C95.9861 151.615 95.9927 151.611 96.0322 151.617C96.0733 151.623 96.1271 151.636 96.1836 151.659C96.2397 151.682 96.2747 151.704 96.2862 151.713L90.465 159.844ZM121.148 154.734L118.86 159.18L118.876 159.188L118.892 159.197L121.148 154.734ZM115.356 133.117L119.541 135.853L119.551 135.838L119.561 135.823L115.356 133.117ZM140.045 126.502L137.757 130.947L137.787 130.963L137.818 130.978L140.045 126.502ZM145.837 148.119L150.022 150.855L150.024 150.852L145.837 148.119ZM128.126 146.467L125.216 150.532L125.216 150.532L128.126 146.467ZM133.255 150.538C128.736 151.749 125.617 151.391 123.404 150.272L118.892 159.197C123.961 161.759 129.775 161.823 135.843 160.197L133.255 150.538ZM123.437 150.289C121.232 149.154 119.586 147.205 118.669 143.783L109.01 146.371C110.537 152.068 113.763 156.556 118.86 159.18L123.437 150.289ZM118.669 143.783C117.752 140.36 118.212 137.885 119.541 135.853L111.171 130.381C108.035 135.177 107.484 140.676 109.01 146.371L118.669 143.783ZM119.561 135.823C120.912 133.723 123.421 131.846 127.923 130.64L125.335 120.981C119.25 122.611 114.245 125.605 111.151 130.411L119.561 135.823ZM127.923 130.64C132.425 129.434 135.537 129.805 137.757 130.947L142.333 122.056C137.252 119.44 131.42 119.35 125.335 120.981L127.923 130.64ZM137.818 130.978C140.016 132.072 141.655 133.977 142.566 137.38L152.226 134.791C150.694 129.075 147.432 124.592 142.272 122.025L137.818 130.978ZM142.566 137.38C143.478 140.781 143.021 143.287 141.651 145.386L150.024 150.852C153.176 146.025 153.758 140.509 152.226 134.791L142.566 137.38ZM141.653 145.383C140.296 147.458 137.773 149.327 133.255 150.538L135.843 160.197C141.911 158.571 146.914 155.609 150.022 150.855L141.653 145.383ZM133.622 151.91C136.419 151.16 139.011 149.449 140.316 146.399C141.506 143.616 141.233 140.593 140.519 137.928L130.859 140.517C131.069 141.298 131.129 141.838 131.131 142.176C131.133 142.505 131.08 142.564 131.121 142.466C131.175 142.34 131.278 142.21 131.373 142.136C131.443 142.082 131.379 142.158 131.034 142.25L133.622 151.91ZM140.519 137.928C139.811 135.287 138.534 132.549 136.096 130.755C133.438 128.8 130.353 128.643 127.587 129.384L130.175 139.044C130.53 138.948 130.634 138.981 130.556 138.97C130.445 138.956 130.29 138.898 130.17 138.81C130.074 138.74 130.138 138.749 130.29 139.014C130.447 139.286 130.657 139.76 130.859 140.517L140.519 137.928ZM127.587 129.384C124.821 130.125 122.227 131.804 120.903 134.826C119.688 137.598 119.952 140.609 120.659 143.25L130.319 140.661C130.116 139.905 130.061 139.39 130.06 139.075C130.06 138.77 130.11 138.73 130.062 138.839C130.003 138.975 129.897 139.102 129.808 139.171C129.746 139.219 129.82 139.139 130.175 139.044L127.587 129.384ZM120.659 143.25C121.383 145.952 122.703 148.733 125.216 150.532L131.037 142.401C131.123 142.463 131.054 142.448 130.899 142.182C130.739 141.907 130.524 141.429 130.319 140.661L120.659 143.25ZM125.216 150.532C127.812 152.391 130.811 152.663 133.622 151.91L131.034 142.25C130.896 142.287 130.811 142.298 130.773 142.301C130.737 142.303 130.743 142.299 130.783 142.305C130.824 142.311 130.878 142.325 130.934 142.347C130.99 142.37 131.025 142.393 131.037 142.401L125.216 150.532ZM155.457 148.088L157.957 143.758L157.957 143.758L155.457 148.088ZM147.951 121.464L143.62 118.964L143.62 118.964L147.951 121.464ZM156.539 118.976L154.937 123.712L155.372 123.86L155.826 123.925L156.539 118.976ZM157.189 119.547L152.532 121.367L152.582 121.494L152.638 121.618L157.189 119.547ZM157.945 121.208L153.394 123.279L157.417 132.123L162.275 123.708L157.945 121.208ZM161.492 117.525L164.33 121.642L164.355 121.624L164.381 121.606L161.492 117.525ZM175.446 115.587L173.129 120.018L173.153 120.03L173.178 120.043L175.446 115.587ZM184.435 140.324L180.105 137.824L180.051 137.918L180 138.014L184.435 140.324ZM174.061 143.103L171.561 147.433L171.648 147.483L171.736 147.53L174.061 143.103ZM162.329 125.748L158.154 122.998L158.114 123.058L158.077 123.118L162.329 125.748ZM165.773 145.324L161.443 142.824L161.389 142.918L161.339 143.014L165.773 145.324ZM156.726 143.317C156.472 143.385 156.47 143.354 156.653 143.359C156.852 143.363 157.36 143.413 157.957 143.758L152.957 152.418C155.279 153.759 157.762 153.392 159.314 152.977L156.726 143.317ZM157.957 143.758C158.47 144.054 158.768 144.418 158.911 144.641C159.04 144.844 159.042 144.929 159.001 144.778L149.342 147.366C149.776 148.984 150.736 151.136 152.957 152.418L157.957 143.758ZM159.001 144.778L152.805 121.654L143.146 124.242L149.342 147.366L159.001 144.778ZM152.805 121.654C152.774 121.539 152.824 121.671 152.829 121.971C152.833 122.24 152.811 123.046 152.281 123.964L143.62 118.964C142.921 120.175 142.817 121.375 142.83 122.139C142.844 122.935 142.99 123.661 143.146 124.242L152.805 121.654ZM152.281 123.964C151.765 124.857 151.104 125.257 150.904 125.368C150.678 125.494 150.586 125.499 150.759 125.453L148.171 115.794C147.532 115.965 146.782 116.219 146.051 116.625C145.347 117.016 144.334 117.728 143.62 118.964L152.281 123.964ZM150.759 125.453L156.728 123.853L154.14 114.194L148.171 115.794L150.759 125.453ZM156.728 123.853C156.707 123.859 156.544 123.902 156.274 123.914C156.005 123.926 155.523 123.911 154.937 123.712L158.142 114.24C156.499 113.684 154.988 113.967 154.14 114.194L156.728 123.853ZM155.826 123.925C155.074 123.817 154.289 123.489 153.627 122.907C153.001 122.357 152.684 121.757 152.532 121.367L161.847 117.728C161.207 116.09 159.703 114.38 157.252 114.027L155.826 123.925ZM152.638 121.618L153.394 123.279L162.496 119.138L161.741 117.477L152.638 121.618ZM162.275 123.708C162.627 123.099 163.244 122.39 164.33 121.642L158.655 113.408C156.595 114.828 154.847 116.575 153.615 118.708L162.275 123.708ZM164.381 121.606C165.436 120.86 166.762 120.233 168.434 119.785L165.846 110.126C163.191 110.837 160.752 111.924 158.604 113.443L164.381 121.606ZM168.434 119.785C170.599 119.205 172.039 119.448 173.129 120.018L177.764 111.157C174.038 109.207 169.94 109.029 165.846 110.126L168.434 119.785ZM173.178 120.043C173.938 120.43 174.916 121.335 175.596 123.871L185.255 121.283C184.091 116.941 181.75 113.186 177.715 111.132L173.178 120.043ZM175.596 123.871L179.711 139.229L189.37 136.641L185.255 121.283L175.596 123.871ZM179.711 139.229C179.751 139.38 179.71 139.306 179.721 139.065C179.732 138.801 179.809 138.337 180.105 137.824L188.765 142.824C190.048 140.602 189.803 138.259 189.37 136.641L179.711 139.229ZM180 138.014C180.368 137.308 180.851 136.954 181.049 136.832C181.234 136.718 181.267 136.741 181.009 136.811L183.597 146.47C185.088 146.07 187.567 145.135 188.87 142.633L180 138.014ZM181.009 136.811L175.387 138.317L177.976 147.976L183.597 146.47L181.009 136.811ZM175.387 138.317C175.139 138.384 175.117 138.359 175.268 138.362C175.434 138.364 175.863 138.402 176.386 138.677L171.736 147.53C174.001 148.719 176.372 148.406 177.976 147.976L175.387 138.317ZM176.561 138.773C177.074 139.069 177.372 139.433 177.514 139.656C177.644 139.859 177.645 139.944 177.605 139.793L167.946 142.381C168.379 143.999 169.34 146.151 171.561 147.433L176.561 138.773ZM177.605 139.793L173.692 125.188L164.032 127.777L167.946 142.381L177.605 139.793ZM173.692 125.188C173.245 123.521 172.27 121.207 169.941 119.862L164.941 128.522C164.404 128.213 164.128 127.842 164.025 127.677C163.934 127.529 163.964 127.522 164.032 127.777L173.692 125.188ZM169.941 119.862C167.676 118.555 165.274 118.789 163.569 119.246L166.157 128.905C166.343 128.855 166.303 128.892 166.093 128.882C165.858 128.872 165.425 128.802 164.941 128.522L169.941 119.862ZM163.569 119.246C161.529 119.793 159.511 120.937 158.154 122.998L166.505 128.498C166.379 128.69 166.229 128.824 166.115 128.899C166.014 128.966 166.003 128.947 166.157 128.905L163.569 119.246ZM158.077 123.118C156.718 125.316 156.628 127.73 157.198 129.856L166.857 127.268C166.842 127.214 166.883 127.334 166.857 127.581C166.828 127.848 166.734 128.132 166.582 128.378L158.077 123.118ZM157.198 129.856L161.049 144.229L170.708 141.641L166.857 127.268L157.198 129.856ZM161.049 144.229C161.089 144.38 161.048 144.306 161.059 144.066C161.071 143.801 161.147 143.337 161.443 142.824L170.103 147.824C171.386 145.603 171.142 143.259 170.708 141.641L161.049 144.229ZM161.339 143.014C161.707 142.308 162.189 141.955 162.387 141.832C162.572 141.718 162.606 141.742 162.347 141.811L164.936 151.47C166.426 151.071 168.905 150.136 170.208 147.633L161.339 143.014ZM162.347 141.811L156.726 143.317L159.314 152.977L164.936 151.47L162.347 141.811ZM206.45 123.368L203.95 127.698L204.036 127.748L204.125 127.795L206.45 123.368ZM205.164 121.352L209.994 120.058L209.984 120.022L209.974 119.986L205.164 121.352ZM198.589 98.2051L193.759 99.4992L193.769 99.5353L193.779 99.5713L198.589 98.2051ZM198.694 95.8164L203.025 98.3164L203.075 98.2299L203.121 98.1414L198.694 95.8164ZM209.068 93.0367L206.397 97.2635L206.482 97.3168L206.568 97.3668L209.068 93.0367ZM210.354 95.0527L215.206 93.8431L215.195 93.8007L215.184 93.7586L210.354 95.0527ZM216.176 118.402L211.324 119.611L211.335 119.653L211.346 119.696L216.176 118.402ZM216.012 120.806L220.239 123.477L220.292 123.392L220.342 123.306L216.012 120.806ZM208.866 133.777L207.264 138.514L207.322 138.533L207.381 138.552L208.866 133.777ZM207.313 127.982L203.64 124.589L203.598 124.635L203.557 124.681L207.313 127.982ZM207.776 118.582C207.527 118.648 207.506 118.624 207.657 118.626C207.822 118.629 208.252 118.667 208.774 118.941L204.125 127.795C206.389 128.984 208.76 128.671 210.364 128.241L207.776 118.582ZM208.95 119.038C209.463 119.334 209.761 119.698 209.903 119.921C210.032 120.124 210.034 120.208 209.994 120.058L200.334 122.646C200.768 124.264 201.728 126.416 203.95 127.698L208.95 119.038ZM209.974 119.986L203.399 96.8389L193.779 99.5713L200.354 122.718L209.974 119.986ZM203.419 96.911C203.378 96.7605 203.419 96.8343 203.409 97.0748C203.397 97.3394 203.321 97.8032 203.025 98.3164L194.364 93.3164C193.082 95.5378 193.326 97.8815 193.759 99.4992L203.419 96.911ZM203.121 98.1414C202.818 98.7179 202.424 99.0467 202.194 99.196C201.988 99.3297 201.914 99.3227 202.105 99.2715L199.517 89.6122C197.856 90.0573 195.541 91.0674 194.268 93.4915L203.121 98.1414ZM202.105 99.2715L207.785 97.7496L205.196 88.0903L199.517 89.6122L202.105 99.2715ZM207.785 97.7496C208.01 97.6891 207.975 97.7291 207.749 97.7189C207.497 97.7075 206.976 97.6289 206.397 97.2635L211.74 88.8099C209.391 87.326 206.834 87.6515 205.196 88.0903L207.785 97.7496ZM206.568 97.3668C206.055 97.0705 205.757 96.7069 205.615 96.4836C205.486 96.2807 205.484 96.1963 205.524 96.3468L215.184 93.7586C214.75 92.1409 213.79 89.9891 211.568 88.7066L206.568 97.3668ZM205.503 96.2623L211.324 119.611L221.027 117.192L215.206 93.8431L205.503 96.2623ZM211.346 119.696C211.366 119.772 211.322 119.652 211.34 119.388C211.36 119.099 211.45 118.707 211.682 118.306L220.342 123.306C221.583 121.157 221.481 118.881 221.005 117.107L211.346 119.696ZM211.785 118.135C212.101 117.636 212.454 117.388 212.596 117.303C212.725 117.225 212.719 117.257 212.47 117.324L215.059 126.983C216.663 126.553 218.873 125.639 220.239 123.477L211.785 118.135ZM212.47 117.324L207.776 118.582L210.364 128.241L215.059 126.983L212.47 117.324ZM211.12 128.742C210.598 128.882 210.272 128.925 210.108 128.935C209.936 128.944 210.057 128.911 210.351 129.003L207.381 138.552C209.587 139.238 211.878 138.892 213.708 138.402L211.12 128.742ZM210.468 129.041C210.891 129.184 211.322 129.461 211.654 129.852C211.96 130.213 212.05 130.513 212.062 130.56L202.403 133.149C203.005 135.394 204.526 137.587 207.264 138.514L210.468 129.041ZM212.062 130.56L211.69 129.169L202.03 131.758L202.403 133.149L212.062 130.56ZM211.69 129.169C211.702 129.217 211.775 129.522 211.69 129.988C211.598 130.492 211.363 130.947 211.069 131.282L203.557 124.681C201.649 126.852 201.429 129.513 202.03 131.758L211.69 129.169ZM210.986 131.374C210.777 131.6 210.656 131.632 210.81 131.555C210.957 131.481 211.261 131.355 211.782 131.215L209.194 121.556C207.364 122.046 205.207 122.892 203.64 124.589L210.986 131.374ZM211.782 131.215L215.26 130.283L212.671 120.624L209.194 121.556L211.782 131.215ZM215.26 130.283C215.757 130.15 216.063 130.113 216.209 130.106C216.36 130.099 216.241 130.127 215.962 130.037C215.644 129.934 215.235 129.711 214.88 129.32C214.539 128.943 214.413 128.592 214.375 128.45L224.034 125.862C223.384 123.434 221.699 121.386 219.051 120.526C216.827 119.804 214.527 120.127 212.671 120.624L215.26 130.283ZM214.375 128.45L214.748 129.841L224.407 127.253L224.034 125.862L214.375 128.45ZM214.748 129.841C214.71 129.699 214.643 129.331 214.75 128.835C214.862 128.319 215.105 127.921 215.328 127.673C215.525 127.455 215.642 127.421 215.508 127.49C215.378 127.557 215.094 127.677 214.597 127.811L217.185 137.47C219.041 136.973 221.195 136.103 222.76 134.365C224.622 132.297 225.057 129.681 224.407 127.253L214.748 129.841ZM214.597 127.811L211.12 128.742L213.708 138.402L217.185 137.47L214.597 127.811Z" fill="white" mask="url(#path-3-outside-2_6_17)"/>
</g>
<defs>
<filter id="filter0_d_6_17" x="-4" y="0.913788" width="309.528" height="202.592" filterUnits="userSpaceOnUse" color-interpolation-filters="sRGB">
<feFlood flood-opacity="0" result="BackgroundImageFix"/>
<feColorMatrix in="SourceAlpha" type="matrix" values="0 0 0 0 0 0 0 0 0 0 0 0 0 0 0 0 0 0 127 0" result="hardAlpha"/>
<feOffset dy="4"/>
<feGaussianBlur stdDeviation="2"/>
<feComposite in2="hardAlpha" operator="out"/>
<feColorMatrix type="matrix" values="0 0 0 0 0 0 0 0 0 0 0 0 0 0 0 0 0 0 0.25 0"/>
<feBlend mode="normal" in2="BackgroundImageFix" result="effect1_dropShadow_6_17"/>
<feBlend mode="normal" in="SourceGraphic" in2="effect1_dropShadow_6_17" result="shape"/>
</filter>
</defs>
</svg>
