<svg width="564" height="395" viewBox="0 0 564 395" fill="none" xmlns="http://www.w3.org/2000/svg">
<g filter="url(#filter0_d_8_23)">
<rect x="11" y="184.935" width="500" height="206" transform="rotate(-12.242 11 184.935)" fill="#009FBD"/>
</g>
<g filter="url(#filter1_d_8_23)">
<path d="M4.00005 160.243L495.021 65.9138L533.885 268.215L42.8636 362.544L4.00005 160.243Z" fill="#4DB0C3"/>
</g>
<g filter="url(#filter2_d_8_23)">
<rect x="42.7517" y="147.639" width="480.553" height="192.499" transform="rotate(-17.8922 42.7517 147.639)" fill="#CDE8E5"/>
</g>
<rect x="53.6687" y="151.593" width="446.016" height="180.895" transform="rotate(-17.1883 53.6687 151.593)" fill="#B6EAE4"/>
<g filter="url(#filter3_d_8_23)">
<rect x="4" y="164.323" width="500" height="206" transform="rotate(-15 4 164.323)" fill="#EEF7FF"/>
</g>
<g filter="url(#filter4_d_8_23)">
<mask id="path-6-outside-1_8_23" maskUnits="userSpaceOnUse" x="176.11" y="110.333" width="231.707" height="118.57" fill="black">
<rect fill="white" x="176.11" y="110.333" width="231.707" height="118.57"/>
<path d="M215.193 207.167C208.315 209.01 202.517 208.7 197.799 206.237C193.071 203.736 189.806 199.124 188.004 192.401C186.193 185.639 186.656 180.028 189.395 175.567C192.172 171.096 196.98 167.944 203.819 166.112C206.794 165.315 209.562 164.904 212.124 164.88C214.674 164.818 216.906 165.11 218.819 165.758C219.316 165.914 219.622 166.205 219.736 166.63C219.808 166.9 219.782 167.342 219.656 167.956L218.298 172.854C218.2 173.419 217.959 173.753 217.572 173.856C217.34 173.918 216.918 173.886 216.304 173.761C213.645 173.107 210.75 173.199 207.62 174.038C204.027 175.001 201.525 176.789 200.113 179.404C198.73 181.969 198.577 185.261 199.654 189.279C200.73 193.298 202.591 196.07 205.237 197.598C207.882 199.125 211.002 199.407 214.595 198.445C217.763 197.596 220.393 196.208 222.486 194.28C222.954 193.865 223.304 193.626 223.536 193.564C223.884 193.471 224.255 193.62 224.65 194.011L228.454 197.775C228.789 198.099 228.998 198.416 229.081 198.725C229.174 199.073 229.035 199.482 228.665 199.954C226.02 203.065 221.529 205.469 215.193 207.167ZM246.998 198.645C241.705 200.063 237.238 199.852 233.598 198.011C229.947 196.132 227.511 192.913 226.289 188.354C225.067 183.795 225.573 179.808 227.805 176.394C230.027 172.941 233.785 170.506 239.078 169.087C244.371 167.669 248.843 167.9 252.494 169.779C256.173 171.609 258.624 174.803 259.845 179.363C261.067 183.922 260.547 187.933 258.287 191.396C256.054 194.81 252.291 197.226 246.998 198.645ZM244.777 190.357C248.177 189.446 249.298 186.827 248.138 182.5C246.999 178.249 244.73 176.58 241.33 177.491C237.93 178.402 236.799 180.983 237.938 185.233C238.518 187.396 239.397 188.9 240.575 189.744C241.754 190.587 243.155 190.792 244.777 190.357ZM270.469 191.424C269.348 191.724 268.494 191.705 267.906 191.365C267.319 191.026 266.89 190.354 266.621 189.349L260.425 166.225C260.238 165.53 260.23 165.035 260.4 164.741C260.598 164.398 261.102 164.118 261.914 163.9L267.42 162.425C267.883 162.301 268.252 162.285 268.525 162.377C268.826 162.421 269.043 162.611 269.175 162.949L269.946 164.668C270.728 163.257 271.712 162.062 272.898 161.081C274.075 160.062 275.571 159.309 277.387 158.823C279.01 158.388 280.478 158.305 281.793 158.574C283.107 158.843 284.33 159.468 285.463 160.448C286.206 159.048 287.17 157.858 288.357 156.877C289.582 155.886 291.161 155.132 293.093 154.614C296.068 153.817 298.619 154.065 300.746 155.359C302.863 156.614 304.387 158.98 305.319 162.457L309.45 177.873C309.719 178.878 309.684 179.674 309.345 180.262C309.005 180.85 308.275 181.294 307.155 181.594L302.46 182.852C301.34 183.152 300.486 183.133 299.898 182.793C299.31 182.454 298.881 181.782 298.612 180.777L294.683 166.114C294.383 164.994 293.953 164.24 293.394 163.851C292.873 163.452 292.207 163.362 291.395 163.579C290.468 163.828 289.817 164.333 289.441 165.096C289.094 165.811 289.066 166.709 289.356 167.79L293.222 182.221C293.492 183.226 293.456 184.022 293.117 184.61C292.778 185.198 292.048 185.642 290.927 185.942L286.696 187.076C285.576 187.376 284.722 187.356 284.134 187.017C283.546 186.678 283.118 186.006 282.848 185.001L278.888 170.222C278.34 168.175 277.273 167.363 275.689 167.787C274.723 168.046 274.053 168.557 273.677 169.32C273.302 170.084 273.259 171.006 273.549 172.088L277.401 186.461C277.67 187.465 277.635 188.262 277.295 188.85C276.994 189.427 276.284 189.866 275.163 190.166L270.469 191.424ZM310.75 147.647C309.436 147.999 308.338 147.92 307.457 147.411C306.564 146.863 305.989 146.107 305.73 145.141L305.357 143.75C305.088 142.745 305.208 141.802 305.717 140.92C306.216 140 307.122 139.363 308.436 139.011L312.609 137.893C313.961 137.531 315.083 137.624 315.976 138.172C316.857 138.681 317.433 139.437 317.702 140.442L318.075 141.833C318.334 142.799 318.214 143.742 317.715 144.663C317.206 145.544 316.275 146.166 314.923 146.529L310.75 147.647ZM318.3 178.608C317.18 178.908 316.326 178.888 315.738 178.549C315.15 178.209 314.721 177.537 314.452 176.533L308.567 154.568C308.298 153.563 308.333 152.767 308.672 152.179C309.001 151.553 309.726 151.089 310.846 150.789L316.41 149.298C317.531 148.998 318.39 149.037 318.988 149.415C319.615 149.744 320.063 150.411 320.332 151.415L326.217 173.38C326.486 174.385 326.432 175.186 326.054 175.785C325.715 176.373 324.985 176.817 323.864 177.117L318.3 178.608ZM335.329 174.045C334.209 174.345 333.355 174.325 332.767 173.986C332.179 173.647 331.75 172.975 331.481 171.97L325.285 148.846C325.099 148.15 325.09 147.656 325.26 147.362C325.458 147.019 325.963 146.739 326.774 146.521L332.744 144.922C333.207 144.797 333.576 144.781 333.849 144.874C334.15 144.917 334.367 145.108 334.499 145.445L335.255 147.106C336.047 145.734 337.229 144.507 338.802 143.422C340.403 142.289 342.286 141.433 344.45 140.853C347.579 140.015 350.348 140.225 352.756 141.485C355.154 142.706 356.813 145.036 357.735 148.474L361.85 163.833C362.119 164.837 362.084 165.633 361.745 166.221C361.444 166.799 360.733 167.238 359.613 167.538L353.991 169.044C352.871 169.345 351.997 169.33 351.371 169.001C350.783 168.662 350.354 167.99 350.085 166.985L346.172 152.38C345.861 151.221 345.387 150.458 344.75 150.09C344.114 149.722 343.254 149.684 342.172 149.973C341.013 150.284 340.169 150.842 339.639 151.646C339.148 152.44 339.047 153.378 339.337 154.46L343.188 168.833C343.457 169.838 343.422 170.634 343.083 171.222C342.782 171.799 342.071 172.238 340.951 172.538L335.329 174.045ZM385.23 171.234C382.912 171.855 380.463 172.221 377.884 172.332C375.354 172.472 373.401 172.291 372.024 171.791C371.692 171.631 371.489 171.416 371.417 171.146C371.365 170.953 371.371 170.744 371.435 170.52L372.701 165.273C372.765 165.049 372.834 164.844 372.909 164.659C373.032 164.501 373.171 164.402 373.326 164.361C373.403 164.34 373.656 164.355 374.083 164.406C376.148 164.847 378.783 164.637 381.99 163.778C383.806 163.292 385.074 162.538 385.794 161.516C386.515 160.495 386.642 159.115 386.176 157.377C385.548 158.125 384.701 158.828 383.635 159.486C382.559 160.106 381.364 160.592 380.05 160.944C375.453 162.176 371.631 161.978 368.586 160.351C365.58 158.713 363.497 155.73 362.338 151.403C361.075 146.689 361.59 142.741 363.885 139.559C366.169 136.338 370.19 133.956 375.947 132.414C378.844 131.637 381.716 131.303 384.56 131.41C387.405 131.517 389.862 131.956 391.932 132.727L396.886 151.215C398.149 155.928 397.817 160.097 395.888 163.719C393.96 167.341 390.408 169.846 385.23 171.234ZM380.411 152.089C383.193 151.343 384.227 149.638 383.512 146.972L381.633 139.959C380.729 139.829 379.33 140.017 377.437 140.524C375.736 140.98 374.556 141.752 373.895 142.84C373.273 143.918 373.257 145.558 373.847 147.76C374.375 149.73 375.169 151.071 376.229 151.781C377.278 152.452 378.672 152.554 380.411 152.089Z"/>
</mask>
<path d="M215.193 207.167C208.315 209.01 202.517 208.7 197.799 206.237C193.071 203.736 189.806 199.124 188.004 192.401C186.193 185.639 186.656 180.028 189.395 175.567C192.172 171.096 196.98 167.944 203.819 166.112C206.794 165.315 209.562 164.904 212.124 164.88C214.674 164.818 216.906 165.11 218.819 165.758C219.316 165.914 219.622 166.205 219.736 166.63C219.808 166.9 219.782 167.342 219.656 167.956L218.298 172.854C218.2 173.419 217.959 173.753 217.572 173.856C217.34 173.918 216.918 173.886 216.304 173.761C213.645 173.107 210.75 173.199 207.62 174.038C204.027 175.001 201.525 176.789 200.113 179.404C198.73 181.969 198.577 185.261 199.654 189.279C200.73 193.298 202.591 196.07 205.237 197.598C207.882 199.125 211.002 199.407 214.595 198.445C217.763 197.596 220.393 196.208 222.486 194.28C222.954 193.865 223.304 193.626 223.536 193.564C223.884 193.471 224.255 193.62 224.65 194.011L228.454 197.775C228.789 198.099 228.998 198.416 229.081 198.725C229.174 199.073 229.035 199.482 228.665 199.954C226.02 203.065 221.529 205.469 215.193 207.167ZM246.998 198.645C241.705 200.063 237.238 199.852 233.598 198.011C229.947 196.132 227.511 192.913 226.289 188.354C225.067 183.795 225.573 179.808 227.805 176.394C230.027 172.941 233.785 170.506 239.078 169.087C244.371 167.669 248.843 167.9 252.494 169.779C256.173 171.609 258.624 174.803 259.845 179.363C261.067 183.922 260.547 187.933 258.287 191.396C256.054 194.81 252.291 197.226 246.998 198.645ZM244.777 190.357C248.177 189.446 249.298 186.827 248.138 182.5C246.999 178.249 244.73 176.58 241.33 177.491C237.93 178.402 236.799 180.983 237.938 185.233C238.518 187.396 239.397 188.9 240.575 189.744C241.754 190.587 243.155 190.792 244.777 190.357ZM270.469 191.424C269.348 191.724 268.494 191.705 267.906 191.365C267.319 191.026 266.89 190.354 266.621 189.349L260.425 166.225C260.238 165.53 260.23 165.035 260.4 164.741C260.598 164.398 261.102 164.118 261.914 163.9L267.42 162.425C267.883 162.301 268.252 162.285 268.525 162.377C268.826 162.421 269.043 162.611 269.175 162.949L269.946 164.668C270.728 163.257 271.712 162.062 272.898 161.081C274.075 160.062 275.571 159.309 277.387 158.823C279.01 158.388 280.478 158.305 281.793 158.574C283.107 158.843 284.33 159.468 285.463 160.448C286.206 159.048 287.17 157.858 288.357 156.877C289.582 155.886 291.161 155.132 293.093 154.614C296.068 153.817 298.619 154.065 300.746 155.359C302.863 156.614 304.387 158.98 305.319 162.457L309.45 177.873C309.719 178.878 309.684 179.674 309.345 180.262C309.005 180.85 308.275 181.294 307.155 181.594L302.46 182.852C301.34 183.152 300.486 183.133 299.898 182.793C299.31 182.454 298.881 181.782 298.612 180.777L294.683 166.114C294.383 164.994 293.953 164.24 293.394 163.851C292.873 163.452 292.207 163.362 291.395 163.579C290.468 163.828 289.817 164.333 289.441 165.096C289.094 165.811 289.066 166.709 289.356 167.79L293.222 182.221C293.492 183.226 293.456 184.022 293.117 184.61C292.778 185.198 292.048 185.642 290.927 185.942L286.696 187.076C285.576 187.376 284.722 187.356 284.134 187.017C283.546 186.678 283.118 186.006 282.848 185.001L278.888 170.222C278.34 168.175 277.273 167.363 275.689 167.787C274.723 168.046 274.053 168.557 273.677 169.32C273.302 170.084 273.259 171.006 273.549 172.088L277.401 186.461C277.67 187.465 277.635 188.262 277.295 188.85C276.994 189.427 276.284 189.866 275.163 190.166L270.469 191.424ZM310.75 147.647C309.436 147.999 308.338 147.92 307.457 147.411C306.564 146.863 305.989 146.107 305.73 145.141L305.357 143.75C305.088 142.745 305.208 141.802 305.717 140.92C306.216 140 307.122 139.363 308.436 139.011L312.609 137.893C313.961 137.531 315.083 137.624 315.976 138.172C316.857 138.681 317.433 139.437 317.702 140.442L318.075 141.833C318.334 142.799 318.214 143.742 317.715 144.663C317.206 145.544 316.275 146.166 314.923 146.529L310.75 147.647ZM318.3 178.608C317.18 178.908 316.326 178.888 315.738 178.549C315.15 178.209 314.721 177.537 314.452 176.533L308.567 154.568C308.298 153.563 308.333 152.767 308.672 152.179C309.001 151.553 309.726 151.089 310.846 150.789L316.41 149.298C317.531 148.998 318.39 149.037 318.988 149.415C319.615 149.744 320.063 150.411 320.332 151.415L326.217 173.38C326.486 174.385 326.432 175.186 326.054 175.785C325.715 176.373 324.985 176.817 323.864 177.117L318.3 178.608ZM335.329 174.045C334.209 174.345 333.355 174.325 332.767 173.986C332.179 173.647 331.75 172.975 331.481 171.97L325.285 148.846C325.099 148.15 325.09 147.656 325.26 147.362C325.458 147.019 325.963 146.739 326.774 146.521L332.744 144.922C333.207 144.797 333.576 144.781 333.849 144.874C334.15 144.917 334.367 145.108 334.499 145.445L335.255 147.106C336.047 145.734 337.229 144.507 338.802 143.422C340.403 142.289 342.286 141.433 344.45 140.853C347.579 140.015 350.348 140.225 352.756 141.485C355.154 142.706 356.813 145.036 357.735 148.474L361.85 163.833C362.119 164.837 362.084 165.633 361.745 166.221C361.444 166.799 360.733 167.238 359.613 167.538L353.991 169.044C352.871 169.345 351.997 169.33 351.371 169.001C350.783 168.662 350.354 167.99 350.085 166.985L346.172 152.38C345.861 151.221 345.387 150.458 344.75 150.09C344.114 149.722 343.254 149.684 342.172 149.973C341.013 150.284 340.169 150.842 339.639 151.646C339.148 152.44 339.047 153.378 339.337 154.46L343.188 168.833C343.457 169.838 343.422 170.634 343.083 171.222C342.782 171.799 342.071 172.238 340.951 172.538L335.329 174.045ZM385.23 171.234C382.912 171.855 380.463 172.221 377.884 172.332C375.354 172.472 373.401 172.291 372.024 171.791C371.692 171.631 371.489 171.416 371.417 171.146C371.365 170.953 371.371 170.744 371.435 170.52L372.701 165.273C372.765 165.049 372.834 164.844 372.909 164.659C373.032 164.501 373.171 164.402 373.326 164.361C373.403 164.34 373.656 164.355 374.083 164.406C376.148 164.847 378.783 164.637 381.99 163.778C383.806 163.292 385.074 162.538 385.794 161.516C386.515 160.495 386.642 159.115 386.176 157.377C385.548 158.125 384.701 158.828 383.635 159.486C382.559 160.106 381.364 160.592 380.05 160.944C375.453 162.176 371.631 161.978 368.586 160.351C365.58 158.713 363.497 155.73 362.338 151.403C361.075 146.689 361.59 142.741 363.885 139.559C366.169 136.338 370.19 133.956 375.947 132.414C378.844 131.637 381.716 131.303 384.56 131.41C387.405 131.517 389.862 131.956 391.932 132.727L396.886 151.215C398.149 155.928 397.817 160.097 395.888 163.719C393.96 167.341 390.408 169.846 385.23 171.234ZM380.411 152.089C383.193 151.343 384.227 149.638 383.512 146.972L381.633 139.959C380.729 139.829 379.33 140.017 377.437 140.524C375.736 140.98 374.556 141.752 373.895 142.84C373.273 143.918 373.257 145.558 373.847 147.76C374.375 149.73 375.169 151.071 376.229 151.781C377.278 152.452 378.672 152.554 380.411 152.089Z" fill="#4A249D"/>
<path d="M197.799 206.237L195.461 210.657L195.473 210.663L195.486 210.67L197.799 206.237ZM189.395 175.567L185.148 172.929L185.141 172.94L185.134 172.951L189.395 175.567ZM212.124 164.88L212.17 169.88L212.208 169.88L212.246 169.879L212.124 164.88ZM218.819 165.758L217.216 170.494L217.267 170.511L217.318 170.527L218.819 165.758ZM219.656 167.956L224.474 169.292L224.52 169.126L224.555 168.958L219.656 167.956ZM218.298 172.854L213.48 171.518L213.413 171.759L213.37 172.005L218.298 172.854ZM216.304 173.761L215.111 178.616L215.206 178.64L215.302 178.659L216.304 173.761ZM200.113 179.404L195.713 177.029L195.712 177.031L200.113 179.404ZM205.237 197.598L207.737 193.268L207.737 193.268L205.237 197.598ZM222.486 194.28L219.169 190.539L219.133 190.571L219.099 190.602L222.486 194.28ZM224.65 194.011L221.13 197.562L221.133 197.565L224.65 194.011ZM228.454 197.775L224.937 201.329L224.957 201.349L224.978 201.369L228.454 197.775ZM228.665 199.954L232.474 203.193L232.538 203.119L232.598 203.042L228.665 199.954ZM213.899 202.337C207.815 203.968 203.39 203.515 200.113 201.805L195.486 210.67C201.645 213.884 208.816 214.052 216.487 211.997L213.899 202.337ZM200.137 201.817C196.98 200.147 194.39 196.913 192.834 191.107L183.175 193.695C185.222 201.334 189.162 207.324 195.461 210.657L200.137 201.817ZM192.834 191.107C191.253 185.206 191.854 181.119 193.656 178.183L185.134 172.951C181.459 178.938 181.132 186.073 183.175 193.695L192.834 191.107ZM193.642 178.205C195.546 175.141 199.07 172.561 205.113 170.941L202.525 161.282C194.891 163.328 188.799 167.051 185.148 172.929L193.642 178.205ZM205.113 170.941C207.761 170.232 210.105 169.899 212.17 169.88L212.077 159.881C209.02 159.909 205.828 160.397 202.525 161.282L205.113 170.941ZM212.246 169.879C214.358 169.827 215.983 170.077 217.216 170.494L220.421 161.021C217.829 160.144 214.99 159.809 212.001 159.882L212.246 169.879ZM217.318 170.527C217.007 170.429 216.489 170.205 215.975 169.716C215.432 169.199 215.077 168.56 214.906 167.924L224.565 165.336C223.921 162.932 222.096 161.547 220.32 160.988L217.318 170.527ZM214.906 167.924C214.819 167.601 214.792 167.341 214.782 167.187C214.772 167.027 214.776 166.914 214.779 166.865C214.785 166.775 214.791 166.792 214.758 166.953L224.555 168.958C224.689 168.302 224.968 166.837 224.565 165.336L214.906 167.924ZM214.838 166.619L213.48 171.518L223.116 174.19L224.474 169.292L214.838 166.619ZM213.37 172.005C213.404 171.811 213.527 171.239 213.993 170.596C214.524 169.864 215.326 169.282 216.278 169.026L218.866 178.686C221.923 177.867 222.962 175.231 223.225 173.703L213.37 172.005ZM216.278 169.026C216.667 168.922 216.974 168.898 217.13 168.89C217.299 168.883 217.415 168.89 217.455 168.893C217.529 168.898 217.494 168.901 217.307 168.862L215.302 178.659C215.728 178.747 216.211 178.828 216.707 178.865C217.119 178.896 217.943 178.933 218.866 178.686L216.278 169.026ZM217.498 168.906C213.882 168.017 210.121 168.192 206.326 169.208L208.914 178.868C211.379 178.207 213.407 178.198 215.111 178.616L217.498 168.906ZM206.326 169.208C201.761 170.432 197.935 172.913 195.713 177.029L204.513 181.779C205.114 180.666 206.293 179.57 208.914 178.868L206.326 169.208ZM195.712 177.031C193.507 181.121 193.558 185.849 194.824 190.573L204.483 187.985C203.596 184.673 203.953 182.817 204.514 181.777L195.712 177.031ZM194.824 190.573C196.116 195.397 198.577 199.526 202.737 201.928L207.737 193.268C206.605 192.614 205.344 191.198 204.483 187.985L194.824 190.573ZM202.737 201.928C206.772 204.258 211.312 204.501 215.889 203.274L213.301 193.615C210.691 194.314 208.992 193.992 207.737 193.268L202.737 201.928ZM215.889 203.274C219.718 202.248 223.101 200.511 225.873 197.958L219.099 190.602C217.686 191.904 215.808 192.943 213.301 193.615L215.889 203.274ZM225.803 198.021C225.946 197.895 225.978 197.879 225.917 197.921C225.883 197.944 225.787 198.008 225.636 198.085C225.497 198.157 225.219 198.289 224.83 198.394L222.242 188.734C221.318 188.982 220.624 189.426 220.283 189.659C219.872 189.939 219.494 190.251 219.169 190.539L225.803 198.021ZM224.83 198.394C223.843 198.658 222.914 198.527 222.213 198.246C221.588 197.995 221.235 197.666 221.13 197.562L228.17 190.46C227.248 189.546 225.116 187.964 222.242 188.734L224.83 198.394ZM221.133 197.565L224.937 201.329L231.97 194.221L228.167 190.457L221.133 197.565ZM224.978 201.369C224.942 201.334 224.487 200.897 224.251 200.019L233.911 197.431C233.51 195.934 232.636 194.864 231.929 194.18L224.978 201.369ZM224.251 200.019C223.995 199.061 224.128 198.229 224.31 197.691C224.478 197.195 224.692 196.917 224.732 196.867L232.598 203.042C233.298 202.149 234.621 200.08 233.911 197.431L224.251 200.019ZM224.856 196.715C223.158 198.713 219.799 200.756 213.899 202.337L216.487 211.997C223.259 210.182 228.882 207.417 232.474 203.193L224.856 196.715ZM233.598 198.011L231.309 202.457L231.325 202.465L231.342 202.474L233.598 198.011ZM227.805 176.394L231.99 179.13L232 179.115L232.01 179.1L227.805 176.394ZM252.494 169.779L250.206 174.224L250.236 174.24L250.267 174.255L252.494 169.779ZM258.287 191.396L262.471 194.132L262.473 194.129L258.287 191.396ZM240.575 189.744L237.665 193.809L237.665 193.809L240.575 189.744ZM245.704 193.815C241.185 195.026 238.066 194.668 235.853 193.549L231.342 202.474C236.41 205.036 242.224 205.1 248.292 203.474L245.704 193.815ZM235.886 193.566C233.681 192.431 232.035 190.482 231.119 187.06L221.459 189.648C222.986 195.345 226.212 199.834 231.309 202.457L235.886 193.566ZM231.119 187.06C230.201 183.637 230.661 181.162 231.99 179.13L223.62 173.658C220.484 178.454 219.933 183.953 221.459 189.648L231.119 187.06ZM232.01 179.1C233.361 177.001 235.87 175.123 240.372 173.917L237.784 164.258C231.699 165.888 226.694 168.882 223.601 173.688L232.01 179.1ZM240.372 173.917C244.874 172.711 247.986 173.082 250.206 174.224L254.783 165.333C249.701 162.717 243.869 162.627 237.784 164.258L240.372 173.917ZM250.267 174.255C252.465 175.349 254.104 177.255 255.016 180.657L264.675 178.069C263.143 172.352 259.881 167.869 254.721 165.302L250.267 174.255ZM255.016 180.657C255.927 184.058 255.47 186.564 254.1 188.663L262.473 194.129C265.625 189.302 266.207 183.786 264.675 178.069L255.016 180.657ZM254.102 188.66C252.745 190.735 250.223 192.604 245.704 193.815L248.292 203.474C254.36 201.848 259.363 198.886 262.471 194.132L254.102 188.66ZM246.071 195.187C248.868 194.437 251.46 192.726 252.765 189.676C253.955 186.894 253.682 183.87 252.968 181.205L243.309 183.794C243.518 184.575 243.579 185.115 243.58 185.453C243.582 185.783 243.529 185.841 243.57 185.743C243.625 185.617 243.727 185.487 243.822 185.413C243.892 185.359 243.829 185.435 243.483 185.527L246.071 195.187ZM252.968 181.205C252.26 178.564 250.983 175.826 248.545 174.032C245.887 172.077 242.802 171.92 240.036 172.661L242.624 182.321C242.979 182.225 243.083 182.258 243.005 182.247C242.894 182.233 242.739 182.176 242.619 182.087C242.523 182.017 242.587 182.026 242.739 182.291C242.896 182.564 243.106 183.037 243.309 183.794L252.968 181.205ZM240.036 172.661C237.27 173.402 234.676 175.081 233.352 178.103C232.138 180.875 232.401 183.886 233.108 186.527L242.768 183.939C242.565 183.182 242.51 182.667 242.509 182.352C242.509 182.047 242.559 182.007 242.512 182.116C242.452 182.252 242.346 182.38 242.257 182.448C242.195 182.496 242.269 182.416 242.624 182.321L240.036 172.661ZM233.108 186.527C233.833 189.229 235.152 192.01 237.665 193.809L243.486 185.678C243.572 185.74 243.504 185.725 243.349 185.46C243.188 185.184 242.973 184.706 242.768 183.939L233.108 186.527ZM237.665 193.809C240.261 195.668 243.26 195.94 246.071 195.187L243.483 185.527C243.345 185.564 243.26 185.575 243.222 185.578C243.186 185.581 243.193 185.577 243.232 185.582C243.273 185.588 243.327 185.602 243.383 185.625C243.44 185.647 243.475 185.67 243.486 185.678L237.665 193.809ZM267.906 191.365L270.406 187.035L270.406 187.035L267.906 191.365ZM260.4 164.741L256.07 162.241L256.07 162.241L260.4 164.741ZM268.525 162.377L266.923 167.114L267.357 167.261L267.812 167.326L268.525 162.377ZM269.175 162.949L264.518 164.768L264.563 164.883L264.613 164.995L269.175 162.949ZM269.946 164.668L265.384 166.714L269.475 175.833L274.319 167.091L269.946 164.668ZM272.898 161.081L276.083 164.936L276.128 164.898L276.173 164.86L272.898 161.081ZM281.793 158.574L280.79 163.472L280.79 163.472L281.793 158.574ZM285.463 160.448L282.19 164.228L286.936 168.337L289.879 162.792L285.463 160.448ZM288.357 156.877L285.213 152.989L285.192 153.006L285.172 153.023L288.357 156.877ZM300.746 155.359L298.148 159.631L298.172 159.646L298.197 159.66L300.746 155.359ZM299.898 182.793L302.398 178.463L302.398 178.463L299.898 182.793ZM293.394 163.851L290.355 167.822L290.447 167.892L290.543 167.959L293.394 163.851ZM289.441 165.096L284.954 162.89L284.949 162.901L284.944 162.911L289.441 165.096ZM293.117 184.61L288.787 182.11L288.787 182.11L293.117 184.61ZM273.677 169.32L278.164 171.527L278.164 171.527L273.677 169.32ZM277.295 188.85L272.965 186.35L272.911 186.444L272.861 186.54L277.295 188.85ZM269.175 186.594C268.922 186.662 268.919 186.632 269.103 186.636C269.301 186.64 269.809 186.69 270.406 187.035L265.406 195.695C267.728 197.036 270.211 196.67 271.763 196.254L269.175 186.594ZM270.406 187.035C270.92 187.331 271.217 187.695 271.36 187.918C271.489 188.121 271.491 188.206 271.45 188.055L261.791 190.643C262.225 192.261 263.185 194.413 265.406 195.695L270.406 187.035ZM271.45 188.055L265.254 164.931L255.595 167.519L261.791 190.643L271.45 188.055ZM265.254 164.931C265.224 164.816 265.273 164.948 265.278 165.248C265.283 165.518 265.26 166.323 264.73 167.241L256.07 162.241C255.37 163.453 255.267 164.653 255.279 165.416C255.293 166.212 255.439 166.938 255.595 167.519L265.254 164.931ZM264.73 167.241C264.214 168.134 263.553 168.534 263.354 168.645C263.127 168.771 263.035 168.776 263.208 168.73L260.62 159.071C259.981 159.242 259.231 159.496 258.5 159.902C257.796 160.293 256.783 161.005 256.07 162.241L264.73 167.241ZM263.208 168.73L268.714 167.255L266.125 157.595L260.62 159.071L263.208 168.73ZM268.714 167.255C268.692 167.26 268.53 167.304 268.259 167.315C267.991 167.327 267.508 167.312 266.923 167.114L270.127 157.641C268.484 157.085 266.973 157.368 266.125 157.595L268.714 167.255ZM267.812 167.326C267.059 167.218 266.275 166.89 265.613 166.309C264.987 165.758 264.67 165.158 264.518 164.768L273.832 161.129C273.192 159.491 271.689 157.782 269.238 157.429L267.812 167.326ZM264.613 164.995L265.384 166.714L274.508 162.621L273.737 160.902L264.613 164.995ZM274.319 167.091C274.812 166.202 275.402 165.499 276.083 164.936L269.714 157.227C268.022 158.625 266.643 160.313 265.573 162.244L274.319 167.091ZM276.173 164.86C276.67 164.429 277.446 163.983 278.681 163.652L276.093 153.993C273.696 154.635 271.479 155.695 269.624 157.302L276.173 164.86ZM278.681 163.652C279.738 163.369 280.404 163.393 280.79 163.472L282.795 153.675C280.553 153.217 278.281 153.407 276.093 153.993L278.681 163.652ZM280.79 163.472C281.17 163.55 281.629 163.742 282.19 164.228L288.735 156.668C287.032 155.193 285.044 154.136 282.795 153.675L280.79 163.472ZM289.879 162.792C290.324 161.954 290.876 161.282 291.542 160.731L285.172 153.023C283.465 154.434 282.087 156.142 281.046 158.104L289.879 162.792ZM291.501 160.765C292.057 160.315 292.955 159.827 294.387 159.444L291.799 149.785C289.367 150.436 287.108 151.457 285.213 152.989L291.501 160.765ZM294.387 159.444C296.377 158.911 297.454 159.208 298.148 159.631L303.344 151.087C299.784 148.922 295.759 148.724 291.799 149.785L294.387 159.444ZM298.197 159.66C298.761 159.995 299.74 160.955 300.49 163.751L310.149 161.163C309.035 157.005 306.965 153.233 303.296 151.058L298.197 159.66ZM300.49 163.751L304.62 179.167L314.28 176.579L310.149 161.163L300.49 163.751ZM304.62 179.167C304.661 179.318 304.62 179.244 304.63 179.003C304.642 178.739 304.718 178.275 305.014 177.762L313.675 182.762C314.957 180.541 314.713 178.197 314.28 176.579L304.62 179.167ZM305.014 177.762C305.359 177.165 305.774 176.867 305.944 176.764C306.101 176.669 306.114 176.697 305.861 176.764L308.449 186.424C310.001 186.008 312.334 185.084 313.675 182.762L305.014 177.762ZM305.861 176.764L301.166 178.022L303.754 187.682L308.449 186.424L305.861 176.764ZM301.166 178.022C300.913 178.09 300.911 178.06 301.094 178.064C301.293 178.068 301.801 178.118 302.398 178.463L297.398 187.123C299.72 188.464 302.202 188.097 303.754 187.682L301.166 178.022ZM302.398 178.463C302.911 178.759 303.209 179.123 303.351 179.346C303.481 179.549 303.482 179.634 303.442 179.483L293.783 182.071C294.216 183.689 295.177 185.841 297.398 187.123L302.398 178.463ZM303.442 179.483L299.513 164.82L289.854 167.409L293.783 182.071L303.442 179.483ZM299.513 164.82C299.104 163.292 298.257 161.14 296.245 159.744L290.543 167.959C290.065 167.627 289.848 167.283 289.792 167.184C289.738 167.089 289.78 167.132 289.854 167.409L299.513 164.82ZM296.433 159.881C294.344 158.282 291.951 158.254 290.101 158.749L292.689 168.409C292.608 168.43 292.296 168.502 291.829 168.438C291.324 168.37 290.801 168.163 290.355 167.822L296.433 159.881ZM290.101 158.749C287.981 159.318 286.052 160.658 284.954 162.89L293.928 167.303C293.792 167.58 293.571 167.866 293.278 168.094C292.998 168.311 292.765 168.388 292.689 168.409L290.101 158.749ZM284.944 162.911C283.891 165.079 284.052 167.314 284.526 169.085L294.185 166.496C294.137 166.318 294.162 166.32 294.157 166.465C294.152 166.626 294.111 166.928 293.939 167.282L284.944 162.911ZM284.526 169.085L288.393 183.515L298.052 180.927L294.185 166.496L284.526 169.085ZM288.393 183.515C288.433 183.666 288.392 183.592 288.403 183.352C288.414 183.087 288.491 182.623 288.787 182.11L297.447 187.11C298.73 184.889 298.486 182.545 298.052 180.927L288.393 183.515ZM288.787 182.11C289.132 181.513 289.547 181.216 289.716 181.112C289.873 181.017 289.886 181.045 289.633 181.113L292.221 190.772C293.774 190.356 296.107 189.432 297.447 187.11L288.787 182.11ZM289.633 181.113L285.402 182.246L287.991 191.905L292.221 190.772L289.633 181.113ZM285.402 182.246C285.149 182.314 285.147 182.283 285.33 182.288C285.529 182.292 286.037 182.342 286.634 182.687L281.634 191.347C283.956 192.688 286.438 192.321 287.991 191.905L285.402 182.246ZM286.634 182.687C287.147 182.983 287.445 183.347 287.587 183.57C287.717 183.773 287.718 183.858 287.678 183.707L278.019 186.295C278.452 187.913 279.413 190.065 281.634 191.347L286.634 182.687ZM287.678 183.707L283.718 168.928L274.059 171.517L278.019 186.295L287.678 183.707ZM283.718 168.928C283.313 167.416 282.502 165.466 280.705 164.099C278.664 162.545 276.31 162.445 274.395 162.958L276.983 172.617C276.866 172.649 276.533 172.718 276.058 172.648C275.55 172.574 275.056 172.366 274.649 172.057C273.919 171.501 273.915 170.981 274.059 171.517L283.718 168.928ZM274.395 162.958C272.306 163.518 270.316 164.826 269.191 167.114L278.164 171.527C278.013 171.834 277.779 172.124 277.492 172.342C277.223 172.547 277.014 172.609 276.983 172.617L274.395 162.958ZM269.191 167.114C268.131 169.27 268.217 171.508 268.72 173.382L278.379 170.794C278.34 170.648 278.365 170.667 278.359 170.816C278.351 170.981 278.305 171.241 278.164 171.527L269.191 167.114ZM268.72 173.382L272.571 187.755L282.23 185.167L278.379 170.794L268.72 173.382ZM272.571 187.755C272.611 187.905 272.57 187.832 272.581 187.591C272.593 187.327 272.669 186.863 272.965 186.35L281.625 191.35C282.908 189.128 282.664 186.784 282.23 185.167L272.571 187.755ZM272.861 186.54C273.229 185.833 273.711 185.48 273.909 185.358C274.094 185.244 274.128 185.267 273.869 185.337L276.457 194.996C277.948 194.596 280.427 193.661 281.73 191.159L272.861 186.54ZM273.869 185.337L269.175 186.594L271.763 196.254L276.457 194.996L273.869 185.337ZM307.457 147.411L304.841 151.672L304.898 151.708L304.957 151.741L307.457 147.411ZM305.717 140.92L310.048 143.42L310.081 143.362L310.113 143.302L305.717 140.92ZM315.976 138.172L313.359 142.433L313.417 142.468L313.476 142.502L315.976 138.172ZM317.715 144.663L322.045 147.163L322.079 147.104L322.111 147.045L317.715 144.663ZM308.672 152.179L313.002 154.679L313.052 154.592L313.099 154.504L308.672 152.179ZM318.988 149.415L316.317 153.642L316.486 153.748L316.663 153.841L318.988 149.415ZM326.054 175.785L321.827 173.114L321.774 173.198L321.724 173.285L326.054 175.785ZM309.456 142.817C309.215 142.882 309.179 142.856 309.298 142.865C309.361 142.869 309.46 142.883 309.581 142.919C309.705 142.956 309.833 143.01 309.957 143.081L304.957 151.741C307.332 153.112 309.893 153.053 312.044 152.476L309.456 142.817ZM310.073 143.15C310.1 143.167 310.213 143.245 310.336 143.406C310.461 143.571 310.53 143.735 310.56 143.847L300.901 146.435C301.507 148.699 302.915 150.49 304.841 151.672L310.073 143.15ZM310.56 143.847L310.187 142.456L300.528 145.044L300.901 146.435L310.56 143.847ZM310.187 142.456C310.205 142.521 310.235 142.689 310.206 142.92C310.176 143.153 310.101 143.327 310.048 143.42L301.387 138.42C300.199 140.478 299.924 142.789 300.528 145.044L310.187 142.456ZM310.113 143.302C310.049 143.421 309.969 143.534 309.88 143.633C309.791 143.732 309.707 143.801 309.644 143.845C309.523 143.93 309.514 143.899 309.73 143.841L307.142 134.182C304.919 134.777 302.655 136.077 301.321 138.538L310.113 143.302ZM309.73 143.841L313.903 142.723L311.315 133.064L307.142 134.182L309.73 143.841ZM313.903 142.723C314.153 142.656 314.185 142.685 314.053 142.674C313.983 142.668 313.877 142.652 313.748 142.611C313.618 142.569 313.485 142.51 313.359 142.433L318.592 133.91C316.174 132.426 313.528 132.471 311.315 133.064L313.903 142.723ZM313.476 142.502C313.383 142.448 313.23 142.334 313.088 142.147C312.948 141.962 312.89 141.802 312.872 141.736L322.532 139.148C321.927 136.893 320.533 135.029 318.476 133.841L313.476 142.502ZM312.872 141.736L313.245 143.127L322.904 140.539L322.532 139.148L312.872 141.736ZM313.245 143.127C313.215 143.016 313.193 142.839 313.219 142.634C313.244 142.433 313.303 142.309 313.319 142.28L322.111 147.045C323.188 145.058 323.511 142.803 322.904 140.539L313.245 143.127ZM313.385 142.163C313.462 142.028 313.551 141.912 313.642 141.817C313.732 141.724 313.809 141.665 313.856 141.634C313.943 141.575 313.903 141.626 313.629 141.699L316.217 151.358C318.359 150.784 320.656 149.568 322.045 147.163L313.385 142.163ZM313.629 141.699L309.456 142.817L312.044 152.476L316.217 151.358L313.629 141.699ZM317.006 173.778C316.753 173.846 316.751 173.815 316.934 173.819C317.133 173.824 317.641 173.874 318.238 174.219L313.238 182.879C315.56 184.219 318.042 183.853 319.594 183.437L317.006 173.778ZM318.238 174.219C318.751 174.515 319.049 174.879 319.191 175.102C319.321 175.305 319.322 175.389 319.282 175.239L309.623 177.827C310.056 179.445 311.016 181.596 313.238 182.879L318.238 174.219ZM319.282 175.239L313.396 153.274L303.737 155.862L309.623 177.827L319.282 175.239ZM313.396 153.274C313.356 153.123 313.397 153.197 313.386 153.437C313.375 153.702 313.298 154.166 313.002 154.679L304.342 149.679C303.059 151.9 303.304 154.244 303.737 155.862L313.396 153.274ZM313.099 154.504C312.781 155.11 312.368 155.438 312.156 155.574C311.965 155.696 311.915 155.679 312.14 155.619L309.552 145.959C307.915 146.398 305.537 147.395 304.245 149.854L313.099 154.504ZM312.14 155.619L317.704 154.128L315.116 144.469L309.552 145.959L312.14 155.619ZM317.704 154.128C317.93 154.067 317.895 154.107 317.669 154.097C317.417 154.086 316.895 154.007 316.317 153.642L321.659 145.188C319.311 143.704 316.754 144.03 315.116 144.469L317.704 154.128ZM316.663 153.841C315.57 153.268 315.423 152.414 315.502 152.709L325.161 150.121C324.702 148.407 323.659 146.22 321.313 144.988L316.663 153.841ZM315.502 152.709L321.388 174.675L331.047 172.086L325.161 150.121L315.502 152.709ZM321.388 174.675C321.467 174.97 321.168 174.157 321.827 173.114L330.281 178.456C331.696 176.216 331.506 173.8 331.047 172.086L321.388 174.675ZM321.724 173.285C322.068 172.688 322.484 172.39 322.653 172.287C322.81 172.192 322.823 172.219 322.57 172.287L325.158 181.946C326.71 181.531 329.044 180.607 330.384 178.285L321.724 173.285ZM322.57 172.287L317.006 173.778L319.594 183.437L325.158 181.946L322.57 172.287ZM332.767 173.986L335.267 169.656L335.267 169.656L332.767 173.986ZM325.26 147.362L320.93 144.862L320.93 144.862L325.26 147.362ZM333.849 144.874L332.247 149.61L332.682 149.757L333.136 149.823L333.849 144.874ZM334.499 145.445L329.842 147.265L329.891 147.392L329.948 147.516L334.499 145.445ZM335.255 147.106L330.703 149.177L334.727 158.02L339.585 149.606L335.255 147.106ZM338.802 143.422L341.639 147.539L341.665 147.522L341.69 147.504L338.802 143.422ZM352.756 141.485L350.438 145.915L350.463 145.928L350.487 145.94L352.756 141.485ZM361.745 166.221L357.414 163.721L357.36 163.815L357.31 163.912L361.745 166.221ZM351.371 169.001L348.871 173.331L348.957 173.381L349.046 173.428L351.371 169.001ZM339.639 151.646L335.463 148.896L335.424 148.956L335.387 149.016L339.639 151.646ZM343.083 171.222L338.753 168.722L338.698 168.816L338.648 168.912L343.083 171.222ZM334.035 169.215C333.782 169.283 333.78 169.252 333.963 169.257C334.162 169.261 334.67 169.311 335.267 169.656L330.267 178.316C332.589 179.657 335.071 179.29 336.623 178.874L334.035 169.215ZM335.267 169.656C335.78 169.952 336.078 170.316 336.22 170.539C336.35 170.742 336.351 170.826 336.311 170.676L326.652 173.264C327.085 174.882 328.045 177.034 330.267 178.316L335.267 169.656ZM336.311 170.676L330.115 147.552L320.455 150.14L326.652 173.264L336.311 170.676ZM330.115 147.552C330.084 147.437 330.133 147.569 330.138 147.869C330.143 148.138 330.12 148.944 329.59 149.862L320.93 144.862C320.23 146.073 320.127 147.273 320.14 148.037C320.153 148.832 320.3 149.559 320.455 150.14L330.115 147.552ZM329.59 149.862C329.075 150.755 328.413 151.155 328.214 151.266C327.987 151.392 327.896 151.397 328.068 151.351L325.48 141.691C324.841 141.863 324.092 142.117 323.36 142.523C322.656 142.914 321.644 143.625 320.93 144.862L329.59 149.862ZM328.068 151.351L334.038 149.751L331.45 140.092L325.48 141.691L328.068 151.351ZM334.038 149.751C334.016 149.757 333.854 149.8 333.583 149.812C333.315 149.823 332.833 149.808 332.247 149.61L335.451 140.138C333.808 139.582 332.297 139.865 331.45 140.092L334.038 149.751ZM333.136 149.823C332.383 149.714 331.599 149.387 330.937 148.805C330.311 148.255 329.994 147.654 329.842 147.265L339.156 143.626C338.516 141.988 337.013 140.278 334.562 139.925L333.136 149.823ZM329.948 147.516L330.703 149.177L339.806 145.036L339.05 143.375L329.948 147.516ZM339.585 149.606C339.937 148.997 340.554 148.288 341.639 147.539L335.965 139.305C333.904 140.725 332.156 142.472 330.924 144.606L339.585 149.606ZM341.69 147.504C342.745 146.757 344.071 146.131 345.744 145.683L343.155 136.024C340.5 136.735 338.062 137.821 335.914 139.341L341.69 147.504ZM345.744 145.683C347.908 145.103 349.349 145.345 350.438 145.915L355.074 137.054C351.347 135.105 347.25 134.927 343.155 136.024L345.744 145.683ZM350.487 145.94C351.248 146.328 352.226 147.233 352.905 149.769L362.564 147.18C361.401 142.839 359.06 139.084 355.025 137.029L350.487 145.94ZM352.905 149.769L357.02 165.127L366.68 162.539L362.564 147.18L352.905 149.769ZM357.02 165.127C357.061 165.277 357.02 165.203 357.03 164.963C357.042 164.698 357.118 164.235 357.414 163.721L366.075 168.721C367.357 166.5 367.113 164.156 366.68 162.539L357.02 165.127ZM357.31 163.912C357.678 163.205 358.16 162.852 358.359 162.73C358.543 162.616 358.577 162.639 358.319 162.708L360.907 172.368C362.397 171.968 364.876 171.033 366.179 168.531L357.31 163.912ZM358.319 162.708L352.697 164.215L355.285 173.874L360.907 172.368L358.319 162.708ZM352.697 164.215C352.448 164.281 352.427 164.257 352.578 164.259C352.743 164.262 353.173 164.3 353.695 164.574L349.046 173.428C351.31 174.617 353.681 174.304 355.285 173.874L352.697 164.215ZM353.871 164.671C354.384 164.967 354.682 165.331 354.824 165.554C354.953 165.757 354.955 165.842 354.915 165.691L345.255 168.279C345.689 169.897 346.649 172.049 348.871 173.331L353.871 164.671ZM354.915 165.691L351.001 151.086L341.342 153.674L345.255 168.279L354.915 165.691ZM351.001 151.086C350.554 149.418 349.58 147.105 347.25 145.76L342.25 154.42C341.714 154.11 341.437 153.74 341.335 153.575C341.243 153.427 341.274 153.42 341.342 153.674L351.001 151.086ZM347.25 145.76C344.986 144.453 342.583 144.687 340.878 145.144L343.466 154.803C343.653 154.753 343.612 154.79 343.402 154.78C343.167 154.769 342.735 154.7 342.25 154.42L347.25 145.76ZM340.878 145.144C338.838 145.69 336.821 146.835 335.463 148.896L343.815 154.396C343.689 154.588 343.538 154.722 343.425 154.797C343.324 154.864 343.312 154.844 343.466 154.803L340.878 145.144ZM335.387 149.016C334.027 151.214 333.938 153.628 334.507 155.754L344.167 153.166C344.152 153.111 344.193 153.232 344.167 153.479C344.138 153.746 344.043 154.03 343.891 154.276L335.387 149.016ZM334.507 155.754L338.359 170.127L348.018 167.539L344.167 153.166L334.507 155.754ZM338.359 170.127C338.399 170.278 338.358 170.204 338.369 169.963C338.38 169.699 338.456 169.235 338.753 168.722L347.413 173.722C348.696 171.5 348.451 169.157 348.018 167.539L338.359 170.127ZM338.648 168.912C339.016 168.206 339.499 167.853 339.697 167.73C339.882 167.616 339.915 167.64 339.657 167.709L342.245 177.368C343.736 176.969 346.214 176.033 347.518 173.531L338.648 168.912ZM339.657 167.709L334.035 169.215L336.623 178.874L342.245 177.368L339.657 167.709ZM377.884 172.332L377.669 167.337L377.639 167.338L377.609 167.34L377.884 172.332ZM372.024 171.791L369.864 176.3L370.085 176.405L370.315 176.489L372.024 171.791ZM371.435 170.52L376.243 171.895L376.271 171.794L376.296 171.692L371.435 170.52ZM372.701 165.273L367.893 163.898L367.865 163.999L367.84 164.101L372.701 165.273ZM372.909 164.659L368.976 161.571L368.535 162.133L368.268 162.796L372.909 164.659ZM374.083 164.406L375.127 159.516L374.903 159.468L374.675 159.441L374.083 164.406ZM385.794 161.516L389.88 164.398L389.88 164.398L385.794 161.516ZM386.176 157.377L391.006 156.083L388.52 146.807L382.346 154.162L386.176 157.377ZM383.635 159.486L386.13 163.819L386.197 163.781L386.263 163.74L383.635 159.486ZM368.586 160.351L366.194 164.741L366.212 164.751L366.23 164.76L368.586 160.351ZM363.885 139.559L367.941 142.483L367.952 142.467L367.963 142.451L363.885 139.559ZM384.56 131.41L384.749 126.414L384.749 126.414L384.56 131.41ZM391.932 132.727L396.762 131.433L396.094 128.941L393.677 128.041L391.932 132.727ZM395.888 163.719L400.302 166.068L400.302 166.068L395.888 163.719ZM381.633 139.959L386.463 138.665L385.609 135.48L382.346 135.01L381.633 139.959ZM373.895 142.84L369.622 140.244L369.593 140.292L369.565 140.34L373.895 142.84ZM376.229 151.781L373.446 155.935L373.49 155.964L373.535 155.993L376.229 151.781ZM383.936 166.404C381.996 166.924 379.911 167.24 377.669 167.337L378.1 177.328C381.016 177.202 383.828 176.786 386.524 176.063L383.936 166.404ZM377.609 167.34C375.332 167.466 374.172 167.251 373.734 167.092L370.315 176.489C372.629 177.331 375.376 177.478 378.16 177.325L377.609 167.34ZM374.185 167.281C374.725 167.54 375.83 168.297 376.246 169.852L366.587 172.44C367.149 174.535 368.659 175.722 369.864 176.3L374.185 167.281ZM376.246 169.852C376.466 170.67 376.386 171.395 376.243 171.895L366.628 169.145C366.357 170.093 366.264 171.235 366.587 172.44L376.246 169.852ZM376.296 171.692L377.561 166.446L367.84 164.101L366.575 169.347L376.296 171.692ZM377.508 166.649C377.52 166.607 377.53 166.576 377.537 166.554C377.541 166.543 377.544 166.535 377.546 166.529C377.547 166.527 377.547 166.525 377.548 166.523C377.548 166.523 377.548 166.522 377.549 166.522C377.549 166.521 377.549 166.521 377.549 166.521C377.549 166.521 377.549 166.521 377.549 166.521L368.268 162.796C368.121 163.165 367.997 163.535 367.893 163.898L377.508 166.649ZM376.842 167.746C376.467 168.224 375.748 168.888 374.62 169.19L372.032 159.531C370.595 159.916 369.598 160.779 368.976 161.571L376.842 167.746ZM374.62 169.19C374.264 169.285 373.979 169.318 373.845 169.331C373.691 169.346 373.57 169.35 373.501 169.351C373.366 169.353 373.279 169.348 373.273 169.347C373.258 169.346 373.317 169.35 373.491 169.371L374.675 159.441C374.421 159.411 374.141 159.381 373.873 159.365C373.741 159.357 373.55 159.349 373.332 159.352C373.218 159.354 372.675 159.359 372.032 159.531L374.62 169.19ZM373.039 169.296C376.196 169.97 379.707 169.566 383.284 168.608L380.696 158.949C377.859 159.709 376.1 159.724 375.127 159.516L373.039 169.296ZM383.284 168.608C385.682 167.965 388.219 166.754 389.88 164.398L381.708 158.635C381.82 158.477 381.886 158.468 381.748 158.55C381.599 158.639 381.276 158.793 380.696 158.949L383.284 168.608ZM389.88 164.398C391.781 161.703 391.681 158.602 391.006 156.083L381.346 158.671C381.406 158.893 381.432 159.052 381.443 159.153C381.454 159.254 381.449 159.284 381.451 159.257C381.454 159.227 381.465 159.141 381.508 159.019C381.552 158.895 381.619 158.762 381.708 158.635L389.88 164.398ZM382.346 154.162C382.142 154.405 381.742 154.779 381.008 155.232L386.263 163.74C387.661 162.877 388.954 161.844 390.006 160.591L382.346 154.162ZM381.141 155.153C380.475 155.536 379.689 155.864 378.756 156.114L381.345 165.773C383.039 165.319 384.643 164.675 386.13 163.819L381.141 155.153ZM378.756 156.114C374.915 157.143 372.503 156.775 370.943 155.941L366.23 164.76C370.759 167.181 375.99 167.208 381.345 165.773L378.756 156.114ZM370.978 155.96C369.514 155.162 368.087 153.542 367.167 150.109L357.508 152.697C358.907 157.919 361.646 162.263 366.194 164.741L370.978 155.96ZM367.167 150.109C366.189 146.459 366.735 144.155 367.941 142.483L359.829 136.635C356.446 141.327 355.96 146.92 357.508 152.697L367.167 150.109ZM367.963 142.451C369.305 140.56 372.059 138.632 377.241 137.243L374.652 127.584C368.32 129.281 363.034 132.116 359.806 136.667L367.963 142.451ZM377.241 137.243C379.681 136.589 382.053 136.319 384.372 136.406L384.749 126.414C381.378 126.286 378.007 126.685 374.652 127.584L377.241 137.243ZM384.372 136.406C386.83 136.499 388.737 136.873 390.188 137.413L393.677 128.041C390.988 127.04 387.98 126.536 384.749 126.414L384.372 136.406ZM387.103 134.021L392.056 152.509L401.716 149.921L396.762 131.433L387.103 134.021ZM392.056 152.509C393.058 156.245 392.698 159.071 391.475 161.37L400.302 166.068C402.935 161.122 403.241 155.612 401.716 149.921L392.056 152.509ZM391.475 161.37C390.381 163.424 388.206 165.26 383.936 166.404L386.524 176.063C392.609 174.433 397.539 171.259 400.302 166.068L391.475 161.37ZM381.705 156.918C383.79 156.359 386.117 155.204 387.549 152.842C389.009 150.433 388.913 147.808 388.342 145.677L378.683 148.266C378.752 148.526 378.724 148.561 378.733 148.427C378.745 148.264 378.806 147.973 378.997 147.659C379.184 147.35 379.392 147.191 379.467 147.143C379.524 147.106 379.442 147.172 379.117 147.259L381.705 156.918ZM388.342 145.677L386.463 138.665L376.804 141.253L378.683 148.266L388.342 145.677ZM382.346 135.01C380.361 134.724 378.111 135.167 376.142 135.695L378.731 145.354C379.544 145.136 380.148 145.015 380.573 144.958C381.035 144.896 381.103 144.934 380.92 144.908L382.346 135.01ZM376.142 135.695C373.68 136.354 371.171 137.693 369.622 140.244L378.169 145.435C378.072 145.595 377.979 145.652 378.012 145.63C378.065 145.595 378.271 145.477 378.731 145.354L376.142 135.695ZM369.565 140.34C367.908 143.21 368.343 146.536 369.017 149.054L378.677 146.466C378.457 145.646 378.414 145.156 378.416 144.927C378.418 144.703 378.46 144.933 378.225 145.34L369.565 140.34ZM369.017 149.054C369.681 151.532 370.928 154.248 373.446 155.935L379.011 147.626C379.223 147.768 379.239 147.862 379.14 147.695C379.034 147.516 378.857 147.139 378.677 146.466L369.017 149.054ZM373.535 155.993C376.214 157.706 379.223 157.583 381.705 156.918L379.117 147.259C378.886 147.321 378.714 147.351 378.596 147.365C378.478 147.378 378.426 147.374 378.429 147.375C378.433 147.375 378.493 147.38 378.59 147.411C378.69 147.442 378.806 147.494 378.923 147.568L373.535 155.993Z" fill="white" mask="url(#path-6-outside-1_8_23)"/>
<mask id="path-8-outside-2_8_23" maskUnits="userSpaceOnUse" x="149.497" y="184.733" width="195.311" height="99.852" fill="black">
<rect fill="white" x="149.497" y="184.733" width="195.311" height="99.852"/>
<path d="M184.021 273.73C180.775 274.599 177.615 275.094 174.542 275.214C171.457 275.295 168.861 274.955 166.753 274.195C165.982 273.946 165.534 273.59 165.41 273.126C165.327 272.817 165.355 272.457 165.494 272.048L167.122 266.766C167.307 266.22 167.554 265.905 167.863 265.822C168.057 265.77 168.421 265.818 168.957 265.964C170.604 266.392 172.403 266.614 174.354 266.63C176.304 266.646 178.168 266.415 179.945 265.939C181.761 265.452 183.022 264.825 183.727 264.056C184.471 263.277 184.682 262.289 184.361 261.091C184.05 259.932 183.324 259.153 182.182 258.755C181.079 258.347 179.098 257.987 176.241 257.676C171.945 257.254 168.452 256.43 165.764 255.204C163.103 253.929 161.348 251.707 160.499 248.539C159.474 244.714 160.064 241.429 162.269 238.685C164.474 235.941 167.856 233.958 172.415 232.737C175.584 231.888 178.366 231.453 180.762 231.432C183.187 231.362 185.346 231.694 187.241 232.429C188.032 232.755 188.485 233.131 188.599 233.556C188.671 233.826 188.638 234.167 188.5 234.576L186.871 239.858C186.647 240.415 186.4 240.729 186.13 240.802C185.937 240.854 185.572 240.806 185.036 240.66C182.402 239.792 179.539 239.773 176.448 240.601C174.787 241.046 173.584 241.658 172.84 242.437C172.097 243.216 171.891 244.224 172.222 245.46C172.45 246.31 172.868 246.944 173.476 247.36C174.085 247.777 174.833 248.094 175.719 248.312C176.634 248.481 178.005 248.652 179.832 248.825L181.042 248.936C184.201 249.29 186.732 249.772 188.634 250.38C190.565 250.939 192.157 251.859 193.411 253.138C194.654 254.378 195.576 256.119 196.177 258.36C197.098 261.799 196.539 264.889 194.499 267.63C192.497 270.361 189.005 272.394 184.021 273.73ZM217.798 264.679C212.505 266.097 208.038 265.886 204.398 264.046C200.747 262.167 198.311 258.948 197.089 254.388C195.867 249.829 196.373 245.843 198.605 242.428C200.827 238.976 204.585 236.54 209.878 235.122C215.172 233.703 219.644 233.934 223.294 235.813C226.973 237.643 229.424 240.838 230.645 245.397C231.867 249.956 231.347 253.967 229.087 257.43C226.854 260.845 223.091 263.261 217.798 264.679ZM215.578 256.391C218.978 255.48 220.098 252.861 218.938 248.534C217.8 244.284 215.53 242.614 212.13 243.525C208.73 244.436 207.599 247.017 208.738 251.267C209.318 253.431 210.197 254.934 211.376 255.778C212.554 256.622 213.955 256.826 215.578 256.391ZM252.549 255.368C247.256 256.786 242.789 256.575 239.148 254.734C235.498 252.855 233.061 249.636 231.84 245.077C230.618 240.518 231.124 236.531 233.356 233.117C235.578 229.664 239.336 227.229 244.629 225.81C249.922 224.392 254.394 224.622 258.045 226.502C261.724 228.332 264.174 231.526 265.396 236.086C266.618 240.645 266.098 244.656 263.837 248.119C261.605 251.533 257.842 253.949 252.549 255.368ZM250.328 247.08C253.728 246.169 254.849 243.55 253.689 239.222C252.55 234.972 250.281 233.303 246.881 234.214C243.481 235.125 242.35 237.705 243.489 241.956C244.069 244.119 244.948 245.623 246.126 246.467C247.305 247.31 248.705 247.515 250.328 247.08ZM276.02 248.147C274.899 248.447 274.045 248.428 273.457 248.088C272.869 247.749 272.441 247.077 272.172 246.072L265.976 222.948C265.789 222.252 265.781 221.758 265.951 221.464C266.149 221.121 266.653 220.841 267.465 220.623L273.434 219.024C273.898 218.9 274.266 218.884 274.539 218.976C274.841 219.02 275.058 219.21 275.189 219.547L275.945 221.208C276.737 219.837 277.919 218.609 279.492 217.525C281.094 216.392 282.976 215.535 285.14 214.955C288.27 214.117 291.038 214.327 293.446 215.587C295.844 216.808 297.504 219.138 298.425 222.577L302.54 237.935C302.81 238.939 302.774 239.736 302.435 240.324C302.134 240.901 301.424 241.34 300.303 241.64L294.681 243.147C293.561 243.447 292.688 243.432 292.061 243.103C291.473 242.764 291.045 242.092 290.775 241.087L286.862 226.483C286.551 225.323 286.078 224.56 285.441 224.192C284.804 223.825 283.945 223.786 282.863 224.076C281.704 224.386 280.859 224.944 280.329 225.748C279.838 226.542 279.738 227.48 280.027 228.562L283.879 242.935C284.148 243.94 284.113 244.736 283.773 245.324C283.473 245.901 282.762 246.34 281.641 246.641L276.02 248.147ZM327.07 223.411C325.95 223.712 325.076 223.697 324.45 223.368C323.862 223.029 323.433 222.357 323.164 221.352L316.589 198.205C316.32 197.201 316.355 196.404 316.694 195.816C317.023 195.19 317.729 194.732 318.811 194.442L324.49 192.92C325.611 192.62 326.47 192.659 327.068 193.037C327.656 193.376 328.085 194.048 328.354 195.053L334.176 218.402C334.434 219.367 334.38 220.169 334.012 220.806C333.634 221.404 332.885 221.853 331.764 222.153L327.07 223.411ZM330.414 233.572C328.907 233.976 327.724 234.044 326.866 233.777C326.046 233.5 325.502 232.859 325.233 231.855L324.86 230.464C324.591 229.459 324.742 228.632 325.313 227.982C325.923 227.321 326.981 226.789 328.488 226.386L331.966 225.454C334.941 224.657 336.687 225.224 337.205 227.156L337.577 228.547C338.095 230.479 336.866 231.843 333.891 232.64L330.414 233.572Z"/>
</mask>
<path d="M184.021 273.73C180.775 274.599 177.615 275.094 174.542 275.214C171.457 275.295 168.861 274.955 166.753 274.195C165.982 273.946 165.534 273.59 165.41 273.126C165.327 272.817 165.355 272.457 165.494 272.048L167.122 266.766C167.307 266.22 167.554 265.905 167.863 265.822C168.057 265.77 168.421 265.818 168.957 265.964C170.604 266.392 172.403 266.614 174.354 266.63C176.304 266.646 178.168 266.415 179.945 265.939C181.761 265.452 183.022 264.825 183.727 264.056C184.471 263.277 184.682 262.289 184.361 261.091C184.05 259.932 183.324 259.153 182.182 258.755C181.079 258.347 179.098 257.987 176.241 257.676C171.945 257.254 168.452 256.43 165.764 255.204C163.103 253.929 161.348 251.707 160.499 248.539C159.474 244.714 160.064 241.429 162.269 238.685C164.474 235.941 167.856 233.958 172.415 232.737C175.584 231.888 178.366 231.453 180.762 231.432C183.187 231.362 185.346 231.694 187.241 232.429C188.032 232.755 188.485 233.131 188.599 233.556C188.671 233.826 188.638 234.167 188.5 234.576L186.871 239.858C186.647 240.415 186.4 240.729 186.13 240.802C185.937 240.854 185.572 240.806 185.036 240.66C182.402 239.792 179.539 239.773 176.448 240.601C174.787 241.046 173.584 241.658 172.84 242.437C172.097 243.216 171.891 244.224 172.222 245.46C172.45 246.31 172.868 246.944 173.476 247.36C174.085 247.777 174.833 248.094 175.719 248.312C176.634 248.481 178.005 248.652 179.832 248.825L181.042 248.936C184.201 249.29 186.732 249.772 188.634 250.38C190.565 250.939 192.157 251.859 193.411 253.138C194.654 254.378 195.576 256.119 196.177 258.36C197.098 261.799 196.539 264.889 194.499 267.63C192.497 270.361 189.005 272.394 184.021 273.73ZM217.798 264.679C212.505 266.097 208.038 265.886 204.398 264.046C200.747 262.167 198.311 258.948 197.089 254.388C195.867 249.829 196.373 245.843 198.605 242.428C200.827 238.976 204.585 236.54 209.878 235.122C215.172 233.703 219.644 233.934 223.294 235.813C226.973 237.643 229.424 240.838 230.645 245.397C231.867 249.956 231.347 253.967 229.087 257.43C226.854 260.845 223.091 263.261 217.798 264.679ZM215.578 256.391C218.978 255.48 220.098 252.861 218.938 248.534C217.8 244.284 215.53 242.614 212.13 243.525C208.73 244.436 207.599 247.017 208.738 251.267C209.318 253.431 210.197 254.934 211.376 255.778C212.554 256.622 213.955 256.826 215.578 256.391ZM252.549 255.368C247.256 256.786 242.789 256.575 239.148 254.734C235.498 252.855 233.061 249.636 231.84 245.077C230.618 240.518 231.124 236.531 233.356 233.117C235.578 229.664 239.336 227.229 244.629 225.81C249.922 224.392 254.394 224.622 258.045 226.502C261.724 228.332 264.174 231.526 265.396 236.086C266.618 240.645 266.098 244.656 263.837 248.119C261.605 251.533 257.842 253.949 252.549 255.368ZM250.328 247.08C253.728 246.169 254.849 243.55 253.689 239.222C252.55 234.972 250.281 233.303 246.881 234.214C243.481 235.125 242.35 237.705 243.489 241.956C244.069 244.119 244.948 245.623 246.126 246.467C247.305 247.31 248.705 247.515 250.328 247.08ZM276.02 248.147C274.899 248.447 274.045 248.428 273.457 248.088C272.869 247.749 272.441 247.077 272.172 246.072L265.976 222.948C265.789 222.252 265.781 221.758 265.951 221.464C266.149 221.121 266.653 220.841 267.465 220.623L273.434 219.024C273.898 218.9 274.266 218.884 274.539 218.976C274.841 219.02 275.058 219.21 275.189 219.547L275.945 221.208C276.737 219.837 277.919 218.609 279.492 217.525C281.094 216.392 282.976 215.535 285.14 214.955C288.27 214.117 291.038 214.327 293.446 215.587C295.844 216.808 297.504 219.138 298.425 222.577L302.54 237.935C302.81 238.939 302.774 239.736 302.435 240.324C302.134 240.901 301.424 241.34 300.303 241.64L294.681 243.147C293.561 243.447 292.688 243.432 292.061 243.103C291.473 242.764 291.045 242.092 290.775 241.087L286.862 226.483C286.551 225.323 286.078 224.56 285.441 224.192C284.804 223.825 283.945 223.786 282.863 224.076C281.704 224.386 280.859 224.944 280.329 225.748C279.838 226.542 279.738 227.48 280.027 228.562L283.879 242.935C284.148 243.94 284.113 244.736 283.773 245.324C283.473 245.901 282.762 246.34 281.641 246.641L276.02 248.147ZM327.07 223.411C325.95 223.712 325.076 223.697 324.45 223.368C323.862 223.029 323.433 222.357 323.164 221.352L316.589 198.205C316.32 197.201 316.355 196.404 316.694 195.816C317.023 195.19 317.729 194.732 318.811 194.442L324.49 192.92C325.611 192.62 326.47 192.659 327.068 193.037C327.656 193.376 328.085 194.048 328.354 195.053L334.176 218.402C334.434 219.367 334.38 220.169 334.012 220.806C333.634 221.404 332.885 221.853 331.764 222.153L327.07 223.411ZM330.414 233.572C328.907 233.976 327.724 234.044 326.866 233.777C326.046 233.5 325.502 232.859 325.233 231.855L324.86 230.464C324.591 229.459 324.742 228.632 325.313 227.982C325.923 227.321 326.981 226.789 328.488 226.386L331.966 225.454C334.941 224.657 336.687 225.224 337.205 227.156L337.577 228.547C338.095 230.479 336.866 231.843 333.891 232.64L330.414 233.572Z" fill="#4A249D"/>
<path d="M174.542 275.214L174.673 280.212L174.704 280.211L174.736 280.21L174.542 275.214ZM166.753 274.195L168.448 269.491L168.369 269.463L168.29 269.437L166.753 274.195ZM165.494 272.048L170.23 273.65L170.252 273.586L170.272 273.521L165.494 272.048ZM167.122 266.766L162.386 265.164L162.364 265.228L162.344 265.293L167.122 266.766ZM168.957 265.964L167.642 270.788L167.67 270.795L167.699 270.803L168.957 265.964ZM174.354 266.63L174.313 271.63L174.313 271.63L174.354 266.63ZM183.727 264.056L180.11 260.604L180.076 260.64L180.042 260.676L183.727 264.056ZM182.182 258.755L180.447 263.444L180.491 263.461L180.537 263.477L182.182 258.755ZM176.241 257.676L176.781 252.706L176.756 252.703L176.73 252.7L176.241 257.676ZM165.764 255.204L163.603 259.713L163.646 259.734L163.689 259.753L165.764 255.204ZM162.269 238.685L166.167 241.817L166.167 241.817L162.269 238.685ZM180.762 231.432L180.806 236.432L180.856 236.431L180.906 236.43L180.762 231.432ZM187.241 232.429L189.147 227.806L189.098 227.786L189.048 227.767L187.241 232.429ZM188.5 234.576L183.763 232.974L183.741 233.038L183.722 233.103L188.5 234.576ZM186.871 239.858L191.511 241.72L191.588 241.529L191.649 241.331L186.871 239.858ZM185.036 240.66L183.472 245.409L183.595 245.45L183.72 245.484L185.036 240.66ZM172.84 242.437L169.224 238.985L172.84 242.437ZM173.476 247.36L170.652 251.486L170.652 251.486L173.476 247.36ZM175.719 248.312L174.526 253.168L174.667 253.203L174.811 253.229L175.719 248.312ZM179.832 248.825L179.361 253.803L179.369 253.804L179.377 253.804L179.832 248.825ZM181.042 248.936L181.599 243.967L181.548 243.961L181.497 243.957L181.042 248.936ZM188.634 250.38L187.111 255.142L187.177 255.163L187.243 255.182L188.634 250.38ZM193.411 253.138L189.84 256.638L189.86 256.658L189.88 256.677L193.411 253.138ZM194.499 267.63L190.488 264.645L190.477 264.66L190.466 264.674L194.499 267.63ZM182.726 268.9C179.807 269.682 177.017 270.114 174.347 270.217L174.736 280.21C178.214 280.075 181.743 279.517 185.315 278.559L182.726 268.9ZM174.41 270.215C171.73 270.286 169.796 269.977 168.448 269.491L165.057 278.899C167.926 279.933 171.185 280.304 174.673 280.212L174.41 270.215ZM168.29 269.437C168.29 269.437 168.353 269.457 168.46 269.51C168.566 269.563 168.744 269.662 168.954 269.83C169.402 270.186 169.975 270.843 170.24 271.832L160.58 274.42C161.38 277.404 163.953 278.545 165.215 278.953L168.29 269.437ZM170.24 271.832C170.488 272.758 170.299 273.446 170.23 273.65L160.758 270.445C160.411 271.469 160.167 272.876 160.58 274.42L170.24 271.832ZM170.272 273.521L171.9 268.239L162.344 265.293L160.716 270.574L170.272 273.521ZM171.859 268.368C171.843 268.415 171.724 268.769 171.379 269.207C171.004 269.685 170.285 270.35 169.157 270.652L166.569 260.992C163.696 261.762 162.687 264.274 162.386 265.164L171.859 268.368ZM169.157 270.652C168.672 270.782 168.282 270.8 168.081 270.802C167.864 270.803 167.708 270.786 167.639 270.777C167.511 270.761 167.495 270.748 167.642 270.788L170.273 261.14C169.883 261.034 169.417 260.924 168.924 260.86C168.545 260.811 167.623 260.71 166.569 260.992L169.157 270.652ZM167.699 270.803C169.797 271.348 172.01 271.611 174.313 271.63L174.394 261.63C172.796 261.617 171.412 261.436 170.216 261.125L167.699 270.803ZM174.313 271.63C176.687 271.649 179.002 271.368 181.239 270.769L178.651 261.109C177.334 261.462 175.921 261.642 174.394 261.63L174.313 271.63ZM181.239 270.769C183.337 270.207 185.729 269.27 187.412 267.436L180.042 260.676C180.221 260.482 180.286 260.497 180.024 260.628C179.773 260.753 179.337 260.926 178.651 261.109L181.239 270.769ZM187.343 267.509C189.493 265.257 189.882 262.378 189.191 259.797L179.531 262.385C179.533 262.39 179.461 262.12 179.554 261.685C179.654 261.215 179.887 260.837 180.11 260.604L187.343 267.509ZM189.191 259.797C188.448 257.024 186.518 254.972 183.828 254.034L180.537 263.477C180.446 263.445 180.189 263.329 179.927 263.048C179.664 262.766 179.561 262.495 179.531 262.385L189.191 259.797ZM183.918 254.066C182.171 253.42 179.629 253.016 176.781 252.706L175.7 262.647C178.567 262.959 179.986 263.274 180.447 263.444L183.918 254.066ZM176.73 252.7C172.753 252.309 169.852 251.573 167.838 250.654L163.689 259.753C167.053 261.287 171.136 262.198 175.751 262.652L176.73 252.7ZM167.924 250.695C166.737 250.126 165.847 249.18 165.329 247.245L155.67 249.833C156.849 254.234 159.469 257.732 163.603 259.713L167.924 250.695ZM165.329 247.245C164.657 244.738 165.096 243.15 166.167 241.817L158.371 235.554C155.033 239.709 154.292 244.69 155.67 249.833L165.329 247.245ZM166.167 241.817C167.513 240.142 169.831 238.606 173.709 237.566L171.121 227.907C165.881 229.311 161.436 231.74 158.371 235.554L166.167 241.817ZM173.709 237.566C176.608 236.79 178.954 236.448 180.806 236.432L180.718 226.432C177.777 226.458 174.559 226.986 171.121 227.907L173.709 237.566ZM180.906 236.43C182.791 236.375 184.268 236.639 185.433 237.091L189.048 227.767C186.424 226.75 183.582 226.349 180.618 226.434L180.906 236.43ZM185.335 237.052C185.457 237.102 185.275 237.047 184.981 236.803C184.675 236.549 184.057 235.925 183.769 234.85L193.428 232.262C192.658 229.387 190.129 228.211 189.147 227.806L185.335 237.052ZM183.769 234.85C183.62 234.294 183.623 233.829 183.652 233.53C183.681 233.234 183.741 233.041 183.763 232.974L193.236 236.179C193.531 235.306 193.861 233.875 193.428 232.262L183.769 234.85ZM183.722 233.103L182.093 238.385L191.649 241.331L193.278 236.05L183.722 233.103ZM182.231 237.995C182.231 237.994 182.252 237.942 182.299 237.855C182.345 237.77 182.436 237.614 182.585 237.424C182.852 237.084 183.563 236.313 184.836 235.972L187.424 245.631C188.968 245.218 189.937 244.254 190.451 243.599C190.974 242.933 191.302 242.242 191.511 241.72L182.231 237.995ZM184.836 235.972C185.322 235.842 185.712 235.824 185.912 235.822C186.13 235.82 186.285 235.838 186.354 235.847C186.482 235.863 186.498 235.876 186.352 235.836L183.72 245.484C184.11 245.59 184.576 245.7 185.069 245.764C185.448 245.813 186.37 245.914 187.424 245.631L184.836 235.972ZM186.6 235.911C182.906 234.694 179.037 234.731 175.154 235.771L177.742 245.43C180.041 244.814 181.898 244.891 183.472 245.409L186.6 235.911ZM175.154 235.771C173.086 236.325 170.873 237.257 169.224 238.985L176.457 245.89C176.355 245.997 176.348 245.962 176.568 245.85C176.788 245.738 177.161 245.586 177.742 245.43L175.154 235.771ZM169.224 238.985C167.031 241.282 166.709 244.205 167.392 246.754L177.051 244.166C177.039 244.118 177.112 244.36 177.026 244.78C176.932 245.241 176.702 245.633 176.457 245.89L169.224 238.985ZM167.392 246.754C167.866 248.524 168.876 250.27 170.652 251.486L176.301 243.235C176.546 243.402 176.742 243.611 176.879 243.818C177.009 244.015 177.048 244.153 177.051 244.166L167.392 246.754ZM170.652 251.486C171.858 252.312 173.19 252.839 174.526 253.168L176.913 243.457C176.475 243.349 176.312 243.242 176.301 243.235L170.652 251.486ZM174.811 253.229C175.95 253.439 177.499 253.627 179.361 253.803L180.303 243.848C178.511 243.678 177.318 243.523 176.627 243.395L174.811 253.229ZM179.377 253.804L180.587 253.915L181.497 243.957L180.287 243.846L179.377 253.804ZM180.485 253.905C183.484 254.241 185.651 254.675 187.111 255.142L190.157 245.618C187.813 244.868 184.919 244.339 181.599 243.967L180.485 253.905ZM187.243 255.182C188.45 255.532 189.259 256.045 189.84 256.638L196.982 249.638C195.055 247.672 192.68 246.347 190.026 245.578L187.243 255.182ZM189.88 256.677C190.331 257.128 190.903 257.998 191.347 259.654L201.006 257.066C200.249 254.24 198.977 251.628 196.942 249.598L189.88 256.677ZM191.347 259.654C191.892 261.688 191.572 263.188 190.488 264.645L198.51 270.615C201.506 266.589 202.304 261.909 201.006 257.066L191.347 259.654ZM190.466 264.674C189.41 266.115 187.16 267.712 182.726 268.9L185.315 278.559C190.85 277.076 195.585 274.607 198.532 270.585L190.466 264.674ZM204.398 264.046L202.109 268.491L202.126 268.5L202.142 268.508L204.398 264.046ZM198.605 242.428L202.79 245.165L202.8 245.15L202.81 245.134L198.605 242.428ZM223.294 235.813L221.006 240.259L221.037 240.274L221.067 240.29L223.294 235.813ZM229.087 257.43L233.272 260.167L233.274 260.164L229.087 257.43ZM211.376 255.778L208.465 259.844L208.465 259.844L211.376 255.778ZM216.504 259.849C211.986 261.06 208.866 260.702 206.654 259.584L202.142 268.508C207.21 271.07 213.024 271.135 219.092 269.509L216.504 259.849ZM206.686 259.6C204.481 258.465 202.836 256.516 201.919 253.094L192.259 255.682C193.786 261.379 197.012 265.868 202.109 268.491L206.686 259.6ZM201.919 253.094C201.002 249.671 201.462 247.197 202.79 245.165L194.421 239.692C191.284 244.488 190.733 249.987 192.259 255.682L201.919 253.094ZM202.81 245.134C204.161 243.035 206.671 241.158 211.172 239.951L208.584 230.292C202.5 231.923 197.494 234.916 194.401 239.723L202.81 245.134ZM211.172 239.951C215.674 238.745 218.786 239.116 221.006 240.259L225.583 231.367C220.501 228.752 214.669 228.662 208.584 230.292L211.172 239.951ZM221.067 240.29C223.266 241.383 224.904 243.289 225.816 246.691L235.475 244.103C233.943 238.387 230.681 233.903 225.521 231.336L221.067 240.29ZM225.816 246.691C226.727 250.092 226.27 252.598 224.9 254.697L233.274 260.164C236.425 255.336 237.007 249.82 235.475 244.103L225.816 246.691ZM224.902 254.694C223.545 256.769 221.023 258.639 216.504 259.849L219.092 269.509C225.16 267.883 230.164 264.92 233.272 260.167L224.902 254.694ZM216.872 261.221C219.668 260.472 222.26 258.761 223.565 255.71C224.755 252.928 224.482 249.904 223.768 247.24L214.109 249.828C214.318 250.609 214.379 251.149 214.381 251.487C214.382 251.817 214.329 251.875 214.371 251.777C214.425 251.651 214.527 251.522 214.623 251.447C214.692 251.393 214.629 251.469 214.283 251.562L216.872 261.221ZM223.768 247.24C223.06 244.599 221.783 241.86 219.345 240.067C216.687 238.111 213.602 237.955 210.836 238.696L213.424 248.355C213.779 248.26 213.883 248.292 213.805 248.282C213.695 248.267 213.539 248.21 213.419 248.122C213.323 248.051 213.387 248.061 213.539 248.325C213.696 248.598 213.906 249.072 214.109 249.828L223.768 247.24ZM210.836 238.696C208.07 239.437 205.476 241.115 204.152 244.137C202.938 246.91 203.201 249.92 203.909 252.561L213.568 249.973C213.365 249.217 213.31 248.701 213.31 248.386C213.309 248.081 213.36 248.041 213.312 248.151C213.252 248.287 213.146 248.414 213.058 248.482C212.995 248.53 213.069 248.45 213.424 248.355L210.836 238.696ZM203.909 252.561C204.633 255.264 205.952 258.044 208.465 259.844L214.286 251.713C214.372 251.774 214.304 251.759 214.149 251.494C213.988 251.219 213.773 250.74 213.568 249.973L203.909 252.561ZM208.465 259.844C211.061 261.702 214.061 261.974 216.872 261.221L214.283 251.562C214.145 251.599 214.06 251.609 214.022 251.612C213.986 251.615 213.993 251.611 214.032 251.617C214.073 251.623 214.127 251.636 214.184 251.659C214.24 251.682 214.275 251.704 214.286 251.713L208.465 259.844ZM239.148 254.734L236.86 259.18L236.876 259.188L236.892 259.197L239.148 254.734ZM233.356 233.117L237.541 235.853L237.551 235.838L237.561 235.823L233.356 233.117ZM258.045 226.502L255.757 230.947L255.787 230.963L255.818 230.978L258.045 226.502ZM263.837 248.119L268.022 250.855L268.024 250.852L263.837 248.119ZM246.126 246.467L243.216 250.532L243.216 250.532L246.126 246.467ZM251.255 250.538C246.736 251.749 243.617 251.391 241.404 250.272L236.892 259.197C241.961 261.759 247.775 261.823 253.843 260.197L251.255 250.538ZM241.437 250.289C239.232 249.154 237.586 247.205 236.669 243.783L227.01 246.371C228.537 252.068 231.763 256.556 236.86 259.18L241.437 250.289ZM236.669 243.783C235.752 240.36 236.212 237.885 237.541 235.853L229.171 230.381C226.035 235.177 225.484 240.676 227.01 246.371L236.669 243.783ZM237.561 235.823C238.912 233.723 241.421 231.846 245.923 230.64L243.335 220.981C237.25 222.611 232.245 225.605 229.151 230.411L237.561 235.823ZM245.923 230.64C250.425 229.434 253.537 229.805 255.757 230.947L260.333 222.056C255.252 219.44 249.42 219.35 243.335 220.981L245.923 230.64ZM255.818 230.978C258.016 232.072 259.655 233.977 260.566 237.38L270.226 234.791C268.694 229.075 265.432 224.592 260.272 222.025L255.818 230.978ZM260.566 237.38C261.478 240.781 261.021 243.287 259.651 245.386L268.024 250.852C271.176 246.025 271.758 240.509 270.226 234.791L260.566 237.38ZM259.653 245.383C258.296 247.458 255.773 249.327 251.255 250.538L253.843 260.197C259.911 258.571 264.914 255.609 268.022 250.855L259.653 245.383ZM251.622 251.91C254.419 251.16 257.011 249.449 258.316 246.399C259.506 243.616 259.233 240.593 258.519 237.928L248.859 240.517C249.069 241.298 249.129 241.838 249.131 242.176C249.133 242.505 249.08 242.564 249.121 242.466C249.175 242.34 249.278 242.21 249.373 242.136C249.443 242.082 249.379 242.158 249.034 242.25L251.622 251.91ZM258.519 237.928C257.811 235.287 256.534 232.549 254.096 230.755C251.438 228.8 248.353 228.643 245.587 229.384L248.175 239.044C248.53 238.948 248.634 238.981 248.556 238.97C248.445 238.956 248.29 238.898 248.17 238.81C248.074 238.74 248.138 238.749 248.29 239.014C248.447 239.286 248.657 239.76 248.859 240.517L258.519 237.928ZM245.587 229.384C242.821 230.125 240.227 231.804 238.903 234.826C237.688 237.598 237.952 240.609 238.659 243.25L248.319 240.661C248.116 239.905 248.061 239.39 248.06 239.075C248.06 238.77 248.11 238.73 248.062 238.839C248.003 238.975 247.897 239.102 247.808 239.171C247.746 239.219 247.82 239.139 248.175 239.044L245.587 229.384ZM238.659 243.25C239.383 245.952 240.703 248.733 243.216 250.532L249.037 242.401C249.123 242.463 249.054 242.448 248.899 242.182C248.739 241.907 248.524 241.429 248.319 240.661L238.659 243.25ZM243.216 250.532C245.812 252.391 248.811 252.663 251.622 251.91L249.034 242.25C248.896 242.287 248.811 242.298 248.773 242.301C248.737 242.303 248.743 242.299 248.783 242.305C248.824 242.311 248.878 242.325 248.934 242.347C248.99 242.37 249.025 242.393 249.037 242.401L243.216 250.532ZM273.457 248.088L275.957 243.758L275.957 243.758L273.457 248.088ZM265.951 221.464L261.62 218.964L261.62 218.964L265.951 221.464ZM274.539 218.976L272.937 223.712L273.372 223.86L273.826 223.925L274.539 218.976ZM275.189 219.547L270.532 221.367L270.582 221.494L270.638 221.618L275.189 219.547ZM275.945 221.208L271.394 223.279L275.417 232.123L280.275 223.708L275.945 221.208ZM279.492 217.525L282.33 221.642L282.355 221.624L282.381 221.606L279.492 217.525ZM293.446 215.587L291.129 220.018L291.153 220.03L291.178 220.043L293.446 215.587ZM302.435 240.324L298.105 237.824L298.051 237.918L298 238.014L302.435 240.324ZM292.061 243.103L289.561 247.433L289.648 247.483L289.736 247.53L292.061 243.103ZM280.329 225.748L276.154 222.998L276.114 223.058L276.077 223.118L280.329 225.748ZM283.773 245.324L279.443 242.824L279.389 242.918L279.339 243.014L283.773 245.324ZM274.726 243.317C274.472 243.385 274.47 243.354 274.653 243.359C274.852 243.363 275.36 243.413 275.957 243.758L270.957 252.418C273.279 253.759 275.762 253.392 277.314 252.977L274.726 243.317ZM275.957 243.758C276.47 244.054 276.768 244.418 276.911 244.641C277.04 244.844 277.042 244.929 277.001 244.778L267.342 247.366C267.776 248.984 268.736 251.136 270.957 252.418L275.957 243.758ZM277.001 244.778L270.805 221.654L261.146 224.242L267.342 247.366L277.001 244.778ZM270.805 221.654C270.774 221.539 270.824 221.671 270.829 221.971C270.833 222.24 270.811 223.046 270.281 223.964L261.62 218.964C260.921 220.175 260.817 221.375 260.83 222.139C260.844 222.935 260.99 223.661 261.146 224.242L270.805 221.654ZM270.281 223.964C269.765 224.857 269.104 225.257 268.904 225.368C268.678 225.494 268.586 225.499 268.759 225.453L266.171 215.794C265.532 215.965 264.782 216.219 264.051 216.625C263.347 217.016 262.334 217.728 261.62 218.964L270.281 223.964ZM268.759 225.453L274.728 223.853L272.14 214.194L266.171 215.794L268.759 225.453ZM274.728 223.853C274.707 223.859 274.544 223.902 274.274 223.914C274.005 223.926 273.523 223.911 272.937 223.712L276.142 214.24C274.499 213.684 272.988 213.967 272.14 214.194L274.728 223.853ZM273.826 223.925C273.074 223.817 272.289 223.489 271.627 222.907C271.001 222.357 270.684 221.757 270.532 221.367L279.847 217.728C279.207 216.09 277.703 214.38 275.252 214.027L273.826 223.925ZM270.638 221.618L271.394 223.279L280.496 219.138L279.741 217.477L270.638 221.618ZM280.275 223.708C280.627 223.099 281.244 222.39 282.33 221.642L276.655 213.408C274.595 214.828 272.847 216.575 271.615 218.708L280.275 223.708ZM282.381 221.606C283.436 220.86 284.762 220.233 286.434 219.785L283.846 210.126C281.191 210.837 278.752 211.924 276.604 213.443L282.381 221.606ZM286.434 219.785C288.599 219.205 290.039 219.448 291.129 220.018L295.764 211.157C292.038 209.207 287.94 209.029 283.846 210.126L286.434 219.785ZM291.178 220.043C291.938 220.43 292.916 221.335 293.596 223.871L303.255 221.283C302.091 216.941 299.75 213.186 295.715 211.132L291.178 220.043ZM293.596 223.871L297.711 239.229L307.37 236.641L303.255 221.283L293.596 223.871ZM297.711 239.229C297.751 239.38 297.71 239.306 297.721 239.065C297.732 238.801 297.809 238.337 298.105 237.824L306.765 242.824C308.048 240.602 307.803 238.259 307.37 236.641L297.711 239.229ZM298 238.014C298.368 237.308 298.851 236.954 299.049 236.832C299.234 236.718 299.267 236.741 299.009 236.811L301.597 246.47C303.088 246.07 305.567 245.135 306.87 242.633L298 238.014ZM299.009 236.811L293.387 238.317L295.976 247.976L301.597 246.47L299.009 236.811ZM293.387 238.317C293.139 238.384 293.117 238.359 293.268 238.362C293.434 238.364 293.863 238.402 294.386 238.677L289.736 247.53C292.001 248.719 294.372 248.406 295.976 247.976L293.387 238.317ZM294.561 238.773C295.074 239.069 295.372 239.433 295.514 239.656C295.644 239.859 295.645 239.944 295.605 239.793L285.946 242.381C286.379 243.999 287.34 246.151 289.561 247.433L294.561 238.773ZM295.605 239.793L291.692 225.188L282.032 227.777L285.946 242.381L295.605 239.793ZM291.692 225.188C291.245 223.521 290.27 221.207 287.941 219.862L282.941 228.522C282.404 228.213 282.128 227.842 282.025 227.677C281.934 227.529 281.964 227.522 282.032 227.777L291.692 225.188ZM287.941 219.862C285.676 218.555 283.274 218.789 281.569 219.246L284.157 228.905C284.343 228.855 284.303 228.892 284.093 228.882C283.858 228.872 283.425 228.802 282.941 228.522L287.941 219.862ZM281.569 219.246C279.529 219.793 277.511 220.937 276.154 222.998L284.505 228.498C284.379 228.69 284.229 228.824 284.115 228.899C284.014 228.966 284.003 228.947 284.157 228.905L281.569 219.246ZM276.077 223.118C274.718 225.316 274.628 227.73 275.198 229.856L284.857 227.268C284.842 227.214 284.883 227.334 284.857 227.581C284.828 227.848 284.734 228.132 284.582 228.378L276.077 223.118ZM275.198 229.856L279.049 244.229L288.708 241.641L284.857 227.268L275.198 229.856ZM279.049 244.229C279.089 244.38 279.048 244.306 279.059 244.066C279.071 243.801 279.147 243.337 279.443 242.824L288.103 247.824C289.386 245.603 289.142 243.259 288.708 241.641L279.049 244.229ZM279.339 243.014C279.707 242.308 280.189 241.955 280.387 241.832C280.572 241.718 280.606 241.742 280.347 241.811L282.936 251.47C284.426 251.071 286.905 250.136 288.208 247.633L279.339 243.014ZM280.347 241.811L274.726 243.317L277.314 252.977L282.936 251.47L280.347 241.811ZM324.45 223.368L321.95 227.698L322.036 227.748L322.125 227.795L324.45 223.368ZM323.164 221.352L327.994 220.058L327.984 220.022L327.974 219.986L323.164 221.352ZM316.589 198.205L311.759 199.499L311.769 199.535L311.779 199.571L316.589 198.205ZM316.694 195.816L321.025 198.316L321.075 198.23L321.121 198.141L316.694 195.816ZM327.068 193.037L324.397 197.263L324.482 197.317L324.568 197.367L327.068 193.037ZM328.354 195.053L333.206 193.843L333.195 193.801L333.184 193.759L328.354 195.053ZM334.176 218.402L329.324 219.611L329.335 219.653L329.346 219.696L334.176 218.402ZM334.012 220.806L338.239 223.477L338.292 223.392L338.342 223.306L334.012 220.806ZM326.866 233.777L325.264 238.514L325.322 238.533L325.381 238.552L326.866 233.777ZM325.313 227.982L321.64 224.589L321.598 224.635L321.557 224.681L325.313 227.982ZM325.776 218.582C325.527 218.648 325.506 218.624 325.657 218.626C325.822 218.629 326.252 218.667 326.774 218.941L322.125 227.795C324.389 228.984 326.76 228.671 328.364 228.241L325.776 218.582ZM326.95 219.038C327.463 219.334 327.761 219.698 327.903 219.921C328.032 220.124 328.034 220.208 327.994 220.058L318.334 222.646C318.768 224.264 319.728 226.416 321.95 227.698L326.95 219.038ZM327.974 219.986L321.399 196.839L311.779 199.571L318.354 222.718L327.974 219.986ZM321.419 196.911C321.378 196.76 321.419 196.834 321.409 197.075C321.397 197.339 321.321 197.803 321.025 198.316L312.364 193.316C311.082 195.538 311.326 197.881 311.759 199.499L321.419 196.911ZM321.121 198.141C320.818 198.718 320.424 199.047 320.194 199.196C319.988 199.33 319.914 199.323 320.105 199.271L317.517 189.612C315.856 190.057 313.541 191.067 312.268 193.491L321.121 198.141ZM320.105 199.271L325.785 197.75L323.196 188.09L317.517 189.612L320.105 199.271ZM325.785 197.75C326.01 197.689 325.975 197.729 325.749 197.719C325.497 197.707 324.976 197.629 324.397 197.263L329.74 188.81C327.391 187.326 324.834 187.652 323.196 188.09L325.785 197.75ZM324.568 197.367C324.055 197.071 323.757 196.707 323.615 196.484C323.486 196.281 323.484 196.196 323.524 196.347L333.184 193.759C332.75 192.141 331.79 189.989 329.568 188.707L324.568 197.367ZM323.503 196.262L329.324 219.611L339.027 217.192L333.206 193.843L323.503 196.262ZM329.346 219.696C329.366 219.772 329.322 219.652 329.34 219.388C329.36 219.099 329.45 218.707 329.682 218.306L338.342 223.306C339.583 221.157 339.481 218.881 339.005 217.107L329.346 219.696ZM329.785 218.135C330.101 217.636 330.454 217.388 330.596 217.303C330.725 217.225 330.719 217.257 330.47 217.324L333.059 226.983C334.663 226.553 336.873 225.639 338.239 223.477L329.785 218.135ZM330.47 217.324L325.776 218.582L328.364 228.241L333.059 226.983L330.47 217.324ZM329.12 228.742C328.598 228.882 328.272 228.925 328.108 228.935C327.936 228.944 328.057 228.911 328.351 229.003L325.381 238.552C327.587 239.238 329.878 238.892 331.708 238.402L329.12 228.742ZM328.468 229.041C328.891 229.184 329.322 229.461 329.654 229.852C329.96 230.213 330.05 230.513 330.062 230.56L320.403 233.149C321.005 235.394 322.526 237.587 325.264 238.514L328.468 229.041ZM330.062 230.56L329.69 229.169L320.03 231.758L320.403 233.149L330.062 230.56ZM329.69 229.169C329.702 229.217 329.775 229.522 329.69 229.988C329.598 230.492 329.363 230.947 329.069 231.282L321.557 224.681C319.649 226.852 319.429 229.513 320.03 231.758L329.69 229.169ZM328.986 231.374C328.777 231.6 328.656 231.632 328.81 231.555C328.957 231.481 329.261 231.355 329.782 231.215L327.194 221.556C325.364 222.046 323.207 222.892 321.64 224.589L328.986 231.374ZM329.782 231.215L333.26 230.283L330.671 220.624L327.194 221.556L329.782 231.215ZM333.26 230.283C333.757 230.15 334.063 230.113 334.209 230.106C334.36 230.099 334.241 230.127 333.962 230.037C333.644 229.934 333.235 229.711 332.88 229.32C332.539 228.943 332.413 228.592 332.375 228.45L342.034 225.862C341.384 223.434 339.699 221.386 337.051 220.526C334.827 219.804 332.527 220.127 330.671 220.624L333.26 230.283ZM332.375 228.45L332.748 229.841L342.407 227.253L342.034 225.862L332.375 228.45ZM332.748 229.841C332.71 229.699 332.643 229.331 332.75 228.835C332.862 228.319 333.105 227.921 333.328 227.673C333.525 227.455 333.642 227.421 333.508 227.49C333.378 227.557 333.094 227.677 332.597 227.811L335.185 237.47C337.041 236.973 339.195 236.103 340.76 234.365C342.622 232.297 343.057 229.681 342.407 227.253L332.748 229.841ZM332.597 227.811L329.12 228.742L331.708 238.402L335.185 237.47L332.597 227.811Z" fill="white" mask="url(#path-8-outside-2_8_23)"/>
</g>
<defs>
<filter id="filter0_d_8_23" x="7" y="78.9138" width="540.311" height="315.336" filterUnits="userSpaceOnUse" color-interpolation-filters="sRGB">
<feFlood flood-opacity="0" result="BackgroundImageFix"/>
<feColorMatrix in="SourceAlpha" type="matrix" values="0 0 0 0 0 0 0 0 0 0 0 0 0 0 0 0 0 0 127 0" result="hardAlpha"/>
<feOffset dy="4"/>
<feGaussianBlur stdDeviation="2"/>
<feComposite in2="hardAlpha" operator="out"/>
<feColorMatrix type="matrix" values="0 0 0 0 0 0 0 0 0 0 0 0 0 0 0 0 0 0 0.25 0"/>
<feBlend mode="normal" in2="BackgroundImageFix" result="effect1_dropShadow_8_23"/>
<feBlend mode="normal" in="SourceGraphic" in2="effect1_dropShadow_8_23" result="shape"/>
</filter>
<filter id="filter1_d_8_23" x="6.10352e-05" y="65.9138" width="537.885" height="304.63" filterUnits="userSpaceOnUse" color-interpolation-filters="sRGB">
<feFlood flood-opacity="0" result="BackgroundImageFix"/>
<feColorMatrix in="SourceAlpha" type="matrix" values="0 0 0 0 0 0 0 0 0 0 0 0 0 0 0 0 0 0 127 0" result="hardAlpha"/>
<feOffset dy="4"/>
<feGaussianBlur stdDeviation="2"/>
<feComposite in2="hardAlpha" operator="out"/>
<feColorMatrix type="matrix" values="0 0 0 0 0 0 0 0 0 0 0 0 0 0 0 0 0 0 0.25 0"/>
<feBlend mode="normal" in2="BackgroundImageFix" result="effect1_dropShadow_8_23"/>
<feBlend mode="normal" in="SourceGraphic" in2="effect1_dropShadow_8_23" result="shape"/>
</filter>
<filter id="filter2_d_8_23" x="38.7517" y="3.05176e-05" width="524.453" height="338.828" filterUnits="userSpaceOnUse" color-interpolation-filters="sRGB">
<feFlood flood-opacity="0" result="BackgroundImageFix"/>
<feColorMatrix in="SourceAlpha" type="matrix" values="0 0 0 0 0 0 0 0 0 0 0 0 0 0 0 0 0 0 127 0" result="hardAlpha"/>
<feOffset dy="4"/>
<feGaussianBlur stdDeviation="2"/>
<feComposite in2="hardAlpha" operator="out"/>
<feColorMatrix type="matrix" values="0 0 0 0 0 0 0 0 0 0 0 0 0 0 0 0 0 0 0.25 0"/>
<feBlend mode="normal" in2="BackgroundImageFix" result="effect1_dropShadow_8_23"/>
<feBlend mode="normal" in="SourceGraphic" in2="effect1_dropShadow_8_23" result="shape"/>
</filter>
<filter id="filter3_d_8_23" x="0" y="34.9138" width="544.28" height="336.39" filterUnits="userSpaceOnUse" color-interpolation-filters="sRGB">
<feFlood flood-opacity="0" result="BackgroundImageFix"/>
<feColorMatrix in="SourceAlpha" type="matrix" values="0 0 0 0 0 0 0 0 0 0 0 0 0 0 0 0 0 0 127 0" result="hardAlpha"/>
<feOffset dy="4"/>
<feGaussianBlur stdDeviation="2"/>
<feComposite in2="hardAlpha" operator="out"/>
<feColorMatrix type="matrix" values="0 0 0 0 0 0 0 0 0 0 0 0 0 0 0 0 0 0 0.25 0"/>
<feBlend mode="normal" in2="BackgroundImageFix" result="effect1_dropShadow_8_23"/>
<feBlend mode="normal" in="SourceGraphic" in2="effect1_dropShadow_8_23" result="shape"/>
</filter>
<filter id="filter4_d_8_23" x="114" y="100.914" width="309.528" height="202.592" filterUnits="userSpaceOnUse" color-interpolation-filters="sRGB">
<feFlood flood-opacity="0" result="BackgroundImageFix"/>
<feColorMatrix in="SourceAlpha" type="matrix" values="0 0 0 0 0 0 0 0 0 0 0 0 0 0 0 0 0 0 127 0" result="hardAlpha"/>
<feOffset dy="4"/>
<feGaussianBlur stdDeviation="2"/>
<feComposite in2="hardAlpha" operator="out"/>
<feColorMatrix type="matrix" values="0 0 0 0 0 0 0 0 0 0 0 0 0 0 0 0 0 0 0.25 0"/>
<feBlend mode="normal" in2="BackgroundImageFix" result="effect1_dropShadow_8_23"/>
<feBlend mode="normal" in="SourceGraphic" in2="effect1_dropShadow_8_23" result="shape"/>
</filter>
</defs>
</svg>
