<svg width="298" height="518" viewBox="0 0 298 518" fill="none" xmlns="http://www.w3.org/2000/svg">
<g filter="url(#filter0_d_3_25)">
<line x1="65.9227" y1="205" x2="65.9227" y2="400" stroke="white" stroke-width="3"/>
</g>
<g filter="url(#filter1_d_3_25)">
<line x1="219.923" y1="204" x2="219.923" y2="400" stroke="white" stroke-width="3"/>
</g>
<g filter="url(#filter2_d_3_25)">
<rect x="4.4227" y="37" width="274" height="173" rx="20" fill="#E58B4A"/>
</g>
<g filter="url(#filter3_d_3_25)">
<rect x="18.4227" y="46" width="245" height="155" rx="20" fill="#F6A164"/>
</g>
<g filter="url(#filter4_d_3_25)">
<rect x="33.4227" y="55" width="215" height="136" rx="20" fill="#ECBA96"/>
</g>
<g filter="url(#filter5_d_3_25)">
<path d="M251.664 16.4075C253.101 15.1437 255.321 16.4258 254.945 18.3023L252.946 28.2816C252.777 29.1227 253.164 29.9777 253.907 30.4066L262.889 35.5923C264.583 36.5705 264.01 39.1484 262.061 39.3169L252.029 40.1841C251.144 40.2606 250.415 40.9123 250.24 41.7837L248.286 51.5375C247.907 53.4304 245.331 53.7405 244.513 51.9917L240.091 42.533C239.735 41.7727 238.943 41.3153 238.107 41.3876L227.704 42.2868C225.781 42.4531 224.761 40.0673 226.211 38.7924L233.681 32.223C234.348 31.636 234.548 30.6791 234.172 29.874L229.907 20.7526C229.078 18.9804 231.024 17.1953 232.718 18.1734L241.7 23.3591C242.443 23.788 243.377 23.6954 244.021 23.1289L251.664 16.4075Z" fill="#FFCD38"/>
</g>
<g filter="url(#filter6_d_3_25)">
<path d="M274.944 42.7446C275.546 40.9278 278.11 40.912 278.734 42.7213L280.996 49.2833C281.276 50.0943 282.041 50.6367 282.899 50.6314L289.918 50.5883C291.874 50.5763 292.682 53.0904 291.085 54.2207L285.568 58.1265C284.842 58.64 284.543 59.5706 284.832 60.4108L287.02 66.7554C287.649 68.5805 285.583 70.1496 283.993 69.0537L278.121 65.0047C277.431 64.5283 276.516 64.5339 275.831 65.0188L270.009 69.1397C268.433 70.255 266.348 68.7114 266.955 66.8787L269.064 60.5077C269.343 59.664 269.032 58.7372 268.301 58.2326L262.735 54.395C261.124 53.2844 261.902 50.7605 263.858 50.7485L270.877 50.7053C271.734 50.7001 272.493 50.1483 272.763 49.3339L274.944 42.7446Z" fill="#FFCD38"/>
</g>
<g filter="url(#filter7_d_3_25)">
<rect x="20.4227" y="358" width="241" height="152" rx="20" fill="#009FBD"/>
</g>
<g filter="url(#filter8_d_3_25)">
<rect x="32.4227" y="366" width="216" height="136" rx="20" fill="#48B7CC"/>
</g>
<g filter="url(#filter9_d_3_25)">
<rect x="45.4227" y="374" width="189" height="119" rx="20" fill="#99CFD9"/>
</g>
<g filter="url(#filter10_d_3_25)">
<path d="M57.9279 342.855C58.048 340.921 60.5724 340.271 61.6118 341.906L66.3003 349.28C66.7652 350.012 67.648 350.36 68.4871 350.144L76.9495 347.964C78.8257 347.481 80.2243 349.68 78.9906 351.174L73.4258 357.912C72.874 358.58 72.8152 359.528 73.2801 360.259L77.9686 367.633C79.0081 369.268 77.3481 371.278 75.5461 370.567L67.4184 367.356C66.6125 367.038 65.6933 367.275 65.1416 367.943L59.5768 374.681C58.343 376.175 55.9185 375.217 56.0386 373.283L56.5801 364.561C56.6338 363.696 56.1246 362.895 55.3187 362.577L47.191 359.367C45.389 358.655 45.5505 356.053 47.4267 355.57L55.8892 353.39C56.7282 353.174 57.3326 352.442 57.3863 351.577L57.9279 342.855Z" fill="#FFCD38"/>
</g>
<g filter="url(#filter11_d_3_25)">
<path d="M96.7289 351.115C97.9168 349.585 100.369 350.468 100.308 352.405L100.192 356.051C100.165 356.917 100.698 357.702 101.513 357.996L104.945 359.232C106.767 359.889 106.685 362.495 104.824 363.035L101.321 364.051C100.489 364.293 99.9067 365.043 99.8792 365.909L99.7635 369.554C99.7021 371.491 97.1985 372.217 96.11 370.615L94.0606 367.597C93.5738 366.88 92.6809 366.558 91.8487 366.8L88.3455 367.817C86.4848 368.357 85.0203 366.2 86.2082 364.669L88.4448 361.788C88.9761 361.103 89.0062 360.155 88.5194 359.438L86.47 356.42C85.3815 354.818 86.9799 352.758 88.8026 353.415L92.2343 354.652C93.0494 354.946 93.961 354.681 94.4923 353.997L96.7289 351.115Z" fill="#FFCD38"/>
</g>
<defs>
<filter id="filter0_d_3_25" x="60.4227" y="205" width="11" height="203" filterUnits="userSpaceOnUse" color-interpolation-filters="sRGB">
<feFlood flood-opacity="0" result="BackgroundImageFix"/>
<feColorMatrix in="SourceAlpha" type="matrix" values="0 0 0 0 0 0 0 0 0 0 0 0 0 0 0 0 0 0 127 0" result="hardAlpha"/>
<feOffset dy="4"/>
<feGaussianBlur stdDeviation="2"/>
<feComposite in2="hardAlpha" operator="out"/>
<feColorMatrix type="matrix" values="0 0 0 0 0 0 0 0 0 0 0 0 0 0 0 0 0 0 0.25 0"/>
<feBlend mode="normal" in2="BackgroundImageFix" result="effect1_dropShadow_3_25"/>
<feBlend mode="normal" in="SourceGraphic" in2="effect1_dropShadow_3_25" result="shape"/>
</filter>
<filter id="filter1_d_3_25" x="214.423" y="204" width="11" height="204" filterUnits="userSpaceOnUse" color-interpolation-filters="sRGB">
<feFlood flood-opacity="0" result="BackgroundImageFix"/>
<feColorMatrix in="SourceAlpha" type="matrix" values="0 0 0 0 0 0 0 0 0 0 0 0 0 0 0 0 0 0 127 0" result="hardAlpha"/>
<feOffset dy="4"/>
<feGaussianBlur stdDeviation="2"/>
<feComposite in2="hardAlpha" operator="out"/>
<feColorMatrix type="matrix" values="0 0 0 0 0 0 0 0 0 0 0 0 0 0 0 0 0 0 0.25 0"/>
<feBlend mode="normal" in2="BackgroundImageFix" result="effect1_dropShadow_3_25"/>
<feBlend mode="normal" in="SourceGraphic" in2="effect1_dropShadow_3_25" result="shape"/>
</filter>
<filter id="filter2_d_3_25" x="0.422699" y="37" width="282" height="181" filterUnits="userSpaceOnUse" color-interpolation-filters="sRGB">
<feFlood flood-opacity="0" result="BackgroundImageFix"/>
<feColorMatrix in="SourceAlpha" type="matrix" values="0 0 0 0 0 0 0 0 0 0 0 0 0 0 0 0 0 0 127 0" result="hardAlpha"/>
<feOffset dy="4"/>
<feGaussianBlur stdDeviation="2"/>
<feComposite in2="hardAlpha" operator="out"/>
<feColorMatrix type="matrix" values="0 0 0 0 0 0 0 0 0 0 0 0 0 0 0 0 0 0 0.25 0"/>
<feBlend mode="normal" in2="BackgroundImageFix" result="effect1_dropShadow_3_25"/>
<feBlend mode="normal" in="SourceGraphic" in2="effect1_dropShadow_3_25" result="shape"/>
</filter>
<filter id="filter3_d_3_25" x="14.4227" y="46" width="253" height="163" filterUnits="userSpaceOnUse" color-interpolation-filters="sRGB">
<feFlood flood-opacity="0" result="BackgroundImageFix"/>
<feColorMatrix in="SourceAlpha" type="matrix" values="0 0 0 0 0 0 0 0 0 0 0 0 0 0 0 0 0 0 127 0" result="hardAlpha"/>
<feOffset dy="4"/>
<feGaussianBlur stdDeviation="2"/>
<feComposite in2="hardAlpha" operator="out"/>
<feColorMatrix type="matrix" values="0 0 0 0 0 0 0 0 0 0 0 0 0 0 0 0 0 0 0.25 0"/>
<feBlend mode="normal" in2="BackgroundImageFix" result="effect1_dropShadow_3_25"/>
<feBlend mode="normal" in="SourceGraphic" in2="effect1_dropShadow_3_25" result="shape"/>
</filter>
<filter id="filter4_d_3_25" x="29.4227" y="55" width="223" height="144" filterUnits="userSpaceOnUse" color-interpolation-filters="sRGB">
<feFlood flood-opacity="0" result="BackgroundImageFix"/>
<feColorMatrix in="SourceAlpha" type="matrix" values="0 0 0 0 0 0 0 0 0 0 0 0 0 0 0 0 0 0 127 0" result="hardAlpha"/>
<feOffset dy="4"/>
<feGaussianBlur stdDeviation="2"/>
<feComposite in2="hardAlpha" operator="out"/>
<feColorMatrix type="matrix" values="0 0 0 0 0 0 0 0 0 0 0 0 0 0 0 0 0 0 0.25 0"/>
<feBlend mode="normal" in2="BackgroundImageFix" result="effect1_dropShadow_3_25"/>
<feBlend mode="normal" in="SourceGraphic" in2="effect1_dropShadow_3_25" result="shape"/>
</filter>
<filter id="filter5_d_3_25" x="221.526" y="15.9018" width="46.3648" height="45.2433" filterUnits="userSpaceOnUse" color-interpolation-filters="sRGB">
<feFlood flood-opacity="0" result="BackgroundImageFix"/>
<feColorMatrix in="SourceAlpha" type="matrix" values="0 0 0 0 0 0 0 0 0 0 0 0 0 0 0 0 0 0 127 0" result="hardAlpha"/>
<feOffset dy="4"/>
<feGaussianBlur stdDeviation="2"/>
<feComposite in2="hardAlpha" operator="out"/>
<feColorMatrix type="matrix" values="0 0 0 0 0 0 0 0 0 0 0 0 0 0 0 0 0 0 0.25 0"/>
<feBlend mode="normal" in2="BackgroundImageFix" result="effect1_dropShadow_3_25"/>
<feBlend mode="normal" in="SourceGraphic" in2="effect1_dropShadow_3_25" result="shape"/>
</filter>
<filter id="filter6_d_3_25" x="257.867" y="41.3731" width="38.0671" height="36.1431" filterUnits="userSpaceOnUse" color-interpolation-filters="sRGB">
<feFlood flood-opacity="0" result="BackgroundImageFix"/>
<feColorMatrix in="SourceAlpha" type="matrix" values="0 0 0 0 0 0 0 0 0 0 0 0 0 0 0 0 0 0 127 0" result="hardAlpha"/>
<feOffset dy="4"/>
<feGaussianBlur stdDeviation="2"/>
<feComposite in2="hardAlpha" operator="out"/>
<feColorMatrix type="matrix" values="0 0 0 0 0 0 0 0 0 0 0 0 0 0 0 0 0 0 0.25 0"/>
<feBlend mode="normal" in2="BackgroundImageFix" result="effect1_dropShadow_3_25"/>
<feBlend mode="normal" in="SourceGraphic" in2="effect1_dropShadow_3_25" result="shape"/>
</filter>
<filter id="filter7_d_3_25" x="16.4227" y="358" width="249" height="160" filterUnits="userSpaceOnUse" color-interpolation-filters="sRGB">
<feFlood flood-opacity="0" result="BackgroundImageFix"/>
<feColorMatrix in="SourceAlpha" type="matrix" values="0 0 0 0 0 0 0 0 0 0 0 0 0 0 0 0 0 0 127 0" result="hardAlpha"/>
<feOffset dy="4"/>
<feGaussianBlur stdDeviation="2"/>
<feComposite in2="hardAlpha" operator="out"/>
<feColorMatrix type="matrix" values="0 0 0 0 0 0 0 0 0 0 0 0 0 0 0 0 0 0 0.25 0"/>
<feBlend mode="normal" in2="BackgroundImageFix" result="effect1_dropShadow_3_25"/>
<feBlend mode="normal" in="SourceGraphic" in2="effect1_dropShadow_3_25" result="shape"/>
</filter>
<filter id="filter8_d_3_25" x="28.4227" y="366" width="224" height="144" filterUnits="userSpaceOnUse" color-interpolation-filters="sRGB">
<feFlood flood-opacity="0" result="BackgroundImageFix"/>
<feColorMatrix in="SourceAlpha" type="matrix" values="0 0 0 0 0 0 0 0 0 0 0 0 0 0 0 0 0 0 127 0" result="hardAlpha"/>
<feOffset dy="4"/>
<feGaussianBlur stdDeviation="2"/>
<feComposite in2="hardAlpha" operator="out"/>
<feColorMatrix type="matrix" values="0 0 0 0 0 0 0 0 0 0 0 0 0 0 0 0 0 0 0.25 0"/>
<feBlend mode="normal" in2="BackgroundImageFix" result="effect1_dropShadow_3_25"/>
<feBlend mode="normal" in="SourceGraphic" in2="effect1_dropShadow_3_25" result="shape"/>
</filter>
<filter id="filter9_d_3_25" x="41.4227" y="374" width="197" height="127" filterUnits="userSpaceOnUse" color-interpolation-filters="sRGB">
<feFlood flood-opacity="0" result="BackgroundImageFix"/>
<feColorMatrix in="SourceAlpha" type="matrix" values="0 0 0 0 0 0 0 0 0 0 0 0 0 0 0 0 0 0 127 0" result="hardAlpha"/>
<feOffset dy="4"/>
<feGaussianBlur stdDeviation="2"/>
<feComposite in2="hardAlpha" operator="out"/>
<feColorMatrix type="matrix" values="0 0 0 0 0 0 0 0 0 0 0 0 0 0 0 0 0 0 0.25 0"/>
<feBlend mode="normal" in2="BackgroundImageFix" result="effect1_dropShadow_3_25"/>
<feBlend mode="normal" in="SourceGraphic" in2="effect1_dropShadow_3_25" result="shape"/>
</filter>
<filter id="filter10_d_3_25" x="41.9255" y="340.976" width="41.5314" height="42.4359" filterUnits="userSpaceOnUse" color-interpolation-filters="sRGB">
<feFlood flood-opacity="0" result="BackgroundImageFix"/>
<feColorMatrix in="SourceAlpha" type="matrix" values="0 0 0 0 0 0 0 0 0 0 0 0 0 0 0 0 0 0 127 0" result="hardAlpha"/>
<feOffset dy="4"/>
<feGaussianBlur stdDeviation="2"/>
<feComposite in2="hardAlpha" operator="out"/>
<feColorMatrix type="matrix" values="0 0 0 0 0 0 0 0 0 0 0 0 0 0 0 0 0 0 0.25 0"/>
<feBlend mode="normal" in2="BackgroundImageFix" result="effect1_dropShadow_3_25"/>
<feBlend mode="normal" in="SourceGraphic" in2="effect1_dropShadow_3_25" result="shape"/>
</filter>
<filter id="filter11_d_3_25" x="81.7793" y="350.337" width="28.4874" height="29.1574" filterUnits="userSpaceOnUse" color-interpolation-filters="sRGB">
<feFlood flood-opacity="0" result="BackgroundImageFix"/>
<feColorMatrix in="SourceAlpha" type="matrix" values="0 0 0 0 0 0 0 0 0 0 0 0 0 0 0 0 0 0 127 0" result="hardAlpha"/>
<feOffset dy="4"/>
<feGaussianBlur stdDeviation="2"/>
<feComposite in2="hardAlpha" operator="out"/>
<feColorMatrix type="matrix" values="0 0 0 0 0 0 0 0 0 0 0 0 0 0 0 0 0 0 0.25 0"/>
<feBlend mode="normal" in2="BackgroundImageFix" result="effect1_dropShadow_3_25"/>
<feBlend mode="normal" in="SourceGraphic" in2="effect1_dropShadow_3_25" result="shape"/>
</filter>
</defs>
</svg>
