<svg width="221" height="178" viewBox="0 0 221 178" fill="none" xmlns="http://www.w3.org/2000/svg">
<g filter="url(#filter0_d_658_417)">
<ellipse cx="96" cy="118.5" rx="82" ry="51.5" fill="#F3F7EC"/>
<path d="M53.5467 115.165C52.2414 115.165 51.2294 114.835 50.5107 114.175C49.792 113.508 49.4327 112.536 49.4327 111.26C49.4327 109.977 49.781 109.005 50.4777 108.345C51.1817 107.685 52.1827 107.355 53.4807 107.355C54.0454 107.355 54.555 107.414 55.0097 107.531C55.4644 107.641 55.8457 107.799 56.1537 108.004C56.2344 108.055 56.2747 108.121 56.2747 108.202C56.2747 108.253 56.249 108.33 56.1977 108.433L55.7247 109.236C55.6807 109.331 55.622 109.379 55.5487 109.379C55.5047 109.379 55.4314 109.353 55.3287 109.302C54.8887 109.06 54.3717 108.939 53.7777 108.939C53.0957 108.939 52.5677 109.137 52.1937 109.533C51.827 109.922 51.6437 110.497 51.6437 111.26C51.6437 112.023 51.8417 112.602 52.2377 112.998C52.6337 113.394 53.1727 113.592 53.8547 113.592C54.456 113.592 54.9877 113.471 55.4497 113.229C55.5524 113.178 55.6257 113.152 55.6697 113.152C55.7357 113.152 55.7944 113.196 55.8457 113.284L56.3407 114.131C56.3847 114.204 56.4067 114.27 56.4067 114.329C56.4067 114.395 56.3627 114.461 56.2747 114.527C55.6587 114.952 54.7494 115.165 53.5467 115.165ZM57.6905 115C57.4778 115 57.3275 114.956 57.2395 114.868C57.1588 114.78 57.1185 114.641 57.1185 114.45V108.081C57.1185 107.89 57.1625 107.751 57.2505 107.663C57.3385 107.568 57.4852 107.52 57.6905 107.52H58.7575C58.9702 107.52 59.1205 107.568 59.2085 107.663C59.2965 107.751 59.3405 107.89 59.3405 108.081V114.45C59.3405 114.641 59.2965 114.78 59.2085 114.868C59.1205 114.956 58.9702 115 58.7575 115H57.6905ZM61.0575 109.159C60.8081 109.159 60.6175 109.093 60.4855 108.961C60.3535 108.822 60.2875 108.66 60.2875 108.477V108.213C60.2875 108.022 60.3535 107.861 60.4855 107.729C60.6175 107.59 60.8081 107.52 61.0575 107.52H61.8495C62.1061 107.52 62.3005 107.59 62.4325 107.729C62.5645 107.861 62.6305 108.022 62.6305 108.213V108.477C62.6305 108.66 62.5645 108.822 62.4325 108.961C62.3005 109.093 62.1061 109.159 61.8495 109.159H61.0575ZM60.9255 115C60.7128 115 60.5625 114.956 60.4745 114.868C60.3865 114.78 60.3425 114.641 60.3425 114.45V110.281C60.3425 110.09 60.3865 109.951 60.4745 109.863C60.5625 109.768 60.7128 109.72 60.9255 109.72H61.9815C62.1941 109.72 62.3445 109.768 62.4325 109.863C62.5278 109.951 62.5755 110.09 62.5755 110.281V114.45C62.5755 114.641 62.5278 114.78 62.4325 114.868C62.3445 114.956 62.1941 115 61.9815 115H60.9255ZM66.5666 115.165C65.5399 115.165 64.7479 114.927 64.1906 114.45C63.6332 113.973 63.3546 113.28 63.3546 112.371C63.3546 111.814 63.4829 111.322 63.7396 110.897C63.9962 110.472 64.3666 110.142 64.8506 109.907C65.3419 109.672 65.9212 109.555 66.5886 109.555C67.0946 109.555 67.5199 109.603 67.8646 109.698C68.2166 109.793 68.5282 109.94 68.7996 110.138C68.8802 110.189 68.9206 110.255 68.9206 110.336C68.9206 110.395 68.8912 110.472 68.8326 110.567L68.3816 111.348C68.3302 111.451 68.2679 111.502 68.1946 111.502C68.1506 111.502 68.0809 111.473 67.9856 111.414C67.7876 111.289 67.6006 111.198 67.4246 111.139C67.2559 111.08 67.0432 111.051 66.7866 111.051C66.4199 111.051 66.1229 111.168 65.8956 111.403C65.6756 111.638 65.5656 111.96 65.5656 112.371C65.5656 112.789 65.6792 113.112 65.9066 113.339C66.1339 113.559 66.4456 113.669 66.8416 113.669C67.0762 113.669 67.2889 113.636 67.4796 113.57C67.6702 113.504 67.8646 113.412 68.0626 113.295C68.1652 113.236 68.2386 113.207 68.2826 113.207C68.3486 113.207 68.4072 113.258 68.4586 113.361L68.9536 114.208C68.9902 114.281 69.0086 114.34 69.0086 114.384C69.0086 114.45 68.9646 114.512 68.8766 114.571C68.5686 114.769 68.2312 114.916 67.8646 115.011C67.5052 115.114 67.0726 115.165 66.5666 115.165ZM75.7026 114.582C75.7539 114.641 75.7796 114.707 75.7796 114.78C75.7796 114.846 75.7576 114.901 75.7136 114.945C75.6696 114.982 75.6109 115 75.5376 115H73.8326C73.7299 115 73.6529 114.993 73.6016 114.978C73.5576 114.956 73.5099 114.916 73.4586 114.857L71.9626 112.822V114.45C71.9626 114.641 71.9186 114.78 71.8306 114.868C71.7426 114.956 71.5922 115 71.3796 115H70.3126C70.0999 115 69.9496 114.956 69.8616 114.868C69.7809 114.78 69.7406 114.641 69.7406 114.45V108.081C69.7406 107.89 69.7846 107.751 69.8726 107.663C69.9606 107.568 70.1072 107.52 70.3126 107.52H71.3796C71.5922 107.52 71.7426 107.568 71.8306 107.663C71.9186 107.751 71.9626 107.89 71.9626 108.081V111.766L73.4146 109.874C73.4586 109.815 73.5062 109.775 73.5576 109.753C73.6089 109.731 73.6859 109.72 73.7886 109.72H75.4936C75.5669 109.72 75.6219 109.742 75.6586 109.786C75.7026 109.823 75.7246 109.874 75.7246 109.94C75.7246 110.013 75.6989 110.079 75.6476 110.138L73.7666 112.294L75.7026 114.582ZM82.6522 115.165C81.9482 115.165 81.4092 114.974 81.0352 114.593C80.6612 114.204 80.4742 113.665 80.4742 112.976V111.238H80.0232C79.8178 111.238 79.6785 111.198 79.6052 111.117C79.5392 111.036 79.5062 110.897 79.5062 110.699V110.27C79.5062 110.072 79.5392 109.933 79.6052 109.852C79.6785 109.764 79.8178 109.72 80.0232 109.72H80.4742V109.445C80.4742 109.269 80.5145 109.093 80.5952 108.917C80.6758 108.734 80.7932 108.514 80.9472 108.257C81.0205 108.132 81.0865 108.052 81.1452 108.015C81.2112 107.978 81.3248 107.96 81.4862 107.96H82.1352C82.3405 107.96 82.4835 108.004 82.5642 108.092C82.6522 108.18 82.6962 108.319 82.6962 108.51V109.72H83.5762C83.7815 109.72 83.9172 109.764 83.9832 109.852C84.0565 109.933 84.0932 110.072 84.0932 110.27V110.699C84.0932 110.897 84.0565 111.036 83.9832 111.117C83.9172 111.198 83.7815 111.238 83.5762 111.238H82.6962V112.932C82.6962 113.159 82.7402 113.328 82.8282 113.438C82.9162 113.541 83.0592 113.592 83.2572 113.592C83.3818 113.592 83.4808 113.577 83.5542 113.548C83.6348 113.519 83.7302 113.467 83.8402 113.394C83.8988 113.357 83.9538 113.339 84.0052 113.339C84.0785 113.339 84.1408 113.383 84.1922 113.471L84.6542 114.263C84.7055 114.351 84.7312 114.421 84.7312 114.472C84.7312 114.538 84.6872 114.6 84.5992 114.659C84.3498 114.828 84.0675 114.952 83.7522 115.033C83.4442 115.121 83.0775 115.165 82.6522 115.165ZM85.8246 115C85.6119 115 85.4616 114.956 85.3736 114.868C85.2856 114.78 85.2416 114.641 85.2416 114.45V107.861C85.2416 107.729 85.2636 107.641 85.3076 107.597C85.3589 107.546 85.4616 107.52 85.6156 107.52H86.7926C86.9466 107.52 87.0456 107.546 87.0896 107.597C87.1409 107.641 87.1666 107.729 87.1666 107.861V110.171C87.3866 109.98 87.6506 109.83 87.9586 109.72C88.2739 109.61 88.6259 109.555 89.0146 109.555C89.6086 109.555 90.0889 109.724 90.4556 110.061C90.8222 110.391 91.0056 110.882 91.0056 111.535V114.45C91.0056 114.641 90.9616 114.78 90.8736 114.868C90.7929 114.956 90.6462 115 90.4336 115H89.3666C89.1539 115 88.9999 114.956 88.9046 114.868C88.8166 114.78 88.7726 114.641 88.7726 114.45V111.678C88.7726 111.458 88.7249 111.3 88.6296 111.205C88.5416 111.11 88.3986 111.062 88.2006 111.062C87.9806 111.062 87.8009 111.121 87.6616 111.238C87.5296 111.355 87.4636 111.517 87.4636 111.722V114.45C87.4636 114.641 87.4196 114.78 87.3316 114.868C87.2509 114.956 87.1042 115 86.8916 115H85.8246ZM94.8827 115.165C94.2667 115.165 93.7167 115.062 93.2327 114.857C92.756 114.652 92.3784 114.344 92.0997 113.933C91.821 113.522 91.6817 113.02 91.6817 112.426C91.6817 111.495 91.9457 110.783 92.4737 110.292C93.0017 109.801 93.7607 109.555 94.7507 109.555C95.7187 109.555 96.452 109.797 96.9507 110.281C97.4567 110.758 97.7097 111.421 97.7097 112.272C97.7097 112.639 97.5484 112.822 97.2257 112.822H93.7717C93.7717 113.137 93.889 113.379 94.1237 113.548C94.3657 113.717 94.7287 113.801 95.2127 113.801C95.5134 113.801 95.7627 113.775 95.9607 113.724C96.166 113.665 96.3714 113.581 96.5767 113.471C96.6647 113.434 96.7234 113.416 96.7527 113.416C96.8187 113.416 96.8737 113.46 96.9177 113.548L97.2917 114.252C97.3284 114.325 97.3467 114.38 97.3467 114.417C97.3467 114.483 97.3027 114.545 97.2147 114.604C96.914 114.802 96.573 114.945 96.1917 115.033C95.8104 115.121 95.374 115.165 94.8827 115.165ZM95.7297 111.733C95.7297 111.454 95.649 111.238 95.4877 111.084C95.3264 110.93 95.0844 110.853 94.7617 110.853C94.439 110.853 94.1934 110.934 94.0247 111.095C93.856 111.249 93.7717 111.462 93.7717 111.733H95.7297ZM102.647 115C102.434 115 102.284 114.956 102.196 114.868C102.108 114.78 102.064 114.641 102.064 114.45V107.861C102.064 107.729 102.086 107.641 102.13 107.597C102.181 107.546 102.284 107.52 102.438 107.52H103.615C103.769 107.52 103.868 107.546 103.912 107.597C103.963 107.641 103.989 107.729 103.989 107.861V110.171C104.209 109.98 104.473 109.83 104.781 109.72C105.096 109.61 105.448 109.555 105.837 109.555C106.431 109.555 106.911 109.724 107.278 110.061C107.644 110.391 107.828 110.882 107.828 111.535V114.45C107.828 114.641 107.784 114.78 107.696 114.868C107.615 114.956 107.468 115 107.256 115H106.189C105.976 115 105.822 114.956 105.727 114.868C105.639 114.78 105.595 114.641 105.595 114.45V111.678C105.595 111.458 105.547 111.3 105.452 111.205C105.364 111.11 105.221 111.062 105.023 111.062C104.803 111.062 104.623 111.121 104.484 111.238C104.352 111.355 104.286 111.517 104.286 111.722V114.45C104.286 114.641 104.242 114.78 104.154 114.868C104.073 114.956 103.926 115 103.714 115H102.647ZM111.705 115.165C111.089 115.165 110.539 115.062 110.055 114.857C109.578 114.652 109.201 114.344 108.922 113.933C108.643 113.522 108.504 113.02 108.504 112.426C108.504 111.495 108.768 110.783 109.296 110.292C109.824 109.801 110.583 109.555 111.573 109.555C112.541 109.555 113.274 109.797 113.773 110.281C114.279 110.758 114.532 111.421 114.532 112.272C114.532 112.639 114.371 112.822 114.048 112.822H110.594C110.594 113.137 110.711 113.379 110.946 113.548C111.188 113.717 111.551 113.801 112.035 113.801C112.336 113.801 112.585 113.775 112.783 113.724C112.988 113.665 113.194 113.581 113.399 113.471C113.487 113.434 113.546 113.416 113.575 113.416C113.641 113.416 113.696 113.46 113.74 113.548L114.114 114.252C114.151 114.325 114.169 114.38 114.169 114.417C114.169 114.483 114.125 114.545 114.037 114.604C113.736 114.802 113.395 114.945 113.014 115.033C112.633 115.121 112.196 115.165 111.705 115.165ZM112.552 111.733C112.552 111.454 112.471 111.238 112.31 111.084C112.149 110.93 111.907 110.853 111.584 110.853C111.261 110.853 111.016 110.934 110.847 111.095C110.678 111.249 110.594 111.462 110.594 111.733H112.552ZM115.838 115C115.626 115 115.475 114.956 115.387 114.868C115.299 114.78 115.255 114.641 115.255 114.45V110.061C115.255 109.929 115.277 109.841 115.321 109.797C115.373 109.746 115.475 109.72 115.629 109.72H116.762C116.85 109.72 116.916 109.735 116.96 109.764C117.012 109.786 117.041 109.83 117.048 109.896L117.103 110.215C117.543 109.775 118.075 109.555 118.698 109.555C118.94 109.555 119.138 109.577 119.292 109.621C119.446 109.658 119.586 109.72 119.71 109.808C119.784 109.859 119.82 109.918 119.82 109.984C119.82 110.006 119.813 110.046 119.798 110.105L119.446 111.106C119.417 111.209 119.362 111.26 119.281 111.26C119.245 111.26 119.201 111.245 119.149 111.216C118.951 111.106 118.713 111.051 118.434 111.051C118.156 111.051 117.925 111.128 117.741 111.282C117.565 111.436 117.477 111.641 117.477 111.898V114.45C117.477 114.641 117.433 114.78 117.345 114.868C117.265 114.956 117.118 115 116.905 115H115.838ZM123.307 115.165C122.691 115.165 122.141 115.062 121.657 114.857C121.18 114.652 120.802 114.344 120.524 113.933C120.245 113.522 120.106 113.02 120.106 112.426C120.106 111.495 120.37 110.783 120.898 110.292C121.426 109.801 122.185 109.555 123.175 109.555C124.143 109.555 124.876 109.797 125.375 110.281C125.881 110.758 126.134 111.421 126.134 112.272C126.134 112.639 125.972 112.822 125.65 112.822H122.196C122.196 113.137 122.313 113.379 122.548 113.548C122.79 113.717 123.153 113.801 123.637 113.801C123.937 113.801 124.187 113.775 124.385 113.724C124.59 113.665 124.795 113.581 125.001 113.471C125.089 113.434 125.147 113.416 125.177 113.416C125.243 113.416 125.298 113.46 125.342 113.548L125.716 114.252C125.752 114.325 125.771 114.38 125.771 114.417C125.771 114.483 125.727 114.545 125.639 114.604C125.338 114.802 124.997 114.945 124.616 115.033C124.234 115.121 123.798 115.165 123.307 115.165ZM124.154 111.733C124.154 111.454 124.073 111.238 123.912 111.084C123.75 110.93 123.508 110.853 123.186 110.853C122.863 110.853 122.617 110.934 122.449 111.095C122.28 111.249 122.196 111.462 122.196 111.733H124.154ZM133.216 115.165C132.512 115.165 131.973 114.974 131.599 114.593C131.225 114.204 131.038 113.665 131.038 112.976V111.238H130.587C130.381 111.238 130.242 111.198 130.169 111.117C130.103 111.036 130.07 110.897 130.07 110.699V110.27C130.07 110.072 130.103 109.933 130.169 109.852C130.242 109.764 130.381 109.72 130.587 109.72H131.038V109.445C131.038 109.269 131.078 109.093 131.159 108.917C131.239 108.734 131.357 108.514 131.511 108.257C131.584 108.132 131.65 108.052 131.709 108.015C131.775 107.978 131.888 107.96 132.05 107.96H132.699C132.904 107.96 133.047 108.004 133.128 108.092C133.216 108.18 133.26 108.319 133.26 108.51V109.72H134.14C134.345 109.72 134.481 109.764 134.547 109.852C134.62 109.933 134.657 110.072 134.657 110.27V110.699C134.657 110.897 134.62 111.036 134.547 111.117C134.481 111.198 134.345 111.238 134.14 111.238H133.26V112.932C133.26 113.159 133.304 113.328 133.392 113.438C133.48 113.541 133.623 113.592 133.821 113.592C133.945 113.592 134.044 113.577 134.118 113.548C134.198 113.519 134.294 113.467 134.404 113.394C134.462 113.357 134.517 113.339 134.569 113.339C134.642 113.339 134.704 113.383 134.756 113.471L135.218 114.263C135.269 114.351 135.295 114.421 135.295 114.472C135.295 114.538 135.251 114.6 135.163 114.659C134.913 114.828 134.631 114.952 134.316 115.033C134.008 115.121 133.641 115.165 133.216 115.165ZM138.377 115.165C137.373 115.165 136.592 114.916 136.034 114.417C135.477 113.911 135.198 113.225 135.198 112.36C135.198 111.495 135.477 110.813 136.034 110.314C136.592 109.808 137.373 109.555 138.377 109.555C139.382 109.555 140.163 109.808 140.72 110.314C141.285 110.813 141.567 111.495 141.567 112.36C141.567 113.225 141.285 113.911 140.72 114.417C140.163 114.916 139.382 115.165 138.377 115.165ZM138.377 113.592C139.023 113.592 139.345 113.181 139.345 112.36C139.345 111.553 139.023 111.15 138.377 111.15C137.732 111.15 137.409 111.553 137.409 112.36C137.409 112.771 137.494 113.079 137.662 113.284C137.831 113.489 138.069 113.592 138.377 113.592ZM46.159 130C45.9464 130 45.796 129.956 45.708 129.868C45.62 129.78 45.576 129.641 45.576 129.45V125.061C45.576 124.929 45.598 124.841 45.642 124.797C45.6934 124.746 45.796 124.72 45.95 124.72H46.995C47.083 124.72 47.149 124.735 47.193 124.764C47.2444 124.786 47.2737 124.83 47.281 124.896L47.336 125.237C47.5414 125.024 47.7724 124.859 48.029 124.742C48.2857 124.617 48.5864 124.555 48.931 124.555C49.239 124.555 49.503 124.61 49.723 124.72C49.943 124.83 50.13 124.999 50.284 125.226C50.482 125.013 50.7094 124.848 50.966 124.731C51.23 124.614 51.5454 124.555 51.912 124.555C52.4767 124.555 52.9167 124.72 53.232 125.05C53.5474 125.373 53.705 125.864 53.705 126.524V129.45C53.705 129.641 53.661 129.78 53.573 129.868C53.485 129.956 53.3347 130 53.122 130H52.231C52.0184 130 51.868 129.956 51.78 129.868C51.692 129.78 51.648 129.641 51.648 129.45V126.667C51.648 126.454 51.6077 126.3 51.527 126.205C51.4537 126.11 51.34 126.062 51.186 126.062C51.01 126.062 50.8707 126.121 50.768 126.238C50.6727 126.348 50.625 126.506 50.625 126.711V129.45C50.625 129.641 50.581 129.78 50.493 129.868C50.405 129.956 50.2547 130 50.042 130H49.239C49.0264 130 48.876 129.956 48.788 129.868C48.7 129.78 48.656 129.641 48.656 129.45V126.645C48.656 126.256 48.5057 126.062 48.205 126.062C48.0217 126.062 47.8787 126.121 47.776 126.238C47.6734 126.355 47.622 126.517 47.622 126.722V129.45C47.622 129.641 47.578 129.78 47.49 129.868C47.4094 129.956 47.2627 130 47.05 130H46.159ZM57.5805 130.165C56.9645 130.165 56.4145 130.062 55.9305 129.857C55.4538 129.652 55.0761 129.344 54.7975 128.933C54.5188 128.522 54.3795 128.02 54.3795 127.426C54.3795 126.495 54.6435 125.783 55.1715 125.292C55.6995 124.801 56.4585 124.555 57.4485 124.555C58.4165 124.555 59.1498 124.797 59.6485 125.281C60.1545 125.758 60.4075 126.421 60.4075 127.272C60.4075 127.639 60.2461 127.822 59.9235 127.822H56.4695C56.4695 128.137 56.5868 128.379 56.8215 128.548C57.0635 128.717 57.4265 128.801 57.9105 128.801C58.2111 128.801 58.4605 128.775 58.6585 128.724C58.8638 128.665 59.0691 128.581 59.2745 128.471C59.3625 128.434 59.4211 128.416 59.4505 128.416C59.5165 128.416 59.5715 128.46 59.6155 128.548L59.9895 129.252C60.0261 129.325 60.0445 129.38 60.0445 129.417C60.0445 129.483 60.0005 129.545 59.9125 129.604C59.6118 129.802 59.2708 129.945 58.8895 130.033C58.5081 130.121 58.0718 130.165 57.5805 130.165ZM58.4275 126.733C58.4275 126.454 58.3468 126.238 58.1855 126.084C58.0241 125.93 57.7821 125.853 57.4595 125.853C57.1368 125.853 56.8911 125.934 56.7225 126.095C56.5538 126.249 56.4695 126.462 56.4695 126.733H58.4275ZM64.1117 130.165C63.4957 130.165 62.9457 130.062 62.4617 129.857C61.985 129.652 61.6074 129.344 61.3287 128.933C61.05 128.522 60.9107 128.02 60.9107 127.426C60.9107 126.495 61.1747 125.783 61.7027 125.292C62.2307 124.801 62.9897 124.555 63.9797 124.555C64.9477 124.555 65.681 124.797 66.1797 125.281C66.6857 125.758 66.9387 126.421 66.9387 127.272C66.9387 127.639 66.7774 127.822 66.4547 127.822H63.0007C63.0007 128.137 63.118 128.379 63.3527 128.548C63.5947 128.717 63.9577 128.801 64.4417 128.801C64.7424 128.801 64.9917 128.775 65.1897 128.724C65.395 128.665 65.6004 128.581 65.8057 128.471C65.8937 128.434 65.9524 128.416 65.9817 128.416C66.0477 128.416 66.1027 128.46 66.1467 128.548L66.5207 129.252C66.5574 129.325 66.5757 129.38 66.5757 129.417C66.5757 129.483 66.5317 129.545 66.4437 129.604C66.143 129.802 65.802 129.945 65.4207 130.033C65.0394 130.121 64.603 130.165 64.1117 130.165ZM64.9587 126.733C64.9587 126.454 64.878 126.238 64.7167 126.084C64.5554 125.93 64.3134 125.853 63.9907 125.853C63.668 125.853 63.4224 125.934 63.2537 126.095C63.085 126.249 63.0007 126.462 63.0007 126.733H64.9587ZM70.39 130.165C69.686 130.165 69.147 129.974 68.773 129.593C68.399 129.204 68.212 128.665 68.212 127.976V126.238H67.761C67.5556 126.238 67.4163 126.198 67.343 126.117C67.277 126.036 67.244 125.897 67.244 125.699V125.27C67.244 125.072 67.277 124.933 67.343 124.852C67.4163 124.764 67.5556 124.72 67.761 124.72H68.212V124.445C68.212 124.269 68.2523 124.093 68.333 123.917C68.4136 123.734 68.531 123.514 68.685 123.257C68.7583 123.132 68.8243 123.052 68.883 123.015C68.949 122.978 69.0626 122.96 69.224 122.96H69.873C70.0783 122.96 70.2213 123.004 70.302 123.092C70.39 123.18 70.434 123.319 70.434 123.51V124.72H71.314C71.5193 124.72 71.655 124.764 71.721 124.852C71.7943 124.933 71.831 125.072 71.831 125.27V125.699C71.831 125.897 71.7943 126.036 71.721 126.117C71.655 126.198 71.5193 126.238 71.314 126.238H70.434V127.932C70.434 128.159 70.478 128.328 70.566 128.438C70.654 128.541 70.797 128.592 70.995 128.592C71.1196 128.592 71.2186 128.577 71.292 128.548C71.3726 128.519 71.468 128.467 71.578 128.394C71.6366 128.357 71.6916 128.339 71.743 128.339C71.8163 128.339 71.8786 128.383 71.93 128.471L72.392 129.263C72.4433 129.351 72.469 129.421 72.469 129.472C72.469 129.538 72.425 129.6 72.337 129.659C72.0876 129.828 71.8053 129.952 71.49 130.033C71.182 130.121 70.8153 130.165 70.39 130.165ZM78.1502 131.716C77.5342 131.716 77.0025 131.536 76.5552 131.177C76.4745 131.111 76.4342 131.049 76.4342 130.99C76.4342 130.946 76.4599 130.88 76.5112 130.792L76.9512 130.011C77.0025 129.916 77.0649 129.868 77.1382 129.868C77.1749 129.868 77.2445 129.894 77.3472 129.945C77.4719 130.018 77.5782 130.073 77.6662 130.11C77.7615 130.147 77.8752 130.165 78.0072 130.165C78.1685 130.165 78.2932 130.121 78.3812 130.033C78.4692 129.952 78.5425 129.824 78.6012 129.648L76.4672 125.138C76.4305 125.065 76.4122 124.995 76.4122 124.929C76.4122 124.863 76.4305 124.812 76.4672 124.775C76.5112 124.738 76.5699 124.72 76.6432 124.72H78.2602C78.4582 124.72 78.5902 124.812 78.6562 124.995L79.6022 127.503L80.5482 124.995C80.5849 124.9 80.6325 124.83 80.6912 124.786C80.7499 124.742 80.8342 124.72 80.9442 124.72H82.5612C82.7079 124.72 82.7812 124.79 82.7812 124.929C82.7812 124.98 82.7629 125.05 82.7262 125.138L80.6802 129.483C80.4235 130.026 80.1852 130.455 79.9652 130.77C79.7452 131.085 79.4885 131.32 79.1952 131.474C78.9092 131.635 78.5609 131.716 78.1502 131.716ZM86.2508 130.165C85.2462 130.165 84.4652 129.916 83.9078 129.417C83.3505 128.911 83.0718 128.225 83.0718 127.36C83.0718 126.495 83.3505 125.813 83.9078 125.314C84.4652 124.808 85.2462 124.555 86.2508 124.555C87.2555 124.555 88.0365 124.808 88.5938 125.314C89.1585 125.813 89.4408 126.495 89.4408 127.36C89.4408 128.225 89.1585 128.911 88.5938 129.417C88.0365 129.916 87.2555 130.165 86.2508 130.165ZM86.2508 128.592C86.8962 128.592 87.2188 128.181 87.2188 127.36C87.2188 126.553 86.8962 126.15 86.2508 126.15C85.6055 126.15 85.2828 126.553 85.2828 127.36C85.2828 127.771 85.3672 128.079 85.5358 128.284C85.7045 128.489 85.9428 128.592 86.2508 128.592ZM92.1358 130.165C91.4978 130.165 90.9992 130 90.6398 129.67C90.2878 129.333 90.1118 128.819 90.1118 128.13V125.281C90.1118 125.09 90.1558 124.951 90.2438 124.863C90.3318 124.768 90.4785 124.72 90.6838 124.72H91.7508C91.9635 124.72 92.1138 124.768 92.2018 124.863C92.2898 124.951 92.3338 125.09 92.3338 125.281V128.042C92.3338 128.46 92.5355 128.669 92.9388 128.669C93.1588 128.669 93.3275 128.61 93.4448 128.493C93.5622 128.376 93.6208 128.211 93.6208 127.998V125.281C93.6208 125.09 93.6648 124.951 93.7528 124.863C93.8408 124.768 93.9912 124.72 94.2038 124.72H95.2708C95.4835 124.72 95.6338 124.768 95.7218 124.863C95.8098 124.951 95.8538 125.09 95.8538 125.281V129.659C95.8538 129.798 95.8282 129.89 95.7768 129.934C95.7328 129.978 95.6338 130 95.4798 130H94.3468C94.2588 130 94.1892 129.989 94.1378 129.967C94.0938 129.945 94.0682 129.901 94.0608 129.835L94.0058 129.494C93.7932 129.699 93.5292 129.864 93.2138 129.989C92.8985 130.106 92.5392 130.165 92.1358 130.165ZM99.7758 130.165C99.1598 130.165 98.6098 130.062 98.1258 129.857C97.6491 129.652 97.2714 129.344 96.9928 128.933C96.7141 128.522 96.5748 128.02 96.5748 127.426C96.5748 126.495 96.8388 125.783 97.3668 125.292C97.8948 124.801 98.6538 124.555 99.6438 124.555C100.612 124.555 101.345 124.797 101.844 125.281C102.35 125.758 102.603 126.421 102.603 127.272C102.603 127.639 102.441 127.822 102.119 127.822H98.6648C98.6648 128.137 98.7821 128.379 99.0168 128.548C99.2588 128.717 99.6218 128.801 100.106 128.801C100.406 128.801 100.656 128.775 100.854 128.724C101.059 128.665 101.264 128.581 101.47 128.471C101.558 128.434 101.616 128.416 101.646 128.416C101.712 128.416 101.767 128.46 101.811 128.548L102.185 129.252C102.221 129.325 102.24 129.38 102.24 129.417C102.24 129.483 102.196 129.545 102.108 129.604C101.807 129.802 101.466 129.945 101.085 130.033C100.703 130.121 100.267 130.165 99.7758 130.165ZM100.623 126.733C100.623 126.454 100.542 126.238 100.381 126.084C100.219 125.93 99.9774 125.853 99.6548 125.853C99.3321 125.853 99.0864 125.934 98.9178 126.095C98.7491 126.249 98.6648 126.462 98.6648 126.733H100.623ZM109.817 130.165C109.26 130.165 108.724 130.092 108.211 129.945C107.698 129.798 107.28 129.611 106.957 129.384V123.081C106.957 122.89 107.001 122.751 107.089 122.663C107.177 122.568 107.324 122.52 107.529 122.52H108.552C108.765 122.52 108.915 122.568 109.003 122.663C109.091 122.751 109.135 122.89 109.135 123.081V124.863C109.267 124.775 109.454 124.702 109.696 124.643C109.938 124.584 110.173 124.555 110.4 124.555C111.273 124.555 111.936 124.782 112.391 125.237C112.853 125.692 113.084 126.33 113.084 127.151C113.084 128.104 112.805 128.845 112.248 129.373C111.691 129.901 110.88 130.165 109.817 130.165ZM109.707 128.669C110.477 128.669 110.862 128.167 110.862 127.162C110.862 126.781 110.792 126.502 110.653 126.326C110.521 126.143 110.297 126.051 109.982 126.051C109.74 126.051 109.535 126.117 109.366 126.249C109.205 126.381 109.124 126.568 109.124 126.81V128.548C109.271 128.629 109.465 128.669 109.707 128.669ZM115.5 130.165C114.862 130.165 114.363 130 114.004 129.67C113.652 129.333 113.476 128.819 113.476 128.13V125.281C113.476 125.09 113.52 124.951 113.608 124.863C113.696 124.768 113.843 124.72 114.048 124.72H115.115C115.328 124.72 115.478 124.768 115.566 124.863C115.654 124.951 115.698 125.09 115.698 125.281V128.042C115.698 128.46 115.9 128.669 116.303 128.669C116.523 128.669 116.692 128.61 116.809 128.493C116.926 128.376 116.985 128.211 116.985 127.998V125.281C116.985 125.09 117.029 124.951 117.117 124.863C117.205 124.768 117.355 124.72 117.568 124.72H118.635C118.848 124.72 118.998 124.768 119.086 124.863C119.174 124.951 119.218 125.09 119.218 125.281V129.659C119.218 129.798 119.192 129.89 119.141 129.934C119.097 129.978 118.998 130 118.844 130H117.711C117.623 130 117.553 129.989 117.502 129.967C117.458 129.945 117.432 129.901 117.425 129.835L117.37 129.494C117.157 129.699 116.893 129.864 116.578 129.989C116.263 130.106 115.903 130.165 115.5 130.165ZM123.228 130.165C122.135 130.165 121.314 129.927 120.764 129.45C120.214 128.973 119.939 128.266 119.939 127.327C119.939 126.484 120.174 125.813 120.643 125.314C121.112 124.808 121.776 124.555 122.634 124.555C122.876 124.555 123.111 124.584 123.338 124.643C123.565 124.694 123.745 124.764 123.877 124.852V123.081C123.877 122.89 123.921 122.751 124.009 122.663C124.097 122.568 124.247 122.52 124.46 122.52H125.483C125.696 122.52 125.846 122.568 125.934 122.663C126.022 122.751 126.066 122.89 126.066 123.081V129.384C125.751 129.611 125.34 129.798 124.834 129.945C124.328 130.092 123.793 130.165 123.228 130.165ZM123.294 128.669C123.543 128.669 123.741 128.629 123.888 128.548V126.777C123.888 126.293 123.628 126.051 123.107 126.051C122.784 126.051 122.542 126.168 122.381 126.403C122.227 126.63 122.15 126.942 122.15 127.338C122.15 127.815 122.245 128.156 122.436 128.361C122.627 128.566 122.913 128.669 123.294 128.669ZM129.92 130.165C128.828 130.165 128.006 129.927 127.456 129.45C126.906 128.973 126.631 128.266 126.631 127.327C126.631 126.484 126.866 125.813 127.335 125.314C127.805 124.808 128.468 124.555 129.326 124.555C129.568 124.555 129.803 124.584 130.03 124.643C130.258 124.694 130.437 124.764 130.569 124.852V123.081C130.569 122.89 130.613 122.751 130.701 122.663C130.789 122.568 130.94 122.52 131.152 122.52H132.175C132.388 122.52 132.538 122.568 132.626 122.663C132.714 122.751 132.758 122.89 132.758 123.081V129.384C132.443 129.611 132.032 129.798 131.526 129.945C131.02 130.092 130.485 130.165 129.92 130.165ZM129.986 128.669C130.236 128.669 130.434 128.629 130.58 128.548V126.777C130.58 126.293 130.32 126.051 129.799 126.051C129.477 126.051 129.235 126.168 129.073 126.403C128.919 126.63 128.842 126.942 128.842 127.338C128.842 127.815 128.938 128.156 129.128 128.361C129.319 128.566 129.605 128.669 129.986 128.669ZM134.751 131.716C134.135 131.716 133.603 131.536 133.156 131.177C133.075 131.111 133.035 131.049 133.035 130.99C133.035 130.946 133.06 130.88 133.112 130.792L133.552 130.011C133.603 129.916 133.665 129.868 133.739 129.868C133.775 129.868 133.845 129.894 133.948 129.945C134.072 130.018 134.179 130.073 134.267 130.11C134.362 130.147 134.476 130.165 134.608 130.165C134.769 130.165 134.894 130.121 134.982 130.033C135.07 129.952 135.143 129.824 135.202 129.648L133.068 125.138C133.031 125.065 133.013 124.995 133.013 124.929C133.013 124.863 133.031 124.812 133.068 124.775C133.112 124.738 133.17 124.72 133.244 124.72H134.861C135.059 124.72 135.191 124.812 135.257 124.995L136.203 127.503L137.149 124.995C137.185 124.9 137.233 124.83 137.292 124.786C137.35 124.742 137.435 124.72 137.545 124.72H139.162C139.308 124.72 139.382 124.79 139.382 124.929C139.382 124.98 139.363 125.05 139.327 125.138L137.281 129.483C137.024 130.026 136.786 130.455 136.566 130.77C136.346 131.085 136.089 131.32 135.796 131.474C135.51 131.635 135.161 131.716 134.751 131.716ZM144.029 128.042C143.817 128.042 143.663 127.998 143.567 127.91C143.479 127.822 143.435 127.683 143.435 127.492L143.369 123.081C143.369 122.89 143.413 122.751 143.501 122.663C143.589 122.568 143.736 122.52 143.941 122.52H145.019C145.232 122.52 145.382 122.568 145.47 122.663C145.558 122.751 145.602 122.89 145.602 123.081L145.525 127.492C145.525 127.675 145.478 127.815 145.382 127.91C145.287 127.998 145.133 128.042 144.92 128.042H144.029ZM144.139 130C143.853 130 143.641 129.956 143.501 129.868C143.369 129.78 143.303 129.641 143.303 129.45V129.186C143.303 128.995 143.369 128.856 143.501 128.768C143.641 128.68 143.853 128.636 144.139 128.636H144.799C145.364 128.636 145.646 128.819 145.646 129.186V129.45C145.646 129.817 145.364 130 144.799 130H144.139Z" fill="#4A249D"/>
<path d="M137.388 18.1553C139.533 14.9037 144.587 16.3227 144.725 20.2151L146.968 83.2758C147.064 85.9833 144.497 88.0014 141.889 87.2691L104.91 76.887C102.301 76.1547 101.16 73.0957 102.652 70.8339L137.388 18.1553Z" fill="#F3F7EC"/>
</g>
<defs>
<filter id="filter0_d_658_417" x="10" y="16.3511" width="172" height="161.649" filterUnits="userSpaceOnUse" color-interpolation-filters="sRGB">
<feFlood flood-opacity="0" result="BackgroundImageFix"/>
<feColorMatrix in="SourceAlpha" type="matrix" values="0 0 0 0 0 0 0 0 0 0 0 0 0 0 0 0 0 0 127 0" result="hardAlpha"/>
<feOffset dy="4"/>
<feGaussianBlur stdDeviation="2"/>
<feComposite in2="hardAlpha" operator="out"/>
<feColorMatrix type="matrix" values="0 0 0 0 0 0 0 0 0 0 0 0 0 0 0 0 0 0 0.25 0"/>
<feBlend mode="normal" in2="BackgroundImageFix" result="effect1_dropShadow_658_417"/>
<feBlend mode="normal" in="SourceGraphic" in2="effect1_dropShadow_658_417" result="shape"/>
</filter>
</defs>
</svg>
