<svg width="521" height="123" viewBox="0 0 521 123" fill="none" xmlns="http://www.w3.org/2000/svg">
<g filter="url(#filter0_d_2_7)">
<mask id="path-1-outside-1_2_7" maskUnits="userSpaceOnUse" x="71.6024" y="40.7771" width="378" height="51" fill="black">
<rect fill="white" x="71.6024" y="40.7771" width="378" height="51"/>
<path d="M91.4292 78.7771C90.5012 78.7771 89.8452 78.5851 89.4612 78.2011C89.0772 77.8171 88.8852 77.2091 88.8852 76.3771V67.4971L77.5092 47.9611C77.3172 47.6731 77.2212 47.3851 77.2212 47.0971C77.2212 46.8091 77.3012 46.5851 77.4612 46.4251C77.6532 46.2331 77.9252 46.1371 78.2772 46.1371H85.6692C86.1172 46.1371 86.4532 46.2331 86.6772 46.4251C86.9012 46.5851 87.1252 46.8731 87.3492 47.2891L93.7812 58.6171L100.165 47.2891C100.389 46.8731 100.613 46.5851 100.837 46.4251C101.061 46.2331 101.397 46.1371 101.845 46.1371H109.285C109.957 46.1371 110.293 46.4571 110.293 47.0971C110.293 47.3531 110.213 47.6411 110.053 47.9611L98.6292 67.5451V76.3771C98.6292 77.2091 98.4372 77.8171 98.0532 78.2011C97.6692 78.5851 97.0132 78.7771 96.0852 78.7771H91.4292ZM118.984 79.4971C114.6 79.4971 111.192 78.4091 108.76 76.2331C106.328 74.0251 105.112 71.0331 105.112 67.2571C105.112 63.4811 106.328 60.5051 108.76 58.3291C111.192 56.1211 114.6 55.0171 118.984 55.0171C123.368 55.0171 126.776 56.1211 129.208 58.3291C131.672 60.5051 132.904 63.4811 132.904 67.2571C132.904 71.0331 131.672 74.0251 129.208 76.2331C126.776 78.4091 123.368 79.4971 118.984 79.4971ZM118.984 72.6331C121.8 72.6331 123.208 70.8411 123.208 67.2571C123.208 63.7371 121.8 61.9771 118.984 61.9771C116.168 61.9771 114.76 63.7371 114.76 67.2571C114.76 69.0491 115.128 70.3931 115.864 71.2891C116.6 72.1851 117.64 72.6331 118.984 72.6331ZM144.664 79.4971C141.88 79.4971 139.704 78.7771 138.136 77.3371C136.6 75.8651 135.832 73.6251 135.832 70.6171V58.1851C135.832 57.3531 136.024 56.7451 136.408 56.3611C136.792 55.9451 137.432 55.7371 138.328 55.7371H142.984C143.912 55.7371 144.568 55.9451 144.952 56.3611C145.336 56.7451 145.528 57.3531 145.528 58.1851V70.2331C145.528 72.0571 146.408 72.9691 148.168 72.9691C149.128 72.9691 149.864 72.7131 150.376 72.2011C150.888 71.6891 151.144 70.9691 151.144 70.0411V58.1851C151.144 57.3531 151.336 56.7451 151.72 56.3611C152.104 55.9451 152.76 55.7371 153.688 55.7371H158.344C159.272 55.7371 159.928 55.9451 160.312 56.3611C160.696 56.7451 160.888 57.3531 160.888 58.1851V77.2891C160.888 77.8971 160.776 78.2971 160.552 78.4891C160.36 78.6811 159.928 78.7771 159.256 78.7771H154.312C153.928 78.7771 153.624 78.7291 153.4 78.6331C153.208 78.5371 153.096 78.3451 153.064 78.0571L152.824 76.5691C151.896 77.4651 150.744 78.1851 149.368 78.7291C147.992 79.2411 146.424 79.4971 144.664 79.4971ZM167.538 78.7771C166.61 78.7771 165.954 78.5851 165.57 78.2011C165.186 77.8171 164.994 77.2091 164.994 76.3771V57.2251C164.994 56.6491 165.09 56.2651 165.282 56.0731C165.506 55.8491 165.954 55.7371 166.626 55.7371H171.57C171.954 55.7371 172.242 55.8011 172.434 55.9291C172.658 56.0251 172.786 56.2171 172.818 56.5051L173.058 57.8971C174.978 55.9771 177.298 55.0171 180.018 55.0171C181.074 55.0171 181.938 55.1131 182.61 55.3051C183.282 55.4651 183.89 55.7371 184.434 56.1211C184.754 56.3451 184.914 56.6011 184.914 56.8891C184.914 56.9851 184.882 57.1611 184.818 57.4171L183.282 61.7851C183.154 62.2331 182.914 62.4571 182.562 62.4571C182.402 62.4571 182.21 62.3931 181.986 62.2651C181.122 61.7851 180.082 61.5451 178.866 61.5451C177.65 61.5451 176.642 61.8811 175.842 62.5531C175.074 63.2251 174.69 64.1211 174.69 65.2411V76.3771C174.69 77.2091 174.498 77.8171 174.114 78.2011C173.762 78.5851 173.122 78.7771 172.194 78.7771H167.538ZM205.458 78.7771C204.53 78.7771 203.874 78.5851 203.49 78.2011C203.138 77.8171 202.962 77.2091 202.962 76.3771V48.5851C202.962 47.7531 203.154 47.1451 203.538 46.7611C203.922 46.3451 204.562 46.1371 205.458 46.1371H219.762C223.506 46.1371 226.274 46.9691 228.066 48.6331C229.858 50.2651 230.754 52.5531 230.754 55.4971C230.754 56.9371 230.386 58.2491 229.65 59.4331C228.946 60.5851 228.018 61.4011 226.866 61.8811C230.034 62.9051 231.618 65.2251 231.618 68.8411C231.618 71.7531 230.594 74.1371 228.546 75.9931C226.53 77.8491 223.554 78.7771 219.618 78.7771H205.458ZM217.938 58.9051C218.93 58.9051 219.698 58.6651 220.242 58.1851C220.786 57.6731 221.058 56.9371 221.058 55.9771C221.058 54.9531 220.802 54.2171 220.29 53.7691C219.778 53.3211 218.994 53.0971 217.938 53.0971H212.658V58.9051H217.938ZM218.754 71.8171C219.778 71.8171 220.562 71.5291 221.106 70.9531C221.682 70.3451 221.97 69.5611 221.97 68.6011C221.97 67.5131 221.666 66.6971 221.058 66.1531C220.45 65.6091 219.618 65.3371 218.562 65.3371H212.658V71.8171H218.754ZM243.383 79.4971C240.599 79.4971 238.423 78.7771 236.855 77.3371C235.319 75.8651 234.551 73.6251 234.551 70.6171V58.1851C234.551 57.3531 234.743 56.7451 235.127 56.3611C235.511 55.9451 236.151 55.7371 237.047 55.7371H241.703C242.631 55.7371 243.287 55.9451 243.671 56.3611C244.055 56.7451 244.247 57.3531 244.247 58.1851V70.2331C244.247 72.0571 245.127 72.9691 246.887 72.9691C247.847 72.9691 248.583 72.7131 249.095 72.2011C249.607 71.6891 249.863 70.9691 249.863 70.0411V58.1851C249.863 57.3531 250.055 56.7451 250.439 56.3611C250.823 55.9451 251.479 55.7371 252.407 55.7371H257.063C257.991 55.7371 258.647 55.9451 259.031 56.3611C259.415 56.7451 259.607 57.3531 259.607 58.1851V77.2891C259.607 77.8971 259.495 78.2971 259.271 78.4891C259.079 78.6811 258.647 78.7771 257.975 78.7771H253.031C252.647 78.7771 252.343 78.7291 252.119 78.6331C251.927 78.5371 251.815 78.3451 251.783 78.0571L251.543 76.5691C250.615 77.4651 249.463 78.1851 248.087 78.7291C246.711 79.2411 245.143 79.4971 243.383 79.4971ZM277.104 79.4971C272.336 79.4971 268.752 78.4571 266.352 76.3771C263.952 74.2971 262.752 71.2091 262.752 67.1131C262.752 63.4331 263.776 60.5051 265.824 58.3291C267.872 56.1211 270.768 55.0171 274.512 55.0171C275.568 55.0171 276.592 55.1451 277.584 55.4011C278.576 55.6251 279.36 55.9291 279.936 56.3131V48.5851C279.936 47.7531 280.128 47.1451 280.512 46.7611C280.896 46.3451 281.552 46.1371 282.48 46.1371H286.944C287.872 46.1371 288.528 46.3451 288.912 46.7611C289.296 47.1451 289.488 47.7531 289.488 48.5851V76.0891C288.112 77.0811 286.32 77.8971 284.112 78.5371C281.904 79.1771 279.568 79.4971 277.104 79.4971ZM277.392 72.9691C278.48 72.9691 279.344 72.7931 279.984 72.4411V64.7131C279.984 62.6011 278.848 61.5451 276.576 61.5451C275.168 61.5451 274.112 62.0571 273.408 63.0811C272.736 64.0731 272.4 65.4331 272.4 67.1611C272.4 69.2411 272.816 70.7291 273.648 71.6251C274.48 72.5211 275.728 72.9691 277.392 72.9691ZM306.308 79.4971C301.54 79.4971 297.956 78.4571 295.556 76.3771C293.156 74.2971 291.956 71.2091 291.956 67.1131C291.956 63.4331 292.98 60.5051 295.028 58.3291C297.076 56.1211 299.972 55.0171 303.716 55.0171C304.772 55.0171 305.796 55.1451 306.788 55.4011C307.78 55.6251 308.564 55.9291 309.14 56.3131V48.5851C309.14 47.7531 309.332 47.1451 309.716 46.7611C310.1 46.3451 310.756 46.1371 311.684 46.1371H316.148C317.076 46.1371 317.732 46.3451 318.116 46.7611C318.5 47.1451 318.692 47.7531 318.692 48.5851V76.0891C317.316 77.0811 315.524 77.8971 313.316 78.5371C311.108 79.1771 308.772 79.4971 306.308 79.4971ZM306.596 72.9691C307.684 72.9691 308.548 72.7931 309.188 72.4411V64.7131C309.188 62.6011 308.052 61.5451 305.78 61.5451C304.372 61.5451 303.316 62.0571 302.612 63.0811C301.94 64.0731 301.604 65.4331 301.604 67.1611C301.604 69.2411 302.02 70.7291 302.852 71.6251C303.684 72.5211 304.932 72.9691 306.596 72.9691ZM327.386 86.2651C324.698 86.2651 322.378 85.4811 320.426 83.9131C320.074 83.6251 319.898 83.3531 319.898 83.0971C319.898 82.9051 320.01 82.6171 320.234 82.2331L322.154 78.8251C322.378 78.4091 322.65 78.2011 322.97 78.2011C323.13 78.2011 323.434 78.3131 323.882 78.5371C324.426 78.8571 324.89 79.0971 325.274 79.2571C325.69 79.4171 326.186 79.4971 326.762 79.4971C327.466 79.4971 328.01 79.3051 328.394 78.9211C328.778 78.5691 329.098 78.0091 329.354 77.2411L320.042 57.5611C319.882 57.2411 319.802 56.9371 319.802 56.6491C319.802 56.3611 319.882 56.1371 320.042 55.9771C320.234 55.8171 320.49 55.7371 320.81 55.7371H327.866C328.73 55.7371 329.306 56.1371 329.594 56.9371L333.722 67.8811L337.85 56.9371C338.01 56.5211 338.218 56.2171 338.474 56.0251C338.73 55.8331 339.098 55.7371 339.578 55.7371H346.634C347.274 55.7371 347.594 56.0411 347.594 56.6491C347.594 56.8731 347.514 57.1771 347.354 57.5611L338.426 76.5211C337.306 78.8891 336.266 80.7611 335.306 82.1371C334.346 83.5131 333.226 84.5371 331.946 85.2091C330.698 85.9131 329.178 86.2651 327.386 86.2651ZM369.026 53.2891C367.938 53.2891 367.106 53.0011 366.53 52.4251C365.954 51.8171 365.666 51.1131 365.666 50.3131V49.1611C365.666 48.3291 365.954 47.6251 366.53 47.0491C367.106 46.4411 367.938 46.1371 369.026 46.1371H372.482C373.602 46.1371 374.45 46.4411 375.026 47.0491C375.602 47.6251 375.89 48.3291 375.89 49.1611V50.3131C375.89 51.1131 375.602 51.8171 375.026 52.4251C374.45 53.0011 373.602 53.2891 372.482 53.2891H369.026ZM368.45 78.7771C367.522 78.7771 366.866 78.5851 366.482 78.2011C366.098 77.8171 365.906 77.2091 365.906 76.3771V58.1851C365.906 57.3531 366.098 56.7451 366.482 56.3611C366.866 55.9451 367.522 55.7371 368.45 55.7371H373.058C373.986 55.7371 374.642 55.9451 375.026 56.3611C375.442 56.7451 375.65 57.3531 375.65 58.1851V76.3771C375.65 77.2091 375.442 77.8171 375.026 78.2011C374.642 78.5851 373.986 78.7771 373.058 78.7771H368.45ZM391.145 79.4971C386.633 79.4971 382.905 78.6651 379.961 77.0011C379.353 76.6171 379.049 76.2811 379.049 75.9931C379.049 75.8331 379.129 75.5931 379.289 75.2731L381.305 71.6731C381.497 71.2891 381.737 71.0971 382.025 71.0971C382.217 71.0971 382.489 71.1931 382.841 71.3851C383.737 71.8651 384.873 72.3131 386.249 72.7291C387.657 73.1131 388.905 73.3051 389.993 73.3051C391.017 73.3051 391.753 73.2091 392.201 73.0171C392.649 72.7931 392.873 72.4411 392.873 71.9611C392.873 71.5131 392.553 71.1451 391.913 70.8571C391.305 70.5371 390.185 70.1371 388.553 69.6571L387.497 69.3691C384.841 68.5691 382.921 67.6571 381.737 66.6331C380.553 65.6091 379.961 64.1531 379.961 62.2651C379.961 59.9291 380.969 58.1371 382.985 56.8891C385.001 55.6411 387.705 55.0171 391.097 55.0171C393.209 55.0171 395.049 55.2091 396.617 55.5931C398.185 55.9771 399.689 56.5531 401.129 57.3211C401.705 57.6411 401.993 57.9931 401.993 58.3771C401.993 58.6011 401.897 58.8891 401.705 59.2411L399.737 62.3611C399.513 62.7131 399.289 62.8891 399.065 62.8891C398.873 62.8891 398.617 62.7931 398.297 62.6011C397.529 62.1851 396.633 61.8491 395.609 61.5931C394.585 61.3371 393.593 61.2091 392.633 61.2091C390.425 61.2091 389.321 61.6891 389.321 62.6491C389.321 63.0971 389.673 63.4811 390.377 63.8011C391.113 64.0891 392.233 64.4091 393.737 64.7611C394.089 64.8571 394.569 64.9851 395.177 65.1451C395.817 65.3051 396.345 65.4651 396.761 65.6251C398.297 66.1691 399.481 66.7291 400.313 67.3051C401.145 67.8491 401.737 68.5051 402.089 69.2731C402.441 70.0091 402.617 70.9531 402.617 72.1051C402.617 73.4811 402.201 74.7291 401.369 75.8491C400.537 76.9371 399.257 77.8171 397.529 78.4891C395.801 79.1611 393.673 79.4971 391.145 79.4971ZM423.218 78.7771C422.482 78.7771 421.874 78.5211 421.394 78.0091C420.914 77.4651 420.674 76.8251 420.674 76.0891V75.0331C420.674 74.2651 420.898 73.6251 421.346 73.1131C421.826 72.5691 422.45 72.2971 423.218 72.2971H424.37C425.106 72.2971 425.714 72.5691 426.194 73.1131C426.674 73.6251 426.914 74.2651 426.914 75.0331V76.0891C426.914 76.8251 426.674 77.4651 426.194 78.0091C425.714 78.5211 425.106 78.7771 424.37 78.7771H423.218ZM431.656 78.7771C430.92 78.7771 430.312 78.5211 429.832 78.0091C429.352 77.4651 429.112 76.8251 429.112 76.0891V75.0331C429.112 74.2651 429.336 73.6251 429.784 73.1131C430.264 72.5691 430.888 72.2971 431.656 72.2971H432.808C433.544 72.2971 434.152 72.5691 434.632 73.1131C435.112 73.6251 435.352 74.2651 435.352 75.0331V76.0891C435.352 76.8251 435.112 77.4651 434.632 78.0091C434.152 78.5211 433.544 78.7771 432.808 78.7771H431.656ZM440.093 78.7771C439.357 78.7771 438.749 78.5211 438.269 78.0091C437.789 77.4651 437.549 76.8251 437.549 76.0891V75.0331C437.549 74.2651 437.773 73.6251 438.221 73.1131C438.701 72.5691 439.325 72.2971 440.093 72.2971H441.245C441.981 72.2971 442.589 72.5691 443.069 73.1131C443.549 73.6251 443.789 74.2651 443.789 75.0331V76.0891C443.789 76.8251 443.549 77.4651 443.069 78.0091C442.589 78.5211 441.981 78.7771 441.245 78.7771H440.093Z"/>
</mask>
<path d="M91.4292 78.7771C90.5012 78.7771 89.8452 78.5851 89.4612 78.2011C89.0772 77.8171 88.8852 77.2091 88.8852 76.3771V67.4971L77.5092 47.9611C77.3172 47.6731 77.2212 47.3851 77.2212 47.0971C77.2212 46.8091 77.3012 46.5851 77.4612 46.4251C77.6532 46.2331 77.9252 46.1371 78.2772 46.1371H85.6692C86.1172 46.1371 86.4532 46.2331 86.6772 46.4251C86.9012 46.5851 87.1252 46.8731 87.3492 47.2891L93.7812 58.6171L100.165 47.2891C100.389 46.8731 100.613 46.5851 100.837 46.4251C101.061 46.2331 101.397 46.1371 101.845 46.1371H109.285C109.957 46.1371 110.293 46.4571 110.293 47.0971C110.293 47.3531 110.213 47.6411 110.053 47.9611L98.6292 67.5451V76.3771C98.6292 77.2091 98.4372 77.8171 98.0532 78.2011C97.6692 78.5851 97.0132 78.7771 96.0852 78.7771H91.4292ZM118.984 79.4971C114.6 79.4971 111.192 78.4091 108.76 76.2331C106.328 74.0251 105.112 71.0331 105.112 67.2571C105.112 63.4811 106.328 60.5051 108.76 58.3291C111.192 56.1211 114.6 55.0171 118.984 55.0171C123.368 55.0171 126.776 56.1211 129.208 58.3291C131.672 60.5051 132.904 63.4811 132.904 67.2571C132.904 71.0331 131.672 74.0251 129.208 76.2331C126.776 78.4091 123.368 79.4971 118.984 79.4971ZM118.984 72.6331C121.8 72.6331 123.208 70.8411 123.208 67.2571C123.208 63.7371 121.8 61.9771 118.984 61.9771C116.168 61.9771 114.76 63.7371 114.76 67.2571C114.76 69.0491 115.128 70.3931 115.864 71.2891C116.6 72.1851 117.64 72.6331 118.984 72.6331ZM144.664 79.4971C141.88 79.4971 139.704 78.7771 138.136 77.3371C136.6 75.8651 135.832 73.6251 135.832 70.6171V58.1851C135.832 57.3531 136.024 56.7451 136.408 56.3611C136.792 55.9451 137.432 55.7371 138.328 55.7371H142.984C143.912 55.7371 144.568 55.9451 144.952 56.3611C145.336 56.7451 145.528 57.3531 145.528 58.1851V70.2331C145.528 72.0571 146.408 72.9691 148.168 72.9691C149.128 72.9691 149.864 72.7131 150.376 72.2011C150.888 71.6891 151.144 70.9691 151.144 70.0411V58.1851C151.144 57.3531 151.336 56.7451 151.72 56.3611C152.104 55.9451 152.76 55.7371 153.688 55.7371H158.344C159.272 55.7371 159.928 55.9451 160.312 56.3611C160.696 56.7451 160.888 57.3531 160.888 58.1851V77.2891C160.888 77.8971 160.776 78.2971 160.552 78.4891C160.36 78.6811 159.928 78.7771 159.256 78.7771H154.312C153.928 78.7771 153.624 78.7291 153.4 78.6331C153.208 78.5371 153.096 78.3451 153.064 78.0571L152.824 76.5691C151.896 77.4651 150.744 78.1851 149.368 78.7291C147.992 79.2411 146.424 79.4971 144.664 79.4971ZM167.538 78.7771C166.61 78.7771 165.954 78.5851 165.57 78.2011C165.186 77.8171 164.994 77.2091 164.994 76.3771V57.2251C164.994 56.6491 165.09 56.2651 165.282 56.0731C165.506 55.8491 165.954 55.7371 166.626 55.7371H171.57C171.954 55.7371 172.242 55.8011 172.434 55.9291C172.658 56.0251 172.786 56.2171 172.818 56.5051L173.058 57.8971C174.978 55.9771 177.298 55.0171 180.018 55.0171C181.074 55.0171 181.938 55.1131 182.61 55.3051C183.282 55.4651 183.89 55.7371 184.434 56.1211C184.754 56.3451 184.914 56.6011 184.914 56.8891C184.914 56.9851 184.882 57.1611 184.818 57.4171L183.282 61.7851C183.154 62.2331 182.914 62.4571 182.562 62.4571C182.402 62.4571 182.21 62.3931 181.986 62.2651C181.122 61.7851 180.082 61.5451 178.866 61.5451C177.65 61.5451 176.642 61.8811 175.842 62.5531C175.074 63.2251 174.69 64.1211 174.69 65.2411V76.3771C174.69 77.2091 174.498 77.8171 174.114 78.2011C173.762 78.5851 173.122 78.7771 172.194 78.7771H167.538ZM205.458 78.7771C204.53 78.7771 203.874 78.5851 203.49 78.2011C203.138 77.8171 202.962 77.2091 202.962 76.3771V48.5851C202.962 47.7531 203.154 47.1451 203.538 46.7611C203.922 46.3451 204.562 46.1371 205.458 46.1371H219.762C223.506 46.1371 226.274 46.9691 228.066 48.6331C229.858 50.2651 230.754 52.5531 230.754 55.4971C230.754 56.9371 230.386 58.2491 229.65 59.4331C228.946 60.5851 228.018 61.4011 226.866 61.8811C230.034 62.9051 231.618 65.2251 231.618 68.8411C231.618 71.7531 230.594 74.1371 228.546 75.9931C226.53 77.8491 223.554 78.7771 219.618 78.7771H205.458ZM217.938 58.9051C218.93 58.9051 219.698 58.6651 220.242 58.1851C220.786 57.6731 221.058 56.9371 221.058 55.9771C221.058 54.9531 220.802 54.2171 220.29 53.7691C219.778 53.3211 218.994 53.0971 217.938 53.0971H212.658V58.9051H217.938ZM218.754 71.8171C219.778 71.8171 220.562 71.5291 221.106 70.9531C221.682 70.3451 221.97 69.5611 221.97 68.6011C221.97 67.5131 221.666 66.6971 221.058 66.1531C220.45 65.6091 219.618 65.3371 218.562 65.3371H212.658V71.8171H218.754ZM243.383 79.4971C240.599 79.4971 238.423 78.7771 236.855 77.3371C235.319 75.8651 234.551 73.6251 234.551 70.6171V58.1851C234.551 57.3531 234.743 56.7451 235.127 56.3611C235.511 55.9451 236.151 55.7371 237.047 55.7371H241.703C242.631 55.7371 243.287 55.9451 243.671 56.3611C244.055 56.7451 244.247 57.3531 244.247 58.1851V70.2331C244.247 72.0571 245.127 72.9691 246.887 72.9691C247.847 72.9691 248.583 72.7131 249.095 72.2011C249.607 71.6891 249.863 70.9691 249.863 70.0411V58.1851C249.863 57.3531 250.055 56.7451 250.439 56.3611C250.823 55.9451 251.479 55.7371 252.407 55.7371H257.063C257.991 55.7371 258.647 55.9451 259.031 56.3611C259.415 56.7451 259.607 57.3531 259.607 58.1851V77.2891C259.607 77.8971 259.495 78.2971 259.271 78.4891C259.079 78.6811 258.647 78.7771 257.975 78.7771H253.031C252.647 78.7771 252.343 78.7291 252.119 78.6331C251.927 78.5371 251.815 78.3451 251.783 78.0571L251.543 76.5691C250.615 77.4651 249.463 78.1851 248.087 78.7291C246.711 79.2411 245.143 79.4971 243.383 79.4971ZM277.104 79.4971C272.336 79.4971 268.752 78.4571 266.352 76.3771C263.952 74.2971 262.752 71.2091 262.752 67.1131C262.752 63.4331 263.776 60.5051 265.824 58.3291C267.872 56.1211 270.768 55.0171 274.512 55.0171C275.568 55.0171 276.592 55.1451 277.584 55.4011C278.576 55.6251 279.36 55.9291 279.936 56.3131V48.5851C279.936 47.7531 280.128 47.1451 280.512 46.7611C280.896 46.3451 281.552 46.1371 282.48 46.1371H286.944C287.872 46.1371 288.528 46.3451 288.912 46.7611C289.296 47.1451 289.488 47.7531 289.488 48.5851V76.0891C288.112 77.0811 286.32 77.8971 284.112 78.5371C281.904 79.1771 279.568 79.4971 277.104 79.4971ZM277.392 72.9691C278.48 72.9691 279.344 72.7931 279.984 72.4411V64.7131C279.984 62.6011 278.848 61.5451 276.576 61.5451C275.168 61.5451 274.112 62.0571 273.408 63.0811C272.736 64.0731 272.4 65.4331 272.4 67.1611C272.4 69.2411 272.816 70.7291 273.648 71.6251C274.48 72.5211 275.728 72.9691 277.392 72.9691ZM306.308 79.4971C301.54 79.4971 297.956 78.4571 295.556 76.3771C293.156 74.2971 291.956 71.2091 291.956 67.1131C291.956 63.4331 292.98 60.5051 295.028 58.3291C297.076 56.1211 299.972 55.0171 303.716 55.0171C304.772 55.0171 305.796 55.1451 306.788 55.4011C307.78 55.6251 308.564 55.9291 309.14 56.3131V48.5851C309.14 47.7531 309.332 47.1451 309.716 46.7611C310.1 46.3451 310.756 46.1371 311.684 46.1371H316.148C317.076 46.1371 317.732 46.3451 318.116 46.7611C318.5 47.1451 318.692 47.7531 318.692 48.5851V76.0891C317.316 77.0811 315.524 77.8971 313.316 78.5371C311.108 79.1771 308.772 79.4971 306.308 79.4971ZM306.596 72.9691C307.684 72.9691 308.548 72.7931 309.188 72.4411V64.7131C309.188 62.6011 308.052 61.5451 305.78 61.5451C304.372 61.5451 303.316 62.0571 302.612 63.0811C301.94 64.0731 301.604 65.4331 301.604 67.1611C301.604 69.2411 302.02 70.7291 302.852 71.6251C303.684 72.5211 304.932 72.9691 306.596 72.9691ZM327.386 86.2651C324.698 86.2651 322.378 85.4811 320.426 83.9131C320.074 83.6251 319.898 83.3531 319.898 83.0971C319.898 82.9051 320.01 82.6171 320.234 82.2331L322.154 78.8251C322.378 78.4091 322.65 78.2011 322.97 78.2011C323.13 78.2011 323.434 78.3131 323.882 78.5371C324.426 78.8571 324.89 79.0971 325.274 79.2571C325.69 79.4171 326.186 79.4971 326.762 79.4971C327.466 79.4971 328.01 79.3051 328.394 78.9211C328.778 78.5691 329.098 78.0091 329.354 77.2411L320.042 57.5611C319.882 57.2411 319.802 56.9371 319.802 56.6491C319.802 56.3611 319.882 56.1371 320.042 55.9771C320.234 55.8171 320.49 55.7371 320.81 55.7371H327.866C328.73 55.7371 329.306 56.1371 329.594 56.9371L333.722 67.8811L337.85 56.9371C338.01 56.5211 338.218 56.2171 338.474 56.0251C338.73 55.8331 339.098 55.7371 339.578 55.7371H346.634C347.274 55.7371 347.594 56.0411 347.594 56.6491C347.594 56.8731 347.514 57.1771 347.354 57.5611L338.426 76.5211C337.306 78.8891 336.266 80.7611 335.306 82.1371C334.346 83.5131 333.226 84.5371 331.946 85.2091C330.698 85.9131 329.178 86.2651 327.386 86.2651ZM369.026 53.2891C367.938 53.2891 367.106 53.0011 366.53 52.4251C365.954 51.8171 365.666 51.1131 365.666 50.3131V49.1611C365.666 48.3291 365.954 47.6251 366.53 47.0491C367.106 46.4411 367.938 46.1371 369.026 46.1371H372.482C373.602 46.1371 374.45 46.4411 375.026 47.0491C375.602 47.6251 375.89 48.3291 375.89 49.1611V50.3131C375.89 51.1131 375.602 51.8171 375.026 52.4251C374.45 53.0011 373.602 53.2891 372.482 53.2891H369.026ZM368.45 78.7771C367.522 78.7771 366.866 78.5851 366.482 78.2011C366.098 77.8171 365.906 77.2091 365.906 76.3771V58.1851C365.906 57.3531 366.098 56.7451 366.482 56.3611C366.866 55.9451 367.522 55.7371 368.45 55.7371H373.058C373.986 55.7371 374.642 55.9451 375.026 56.3611C375.442 56.7451 375.65 57.3531 375.65 58.1851V76.3771C375.65 77.2091 375.442 77.8171 375.026 78.2011C374.642 78.5851 373.986 78.7771 373.058 78.7771H368.45ZM391.145 79.4971C386.633 79.4971 382.905 78.6651 379.961 77.0011C379.353 76.6171 379.049 76.2811 379.049 75.9931C379.049 75.8331 379.129 75.5931 379.289 75.2731L381.305 71.6731C381.497 71.2891 381.737 71.0971 382.025 71.0971C382.217 71.0971 382.489 71.1931 382.841 71.3851C383.737 71.8651 384.873 72.3131 386.249 72.7291C387.657 73.1131 388.905 73.3051 389.993 73.3051C391.017 73.3051 391.753 73.2091 392.201 73.0171C392.649 72.7931 392.873 72.4411 392.873 71.9611C392.873 71.5131 392.553 71.1451 391.913 70.8571C391.305 70.5371 390.185 70.1371 388.553 69.6571L387.497 69.3691C384.841 68.5691 382.921 67.6571 381.737 66.6331C380.553 65.6091 379.961 64.1531 379.961 62.2651C379.961 59.9291 380.969 58.1371 382.985 56.8891C385.001 55.6411 387.705 55.0171 391.097 55.0171C393.209 55.0171 395.049 55.2091 396.617 55.5931C398.185 55.9771 399.689 56.5531 401.129 57.3211C401.705 57.6411 401.993 57.9931 401.993 58.3771C401.993 58.6011 401.897 58.8891 401.705 59.2411L399.737 62.3611C399.513 62.7131 399.289 62.8891 399.065 62.8891C398.873 62.8891 398.617 62.7931 398.297 62.6011C397.529 62.1851 396.633 61.8491 395.609 61.5931C394.585 61.3371 393.593 61.2091 392.633 61.2091C390.425 61.2091 389.321 61.6891 389.321 62.6491C389.321 63.0971 389.673 63.4811 390.377 63.8011C391.113 64.0891 392.233 64.4091 393.737 64.7611C394.089 64.8571 394.569 64.9851 395.177 65.1451C395.817 65.3051 396.345 65.4651 396.761 65.6251C398.297 66.1691 399.481 66.7291 400.313 67.3051C401.145 67.8491 401.737 68.5051 402.089 69.2731C402.441 70.0091 402.617 70.9531 402.617 72.1051C402.617 73.4811 402.201 74.7291 401.369 75.8491C400.537 76.9371 399.257 77.8171 397.529 78.4891C395.801 79.1611 393.673 79.4971 391.145 79.4971ZM423.218 78.7771C422.482 78.7771 421.874 78.5211 421.394 78.0091C420.914 77.4651 420.674 76.8251 420.674 76.0891V75.0331C420.674 74.2651 420.898 73.6251 421.346 73.1131C421.826 72.5691 422.45 72.2971 423.218 72.2971H424.37C425.106 72.2971 425.714 72.5691 426.194 73.1131C426.674 73.6251 426.914 74.2651 426.914 75.0331V76.0891C426.914 76.8251 426.674 77.4651 426.194 78.0091C425.714 78.5211 425.106 78.7771 424.37 78.7771H423.218ZM431.656 78.7771C430.92 78.7771 430.312 78.5211 429.832 78.0091C429.352 77.4651 429.112 76.8251 429.112 76.0891V75.0331C429.112 74.2651 429.336 73.6251 429.784 73.1131C430.264 72.5691 430.888 72.2971 431.656 72.2971H432.808C433.544 72.2971 434.152 72.5691 434.632 73.1131C435.112 73.6251 435.352 74.2651 435.352 75.0331V76.0891C435.352 76.8251 435.112 77.4651 434.632 78.0091C434.152 78.5211 433.544 78.7771 432.808 78.7771H431.656ZM440.093 78.7771C439.357 78.7771 438.749 78.5211 438.269 78.0091C437.789 77.4651 437.549 76.8251 437.549 76.0891V75.0331C437.549 74.2651 437.773 73.6251 438.221 73.1131C438.701 72.5691 439.325 72.2971 440.093 72.2971H441.245C441.981 72.2971 442.589 72.5691 443.069 73.1131C443.549 73.6251 443.789 74.2651 443.789 75.0331V76.0891C443.789 76.8251 443.549 77.4651 443.069 78.0091C442.589 78.5211 441.981 78.7771 441.245 78.7771H440.093Z" fill="#4A249D"/>
<path d="M89.4612 78.2011L92.9967 74.6656L92.9967 74.6656L89.4612 78.2011ZM88.8852 67.4971H93.8852V66.1474L93.206 64.9811L88.8852 67.4971ZM77.5092 47.9611L81.83 45.4451L81.7536 45.3139L81.6694 45.1876L77.5092 47.9611ZM77.4612 46.4251L73.9257 42.8896L73.9257 42.8896L77.4612 46.4251ZM86.6772 46.4251L83.4232 50.2214L83.5911 50.3653L83.771 50.4938L86.6772 46.4251ZM87.3492 47.2891L82.9468 49.6596L82.9735 49.7091L83.0012 49.7579L87.3492 47.2891ZM93.7812 58.6171L89.4332 61.0859L93.7975 68.7723L98.1371 61.0719L93.7812 58.6171ZM100.165 47.2891L104.521 49.7439L104.545 49.702L104.568 49.6596L100.165 47.2891ZM100.837 46.4251L103.743 50.4938L103.923 50.3653L104.091 50.2214L100.837 46.4251ZM110.053 47.9611L114.372 50.4805L114.453 50.3413L114.525 50.1972L110.053 47.9611ZM98.6292 67.5451L94.3103 65.0258L93.6292 66.1934V67.5451H98.6292ZM98.0532 78.2011L94.5177 74.6656L98.0532 78.2011ZM91.4292 73.7771C91.283 73.7771 91.3876 73.7589 91.6457 73.8344C91.9184 73.9143 92.4613 74.1302 92.9967 74.6656L85.9257 81.7367C87.7254 83.5365 90.0541 83.7771 91.4292 83.7771V73.7771ZM92.9967 74.6656C93.9464 75.6153 93.8852 76.5744 93.8852 76.3771H83.8852C83.8852 77.8439 84.2079 80.0189 85.9257 81.7367L92.9967 74.6656ZM93.8852 76.3771V67.4971H83.8852V76.3771H93.8852ZM93.206 64.9811L81.83 45.4451L73.1884 50.4772L84.5644 70.0132L93.206 64.9811ZM81.6694 45.1876C81.9129 45.5528 82.2212 46.2136 82.2212 47.0971H72.2212C72.2212 48.5567 72.7215 49.7935 73.3489 50.7346L81.6694 45.1876ZM82.2212 47.0971C82.2212 47.7554 82.0126 48.9448 80.9967 49.9607L73.9257 42.8896C72.5898 44.2254 72.2212 45.8628 72.2212 47.0971H82.2212ZM80.9967 49.9607C79.9962 50.9612 78.8412 51.1371 78.2772 51.1371V41.1371C77.0091 41.1371 75.3102 41.5051 73.9257 42.8896L80.9967 49.9607ZM78.2772 51.1371H85.6692V41.1371H78.2772V51.1371ZM85.6692 51.1371C85.5189 51.1371 84.4732 51.1214 83.4232 50.2214L89.9311 42.6288C88.4332 41.3449 86.7155 41.1371 85.6692 41.1371V51.1371ZM83.771 50.4938C83.3857 50.2186 83.1609 49.9523 83.0664 49.8308C82.966 49.7017 82.9306 49.6295 82.9468 49.6596L91.7515 44.9186C91.3898 44.2468 90.7251 43.172 89.5834 42.3565L83.771 50.4938ZM83.0012 49.7579L89.4332 61.0859L98.1292 56.1483L91.6972 44.8203L83.0012 49.7579ZM98.1371 61.0719L104.521 49.7439L95.8093 44.8343L89.4253 56.1623L98.1371 61.0719ZM104.568 49.6596C104.584 49.6295 104.548 49.7017 104.448 49.8308C104.353 49.9523 104.129 50.2186 103.743 50.4938L97.931 42.3565C96.7893 43.172 96.1246 44.2468 95.7628 44.9186L104.568 49.6596ZM104.091 50.2214C103.041 51.1214 101.995 51.1371 101.845 51.1371V41.1371C100.799 41.1371 99.0812 41.3449 97.5832 42.6288L104.091 50.2214ZM101.845 51.1371H109.285V41.1371H101.845V51.1371ZM109.285 51.1371C108.91 51.1371 107.7 51.0519 106.593 49.9978C105.441 48.9003 105.293 47.6117 105.293 47.0971H115.293C115.293 45.9425 114.978 44.174 113.489 42.7564C112.047 41.3824 110.333 41.1371 109.285 41.1371V51.1371ZM105.293 47.0971C105.293 46.3312 105.524 45.8398 105.581 45.7251L114.525 50.1972C114.903 49.4424 115.293 48.3751 115.293 47.0971H105.293ZM105.734 45.4418L94.3103 65.0258L102.948 70.0645L114.372 50.4805L105.734 45.4418ZM93.6292 67.5451V76.3771H103.629V67.5451H93.6292ZM93.6292 76.3771C93.6292 76.5744 93.5679 75.6153 94.5177 74.6656L101.589 81.7367C103.306 80.0189 103.629 77.8439 103.629 76.3771H93.6292ZM94.5177 74.6656C95.0531 74.1302 95.596 73.9143 95.8687 73.8344C96.1268 73.7589 96.2314 73.7771 96.0852 73.7771V83.7771C97.4602 83.7771 99.7889 83.5365 101.589 81.7367L94.5177 74.6656ZM96.0852 73.7771H91.4292V83.7771H96.0852V73.7771ZM108.76 76.2331L105.399 79.935L105.412 79.9472L105.426 79.9593L108.76 76.2331ZM108.76 58.3291L112.094 62.0553L112.107 62.0432L112.121 62.031L108.76 58.3291ZM129.208 58.3291L125.847 62.031L125.872 62.0541L125.898 62.0769L129.208 58.3291ZM129.208 76.2331L132.542 79.9593L132.545 79.9568L129.208 76.2331ZM115.864 71.2891L112 74.4628L112 74.4628L115.864 71.2891ZM118.984 74.4971C115.402 74.4971 113.333 73.6161 112.094 72.5069L105.426 79.9593C109.05 83.2021 113.798 84.4971 118.984 84.4971V74.4971ZM112.121 72.5312C110.893 71.4166 110.112 69.8555 110.112 67.2571H100.112C100.112 72.2107 101.763 76.6337 105.399 79.935L112.121 72.5312ZM110.112 67.2571C110.112 64.6573 110.893 63.1301 112.094 62.0553L105.426 54.6029C101.763 57.8801 100.112 62.3049 100.112 67.2571H110.112ZM112.121 62.031C113.361 60.9049 115.419 60.0171 118.984 60.0171V50.0171C113.78 50.0171 109.022 51.3374 105.399 54.6272L112.121 62.031ZM118.984 60.0171C122.548 60.0171 124.606 60.9049 125.847 62.031L132.569 54.6272C128.945 51.3374 124.187 50.0171 118.984 50.0171V60.0171ZM125.898 62.0769C127.122 63.158 127.904 64.679 127.904 67.2571H137.904C137.904 62.2833 136.221 57.8522 132.518 54.5814L125.898 62.0769ZM127.904 67.2571C127.904 69.8341 127.122 71.3887 125.871 72.5095L132.545 79.9568C136.222 76.6616 137.904 72.2321 137.904 67.2571H127.904ZM125.874 72.5069C124.634 73.6161 122.566 74.4971 118.984 74.4971V84.4971C124.17 84.4971 128.917 83.2021 132.542 79.9593L125.874 72.5069ZM118.984 77.6331C121.527 77.6331 124.21 76.7632 126.083 74.3782C127.777 72.2229 128.208 69.5678 128.208 67.2571H118.208C118.208 67.8421 118.149 68.1832 118.107 68.3423C118.067 68.4932 118.067 68.3955 118.22 68.2C118.297 68.1022 118.398 67.9986 118.523 67.9033C118.648 67.8081 118.771 67.7399 118.879 67.6942C119.092 67.6038 119.165 67.6331 118.984 67.6331V77.6331ZM128.208 67.2571C128.208 64.9629 127.771 62.317 126.056 60.1737C124.171 57.8173 121.495 56.9771 118.984 56.9771V66.9771C119.176 66.9771 119.113 67.0077 118.909 66.9225C118.805 66.8793 118.683 66.8134 118.558 66.7196C118.432 66.6256 118.328 66.5216 118.247 66.4206C118.085 66.2176 118.078 66.1058 118.113 66.2354C118.15 66.3747 118.208 66.6941 118.208 67.2571H128.208ZM118.984 56.9771C116.472 56.9771 113.797 57.8173 111.911 60.1737C110.197 62.317 109.76 64.9629 109.76 67.2571H119.76C119.76 66.6941 119.818 66.3747 119.855 66.2354C119.89 66.1058 119.883 66.2176 119.72 66.4206C119.639 66.5216 119.535 66.6256 119.41 66.7196C119.285 66.8134 119.163 66.8793 119.059 66.9225C118.854 67.0077 118.792 66.9771 118.984 66.9771V56.9771ZM109.76 67.2571C109.76 69.607 110.222 72.2985 112 74.4628L119.727 68.1154C119.887 68.3091 119.893 68.4168 119.858 68.2887C119.82 68.1492 119.76 67.8272 119.76 67.2571H109.76ZM112 74.4628C113.843 76.7061 116.41 77.6331 118.984 77.6331V67.6331C118.867 67.6331 118.964 67.6145 119.174 67.7051C119.405 67.8044 119.602 67.9623 119.727 68.1154L112 74.4628ZM138.136 77.3371L134.676 80.9471L134.715 80.9838L134.754 81.0198L138.136 77.3371ZM136.408 56.3611L139.943 59.8967L140.014 59.826L140.082 59.7525L136.408 56.3611ZM144.952 56.3611L141.278 59.7525L141.346 59.826L141.416 59.8967L144.952 56.3611ZM151.72 56.3611L155.255 59.8967L155.326 59.826L155.394 59.7525L151.72 56.3611ZM160.312 56.3611L156.638 59.7525L156.706 59.826L156.776 59.8967L160.312 56.3611ZM160.552 78.4891L157.298 74.6929L157.152 74.8178L157.016 74.9536L160.552 78.4891ZM153.4 78.6331L151.164 83.1053L151.295 83.171L151.43 83.2289L153.4 78.6331ZM153.064 78.0571L158.033 77.505L158.02 77.3826L158 77.261L153.064 78.0571ZM152.824 76.5691L157.76 75.773L156.236 66.3243L149.351 72.9721L152.824 76.5691ZM149.368 78.7291L151.111 83.4152L151.159 83.3976L151.206 83.3789L149.368 78.7291ZM144.664 74.4971C142.737 74.4971 141.908 74.013 141.518 73.6545L134.754 81.0198C137.499 83.5413 141.023 84.4971 144.664 84.4971V74.4971ZM141.595 73.7272C141.393 73.5329 140.832 72.8364 140.832 70.6171H130.832C130.832 74.4139 131.807 78.1974 134.676 80.9471L141.595 73.7272ZM140.832 70.6171V58.1851H130.832V70.6171H140.832ZM140.832 58.1851C140.832 57.9879 140.893 58.9469 139.943 59.8967L132.872 52.8256C131.155 54.5433 130.832 56.7184 130.832 58.1851H140.832ZM140.082 59.7525C139.592 60.283 139.062 60.5376 138.721 60.6483C138.408 60.7501 138.242 60.7371 138.328 60.7371V50.7371C136.832 50.7371 134.495 51.0618 132.734 52.9697L140.082 59.7525ZM138.328 60.7371H142.984V50.7371H138.328V60.7371ZM142.984 60.7371C143.101 60.7371 142.958 60.7536 142.661 60.6593C142.338 60.5571 141.79 60.3072 141.278 59.7525L148.626 52.9697C146.838 51.0325 144.447 50.7371 142.984 50.7371V60.7371ZM141.416 59.8967C140.467 58.9469 140.528 57.9879 140.528 58.1851H150.528C150.528 56.7184 150.205 54.5433 148.487 52.8256L141.416 59.8967ZM140.528 58.1851V70.2331H150.528V58.1851H140.528ZM140.528 70.2331C140.528 71.872 140.921 74.0275 142.59 75.757C144.291 77.5197 146.471 77.9691 148.168 77.9691V67.9691C148.105 67.9691 148.965 67.9625 149.786 68.8133C150.575 69.6308 150.528 70.4182 150.528 70.2331H140.528ZM148.168 77.9691C150.007 77.9691 152.187 77.4612 153.911 75.7367L146.84 68.6656C147.158 68.3483 147.508 68.1552 147.797 68.0546C148.064 67.962 148.213 67.9691 148.168 67.9691V77.9691ZM153.911 75.7367C155.605 74.0425 156.144 71.904 156.144 70.0411H146.144C146.144 70.0528 146.142 69.8811 146.241 69.6021C146.347 69.302 146.542 68.9637 146.84 68.6656L153.911 75.7367ZM156.144 70.0411V58.1851H146.144V70.0411H156.144ZM156.144 58.1851C156.144 57.9879 156.205 58.9469 155.255 59.8967L148.184 52.8256C146.467 54.5433 146.144 56.7184 146.144 58.1851H156.144ZM155.394 59.7525C154.882 60.3072 154.333 60.5571 154.011 60.6593C153.714 60.7536 153.57 60.7371 153.688 60.7371V50.7371C152.224 50.7371 149.834 51.0325 148.046 52.9697L155.394 59.7525ZM153.688 60.7371H158.344V50.7371H153.688V60.7371ZM158.344 60.7371C158.461 60.7371 158.318 60.7536 158.021 60.6593C157.698 60.5571 157.15 60.3072 156.638 59.7525L163.986 52.9697C162.198 51.0325 159.807 50.7371 158.344 50.7371V60.7371ZM156.776 59.8967C155.827 58.9469 155.888 57.9879 155.888 58.1851H165.888C165.888 56.7184 165.565 54.5433 163.847 52.8256L156.776 59.8967ZM155.888 58.1851V77.2891H165.888V58.1851H155.888ZM155.888 77.2891C155.888 77.2888 155.888 77.2774 155.889 77.2559C155.89 77.2345 155.892 77.2 155.897 77.154C155.907 77.0673 155.93 76.9072 155.989 76.697C156.095 76.3181 156.41 75.4536 157.298 74.6929L163.806 82.2854C164.917 81.3327 165.401 80.1722 165.619 79.3933C165.84 78.6027 165.888 77.8586 165.888 77.2891H155.888ZM157.016 74.9536C157.48 74.4903 157.946 74.2237 158.268 74.0753C158.59 73.9264 158.853 73.8567 158.999 73.8242C159.272 73.7636 159.394 73.7771 159.256 73.7771V83.7771C159.789 83.7771 160.464 83.7427 161.168 83.5861C161.785 83.4491 163.018 83.0938 164.087 82.0247L157.016 74.9536ZM159.256 73.7771H154.312V83.7771H159.256V73.7771ZM154.312 73.7771C154.32 73.7771 154.416 73.7771 154.576 73.8023C154.731 73.8269 155.016 73.8861 155.369 74.0374L151.43 83.2289C152.531 83.7007 153.597 83.7771 154.312 83.7771V73.7771ZM155.636 74.161C156.441 74.5637 157.075 75.1857 157.491 75.8978C157.876 76.5583 157.995 77.1565 158.033 77.505L148.094 78.6093C148.241 79.9287 148.947 81.9971 151.164 83.1053L155.636 74.161ZM158 77.261L157.76 75.773L147.888 77.3653L148.128 78.8533L158 77.261ZM149.351 72.9721C148.958 73.3517 148.386 73.7408 147.53 74.0793L151.206 83.3789C153.102 82.6294 154.834 81.5785 156.297 80.1661L149.351 72.9721ZM147.624 74.043C146.905 74.3107 145.944 74.4971 144.664 74.4971V84.4971C146.904 84.4971 149.079 84.1715 151.111 83.4152L147.624 74.043ZM165.57 78.2011L169.105 74.6656L169.105 74.6656L165.57 78.2011ZM165.282 56.0731L161.746 52.5376L161.746 52.5376L165.282 56.0731ZM172.434 55.9291L169.66 60.0894L170.042 60.344L170.464 60.5249L172.434 55.9291ZM172.818 56.5051L167.848 57.0573L167.865 57.2066L167.89 57.3547L172.818 56.5051ZM173.058 57.8971L168.13 58.7467L169.77 68.256L176.593 61.4327L173.058 57.8971ZM182.61 55.3051L181.236 60.1127L181.343 60.1434L181.452 60.1692L182.61 55.3051ZM184.434 56.1211L181.55 60.206L181.558 60.2116L181.566 60.2173L184.434 56.1211ZM184.818 57.4171L189.535 59.0758L189.612 58.8559L189.668 58.6298L184.818 57.4171ZM183.282 61.7851L178.565 60.1265L178.515 60.2676L178.474 60.4115L183.282 61.7851ZM181.986 62.2651L184.466 57.9239L184.44 57.909L184.414 57.8943L181.986 62.2651ZM175.842 62.5531L172.626 58.7246L172.587 58.757L172.549 58.7902L175.842 62.5531ZM174.114 78.2011L170.578 74.6656L170.501 74.7424L170.428 74.8225L174.114 78.2011ZM167.538 73.7771C167.392 73.7771 167.496 73.7589 167.754 73.8344C168.027 73.9143 168.57 74.1302 169.105 74.6656L162.034 81.7367C163.834 83.5365 166.163 83.7771 167.538 83.7771V73.7771ZM169.105 74.6656C170.055 75.6153 169.994 76.5744 169.994 76.3771H159.994C159.994 77.8439 160.316 80.0189 162.034 81.7367L169.105 74.6656ZM169.994 76.3771V57.2251H159.994V76.3771H169.994ZM169.994 57.2251C169.994 57.1785 170.001 57.3783 169.916 57.7178C169.839 58.0271 169.591 58.8353 168.817 59.6087L161.746 52.5376C160.781 53.5029 160.388 54.5992 160.215 55.2925C160.034 56.016 159.994 56.6958 159.994 57.2251H169.994ZM168.817 59.6087C168.06 60.366 167.276 60.6025 166.998 60.6718C166.691 60.7487 166.531 60.7371 166.626 60.7371V50.7371C166.048 50.7371 165.329 50.7815 164.573 50.9704C163.848 51.1517 162.727 51.5563 161.746 52.5376L168.817 59.6087ZM166.626 60.7371H171.57V50.7371H166.626V60.7371ZM171.57 60.7371C171.5 60.7371 171.289 60.7328 170.989 60.6661C170.691 60.5998 170.199 60.4484 169.66 60.0894L175.207 51.7689C173.812 50.8387 172.351 50.7371 171.57 50.7371V60.7371ZM170.464 60.5249C169.737 60.2133 169.042 59.676 168.537 58.9186C168.059 58.201 167.898 57.5091 167.848 57.0573L177.787 55.953C177.601 54.2773 176.623 52.2849 174.403 51.3334L170.464 60.5249ZM167.89 57.3547L168.13 58.7467L177.985 57.0476L177.745 55.6556L167.89 57.3547ZM176.593 61.4327C177.574 60.4522 178.621 60.0171 180.018 60.0171V50.0171C175.974 50.0171 172.382 51.5021 169.522 54.3616L176.593 61.4327ZM180.018 60.0171C180.82 60.0171 181.176 60.0957 181.236 60.1127L183.983 50.4975C182.699 50.1306 181.327 50.0171 180.018 50.0171V60.0171ZM181.452 60.1692C181.528 60.1873 181.546 60.2029 181.55 60.206L187.317 52.0363C186.233 51.2713 185.036 50.743 183.768 50.4411L181.452 60.1692ZM181.566 60.2173C181.331 60.0525 180.917 59.7132 180.554 59.1311C180.162 58.5046 179.914 57.7285 179.914 56.8891H189.914C189.914 54.4242 188.438 52.8208 187.301 52.025L181.566 60.2173ZM179.914 56.8891C179.914 56.6551 179.932 56.4775 179.942 56.3919C179.953 56.2963 179.965 56.2284 179.97 56.1987C179.981 56.1428 179.984 56.1374 179.967 56.2044L189.668 58.6298C189.716 58.4379 189.914 57.6893 189.914 56.8891H179.914ZM180.101 55.7585L178.565 60.1265L187.999 63.4438L189.535 59.0758L180.101 55.7585ZM178.474 60.4115C178.56 60.1096 178.828 59.3487 179.594 58.6339C180.471 57.8157 181.571 57.4571 182.562 57.4571V67.4571C183.904 67.4571 185.301 66.9865 186.417 65.9444C187.423 65.0056 187.875 63.9086 188.089 63.1587L178.474 60.4115ZM182.562 57.4571C183.14 57.4571 183.594 57.5707 183.879 57.6657C184.167 57.7616 184.366 57.8667 184.466 57.9239L179.505 66.6063C180.069 66.9285 181.153 67.4571 182.562 67.4571V57.4571ZM184.414 57.8943C182.654 56.9168 180.738 56.5451 178.866 56.5451V66.5451C179.426 66.5451 179.589 66.6534 179.557 66.6359L184.414 57.8943ZM178.866 56.5451C176.676 56.5451 174.471 57.1749 172.626 58.7246L179.058 66.3817C179.017 66.4156 178.969 66.4494 178.915 66.4793C178.862 66.509 178.815 66.5286 178.779 66.5405C178.705 66.565 178.719 66.5451 178.866 66.5451V56.5451ZM172.549 58.7902C170.583 60.511 169.69 62.8373 169.69 65.2411H179.69C179.69 65.2581 179.685 65.4384 179.573 65.6987C179.457 65.9708 179.286 66.183 179.134 66.316L172.549 58.7902ZM169.69 65.2411V76.3771H179.69V65.2411H169.69ZM169.69 76.3771C169.69 76.5744 169.628 75.6153 170.578 74.6656L177.649 81.7367C179.367 80.0189 179.69 77.8439 179.69 76.3771H169.69ZM170.428 74.8225C171.01 74.1873 171.63 73.935 171.933 73.844C172.221 73.7577 172.345 73.7771 172.194 73.7771V83.7771C173.505 83.7771 175.981 83.5633 177.799 81.5798L170.428 74.8225ZM172.194 73.7771H167.538V83.7771H172.194V73.7771ZM203.49 78.2011L199.805 81.5798L199.878 81.6598L199.955 81.7367L203.49 78.2011ZM203.538 46.7611L207.074 50.2967L207.145 50.226L207.212 50.1525L203.538 46.7611ZM228.066 48.6331L224.664 52.2971L224.682 52.3136L224.7 52.3298L228.066 48.6331ZM229.65 59.4331L225.404 56.7935L225.394 56.8096L225.384 56.8259L229.65 59.4331ZM226.866 61.8811L224.943 57.2657L212.444 62.4739L225.329 66.6388L226.866 61.8811ZM228.546 75.9931L225.189 72.2882L225.174 72.3014L225.16 72.3146L228.546 75.9931ZM220.242 58.1851L223.551 61.9343L223.611 61.8812L223.669 61.8261L220.242 58.1851ZM212.658 53.0971V48.0971H207.658V53.0971H212.658ZM212.658 58.9051H207.658V63.9051H212.658V58.9051ZM221.106 70.9531L217.477 67.5144L217.471 67.52L221.106 70.9531ZM221.058 66.1531L224.392 62.4269L224.392 62.4269L221.058 66.1531ZM212.658 65.3371V60.3371H207.658V65.3371H212.658ZM212.658 71.8171H207.658V76.8171H212.658V71.8171ZM205.458 73.7771C205.312 73.7771 205.417 73.7589 205.675 73.8344C205.948 73.9143 206.491 74.1302 207.026 74.6656L199.955 81.7367C201.755 83.5365 204.083 83.7771 205.458 83.7771V73.7771ZM207.176 74.8225C207.621 75.3076 207.816 75.7877 207.897 76.0668C207.974 76.3308 207.962 76.4613 207.962 76.3771H197.962C197.962 77.7497 198.226 79.8578 199.805 81.5798L207.176 74.8225ZM207.962 76.3771V48.5851H197.962V76.3771H207.962ZM207.962 48.5851C207.962 48.3879 208.024 49.3469 207.074 50.2967L200.003 43.2256C198.285 44.9433 197.962 47.1184 197.962 48.5851H207.962ZM207.212 50.1525C206.723 50.683 206.193 50.9376 205.852 51.0483C205.538 51.1501 205.372 51.1371 205.458 51.1371V41.1371C203.963 41.1371 201.626 41.4618 199.864 43.3697L207.212 50.1525ZM205.458 51.1371H219.762V41.1371H205.458V51.1371ZM219.762 51.1371C222.894 51.1371 224.183 51.8501 224.664 52.2971L231.469 44.9692C228.366 42.0881 224.119 41.1371 219.762 41.1371V51.1371ZM224.7 52.3298C225.232 52.8146 225.754 53.6334 225.754 55.4971H235.754C235.754 51.4729 234.485 47.7157 231.433 44.9364L224.7 52.3298ZM225.754 55.4971C225.754 56.0365 225.631 56.4288 225.404 56.7935L233.897 62.0728C235.142 60.0695 235.754 57.8378 235.754 55.4971H225.754ZM225.384 56.8259C225.182 57.1559 225.041 57.225 224.943 57.2657L228.79 66.4965C230.996 65.5773 232.711 64.0144 233.917 62.0404L225.384 56.8259ZM225.329 66.6388C226.06 66.8753 226.244 67.1254 226.301 67.2085C226.383 67.3284 226.618 67.7518 226.618 68.8411H236.618C236.618 66.3145 236.062 63.7699 234.56 61.5698C233.032 59.3328 230.841 57.911 228.404 57.1235L225.329 66.6388ZM226.618 68.8411C226.618 70.4271 226.129 71.4359 225.189 72.2882L231.904 79.6981C235.06 76.8384 236.618 73.0791 236.618 68.8411H226.618ZM225.16 72.3146C224.401 73.0131 222.843 73.7771 219.618 73.7771V83.7771C224.266 83.7771 228.66 82.6851 231.933 79.6716L225.16 72.3146ZM219.618 73.7771H205.458V83.7771H219.618V73.7771ZM217.938 63.9051C219.699 63.9051 221.804 63.4751 223.551 61.9343L216.934 54.4359C217.593 53.8551 218.162 53.9051 217.938 53.9051V63.9051ZM223.669 61.8261C225.484 60.1181 226.058 57.9005 226.058 55.9771H216.058C216.058 55.9934 216.055 55.8112 216.164 55.5159C216.283 55.1964 216.496 54.8446 216.816 54.5441L223.669 61.8261ZM226.058 55.9771C226.058 54.2455 225.632 51.7988 223.583 50.0062L216.998 57.532C216.512 57.1065 216.259 56.6298 216.144 56.2997C216.041 56.0031 216.058 55.8588 216.058 55.9771H226.058ZM223.583 50.0062C221.772 48.4218 219.566 48.0971 217.938 48.0971V58.0971C218.131 58.0971 218.109 58.1195 217.945 58.0727C217.767 58.0219 217.396 57.8803 216.998 57.532L223.583 50.0062ZM217.938 48.0971H212.658V58.0971H217.938V48.0971ZM207.658 53.0971V58.9051H217.658V53.0971H207.658ZM212.658 63.9051H217.938V53.9051H212.658V63.9051ZM218.754 76.8171C220.73 76.8171 222.997 76.2337 224.742 74.3863L217.471 67.52C217.759 67.2153 218.093 67.0156 218.386 66.9078C218.655 66.8089 218.807 66.8171 218.754 66.8171V76.8171ZM224.736 74.3919C226.321 72.7185 226.97 70.639 226.97 68.6011H216.97C216.97 68.5795 216.974 68.4211 217.061 68.185C217.152 67.9374 217.299 67.7023 217.477 67.5144L224.736 74.3919ZM226.97 68.6011C226.97 66.5897 226.383 64.2079 224.392 62.4269L217.724 69.8793C217.383 69.5743 217.169 69.2181 217.057 68.9187C216.956 68.6484 216.97 68.5102 216.97 68.6011H226.97ZM224.392 62.4269C222.624 60.8446 220.477 60.3371 218.562 60.3371V70.3371C218.668 70.3371 218.601 70.3514 218.425 70.2936C218.231 70.2304 217.973 70.102 217.724 69.8793L224.392 62.4269ZM218.562 60.3371H212.658V70.3371H218.562V60.3371ZM207.658 65.3371V71.8171H217.658V65.3371H207.658ZM212.658 76.8171H218.754V66.8171H212.658V76.8171ZM236.855 77.3371L233.395 80.9471L233.433 80.9838L233.473 81.0198L236.855 77.3371ZM235.127 56.3611L238.662 59.8967L238.733 59.826L238.801 59.7525L235.127 56.3611ZM243.671 56.3611L239.997 59.7525L240.064 59.826L240.135 59.8967L243.671 56.3611ZM250.439 56.3611L253.974 59.8967L254.045 59.826L254.113 59.7525L250.439 56.3611ZM259.031 56.3611L255.357 59.7525L255.424 59.826L255.495 59.8967L259.031 56.3611ZM259.271 78.4891L256.017 74.6929L255.871 74.8178L255.735 74.9536L259.271 78.4891ZM252.119 78.6331L249.882 83.1053L250.014 83.171L250.149 83.2289L252.119 78.6331ZM251.783 78.0571L256.752 77.505L256.738 77.3826L256.719 77.261L251.783 78.0571ZM251.543 76.5691L256.479 75.773L254.955 66.3243L248.07 72.9721L251.543 76.5691ZM248.087 78.7291L249.83 83.4152L249.878 83.3976L249.925 83.3789L248.087 78.7291ZM243.383 74.4971C241.455 74.4971 240.627 74.013 240.237 73.6545L233.473 81.0198C236.218 83.5413 239.742 84.4971 243.383 84.4971V74.4971ZM240.314 73.7272C240.111 73.5329 239.551 72.8364 239.551 70.6171H229.551C229.551 74.4139 230.526 78.1974 233.395 80.9471L240.314 73.7272ZM239.551 70.6171V58.1851H229.551V70.6171H239.551ZM239.551 58.1851C239.551 57.9879 239.612 58.9469 238.662 59.8967L231.591 52.8256C229.873 54.5433 229.551 56.7184 229.551 58.1851H239.551ZM238.801 59.7525C238.311 60.283 237.781 60.5376 237.44 60.6483C237.127 60.7501 236.961 60.7371 237.047 60.7371V50.7371C235.551 50.7371 233.214 51.0618 231.453 52.9697L238.801 59.7525ZM237.047 60.7371H241.703V50.7371H237.047V60.7371ZM241.703 60.7371C241.82 60.7371 241.677 60.7536 241.379 60.6593C241.057 60.5571 240.509 60.3072 239.997 59.7525L247.345 52.9697C245.556 51.0325 243.166 50.7371 241.703 50.7371V60.7371ZM240.135 59.8967C239.185 58.9469 239.247 57.9879 239.247 58.1851H249.247C249.247 56.7184 248.924 54.5433 247.206 52.8256L240.135 59.8967ZM239.247 58.1851V70.2331H249.247V58.1851H239.247ZM239.247 70.2331C239.247 71.872 239.64 74.0275 241.308 75.757C243.009 77.5197 245.19 77.9691 246.887 77.9691V67.9691C246.824 67.9691 247.684 67.9625 248.505 68.8133C249.293 69.6308 249.247 70.4182 249.247 70.2331H239.247ZM246.887 77.9691C248.725 77.9691 250.906 77.4612 252.63 75.7367L245.559 68.6656C245.876 68.3483 246.227 68.1552 246.516 68.0546C246.782 67.962 246.932 67.9691 246.887 67.9691V77.9691ZM252.63 75.7367C254.324 74.0425 254.863 71.904 254.863 70.0411H244.863C244.863 70.0528 244.86 69.8811 244.959 69.6021C245.066 69.302 245.261 68.9637 245.559 68.6656L252.63 75.7367ZM254.863 70.0411V58.1851H244.863V70.0411H254.863ZM254.863 58.1851C254.863 57.9879 254.924 58.9469 253.974 59.8967L246.903 52.8256C245.185 54.5433 244.863 56.7184 244.863 58.1851H254.863ZM254.113 59.7525C253.601 60.3072 253.052 60.5571 252.73 60.6593C252.432 60.7536 252.289 60.7371 252.407 60.7371V50.7371C250.943 50.7371 248.553 51.0325 246.765 52.9697L254.113 59.7525ZM252.407 60.7371H257.063V50.7371H252.407V60.7371ZM257.063 60.7371C257.18 60.7371 257.037 60.7536 256.739 60.6593C256.417 60.5571 255.869 60.3072 255.357 59.7525L262.705 52.9697C260.916 51.0325 258.526 50.7371 257.063 50.7371V60.7371ZM255.495 59.8967C254.545 58.9469 254.607 57.9879 254.607 58.1851H264.607C264.607 56.7184 264.284 54.5433 262.566 52.8256L255.495 59.8967ZM254.607 58.1851V77.2891H264.607V58.1851H254.607ZM254.607 77.2891C254.607 77.2888 254.607 77.2774 254.608 77.2559C254.609 77.2345 254.611 77.2 254.616 77.154C254.626 77.0673 254.649 76.9072 254.708 76.697C254.814 76.3181 255.129 75.4536 256.017 74.6929L262.525 82.2854C263.636 81.3327 264.119 80.1722 264.337 79.3933C264.559 78.6027 264.607 77.8586 264.607 77.2891H254.607ZM255.735 74.9536C256.198 74.4903 256.665 74.2237 256.986 74.0753C257.309 73.9264 257.572 73.8567 257.718 73.8242C257.991 73.7636 258.113 73.7771 257.975 73.7771V83.7771C258.508 83.7771 259.182 83.7427 259.887 83.5861C260.504 83.4491 261.737 83.0938 262.806 82.0247L255.735 74.9536ZM257.975 73.7771H253.031V83.7771H257.975V73.7771ZM253.031 73.7771C253.039 73.7771 253.134 73.7771 253.294 73.8023C253.45 73.8269 253.735 73.8861 254.088 74.0374L250.149 83.2289C251.25 83.7007 252.316 83.7771 253.031 83.7771V73.7771ZM254.355 74.161C255.16 74.5637 255.794 75.1857 256.209 75.8978C256.595 76.5583 256.713 77.1565 256.752 77.505L246.813 78.6093C246.96 79.9287 247.666 81.9971 249.882 83.1053L254.355 74.161ZM256.719 77.261L256.479 75.773L246.606 77.3653L246.846 78.8533L256.719 77.261ZM248.07 72.9721C247.676 73.3517 247.104 73.7408 246.248 74.0793L249.925 83.3789C251.821 82.6294 253.553 81.5785 255.016 80.1661L248.07 72.9721ZM246.343 74.043C245.623 74.3107 244.662 74.4971 243.383 74.4971V84.4971C245.623 84.4971 247.798 84.1715 249.83 83.4152L246.343 74.043ZM265.824 58.3291L269.465 61.756L269.478 61.7427L269.49 61.7293L265.824 58.3291ZM277.584 55.4011L276.335 60.2425L276.409 60.2616L276.483 60.2783L277.584 55.4011ZM279.936 56.3131L277.163 60.4734L284.936 65.6557V56.3131H279.936ZM280.512 46.7611L284.048 50.2967L284.119 50.226L284.186 50.1525L280.512 46.7611ZM288.912 46.7611L285.238 50.1525L285.306 50.226L285.377 50.2967L288.912 46.7611ZM289.488 76.0891L292.412 80.145L294.488 78.6484V76.0891H289.488ZM284.112 78.5371L285.504 83.3395L285.504 83.3395L284.112 78.5371ZM279.984 72.4411L282.394 76.8222L284.984 75.3975V72.4411H279.984ZM273.408 63.0811L269.288 60.2485L269.278 60.2627L269.269 60.2769L273.408 63.0811ZM273.648 71.6251L269.984 75.0274L269.984 75.0274L273.648 71.6251ZM277.104 74.4971C272.956 74.4971 270.757 73.5782 269.627 72.5987L263.078 80.1556C266.748 83.3361 271.717 84.4971 277.104 84.4971V74.4971ZM269.627 72.5987C268.622 71.7277 267.752 70.2085 267.752 67.1131H257.752C257.752 72.2098 259.283 76.8665 263.078 80.1556L269.627 72.5987ZM267.752 67.1131C267.752 64.3967 268.482 62.8009 269.465 61.756L262.183 54.9023C259.071 58.2094 257.752 62.4696 257.752 67.1131H267.752ZM269.49 61.7293C270.371 60.7798 271.797 60.0171 274.512 60.0171V50.0171C269.74 50.0171 265.374 51.4625 262.159 54.9289L269.49 61.7293ZM274.512 60.0171C275.16 60.0171 275.764 60.095 276.335 60.2425L278.834 50.5597C277.421 50.1952 275.977 50.0171 274.512 50.0171V60.0171ZM276.483 60.2783C276.787 60.3469 276.988 60.4122 277.109 60.4589C277.231 60.5064 277.234 60.5208 277.163 60.4734L282.71 52.1529C281.446 51.3101 280.02 50.8252 278.686 50.5239L276.483 60.2783ZM284.936 56.3131V48.5851H274.936V56.3131H284.936ZM284.936 48.5851C284.936 48.3879 284.998 49.3469 284.048 50.2967L276.977 43.2256C275.259 44.9433 274.936 47.1184 274.936 48.5851H284.936ZM284.186 50.1525C283.674 50.7072 283.126 50.9571 282.804 51.0593C282.506 51.1536 282.363 51.1371 282.48 51.1371V41.1371C281.017 41.1371 278.627 41.4325 276.838 43.3697L284.186 50.1525ZM282.48 51.1371H286.944V41.1371H282.48V51.1371ZM286.944 51.1371C287.062 51.1371 286.919 51.1536 286.621 51.0593C286.299 50.9571 285.75 50.7072 285.238 50.1525L292.586 43.3697C290.798 41.4325 288.408 41.1371 286.944 41.1371V51.1371ZM285.377 50.2967C284.427 49.3469 284.488 48.3879 284.488 48.5851H294.488C294.488 47.1184 294.166 44.9433 292.448 43.2256L285.377 50.2967ZM284.488 48.5851V76.0891H294.488V48.5851H284.488ZM286.564 72.0332C285.785 72.5952 284.561 73.2013 282.72 73.7348L285.504 83.3395C288.08 82.593 290.44 81.5671 292.412 80.145L286.564 72.0332ZM282.72 73.7348C280.996 74.2346 279.131 74.4971 277.104 74.4971V84.4971C280.006 84.4971 282.813 84.1197 285.504 83.3395L282.72 73.7348ZM277.392 77.9691C278.942 77.9691 280.741 77.7311 282.394 76.8222L277.575 68.06C277.777 67.9489 277.895 67.9303 277.858 67.9377C277.842 67.941 277.797 67.9491 277.717 67.9563C277.638 67.9635 277.531 67.9691 277.392 67.9691V77.9691ZM284.984 72.4411V64.7131H274.984V72.4411H284.984ZM284.984 64.7131C284.984 62.789 284.45 60.4534 282.537 58.675C280.692 56.9606 278.396 56.5451 276.576 56.5451V66.5451C277.029 66.5451 276.437 66.6577 275.728 65.9993C274.951 65.2768 274.984 64.5253 274.984 64.7131H284.984ZM276.576 56.5451C273.777 56.5451 271.061 57.6705 269.288 60.2485L277.529 65.9138C277.42 66.0723 277.208 66.2837 276.91 66.4282C276.635 66.5613 276.479 66.5451 276.576 66.5451V56.5451ZM269.269 60.2769C267.839 62.3879 267.4 64.8552 267.4 67.1611H277.4C277.4 66.0111 277.634 65.7584 277.548 65.8854L269.269 60.2769ZM267.4 67.1611C267.4 69.6829 267.863 72.7432 269.984 75.0274L277.312 68.2229C277.563 68.4923 277.576 68.665 277.528 68.4909C277.476 68.3066 277.4 67.8923 277.4 67.1611H267.4ZM269.984 75.0274C272.067 77.2696 274.859 77.9691 277.392 77.9691V67.9691C276.996 67.9691 276.862 67.9142 276.898 67.9272C276.92 67.9352 276.981 67.9601 277.064 68.0135C277.148 68.068 277.234 68.1388 277.312 68.2229L269.984 75.0274ZM295.028 58.3291L298.669 61.756L298.681 61.7427L298.693 61.7293L295.028 58.3291ZM306.788 55.4011L305.538 60.2425L305.612 60.2616L305.686 60.2783L306.788 55.4011ZM309.14 56.3131L306.366 60.4734L314.14 65.6557V56.3131H309.14ZM309.716 46.7611L313.251 50.2967L313.322 50.226L313.39 50.1525L309.716 46.7611ZM318.116 46.7611L314.442 50.1525L314.509 50.226L314.58 50.2967L318.116 46.7611ZM318.692 76.0891L321.616 80.145L323.692 78.6484V76.0891H318.692ZM313.316 78.5371L314.708 83.3395L314.708 83.3395L313.316 78.5371ZM309.188 72.4411L311.597 76.8222L314.188 75.3975V72.4411H309.188ZM302.612 63.0811L298.491 60.2485L298.482 60.2627L298.472 60.2769L302.612 63.0811ZM302.852 71.6251L299.188 75.0274L299.188 75.0274L302.852 71.6251ZM306.308 74.4971C302.159 74.4971 299.96 73.5782 298.83 72.5987L292.281 80.1556C295.951 83.3361 300.92 84.4971 306.308 84.4971V74.4971ZM298.83 72.5987C297.825 71.7277 296.956 70.2085 296.956 67.1131H286.956C286.956 72.2098 288.486 76.8665 292.281 80.1556L298.83 72.5987ZM296.956 67.1131C296.956 64.3967 297.685 62.8009 298.669 61.756L291.387 54.9023C288.274 58.2094 286.956 62.4696 286.956 67.1131H296.956ZM298.693 61.7293C299.574 60.7798 301 60.0171 303.716 60.0171V50.0171C298.943 50.0171 294.577 51.4625 291.362 54.9289L298.693 61.7293ZM303.716 60.0171C304.363 60.0171 304.967 60.095 305.538 60.2425L308.037 50.5597C306.624 50.1952 305.18 50.0171 303.716 50.0171V60.0171ZM305.686 60.2783C305.99 60.3469 306.191 60.4122 306.312 60.4589C306.434 60.5064 306.437 60.5208 306.366 60.4734L311.913 52.1529C310.649 51.3101 309.223 50.8252 307.889 50.5239L305.686 60.2783ZM314.14 56.3131V48.5851H304.14V56.3131H314.14ZM314.14 48.5851C314.14 48.3879 314.201 49.3469 313.251 50.2967L306.18 43.2256C304.462 44.9433 304.14 47.1184 304.14 48.5851H314.14ZM313.39 50.1525C312.878 50.7072 312.329 50.9571 312.007 51.0593C311.709 51.1536 311.566 51.1371 311.684 51.1371V41.1371C310.22 41.1371 307.83 41.4325 306.042 43.3697L313.39 50.1525ZM311.684 51.1371H316.148V41.1371H311.684V51.1371ZM316.148 51.1371C316.265 51.1371 316.122 51.1536 315.824 51.0593C315.502 50.9571 314.954 50.7072 314.442 50.1525L321.79 43.3697C320.001 41.4325 317.611 41.1371 316.148 41.1371V51.1371ZM314.58 50.2967C313.63 49.3469 313.692 48.3879 313.692 48.5851H323.692C323.692 47.1184 323.369 44.9433 321.651 43.2256L314.58 50.2967ZM313.692 48.5851V76.0891H323.692V48.5851H313.692ZM315.768 72.0332C314.988 72.5952 313.764 73.2013 311.924 73.7348L314.708 83.3395C317.283 82.593 319.643 81.5671 321.616 80.145L315.768 72.0332ZM311.924 73.7348C310.199 74.2346 308.334 74.4971 306.308 74.4971V84.4971C309.209 84.4971 312.016 84.1197 314.708 83.3395L311.924 73.7348ZM306.596 77.9691C308.145 77.9691 309.945 77.7311 311.597 76.8222L306.778 68.06C306.98 67.9489 307.098 67.9303 307.062 67.9377C307.046 67.941 307 67.9491 306.921 67.9563C306.841 67.9635 306.734 67.9691 306.596 67.9691V77.9691ZM314.188 72.4411V64.7131H304.188V72.4411H314.188ZM314.188 64.7131C314.188 62.789 313.653 60.4534 311.74 58.675C309.895 56.9606 307.599 56.5451 305.78 56.5451V66.5451C306.232 66.5451 305.64 66.6577 304.931 65.9993C304.154 65.2768 304.188 64.5253 304.188 64.7131H314.188ZM305.78 56.5451C302.98 56.5451 300.264 57.6705 298.491 60.2485L306.732 65.9138C306.623 66.0723 306.411 66.2837 306.113 66.4282C305.838 66.5613 305.682 66.5451 305.78 66.5451V56.5451ZM298.472 60.2769C297.042 62.3879 296.604 64.8552 296.604 67.1611H306.604C306.604 66.0111 306.837 65.7584 306.751 65.8854L298.472 60.2769ZM296.604 67.1611C296.604 69.6829 297.067 72.7432 299.188 75.0274L306.516 68.2229C306.766 68.4923 306.78 68.665 306.731 68.4909C306.679 68.3066 306.604 67.8923 306.604 67.1611H296.604ZM299.188 75.0274C301.27 77.2696 304.062 77.9691 306.596 77.9691V67.9691C306.199 67.9691 306.065 67.9142 306.101 67.9272C306.123 67.9352 306.184 67.9601 306.267 68.0135C306.351 68.068 306.437 68.1388 306.516 68.2229L299.188 75.0274ZM320.426 83.9131L317.259 87.7829L317.277 87.7972L317.294 87.8112L320.426 83.9131ZM320.234 82.2331L324.552 84.7525L324.571 84.7201L324.59 84.6873L320.234 82.2331ZM322.154 78.8251L326.51 81.2793L326.533 81.2377L326.556 81.1956L322.154 78.8251ZM323.882 78.5371L326.417 74.2275L326.27 74.1411L326.118 74.065L323.882 78.5371ZM325.274 79.2571L323.35 83.8725L323.414 83.8991L323.479 83.9239L325.274 79.2571ZM328.394 78.9211L325.015 75.2354L324.935 75.3088L324.858 75.3856L328.394 78.9211ZM329.354 77.2411L334.097 78.8223L334.732 76.9175L333.873 75.1026L329.354 77.2411ZM320.042 57.5611L324.561 55.4226L324.538 55.3736L324.514 55.3251L320.042 57.5611ZM320.042 55.9771L316.841 52.136L316.666 52.2812L316.506 52.4416L320.042 55.9771ZM329.594 56.9371L324.889 58.6307L324.902 58.6663L324.915 58.7017L329.594 56.9371ZM333.722 67.8811L329.043 69.6457L333.722 82.0486L338.4 69.6457L333.722 67.8811ZM337.85 56.9371L333.183 55.1422L333.177 55.1574L333.171 55.1725L337.85 56.9371ZM338.474 56.0251L335.474 52.0251L335.474 52.0251L338.474 56.0251ZM347.354 57.5611L351.877 59.6912L351.925 59.5888L351.969 59.4842L347.354 57.5611ZM338.426 76.5211L342.945 78.6589L342.949 78.6512L338.426 76.5211ZM335.306 82.1371L331.205 79.2762L331.205 79.2762L335.306 82.1371ZM331.946 85.2091L329.621 80.7821L329.555 80.8172L329.489 80.8542L331.946 85.2091ZM327.386 81.2651C325.747 81.2651 324.553 80.8156 323.557 80.015L317.294 87.8112C320.202 90.1467 323.649 91.2651 327.386 91.2651V81.2651ZM323.592 80.0433C323.668 80.1061 323.945 80.3406 324.227 80.7769C324.525 81.2364 324.898 82.035 324.898 83.0971H314.898C314.898 85.6871 316.601 87.2445 317.259 87.7829L323.592 80.0433ZM324.898 83.0971C324.898 83.5216 324.838 83.858 324.788 84.0713C324.737 84.2904 324.679 84.4538 324.642 84.5494C324.571 84.73 324.52 84.8073 324.552 84.7525L315.915 79.7138C315.723 80.043 315.504 80.4563 315.322 80.9249C315.161 81.3377 314.898 82.1189 314.898 83.0971H324.898ZM324.59 84.6873L326.51 81.2793L317.797 76.3709L315.877 79.7789L324.59 84.6873ZM326.556 81.1956C326.451 81.3896 326.161 81.8712 325.563 82.3289C324.892 82.842 323.987 83.2011 322.97 83.2011V73.2011C320.009 73.2011 318.387 75.2745 317.751 76.4546L326.556 81.1956ZM322.97 83.2011C322.472 83.2011 322.101 83.1207 321.943 83.0825C321.76 83.0383 321.635 82.9939 321.589 82.9768C321.501 82.9446 321.508 82.9405 321.645 83.0093L326.118 74.065C325.807 73.9098 325.438 73.7377 325.046 73.5934C324.789 73.4986 323.979 73.2011 322.97 73.2011V83.2011ZM321.346 82.8468C321.998 83.2299 322.678 83.5922 323.35 83.8725L327.197 74.6417C327.101 74.602 326.853 74.4843 326.417 74.2275L321.346 82.8468ZM323.479 83.9239C324.608 84.3581 325.743 84.4971 326.762 84.4971V74.4971C326.702 74.4971 326.704 74.4928 326.754 74.5009C326.805 74.5091 326.916 74.5318 327.068 74.5904L323.479 83.9239ZM326.762 84.4971C328.382 84.4971 330.353 84.0332 331.929 82.4567L324.858 75.3856C325.227 75.017 325.646 74.7748 326.033 74.6382C326.399 74.5092 326.667 74.4971 326.762 74.4971V84.4971ZM331.772 82.6069C333.037 81.4478 333.708 79.99 334.097 78.8223L324.61 75.66C324.561 75.8069 324.542 75.8238 324.58 75.7564C324.618 75.6898 324.747 75.4805 325.015 75.2354L331.772 82.6069ZM333.873 75.1026L324.561 55.4226L315.522 59.6997L324.834 79.3797L333.873 75.1026ZM324.514 55.3251C324.618 55.5347 324.802 55.9957 324.802 56.6491H314.802C314.802 57.8786 315.145 58.9476 315.569 59.7972L324.514 55.3251ZM324.802 56.6491C324.802 57.3074 324.593 58.4968 323.577 59.5127L316.506 52.4416C315.17 53.7774 314.802 55.4148 314.802 56.6491H324.802ZM323.242 59.8182C322.309 60.5965 321.325 60.7371 320.81 60.7371V50.7371C319.655 50.7371 318.159 51.0378 316.841 52.136L323.242 59.8182ZM320.81 60.7371H327.866V50.7371H320.81V60.7371ZM327.866 60.7371C327.517 60.7371 326.82 60.6484 326.094 60.144C325.361 59.635 325.021 58.9965 324.889 58.6307L334.298 55.2435C333.878 54.0778 333.106 52.8392 331.798 51.9303C330.495 51.0258 329.078 50.7371 327.866 50.7371V60.7371ZM324.915 58.7017L329.043 69.6457L338.4 66.1165L334.272 55.1725L324.915 58.7017ZM338.4 69.6457L342.528 58.7017L333.171 55.1725L329.043 66.1165L338.4 69.6457ZM342.516 58.732C342.466 58.8626 342.21 59.4731 341.474 60.0251L335.474 52.0251C334.226 52.9612 333.553 54.1796 333.183 55.1422L342.516 58.732ZM341.474 60.0251C340.527 60.7347 339.665 60.7371 339.578 60.7371V50.7371C338.53 50.7371 336.932 50.9316 335.474 52.0251L341.474 60.0251ZM339.578 60.7371H346.634V50.7371H339.578V60.7371ZM346.634 60.7371C346.245 60.7371 345.025 60.6494 343.91 59.5901C342.747 58.4853 342.594 57.1832 342.594 56.6491H352.594C352.594 55.5071 352.28 53.749 350.797 52.3401C349.362 50.9769 347.662 50.7371 346.634 50.7371V60.7371ZM342.594 56.6491C342.594 56.198 342.669 55.883 342.698 55.7727C342.732 55.6454 342.756 55.5944 342.738 55.6381L351.969 59.4842C352.203 58.9231 352.594 57.8794 352.594 56.6491H342.594ZM342.83 55.431L333.902 74.391L342.949 78.6512L351.877 59.6912L342.83 55.431ZM333.906 74.3833C332.847 76.6223 331.943 78.2189 331.205 79.2762L339.406 84.998C340.589 83.3033 341.764 81.1559 342.945 78.6589L333.906 74.3833ZM331.205 79.2762C330.629 80.1012 330.086 80.538 329.621 80.7821L334.27 89.6361C336.365 88.5363 338.062 86.9251 339.406 84.998L331.205 79.2762ZM329.489 80.8542C329.156 81.0419 328.53 81.2651 327.386 81.2651V91.2651C329.826 91.2651 332.239 90.7844 334.402 89.564L329.489 80.8542ZM366.53 52.4251L362.9 55.8639L362.946 55.9129L362.994 55.9607L366.53 52.4251ZM366.53 47.0491L370.065 50.5847L370.113 50.5369L370.159 50.4879L366.53 47.0491ZM375.026 47.0491L371.396 50.4879L371.442 50.5369L371.49 50.5847L375.026 47.0491ZM375.026 52.4251L378.561 55.9607L378.609 55.9129L378.655 55.8639L375.026 52.4251ZM366.482 56.3611L370.017 59.8967L370.088 59.826L370.156 59.7525L366.482 56.3611ZM375.026 56.3611L371.352 59.7525L371.487 59.8995L371.634 60.0351L375.026 56.3611ZM375.026 78.2011L371.634 74.5271L371.561 74.5949L371.49 74.6656L375.026 78.2011ZM369.026 48.2891C368.912 48.2891 369.004 48.273 369.221 48.3482C369.461 48.4314 369.776 48.6001 370.065 48.8896L362.994 55.9607C364.789 57.7558 367.071 58.2891 369.026 58.2891V48.2891ZM370.159 48.9864C370.254 49.086 370.397 49.2723 370.509 49.548C370.624 49.8277 370.666 50.098 370.666 50.3131H360.666C360.666 52.4572 361.49 54.3752 362.9 55.8639L370.159 48.9864ZM370.666 50.3131V49.1611H360.666V50.3131H370.666ZM370.666 49.1611C370.666 49.3332 370.633 49.5992 370.509 49.9023C370.384 50.2075 370.213 50.4369 370.065 50.5847L362.994 43.5136C361.458 45.0495 360.666 47.0348 360.666 49.1611H370.666ZM370.159 50.4879C369.885 50.7778 369.569 50.9637 369.302 51.0615C369.058 51.1503 368.938 51.1371 369.026 51.1371V41.1371C366.996 41.1371 364.681 41.7305 362.9 43.6104L370.159 50.4879ZM369.026 51.1371H372.482V41.1371H369.026V51.1371ZM372.482 51.1371C372.601 51.1371 372.501 51.1546 372.27 51.0718C372.013 50.9797 371.687 50.7954 371.396 50.4879L378.655 43.6104C376.848 41.7028 374.493 41.1371 372.482 41.1371V51.1371ZM371.49 50.5847C371.342 50.4369 371.171 50.2075 371.046 49.9023C370.922 49.5992 370.89 49.3332 370.89 49.1611H380.89C380.89 47.0348 380.097 45.0495 378.561 43.5136L371.49 50.5847ZM370.89 49.1611V50.3131H380.89V49.1611H370.89ZM370.89 50.3131C370.89 50.098 370.931 49.8277 371.046 49.548C371.159 49.2723 371.301 49.086 371.396 48.9864L378.655 55.8639C380.066 54.3752 380.89 52.4572 380.89 50.3131H370.89ZM371.49 48.8896C371.796 48.5833 372.121 48.4164 372.35 48.3387C372.555 48.2691 372.626 48.2891 372.482 48.2891V58.2891C374.42 58.2891 376.741 57.781 378.561 55.9607L371.49 48.8896ZM372.482 48.2891H369.026V58.2891H372.482V48.2891ZM368.45 73.7771C368.303 73.7771 368.408 73.7589 368.666 73.8344C368.939 73.9143 369.482 74.1302 370.017 74.6656L362.946 81.7367C364.746 83.5365 367.074 83.7771 368.45 83.7771V73.7771ZM370.017 74.6656C370.967 75.6153 370.906 76.5744 370.906 76.3771H360.906C360.906 77.8439 361.228 80.0189 362.946 81.7367L370.017 74.6656ZM370.906 76.3771V58.1851H360.906V76.3771H370.906ZM370.906 58.1851C370.906 57.9879 370.967 58.9469 370.017 59.8967L362.946 52.8256C361.228 54.5433 360.906 56.7184 360.906 58.1851H370.906ZM370.156 59.7525C369.644 60.3072 369.095 60.5571 368.773 60.6593C368.475 60.7536 368.332 60.7371 368.45 60.7371V50.7371C366.986 50.7371 364.596 51.0325 362.808 52.9697L370.156 59.7525ZM368.45 60.7371H373.058V50.7371H368.45V60.7371ZM373.058 60.7371C373.175 60.7371 373.032 60.7536 372.734 60.6593C372.412 60.5571 371.864 60.3072 371.352 59.7525L378.7 52.9697C376.911 51.0325 374.521 50.7371 373.058 50.7371V60.7371ZM371.634 60.0351C371.154 59.5915 370.891 59.0979 370.763 58.7236C370.702 58.5463 370.675 58.4057 370.662 58.3179C370.655 58.2734 370.652 58.2396 370.651 58.2179C370.65 58.207 370.65 58.1988 370.65 58.1934C370.65 58.188 370.65 58.1852 370.65 58.1851H380.65C380.65 56.6188 380.26 54.3883 378.417 52.6871L371.634 60.0351ZM370.65 58.1851V76.3771H380.65V58.1851H370.65ZM370.65 76.3771C370.65 76.3771 370.65 76.3743 370.65 76.3689C370.65 76.3635 370.65 76.3553 370.651 76.3443C370.652 76.3227 370.655 76.2889 370.662 76.2443C370.675 76.1565 370.702 76.016 370.763 75.8387C370.891 75.4643 371.154 74.9707 371.634 74.5271L378.417 81.8751C380.26 80.1739 380.65 77.9435 380.65 76.3771H370.65ZM371.49 74.6656C372.025 74.1302 372.568 73.9143 372.841 73.8344C373.099 73.7589 373.204 73.7771 373.058 73.7771V83.7771C374.433 83.7771 376.761 83.5365 378.561 81.7367L371.49 74.6656ZM373.058 73.7771H368.45V83.7771H373.058V73.7771ZM379.961 77.0011L377.291 81.2286L377.395 81.2938L377.501 81.3539L379.961 77.0011ZM379.289 75.2731L374.927 72.8301L374.87 72.9323L374.817 73.0371L379.289 75.2731ZM381.305 71.6731L385.668 74.1161L385.725 74.014L385.777 73.9092L381.305 71.6731ZM382.841 71.3851L380.447 75.7746L380.464 75.7836L380.48 75.7925L382.841 71.3851ZM386.249 72.7291L384.802 77.5152L384.868 77.535L384.934 77.5529L386.249 72.7291ZM392.201 73.0171L394.171 77.6129L394.306 77.555L394.437 77.4893L392.201 73.0171ZM391.913 70.8571L389.585 75.2817L389.721 75.3535L389.861 75.4167L391.913 70.8571ZM388.553 69.6571L389.964 64.8603L389.917 64.8463L389.869 64.8333L388.553 69.6571ZM387.497 69.3691L386.055 74.1567L386.118 74.1756L386.182 74.1929L387.497 69.3691ZM382.985 56.8891L380.354 52.6378L380.354 52.6378L382.985 56.8891ZM396.617 55.5931L395.428 60.4496L395.428 60.4496L396.617 55.5931ZM401.129 57.3211L403.558 52.9503L403.52 52.9295L403.482 52.9094L401.129 57.3211ZM401.705 59.2411L405.934 61.9086L406.019 61.7746L406.095 61.6354L401.705 59.2411ZM399.737 62.3611L403.956 65.0455L403.961 65.0371L403.966 65.0286L399.737 62.3611ZM398.297 62.6011L400.87 58.3137L400.775 58.2571L400.679 58.2047L398.297 62.6011ZM395.609 61.5931L394.397 66.4438L394.397 66.4438L395.609 61.5931ZM390.377 63.8011L388.308 68.353L388.43 68.4085L388.555 68.4573L390.377 63.8011ZM393.737 64.7611L395.053 59.9373L394.965 59.9134L394.877 59.8927L393.737 64.7611ZM395.177 65.1451L393.905 69.9805L393.935 69.9884L393.965 69.9958L395.177 65.1451ZM396.761 65.6251L394.966 70.2919L395.029 70.3159L395.092 70.3383L396.761 65.6251ZM400.313 67.3051L397.467 71.4161L397.522 71.4538L397.577 71.49L400.313 67.3051ZM402.089 69.2731L397.544 71.3564L397.561 71.3935L397.579 71.4304L402.089 69.2731ZM401.369 75.8491L405.341 78.8864L405.362 78.8587L405.383 78.8307L401.369 75.8491ZM397.529 78.4891L399.342 83.1492L399.342 83.1492L397.529 78.4891ZM391.145 74.4971C387.217 74.4971 384.405 73.7695 382.422 72.6483L377.501 81.3539C381.405 83.5607 386.049 84.4971 391.145 84.4971V74.4971ZM382.631 72.7737C382.515 72.7 382.708 72.8005 382.985 73.1066C383.209 73.3545 384.049 74.3544 384.049 75.9931H374.049C374.049 77.9199 375.041 79.2318 375.57 79.8157C376.151 80.4577 376.8 80.9183 377.291 81.2286L382.631 72.7737ZM384.049 75.9931C384.049 76.3577 384.005 76.6492 383.967 76.8387C383.928 77.0334 383.883 77.1822 383.853 77.2743C383.794 77.4494 383.748 77.5367 383.761 77.5092L374.817 73.0371C374.638 73.3963 374.049 74.559 374.049 75.9931H384.049ZM383.652 77.7161L385.668 74.1161L376.943 69.2301L374.927 72.8301L383.652 77.7161ZM385.777 73.9092C385.67 74.1241 385.375 74.6474 384.753 75.1455C384.05 75.7076 383.096 76.0971 382.025 76.0971V66.0971C378.989 66.0971 377.407 68.2896 376.833 69.4371L385.777 73.9092ZM382.025 76.0971C381.345 76.0971 380.867 75.9396 380.709 75.8841C380.518 75.8165 380.422 75.7611 380.447 75.7746L385.236 66.9957C384.785 66.7498 383.561 66.0971 382.025 66.0971V76.0971ZM380.48 75.7925C381.76 76.478 383.229 77.0394 384.802 77.5152L387.696 67.9431C386.518 67.5868 385.715 67.2523 385.202 66.9777L380.48 75.7925ZM384.934 77.5529C386.635 78.0168 388.339 78.3051 389.993 78.3051V68.3051C389.471 68.3051 388.68 68.2094 387.565 67.9053L384.934 77.5529ZM389.993 78.3051C391.112 78.3051 392.726 78.2319 394.171 77.6129L390.232 68.4214C390.428 68.3371 390.572 68.2989 390.63 68.2848C390.691 68.2698 390.708 68.2698 390.667 68.2751C390.627 68.2803 390.552 68.2882 390.435 68.2946C390.319 68.3009 390.173 68.3051 389.993 68.3051V78.3051ZM394.437 77.4893C395.309 77.0536 396.236 76.3506 396.924 75.2695C397.619 74.1761 397.873 73.0057 397.873 71.9611H387.873C387.873 71.3966 388.015 70.6422 388.487 69.9008C388.951 69.1717 389.542 68.7567 389.965 68.545L394.437 77.4893ZM397.873 71.9611C397.873 68.547 395.264 66.8821 393.965 66.2975L389.861 75.4167C389.79 75.3845 389.336 75.1768 388.86 74.63C388.305 73.9911 387.873 73.0534 387.873 71.9611H397.873ZM394.242 66.4325C393.144 65.8546 391.585 65.3369 389.964 64.8603L387.142 74.454C387.903 74.6775 388.494 74.8681 388.936 75.0258C389.409 75.1948 389.586 75.2827 389.585 75.2817L394.242 66.4325ZM389.869 64.8333L388.813 64.5453L386.182 74.1929L387.238 74.4809L389.869 64.8333ZM388.939 64.5816C386.516 63.8516 385.397 63.1874 385.008 62.8513L378.467 70.4149C380.446 72.1268 383.167 73.2867 386.055 74.1567L388.939 64.5816ZM385.008 62.8513C385.002 62.8464 385.012 62.8541 385.025 62.873C385.039 62.8918 385.042 62.9013 385.037 62.8899C385.028 62.8673 384.961 62.6904 384.961 62.2651H374.961C374.961 65.2776 375.959 68.2461 378.467 70.4149L385.008 62.8513ZM384.961 62.2651C384.961 61.8371 385.047 61.6709 385.075 61.6204C385.105 61.5666 385.216 61.3886 385.617 61.1405L380.354 52.6378C376.892 54.7805 374.961 58.166 374.961 62.2651H384.961ZM385.617 61.1405C386.572 60.5492 388.255 60.0171 391.097 60.0171V50.0171C387.155 50.0171 383.43 50.733 380.354 52.6378L385.617 61.1405ZM391.097 60.0171C392.924 60.0171 394.347 60.185 395.428 60.4496L397.807 50.7366C395.751 50.2333 393.495 50.0171 391.097 50.0171V60.0171ZM395.428 60.4496C396.587 60.7334 397.7 61.1589 398.776 61.7329L403.482 52.9094C401.678 51.9474 399.784 51.2209 397.807 50.7366L395.428 60.4496ZM398.701 61.6919C398.664 61.6711 398.3 61.4715 397.908 60.9913C397.461 60.446 396.993 59.5435 396.993 58.3771H406.993C406.993 55.147 404.549 53.501 403.558 52.9503L398.701 61.6919ZM396.993 58.3771C396.993 57.7989 397.112 57.3772 397.178 57.18C397.248 56.9703 397.312 56.8536 397.316 56.8469L406.095 61.6354C406.417 61.0454 406.993 59.8631 406.993 58.3771H396.993ZM397.476 56.5736L395.508 59.6936L403.966 65.0286L405.934 61.9086L397.476 56.5736ZM395.519 59.6767C395.582 59.577 395.825 59.2082 396.312 58.8255C396.838 58.4123 397.783 57.8891 399.065 57.8891V67.8891C402.054 67.8891 403.58 65.6359 403.956 65.0455L395.519 59.6767ZM399.065 57.8891C399.765 57.8891 400.27 58.055 400.485 58.1355C400.722 58.2243 400.857 58.3059 400.87 58.3137L395.725 66.8886C396.213 67.1817 397.453 67.8891 399.065 67.8891V57.8891ZM400.679 58.2047C399.475 57.5524 398.172 57.0798 396.822 56.7424L394.397 66.4438C395.095 66.6184 395.584 66.8178 395.916 66.9976L400.679 58.2047ZM396.822 56.7424C395.44 56.397 394.04 56.2091 392.633 56.2091V66.2091C393.146 66.2091 393.73 66.2773 394.397 66.4438L396.822 56.7424ZM392.633 56.2091C391.321 56.2091 389.662 56.3288 388.156 56.9838C387.347 57.3354 386.356 57.9387 385.56 58.977C384.713 60.0827 384.321 61.3776 384.321 62.6491H394.321C394.321 63.4407 394.068 64.3156 393.496 65.0613C392.976 65.7396 392.4 66.0428 392.143 66.1545C391.888 66.2654 391.77 66.2665 391.901 66.2474C392.017 66.2307 392.25 66.2091 392.633 66.2091V56.2091ZM384.321 62.6491C384.321 66.221 387.201 67.8496 388.308 68.353L392.446 59.2493C392.464 59.2575 392.555 59.2995 392.689 59.3889C392.821 59.4773 393.036 59.6382 393.271 59.8945C393.794 60.4645 394.321 61.4207 394.321 62.6491H384.321ZM388.555 68.4573C389.634 68.8795 391.037 69.2641 392.598 69.6296L394.877 59.8927C393.43 59.5541 392.592 59.2987 392.199 59.1449L388.555 68.4573ZM392.422 69.5849C392.795 69.6867 393.291 69.819 393.905 69.9805L396.45 60.3098C395.847 60.1513 395.384 60.0276 395.053 59.9373L392.422 69.5849ZM393.965 69.9958C394.491 70.1275 394.807 70.2306 394.966 70.2919L398.556 60.9584C397.883 60.6996 397.143 60.4828 396.39 60.2944L393.965 69.9958ZM395.092 70.3383C396.432 70.8127 397.151 71.1974 397.467 71.4161L403.159 63.1942C401.811 62.2609 400.163 61.5256 398.431 60.912L395.092 70.3383ZM397.577 71.49C397.677 71.5556 397.695 71.583 397.669 71.555C397.657 71.5411 397.637 71.5165 397.613 71.4808C397.589 71.4449 397.565 71.403 397.544 71.3564L406.635 67.1899C405.825 65.4231 404.529 64.0877 403.05 63.1203L397.577 71.49ZM397.579 71.4304C397.536 71.3419 397.548 71.3334 397.57 71.4495C397.592 71.5666 397.617 71.7778 397.617 72.1051H407.617C407.617 70.4938 407.379 68.7438 406.6 67.1159L397.579 71.4304ZM397.617 72.1051C397.617 72.3911 397.557 72.5967 397.356 72.8675L405.383 78.8307C406.846 76.8616 407.617 74.5712 407.617 72.1051H397.617ZM397.398 72.8119C397.287 72.9568 396.882 73.376 395.717 73.8291L399.342 83.1492C401.632 82.2583 403.788 80.9175 405.341 78.8864L397.398 72.8119ZM395.717 73.8291C394.735 74.211 393.264 74.4971 391.145 74.4971V84.4971C394.083 84.4971 396.867 84.1113 399.342 83.1492L395.717 73.8291ZM421.394 78.0091L417.645 81.3172L417.695 81.3738L417.747 81.4288L421.394 78.0091ZM421.346 73.1131L417.597 69.805L417.59 69.8128L417.583 69.8206L421.346 73.1131ZM426.194 73.1131L422.445 76.4212L422.495 76.4778L422.547 76.5328L426.194 73.1131ZM426.194 78.0091L429.842 81.4288L429.894 81.3738L429.943 81.3172L426.194 78.0091ZM423.218 73.7771C423.44 73.7771 423.773 73.818 424.151 73.977C424.533 74.1382 424.834 74.3672 425.042 74.5894L417.747 81.4288C419.222 83.003 421.176 83.7771 423.218 83.7771V73.7771ZM425.143 74.701C425.281 74.8572 425.429 75.0813 425.536 75.3655C425.642 75.6486 425.674 75.9038 425.674 76.0891H415.674C415.674 78.0239 416.346 79.8453 417.645 81.3172L425.143 74.701ZM425.674 76.0891V75.0331H415.674V76.0891H425.674ZM425.674 75.0331C425.674 75.1379 425.658 75.3526 425.562 75.6289C425.462 75.9139 425.304 76.1825 425.109 76.4057L417.583 69.8206C416.234 71.3622 415.674 73.2209 415.674 75.0331H425.674ZM425.095 76.4212C424.884 76.6605 424.574 76.9096 424.172 77.0846C423.778 77.2565 423.434 77.2971 423.218 77.2971V67.2971C421.111 67.2971 419.088 68.1159 417.597 69.805L425.095 76.4212ZM423.218 77.2971H424.37V67.2971H423.218V77.2971ZM424.37 77.2971C424.109 77.2971 423.739 77.2455 423.336 77.0652C422.932 76.8841 422.635 76.6367 422.445 76.4212L429.943 69.805C428.499 68.1676 426.517 67.2971 424.37 67.2971V77.2971ZM422.547 76.5328C422.348 76.3209 422.17 76.0469 422.053 75.7327C421.938 75.4264 421.914 75.1751 421.914 75.0331H431.914C431.914 73.1253 431.276 71.2232 429.842 69.6934L422.547 76.5328ZM421.914 75.0331V76.0891H431.914V75.0331H421.914ZM421.914 76.0891C421.914 75.9038 421.946 75.6486 422.053 75.3655C422.159 75.0813 422.307 74.8572 422.445 74.701L429.943 81.3172C431.242 79.8453 431.914 78.0239 431.914 76.0891H421.914ZM422.547 74.5894C422.755 74.3672 423.055 74.1382 423.438 73.977C423.816 73.818 424.149 73.7771 424.37 73.7771V83.7771C426.413 83.7771 428.366 83.003 429.842 81.4288L422.547 74.5894ZM424.37 73.7771H423.218V83.7771H424.37V73.7771ZM429.832 78.0091L426.083 81.3172L426.133 81.3738L426.184 81.4288L429.832 78.0091ZM429.784 73.1131L426.035 69.805L426.028 69.8128L426.021 69.8206L429.784 73.1131ZM434.632 73.1131L430.883 76.4212L430.933 76.4778L430.984 76.5328L434.632 73.1131ZM434.632 78.0091L438.279 81.4288L438.331 81.3738L438.381 81.3172L434.632 78.0091ZM431.656 73.7771C431.877 73.7771 432.211 73.818 432.588 73.977C432.971 74.1382 433.271 74.3672 433.479 74.5894L426.184 81.4288C427.66 83.003 429.613 83.7771 431.656 83.7771V73.7771ZM433.581 74.701C433.719 74.8572 433.867 75.0813 433.973 75.3655C434.08 75.6486 434.112 75.9038 434.112 76.0891H424.112C424.112 78.0239 424.784 79.8453 426.083 81.3172L433.581 74.701ZM434.112 76.0891V75.0331H424.112V76.0891H434.112ZM434.112 75.0331C434.112 75.1379 434.096 75.3526 433.999 75.6289C433.899 75.9139 433.742 76.1825 433.547 76.4057L426.021 69.8206C424.672 71.3622 424.112 73.2209 424.112 75.0331H434.112ZM433.533 76.4212C433.322 76.6605 433.011 76.9096 432.61 77.0846C432.215 77.2565 431.871 77.2971 431.656 77.2971V67.2971C429.548 67.2971 427.525 68.1159 426.035 69.805L433.533 76.4212ZM431.656 77.2971H432.808V67.2971H431.656V77.2971ZM432.808 77.2971C432.546 77.2971 432.177 77.2455 431.774 77.0652C431.369 76.8841 431.073 76.6367 430.883 76.4212L438.381 69.805C436.936 68.1676 434.955 67.2971 432.808 67.2971V77.2971ZM430.984 76.5328C430.785 76.3209 430.608 76.0469 430.49 75.7327C430.375 75.4264 430.352 75.1751 430.352 75.0331H440.352C440.352 73.1253 439.714 71.2232 438.279 69.6934L430.984 76.5328ZM430.352 75.0331V76.0891H440.352V75.0331H430.352ZM430.352 76.0891C430.352 75.9038 430.384 75.6486 430.49 75.3655C430.597 75.0813 430.745 74.8572 430.883 74.701L438.381 81.3172C439.68 79.8453 440.352 78.0239 440.352 76.0891H430.352ZM430.984 74.5894C431.192 74.3672 431.493 74.1382 431.876 73.977C432.253 73.818 432.587 73.7771 432.808 73.7771V83.7771C434.85 83.7771 436.804 83.003 438.279 81.4288L430.984 74.5894ZM432.808 73.7771H431.656V83.7771H432.808V73.7771ZM438.269 78.0091L434.52 81.3172L434.57 81.3738L434.622 81.4288L438.269 78.0091ZM438.221 73.1131L434.472 69.805L434.465 69.8128L434.458 69.8206L438.221 73.1131ZM443.069 73.1131L439.32 76.4212L439.37 76.4778L439.422 76.5328L443.069 73.1131ZM443.069 78.0091L446.717 81.4288L446.769 81.3738L446.818 81.3172L443.069 78.0091ZM440.093 73.7771C440.315 73.7771 440.648 73.818 441.026 73.977C441.408 74.1382 441.709 74.3672 441.917 74.5894L434.622 81.4288C436.097 83.003 438.051 83.7771 440.093 83.7771V73.7771ZM442.018 74.701C442.156 74.8572 442.304 75.0813 442.411 75.3655C442.517 75.6486 442.549 75.9038 442.549 76.0891H432.549C432.549 78.0239 433.221 79.8453 434.52 81.3172L442.018 74.701ZM442.549 76.0891V75.0331H432.549V76.0891H442.549ZM442.549 75.0331C442.549 75.1379 442.533 75.3526 442.437 75.6289C442.337 75.9139 442.179 76.1825 441.984 76.4057L434.458 69.8206C433.109 71.3622 432.549 73.2209 432.549 75.0331H442.549ZM441.97 76.4212C441.759 76.6605 441.449 76.9096 441.047 77.0846C440.653 77.2565 440.309 77.2971 440.093 77.2971V67.2971C437.986 67.2971 435.963 68.1159 434.472 69.805L441.97 76.4212ZM440.093 77.2971H441.245V67.2971H440.093V77.2971ZM441.245 77.2971C440.984 77.2971 440.614 77.2455 440.211 77.0652C439.807 76.8841 439.51 76.6367 439.32 76.4212L446.818 69.805C445.374 68.1676 443.392 67.2971 441.245 67.2971V77.2971ZM439.422 76.5328C439.223 76.3209 439.045 76.0469 438.928 75.7327C438.813 75.4264 438.789 75.1751 438.789 75.0331H448.789C448.789 73.1253 448.151 71.2232 446.717 69.6934L439.422 76.5328ZM438.789 75.0331V76.0891H448.789V75.0331H438.789ZM438.789 76.0891C438.789 75.9038 438.821 75.6486 438.928 75.3655C439.034 75.0813 439.182 74.8572 439.32 74.701L446.818 81.3172C448.117 79.8453 448.789 78.0239 448.789 76.0891H438.789ZM439.422 74.5894C439.63 74.3672 439.93 74.1382 440.313 73.977C440.691 73.818 441.024 73.7771 441.245 73.7771V83.7771C443.288 83.7771 445.241 83.003 446.717 81.4288L439.422 74.5894ZM441.245 73.7771H440.093V83.7771H441.245V73.7771Z" fill="white" mask="url(#path-1-outside-1_2_7)"/>
</g>
<defs>
<filter id="filter0_d_2_7" x="73.2212" y="46.1371" width="374.568" height="48.128" filterUnits="userSpaceOnUse" color-interpolation-filters="sRGB">
<feFlood flood-opacity="0" result="BackgroundImageFix"/>
<feColorMatrix in="SourceAlpha" type="matrix" values="0 0 0 0 0 0 0 0 0 0 0 0 0 0 0 0 0 0 127 0" result="hardAlpha"/>
<feOffset dy="4"/>
<feGaussianBlur stdDeviation="2"/>
<feComposite in2="hardAlpha" operator="out"/>
<feColorMatrix type="matrix" values="0 0 0 0 0 0 0 0 0 0 0 0 0 0 0 0 0 0 0.25 0"/>
<feBlend mode="normal" in2="BackgroundImageFix" result="effect1_dropShadow_2_7"/>
<feBlend mode="normal" in="SourceGraphic" in2="effect1_dropShadow_2_7" result="shape"/>
</filter>
</defs>
</svg>
